<svg width="86" height="87" viewBox="0 0 86 87" fill="none" xmlns="http://www.w3.org/2000/svg">
<path d="M86 43.3121C86 56.848 79.7482 68.9183 69.9781 76.7926C68.602 77.9031 67.1587 78.9271 65.6522 79.8621C63.296 81.3317 60.7834 82.5731 58.1509 83.5639C53.44 85.3398 48.3321 86.312 43.0001 86.312C37.5673 86.312 32.3698 85.3062 27.5835 83.4633C25.0335 82.4837 22.5994 81.2683 20.3073 79.8397C18.688 78.8339 17.1403 77.72 15.6743 76.5118C6.10228 68.6301 0 56.6835 0 43.3121C0 19.5648 19.2528 0.312012 43.0001 0.312012C66.7474 0.312012 86 19.5648 86 43.3121Z" fill="#F1EFFB"/>
<path d="M65.0178 26.5529H20.9823C19.4266 26.5529 18.1655 27.8139 18.1655 29.3696V59.7163H67.8343V29.3696C67.8346 27.8139 66.5735 26.5529 65.0178 26.5529Z" fill="#896FD9"/>
<path d="M64.4857 28.415H21.5143C20.7363 28.415 20.106 29.0457 20.106 29.8234V58.9873H65.8941V29.8234C65.8941 29.0454 65.2634 28.415 64.4857 28.415Z" fill="white"/>
<path d="M20.466 37.3917C17.3546 37.3917 14.8325 34.8696 14.8325 31.7582V28.2454H26.0996V31.7582C26.0996 34.8696 23.5774 37.3917 20.466 37.3917Z" fill="#CFC7F1"/>
<path d="M31.7331 37.3917C28.6217 37.3917 26.0996 34.8696 26.0996 31.7582V28.2454H37.3667V31.7582C37.3667 34.8696 34.8445 37.3917 31.7331 37.3917Z" fill="#F1F1F1"/>
<path d="M43.0002 37.3917C39.8888 37.3917 37.3667 34.8696 37.3667 31.7582V28.2454H48.6337V31.7582C48.6337 34.8696 46.1116 37.3917 43.0002 37.3917Z" fill="#CFC7F1"/>
<path d="M54.2673 37.3917C51.1559 37.3917 48.6338 34.8696 48.6338 31.7582V28.2454H59.9008V31.7582C59.9008 34.8696 57.3787 37.3917 54.2673 37.3917Z" fill="#F1F1F1"/>
<path d="M65.5344 37.3917C62.423 37.3917 59.9009 34.8696 59.9009 31.7582V28.2454H71.1679V31.7582C71.1679 34.8696 68.6455 37.3917 65.5344 37.3917Z" fill="#CFC7F1"/>
<path d="M66.3474 20.1354H19.6528C18.4535 20.1354 17.3856 20.8951 16.9918 22.028L14.8325 28.2457H71.1677L69.0084 22.0282C68.6149 20.8951 67.5471 20.1354 66.3474 20.1354Z" fill="#CFC7F1"/>
<path d="M57.084 20.1354H28.9164L26.0996 28.2457H59.9007L57.084 20.1354Z" fill="white"/>
<path d="M46.662 20.1354H39.3384L37.3667 28.2457H48.6337L46.662 20.1354Z" fill="#CFC7F1"/>
<path d="M50.8338 49.0625H35.167L43.0004 40.8558L50.8338 49.0625ZM37.6911 47.9825H48.31L43.0004 42.42L37.6911 47.9825Z" fill="#896FD9"/>
<path d="M51.0865 55.728H34.9143C34.5166 55.728 34.1943 55.4055 34.1943 55.0081V48.0149C34.1943 47.6172 34.5169 47.2949 34.9143 47.2949H51.0865C51.4842 47.2949 51.8064 47.6174 51.8064 48.0149V55.0081C51.8064 55.4055 51.4842 55.728 51.0865 55.728Z" fill="#CFC7F1"/>
<path d="M44.6398 41.638C44.6398 42.5434 43.9058 43.2774 43.0005 43.2774C42.0949 43.2774 41.3608 42.5434 41.3608 41.638C41.3608 40.7325 42.0949 39.9984 43.0005 39.9984C43.9058 39.9984 44.6398 40.7325 44.6398 41.638Z" fill="#F1EFFB"/>
<path d="M30.2742 49.6708C30.4384 49.7607 30.4384 49.9967 30.2742 50.0866C29.5221 50.4978 28.9041 51.1161 28.4926 51.8682C28.4027 52.0324 28.1667 52.0324 28.0768 51.8682C27.6656 51.1161 27.0473 50.4978 26.2955 50.0866C26.1313 49.9967 26.1313 49.7607 26.2955 49.6708C27.0476 49.2596 27.6656 48.6413 28.0768 47.8895C28.1667 47.7253 28.4027 47.7253 28.4926 47.8895C28.9041 48.6413 29.5221 49.2596 30.2742 49.6708Z" fill="#6941C6"/>
<path d="M59.8496 44.0768C60.0138 44.1666 60.0138 44.4027 59.8496 44.4925C59.0975 44.9038 58.4795 45.5221 58.0683 46.2739C57.9784 46.4381 57.7424 46.4381 57.6525 46.2739C57.2413 45.5218 56.623 44.9035 55.8712 44.4925C55.707 44.4027 55.707 44.1666 55.8712 44.0768C56.6233 43.6655 57.2413 43.0473 57.6525 42.2955C57.7424 42.1312 57.9784 42.1312 58.0683 42.2955C58.4795 43.0473 59.0978 43.6653 59.8496 44.0768Z" fill="#6941C6"/>
<path d="M69.7596 66.4884H16.2414C15.4634 66.4884 14.833 65.8577 14.833 65.08V59.7428C14.833 58.9651 15.4634 58.3344 16.2414 58.3344H69.7596C70.5373 58.3344 71.168 58.9651 71.168 59.7428V65.08C71.168 65.858 70.5373 66.4884 69.7596 66.4884Z" fill="#896FD9"/>
<path d="M51.4789 62.4117H34.5217C33.744 62.4117 33.1133 61.781 33.1133 61.0033V58.3347H52.8872V61.0033C52.8872 61.781 52.2566 62.4117 51.4789 62.4117Z" fill="#AB9BE5"/>
<path d="M69.7594 58.3347H61.4229C59.7911 61.3289 57.7549 64.0702 55.3896 66.4887H69.7594C70.5371 66.4887 71.1677 65.858 71.1677 65.0803V59.7431C71.1677 58.9651 70.5371 58.3347 69.7594 58.3347Z" fill="#6941C6"/>
<path d="M31.1652 58.3347H16.2409C15.4629 58.3347 14.8325 58.9654 14.8325 59.7431V65.0803C14.8325 65.858 15.4629 66.4887 16.2409 66.4887H25.1317C27.4972 64.0699 29.5335 61.3287 31.1652 58.3347Z" fill="#AB9BE5"/>
</svg>
