<svg width="31" height="15" viewBox="0 0 31 15" fill="none" xmlns="http://www.w3.org/2000/svg">
<path fill-rule="evenodd" clip-rule="evenodd" d="M5.62727 2.61069C5.26637 3.05571 4.68893 3.40671 4.11149 3.35657C4.03931 2.75485 4.32201 2.11553 4.65284 1.72066C5.01374 1.26311 5.64531 0.937181 6.15659 0.912109C6.21674 1.53889 5.98215 2.15314 5.62727 2.61069ZM6.14981 3.47563C5.6411 3.44513 5.17692 3.63506 4.80199 3.78847C4.56071 3.88719 4.35639 3.97079 4.20095 3.97079C4.02652 3.97079 3.81376 3.88272 3.57489 3.78384C3.26189 3.65427 2.90404 3.50613 2.52878 3.51324C1.66864 3.52578 0.868646 4.03347 0.429552 4.84202C-0.472698 6.45912 0.194967 8.85343 1.06714 10.1697C1.49421 10.8215 2.00548 11.5361 2.67916 11.511C2.97554 11.4993 3.18874 11.4051 3.40937 11.3075C3.66339 11.1952 3.92727 11.0785 4.3393 11.0785C4.73704 11.0785 4.98938 11.1922 5.23161 11.3012C5.46193 11.405 5.68312 11.5046 6.01147 11.4985C6.70921 11.4859 7.1483 10.8466 7.57537 10.1948C8.03623 9.49514 8.23876 8.81236 8.2695 8.70873L8.2731 8.69674C8.27237 8.69597 8.26671 8.69327 8.25674 8.68852L8.25673 8.68851L8.25665 8.68847L8.25663 8.68846C8.10256 8.61497 6.92501 8.05322 6.91372 6.54687C6.90238 5.28251 7.84772 4.6419 7.99654 4.54106C8.00559 4.53493 8.0117 4.53079 8.01446 4.52863C7.41296 3.60099 6.47462 3.50071 6.14981 3.47563ZM10.9814 11.4295V1.65796H14.5002C16.3167 1.65796 17.5859 2.96167 17.5859 4.86709C17.5859 6.77251 16.2927 8.08876 14.4521 8.08876H12.4371V11.4295H10.9814ZM12.4338 2.93663H14.112C15.3751 2.93663 16.0969 3.63862 16.0969 4.87339C16.0969 6.10815 15.3751 6.81641 14.1059 6.81641H12.4338V2.93663ZM22.3918 10.2575C22.0068 11.0222 21.1587 11.5048 20.2445 11.5048C18.8911 11.5048 17.9467 10.6649 17.9467 9.39879C17.9467 8.14522 18.861 7.42442 20.5512 7.31787L22.3678 7.20505V6.66601C22.3678 5.87 21.8685 5.43752 20.9783 5.43752C20.2445 5.43752 19.7091 5.83239 19.6009 6.4341H18.2896C18.3317 5.168 19.4745 4.24663 21.0204 4.24663C22.6865 4.24663 23.7692 5.15547 23.7692 6.56573V11.4296H22.4219V10.2575H22.3918ZM20.6336 10.3452C19.8577 10.3452 19.3645 9.95658 19.3645 9.36114C19.3645 8.74689 19.8397 8.38963 20.7479 8.33322L22.366 8.22666V8.77823C22.366 9.69334 21.6201 10.3452 20.6336 10.3452ZM28.2378 11.8119C27.6543 13.523 26.9867 14.0871 25.5671 14.0871C25.4589 14.0871 25.0979 14.0746 25.0137 14.0495V12.8774C25.104 12.89 25.3265 12.9025 25.4408 12.9025C26.0844 12.9025 26.4453 12.6205 26.6679 11.8871L26.8002 11.4546L24.334 4.34065H25.8558L27.5701 10.1133H27.6002L29.3145 4.34065H30.7942L28.2378 11.8119Z" fill="black"/>
</svg>
