<svg width="87" height="94" viewBox="0 0 87 94" fill="none" xmlns="http://www.w3.org/2000/svg">
<path d="M86.1953 50.9589C86.1953 64.4946 79.9436 76.5649 70.1734 84.4392C68.7973 85.5497 67.354 86.5736 65.8475 87.5087C63.4913 88.9782 60.9787 90.2196 58.3462 91.2104C53.6353 92.9863 48.5274 93.9585 43.1954 93.9585C37.7626 93.9585 32.5651 92.9527 27.7788 91.1098C25.2288 90.1302 22.7947 88.9148 20.5026 87.4863C18.8834 86.4804 17.3356 85.3666 15.8696 84.1583C6.29759 76.2766 0.195312 64.3301 0.195312 50.9589C0.195312 27.2117 19.4481 7.95898 43.1954 7.95898C66.9427 7.95898 86.1953 27.2117 86.1953 50.9589Z" fill="#896FD9"/>
<path d="M52.967 65.0622C55.3735 64.4551 57.1957 62.3419 58.0225 59.994C58.8494 57.6458 58.8185 55.0829 58.5718 52.6049C58.5259 52.1431 58.4774 51.6528 58.6813 51.236C59.0051 50.574 59.8893 50.3447 60.5912 50.5628C61.2931 50.7809 61.837 51.3375 62.2869 51.9207C64.7547 55.12 65.1376 59.7972 63.2235 63.358C61.3094 66.9188 57.2041 69.166 53.1846 68.8532" fill="#F2D352"/>
<path d="M34.7404 41.7579C34.7404 41.7579 29.1023 51.5595 27.6769 55.5009C26.2516 59.4422 24.436 70.2766 24.436 70.2766C24.436 70.2766 15.9696 72.4651 21.2148 81.5984C23.1538 84.9745 22.9799 86.5418 25.1533 86.6413C26.847 86.7186 40.4785 86.6146 40.4785 86.6146L40.2335 87.9545C40.2335 87.9545 41.374 91.8278 43.6839 90.7353C45.9937 89.6427 48.7122 86.6146 48.7122 86.6146L52.6808 86.5601L62.1401 86.6146L64.906 86.5601C64.906 86.5601 65.0858 88.0251 64.8973 86.4847C64.7088 84.9444 63.6296 83.6601 62.1497 83.2093L60.1213 82.5914C60.1213 82.5914 62.7558 71.4819 60.4736 68.8257C58.1915 66.1694 54.4781 66.3437 54.4781 66.3437L56.1835 54.9146C56.5222 52.2339 56.2524 49.511 55.3948 46.9498L54.1159 43.131L34.7404 41.7579Z" fill="#F2D352"/>
<path d="M54.3296 66.7322C50.4218 68.9609 47.782 72.6979 46.4698 76.9656C46.4567 77.0086 46.3889 76.9904 46.4023 76.9471C47.4196 73.6384 49.2239 70.5746 51.8895 68.3386C52.6387 67.7101 53.4454 67.1555 54.294 66.6715C54.3335 66.6493 54.3688 66.71 54.3296 66.7322Z" fill="#263238"/>
<path d="M54.2489 43.5278C54.2489 43.5278 56.0871 48.4586 56.2414 50.9243C56.4971 55.0157 54.4783 66.3437 54.4783 66.3437C54.4783 66.3437 55.1695 77.4512 55.77 79.097C56.3702 80.7427 56.1179 82.262 58.849 82.8236C59.5873 82.9754 60.8721 85.3716 60.8721 86.56H53.2341C53.2341 86.56 51.1676 84.2166 51.0676 82.0225C50.9677 79.8284 47.3361 67.9197 47.3361 67.9197" fill="#F2D352"/>
<path d="M47.3356 67.92C47.3356 67.92 47.3412 67.9506 47.3575 68.0096C47.3754 68.0729 47.3998 68.1595 47.4317 68.2722C47.5001 68.508 47.5992 68.8492 47.7278 69.2922C47.9866 70.1903 48.3633 71.4976 48.8408 73.1554C49.3086 74.8197 49.8808 76.8371 50.4527 79.165C50.5939 79.7474 50.7342 80.3495 50.8549 80.9727C50.8832 81.1287 50.9115 81.2858 50.9401 81.444C50.967 81.6023 50.9779 81.7619 50.9978 81.9224C51.0143 82.0866 51.0308 82.2519 51.0476 82.4183C51.0768 82.5833 51.1064 82.7499 51.1465 82.9147C51.4966 84.2304 52.2456 85.4686 53.1855 86.6033L53.2037 86.6253H53.234C55.592 86.6272 58.1708 86.6292 60.8716 86.6312H60.9453L60.9422 86.5603C60.9106 85.8087 60.6173 85.1122 60.2879 84.4407C60.1171 84.1062 59.9258 83.7782 59.6984 83.4698C59.5816 83.3177 59.4606 83.1671 59.3166 83.033C59.1841 82.8964 58.9903 82.7769 58.7945 82.7362C58.0663 82.5746 57.3084 82.3022 56.8258 81.7054C56.3393 81.1104 56.2177 80.3028 55.9897 79.5425C55.9503 79.3997 55.9012 79.2592 55.8536 79.1186C55.8097 78.9786 55.7766 78.8415 55.7371 78.7032C55.6811 78.4187 55.6198 78.1351 55.5811 77.847C55.4915 77.2736 55.422 76.6996 55.3565 76.1293C55.226 74.9887 55.1229 73.8604 55.026 72.751C54.8344 70.5318 54.6792 68.3857 54.5456 66.3397L54.5448 66.3558C55.124 63.001 55.5873 59.881 55.9133 57.0831C56.076 55.6844 56.2049 54.3658 56.2662 53.1378C56.3247 51.9134 56.3413 50.7646 56.125 49.7538C55.9304 48.7436 55.6825 47.8562 55.4562 47.0861C55.2276 46.3165 55.0134 45.6655 54.8347 45.1382C54.6554 44.6108 54.5089 44.2081 54.4087 43.9368C54.3585 43.8047 54.3199 43.7032 54.2919 43.6302C54.265 43.5616 54.2482 43.5278 54.2482 43.5278C54.2482 43.5278 54.2577 43.5644 54.2812 43.6341C54.3064 43.7083 54.3417 43.8109 54.3874 43.9447C54.4809 44.2238 54.6168 44.6283 54.7927 45.1525C54.9646 45.6818 55.1722 46.3342 55.3943 47.1043C55.6142 47.8748 55.8556 48.7627 56.0435 49.769C56.2522 50.7736 56.2301 51.9095 56.1668 53.1325C56.1004 54.3569 55.9668 55.6732 55.7998 57.0696C55.4654 59.863 54.9952 62.9813 54.4112 66.3316L54.4098 66.3397L54.4103 66.3479C54.5409 68.3956 54.6935 70.5422 54.8834 72.763C54.9795 73.8733 55.082 75.0024 55.2122 76.1453C55.2778 76.7168 55.3472 77.2919 55.4371 77.8692C55.4758 78.1585 55.538 78.4463 55.5951 78.7361C55.6354 78.8794 55.6721 79.0276 55.7164 79.1675C55.7629 79.3053 55.8108 79.4424 55.85 79.5835C55.9623 79.9622 56.0502 80.3492 56.1718 80.7295C56.2925 81.1084 56.4569 81.4848 56.7132 81.7974C56.9667 82.1122 57.3028 82.3457 57.6565 82.5161C58.0106 82.6926 58.3901 82.7882 58.7643 82.8776C58.943 82.918 59.083 83.0055 59.2186 83.1387C59.3527 83.2632 59.4701 83.4088 59.583 83.5558C59.8042 83.8552 59.9927 84.1773 60.1605 84.5059C60.4854 85.1616 60.7722 85.8596 60.8011 86.56L60.8716 86.4892C58.1705 86.4915 55.592 86.4934 53.234 86.4951L53.2824 86.517C52.3537 85.402 51.6064 84.1703 51.2619 82.8852C51.2224 82.7244 51.193 82.5619 51.1641 82.4011C51.1473 82.2378 51.1305 82.0756 51.114 81.9143C51.0933 81.7504 51.0812 81.5851 51.0535 81.4255C51.0241 81.2664 50.995 81.1081 50.9661 80.951C50.8426 80.3248 50.7 79.7221 50.5566 79.1394C49.9752 76.8104 49.3932 74.7958 48.9148 73.1341C48.4325 71.4734 48.0387 70.1695 47.7667 69.2804C47.63 68.84 47.5247 68.5007 47.4519 68.266C47.416 68.1547 47.3883 68.069 47.3681 68.0066C47.3482 67.9489 47.3356 67.92 47.3356 67.92Z" fill="#263238"/>
<path d="M33.9594 48.6529C33.9594 48.6529 33.932 48.7136 33.8855 48.8345C33.8382 48.9604 33.7707 49.1395 33.6827 49.373C33.5068 49.8526 33.2508 50.5516 32.9214 51.4505C32.2697 53.2579 31.325 55.8731 30.2307 59.1308C29.9587 59.9457 29.6778 60.801 29.4022 61.6983C29.2627 62.1463 29.1305 62.6067 29.0022 63.0784C28.8809 63.5565 28.8117 64.0501 28.7468 64.5521C28.5056 66.5627 28.3894 68.7203 28.2597 70.9886C28.1339 73.2573 28.0241 75.64 27.8594 78.1057C27.7735 79.3377 27.6822 80.5933 27.5105 81.8542C27.4654 82.1687 27.415 82.4841 27.3435 82.7936C27.3088 82.9485 27.2659 83.1017 27.2108 83.2461C27.1839 83.3184 27.1497 83.3875 27.1097 83.4432C27.0898 83.4671 27.0665 83.4952 27.048 83.4997C27.0338 83.5115 26.9772 83.5261 26.9436 83.539C26.6324 83.6413 26.3204 83.7656 26.0515 83.9665C25.9075 84.0534 25.7933 84.179 25.6689 84.292C25.5633 84.423 25.4496 84.5495 25.3714 84.7002C25.0253 85.2938 24.9575 86.0019 25.0821 86.6588L25.0928 86.7147H25.153C28.104 86.7189 30.9634 86.7228 33.6925 86.7265H33.7639L33.7628 86.6565C33.7502 85.9204 33.5928 85.2219 33.4385 84.5371C33.2772 83.853 33.0926 83.1868 32.8912 82.5347L32.8934 82.5653C33.4082 79.1901 33.8964 76.0684 34.3538 73.2871C34.5854 71.8971 34.8003 70.5895 35.0425 69.3873C35.0756 69.2383 35.1 69.0865 35.1395 68.944L35.1952 68.7296C35.2123 68.6576 35.2548 68.5989 35.2829 68.5334C35.4151 68.2801 35.5904 68.0471 35.761 67.8256C36.1027 67.3792 36.4584 66.9745 36.7945 66.5888C38.1585 65.0623 39.297 63.9059 40.0698 63.1096C40.456 62.7158 40.7541 62.4122 40.9594 62.2028C41.0577 62.1019 41.1333 62.0246 41.1876 61.9687C41.2386 61.9158 41.2627 61.8869 41.2627 61.8869C41.2627 61.8869 41.2333 61.9105 41.1798 61.9605C41.1235 62.0145 41.0454 62.0893 40.9437 62.1868C40.735 62.3925 40.432 62.6913 40.039 63.0787C39.2562 63.8657 38.1081 65.0131 36.7334 66.534C36.3942 66.9185 36.036 67.3219 35.6893 67.7699C35.5156 67.9937 35.3394 68.2236 35.1977 68.4915C35.1675 68.5606 35.1218 68.6264 35.1042 68.6998L35.0459 68.9199C35.0047 69.0671 34.9801 69.2164 34.9459 69.3671C34.6978 70.5723 34.4782 71.8783 34.2421 73.2682C33.7754 76.049 33.28 79.1698 32.7598 82.5448L32.7576 82.56L32.7624 82.5755C32.9612 83.2234 33.1447 83.889 33.304 84.5689C33.4564 85.2477 33.6113 85.9479 33.6219 86.6557L33.6922 86.586C30.9631 86.5803 28.1037 86.5747 25.1527 86.5685L25.2233 86.6245C25.1068 86.0111 25.172 85.325 25.4969 84.7741C25.5697 84.6327 25.677 84.5147 25.7753 84.3918C25.8927 84.2864 25.9988 84.1678 26.1352 84.0863C26.3882 83.8963 26.687 83.7774 26.9861 83.679C27.0276 83.663 27.0511 83.6602 27.1077 83.6329C27.1657 83.6084 27.194 83.5677 27.2251 83.5317C27.2797 83.4564 27.3158 83.3785 27.3455 83.3001C27.4054 83.1435 27.4491 82.9853 27.4847 82.8267C27.5578 82.5097 27.6085 82.1918 27.6539 81.8747C27.8264 80.6053 27.9166 79.3492 28.0017 78.1152C28.1647 75.647 28.2715 73.2643 28.3936 70.9959C28.5193 68.7284 28.6311 66.5706 28.8664 64.5673C28.9297 64.0678 28.9977 63.5756 29.1151 63.1079C29.2414 62.6385 29.3716 62.1792 29.5094 61.7314C29.7817 60.8351 30.0592 59.9792 30.3281 59.1637C31.4093 55.9034 32.3391 53.2829 32.9747 51.4699C33.2928 50.5671 33.5404 49.8649 33.7102 49.3834C33.7922 49.1479 33.8553 48.9669 33.8995 48.8401C33.9415 48.717 33.9594 48.6529 33.9594 48.6529Z" fill="#263238"/>
<path d="M41.4195 74.5529C41.4229 74.5568 41.4764 74.5155 41.5753 74.4331C41.6845 74.3401 41.8271 74.2187 42.0043 74.0677C42.3687 73.7417 42.8827 73.2523 43.4793 72.6114C44.6831 71.3392 46.2115 69.4585 47.7562 67.2787C49.2897 65.0902 50.5515 63.0189 51.3413 61.4535C51.7413 60.6738 52.0275 60.0237 52.2093 59.5686C52.2897 59.3496 52.3544 59.1737 52.4039 59.0387C52.4468 58.917 52.467 58.8527 52.4622 58.851C52.4574 58.8493 52.428 58.9106 52.3762 59.0286C52.3202 59.1607 52.2474 59.3328 52.1569 59.547C51.9597 59.9936 51.6603 60.6345 51.2497 61.4058C50.4391 62.9537 49.167 65.0106 47.6369 67.1944C46.0956 69.3694 44.5839 71.2552 43.4034 72.5412C42.8183 73.1891 42.3175 73.6877 41.9657 74.0258C41.7962 74.1849 41.6604 74.3128 41.5559 74.4109C41.4635 74.5003 41.4164 74.5489 41.4195 74.5529Z" fill="#263238"/>
<path d="M46.117 73.4655C45.6039 75.1276 45.2518 76.836 45.093 78.5692C45.0585 78.9472 44.7958 79.2719 44.3928 79.2719C44.0407 79.2719 43.6578 78.9495 43.6926 78.5692C43.8626 76.7103 44.2158 74.8752 44.7664 73.0917C44.8784 72.7294 45.2549 72.498 45.6277 72.6009C45.9848 72.6993 46.2293 73.1015 46.117 73.4655Z" fill="#A86D0D"/>
<path d="M54.202 44.6581C54.4395 38.6457 54.8708 31.6248 54.2205 29.3376C53.5701 27.0507 48.9809 22.5295 46.347 21.481C43.713 20.4326 39.347 21.8313 38.0278 23.0011L29.7303 20.9877C29.7303 20.9877 28.1038 24.7731 30.1101 27.8102C32.1166 30.847 38.0292 30.8102 38.0292 30.8102C38.0292 30.8102 38.56 34.1143 36.0314 34.4044C33.5028 34.6945 30.1358 34.2959 29.8112 37.0567L35.0082 37.5244L34.7172 42.1218L44.6026 47.3941L53.8614 44.712" fill="#F2D352"/>
<path d="M47.093 25.1286C47.0846 25.1278 47.0664 25.2141 47.0401 25.3793C47.0123 25.573 46.9782 25.8125 46.9367 26.104C46.8533 26.771 46.7401 27.6741 46.6023 28.774C46.469 29.9135 46.3119 31.2545 46.1385 32.7375C46.0522 33.4821 45.9601 34.272 45.9528 35.0981C45.9525 35.9205 46.0273 36.7972 46.3704 37.6264C46.7132 38.4511 47.3591 39.1372 48.1414 39.4689C48.92 39.8138 49.7673 39.8262 50.5159 39.6797C51.268 39.5187 51.9377 39.1746 52.4497 38.7193C52.958 38.2628 53.328 37.7344 53.5801 37.2163C54.0921 36.1755 54.187 35.2243 54.2066 34.591C54.2128 34.2711 54.1971 34.0232 54.1789 33.8563C54.1593 33.6893 54.145 33.6024 54.1363 33.6033C54.1131 33.605 54.1484 33.9563 54.1097 34.5865C54.0616 35.2097 53.9392 36.1386 53.4232 37.1359C53.1695 37.6326 52.8048 38.1338 52.3138 38.563C51.8234 38.9874 51.1848 39.3067 50.4703 39.4535C49.7592 39.5861 48.9598 39.5679 48.2394 39.2438C47.5173 38.9332 46.9247 38.3036 46.6006 37.5286C46.2777 36.7492 46.1998 35.9034 46.1976 35.0989C46.2012 34.2897 46.2869 33.5097 46.3673 32.7626C46.5211 31.2773 46.66 29.9346 46.7779 28.7931C46.8832 27.6896 46.9695 26.7833 47.0334 26.1144C47.056 25.8209 47.0751 25.5797 47.0902 25.3847C47.1006 25.218 47.1017 25.1297 47.093 25.1286Z" fill="#263238"/>
<path d="M32.2047 21.6234C32.2367 22.0557 32.0308 22.5282 31.7516 22.8379C31.4723 23.1477 31.0749 23.3222 30.6785 23.4507C30.1632 23.6179 29.5871 23.7194 29.0902 23.5021C29.0902 22.8332 29.1949 22.1645 29.3991 21.5281C29.4621 21.3319 29.5523 21.1188 29.7408 21.0368C29.8464 20.9909 29.966 20.9949 30.0808 21.0033C30.8217 21.0576 31.5507 21.2706 32.2047 21.6234Z" fill="#263238"/>
<g opacity="0.3">
<path d="M54.1152 35.1165C53.892 36.6032 53.4831 38.2326 52.4703 39.3407C51.4575 40.4484 49.8677 41.1022 48.4205 40.7135C46.6437 40.2362 45.544 38.3372 45.4029 36.4967C45.2617 34.6561 45.8731 32.8507 46.4762 31.1069C46.1868 32.7658 45.8986 34.4804 46.286 36.1194C46.6733 37.7584 47.9194 39.3156 49.5857 39.5169C50.7436 39.6566 51.9236 39.1065 52.6932 38.2273C53.4632 37.3481 54.0346 36.2842 54.1152 35.1165Z" fill="#1D1D20"/>
</g>
<path d="M29.062 24.161C29.0466 24.1622 29.0391 24.3173 29.0598 24.5964C29.0783 24.8758 29.1323 25.2786 29.248 25.7671C29.3629 26.2554 29.5511 26.8277 29.846 27.4269C30.1463 28.0192 30.5653 28.6508 31.1817 29.1357C31.7915 29.6202 32.4651 29.9297 33.0849 30.1596C33.7067 30.3904 34.2882 30.5265 34.778 30.6195C35.2688 30.7097 35.6701 30.753 35.9483 30.7679C36.2264 30.7831 36.3807 30.7766 36.3818 30.7606C36.3852 30.7193 35.7732 30.6687 34.8139 30.4463C34.3358 30.3325 33.7686 30.181 33.1659 29.9438C32.5651 29.7079 31.915 29.3993 31.3369 28.9395C30.7577 28.4847 30.3521 27.8888 30.0502 27.321C29.7541 26.747 29.5525 26.1947 29.4186 25.7216C29.1486 24.7741 29.106 24.1565 29.062 24.161Z" fill="#263238"/>
<path d="M41.1504 25.419C41.6386 25.6178 41.7545 26.3868 41.347 26.7216C40.9395 27.0563 40.2113 26.7904 40.1135 26.271C40.0158 25.7516 40.5972 25.2375 41.0983 25.3999" fill="#263238"/>
<path d="M44.0039 26.311C44.0972 26.3464 44.2499 26.2267 44.3661 25.9613C44.4826 25.6994 44.5423 25.2898 44.4498 24.8578C44.3569 24.4261 44.1347 24.0772 43.921 23.8864C43.7062 23.6924 43.518 23.6463 43.4474 23.7172C43.3046 23.874 43.5911 24.371 43.718 25.0158C43.8667 25.6558 43.8093 26.227 44.0039 26.311Z" fill="#263238"/>
<path d="M33.6929 75.4841C33.6932 75.5004 33.9803 75.4841 34.4965 75.5094C34.7542 75.5218 35.0698 75.5482 35.4281 75.6173C35.7863 75.6851 36.1865 75.8105 36.5859 76.0359C37.3881 76.4853 38.1695 77.2856 39.0664 78.1153C39.9503 78.9546 40.7724 80.0528 41.9389 80.8952C42.5179 81.316 43.1834 81.5999 43.8517 81.7095C44.5199 81.8189 45.1678 81.8046 45.7739 81.854C46.3775 81.901 46.9556 82.0058 47.4228 82.2692C47.8933 82.5236 48.2613 82.8819 48.5196 83.2586C49.0417 84.0172 49.1725 84.7928 49.1528 85.3012C49.1372 85.8176 49.0285 86.0916 49.0484 86.0961C49.0484 86.0961 49.1755 85.8288 49.2094 85.3035C49.2467 84.7863 49.1307 83.9889 48.6044 83.1999C48.344 82.8083 47.9684 82.4322 47.4805 82.1624C46.9937 81.8821 46.3965 81.7708 45.7848 81.7197C45.1709 81.6663 44.5253 81.6769 43.8755 81.5682C43.2279 81.4594 42.5896 81.1867 42.0233 80.7755C40.883 79.9539 40.0568 78.8613 39.1596 78.0181C38.2547 77.192 37.4671 76.3971 36.6352 75.9451C36.2224 75.7199 35.8087 75.5982 35.4432 75.5372C35.0771 75.4748 34.7581 75.4566 34.4985 75.4529C34.2385 75.4487 34.0369 75.4557 33.9005 75.4653C33.7643 75.4726 33.6929 75.479 33.6929 75.4841Z" fill="#263238"/>
<path d="M44.123 84.0485C44.1233 84.0398 44.032 84.0271 43.8659 84.0268C43.6998 84.026 43.4584 84.0457 43.1668 84.11C42.5879 84.2329 41.7941 84.5851 41.1771 85.2757C40.5612 85.9674 40.3001 86.7986 40.2424 87.3894C40.2111 87.6874 40.2184 87.9302 40.2374 88.0961C40.2562 88.2619 40.2783 88.3513 40.287 88.3502C40.315 88.3482 40.2576 87.9817 40.3444 87.4032C40.4265 86.8306 40.6945 86.0374 41.2855 85.3735C41.8776 84.711 42.6333 84.356 43.1912 84.2109C43.7547 84.06 44.1244 84.0766 44.123 84.0485Z" fill="#263238"/>
<path d="M41.3584 87.7532C41.3436 87.756 41.3789 88.0169 41.566 88.393C41.7492 88.7662 42.1113 89.2483 42.6611 89.5881C43.2112 89.928 43.8033 90.0353 44.2181 90.0311C44.6371 90.0294 44.885 89.9437 44.8808 89.9291C44.8769 89.9044 44.6254 89.9524 44.2215 89.9277C43.8207 89.9055 43.2608 89.7863 42.7379 89.4633C42.2152 89.1401 41.8573 88.6923 41.6567 88.3432C41.4528 87.9927 41.3822 87.7456 41.3584 87.7532Z" fill="#263238"/>
<path d="M43.7755 85.9385C43.771 85.9621 43.9996 86.0059 44.3393 86.1496C44.6779 86.291 45.1258 86.5515 45.5059 86.9636C45.8862 87.3757 46.1111 87.8437 46.2257 88.1933C46.3425 88.5444 46.3685 88.7763 46.3926 88.7735C46.4089 88.7729 46.4195 88.5346 46.3245 88.1635C46.2321 87.7953 46.0123 87.2964 45.6128 86.8641C45.214 86.4318 44.7351 86.1735 44.3763 86.0532C44.015 85.9298 43.7772 85.9225 43.7755 85.9385Z" fill="#263238"/>
<path d="M27.8248 86.8233C27.8469 86.8179 27.8027 86.6015 27.7657 86.2515C27.731 85.9047 27.7077 85.4083 27.8856 84.9116C28.0654 84.4186 28.4418 84.0782 28.7502 83.9394C29.0628 83.7938 29.2908 83.8199 29.2899 83.7918C29.2958 83.7805 29.0605 83.7128 28.7102 83.8438C28.3662 83.9683 27.9441 84.3247 27.7483 84.8613C27.5579 85.3956 27.6021 85.9157 27.6635 86.2656C27.7279 86.62 27.8077 86.8278 27.8248 86.8233Z" fill="#263238"/>
<path d="M55.4806 83.5997C55.4828 83.625 55.7405 83.5932 56.1449 83.6533C56.5463 83.7107 57.1 83.8866 57.5846 84.2757C58.0689 84.6655 58.3607 85.1695 58.5038 85.5501C58.6506 85.9332 58.6758 86.1924 58.701 86.189C58.7159 86.1893 58.7279 85.9222 58.6013 85.5158C58.4786 85.1133 58.1871 84.573 57.6759 84.1615C57.1647 83.7509 56.5757 83.5831 56.1573 83.5505C55.7341 83.5153 55.4772 83.5853 55.4806 83.5997Z" fill="#263238"/>
<path d="M20.6084 81.0378C20.621 81.0277 20.4751 80.8605 20.262 80.5246C20.048 80.1904 19.7774 79.6774 19.5662 78.9994C19.3609 78.3214 19.2209 77.4768 19.2576 76.5391C19.292 75.6039 19.5021 74.5743 19.9575 73.5947C20.4154 72.616 21.098 71.8096 21.8697 71.2834C22.634 70.7462 23.4323 70.4283 24.1238 70.2973C24.8181 70.1683 25.3996 70.2234 25.7791 70.3297C25.9684 70.3859 26.1146 70.4339 26.209 70.4792C26.3057 70.5191 26.358 70.5379 26.3603 70.5334C26.3625 70.5289 26.3149 70.5014 26.2214 70.4525C26.13 70.398 25.9852 70.3406 25.7948 70.2749C25.4133 70.1495 24.8181 70.0764 24.1059 70.1953C23.3961 70.3162 22.5777 70.6301 21.7929 71.1726C21.4016 71.4436 21.0182 71.7756 20.6854 72.1761C20.3524 72.5758 20.0617 73.034 19.8256 73.532C19.3601 74.5333 19.1509 75.5823 19.1231 76.534C19.0932 77.4886 19.2466 78.3459 19.4676 79.0303C19.6948 79.7153 19.9835 80.2277 20.2143 80.5558C20.3306 80.7196 20.4255 80.843 20.4972 80.9209C20.5667 81.0007 20.6045 81.0409 20.6084 81.0378Z" fill="#263238"/>
<path d="M54.4977 66.6601C54.5016 66.7034 55.2153 66.4164 56.393 66.5536C56.977 66.6165 57.6607 66.8065 58.3559 67.1514C59.0452 67.5022 59.7468 68.0225 60.3 68.728C60.582 69.0749 60.7873 69.4605 60.9332 69.8571C61.0752 70.2549 61.1609 70.656 61.2231 71.0408C61.3357 71.8138 61.3486 72.5224 61.3444 73.1157C61.3396 73.7097 61.3209 74.1909 61.3139 74.5237C61.3122 74.676 61.3108 74.8025 61.3094 74.9074C61.3102 74.9951 61.3128 75.0412 61.3178 75.0415C61.3228 75.0417 61.3298 74.9959 61.3385 74.9088C61.3472 74.8045 61.3576 74.6783 61.3702 74.5268C61.3943 74.1948 61.429 73.7142 61.4469 73.1177C61.4643 72.5221 61.4623 71.8079 61.3553 71.0211C61.296 70.629 61.2114 70.2186 61.0668 69.8085C60.9195 69.4007 60.7041 68.9942 60.4131 68.637C59.8451 67.9126 59.123 67.3825 58.4147 67.0309C57.7005 66.6848 56.9991 66.5018 56.4028 66.4507C55.8063 66.3964 55.3186 66.4428 54.9935 66.5168C54.8282 66.542 54.7064 66.5907 54.6221 66.6132C54.5392 66.6393 54.496 66.6553 54.4977 66.6601Z" fill="#263238"/>
<path d="M66.0506 60.576C66.0604 60.5777 66.0854 60.4686 66.1221 60.269C66.1613 60.07 66.1977 59.7782 66.224 59.4162C66.2784 58.6927 66.252 57.6794 66.0246 56.5913C65.7938 55.5035 65.4092 54.5661 65.0681 53.9264C64.8981 53.6059 64.7471 53.3538 64.6312 53.1877C64.5172 53.0202 64.4505 52.9305 64.4421 52.9358C64.42 52.9499 64.6625 53.326 64.9762 53.973C65.2908 54.6187 65.6543 55.5482 65.882 56.6214C66.1064 57.6949 66.1487 58.6927 66.1209 59.4106C66.0949 60.1296 66.0249 60.5717 66.0506 60.576Z" fill="#263238"/>
<path d="M66.949 61.0137C66.9588 61.0157 66.9877 60.9069 67.0317 60.7079C67.0773 60.5095 67.1269 60.2183 67.1731 59.8568C67.2664 59.1341 67.3157 58.1214 67.2101 57.0111C67.1017 55.9008 66.86 54.9162 66.6303 54.2247C66.516 53.8787 66.4118 53.6027 66.3289 53.4166C66.248 53.2297 66.199 53.1285 66.1894 53.1324C66.1665 53.1417 66.3295 53.5605 66.5314 54.2554C66.7342 54.9494 66.9571 55.9267 67.0644 57.0252C67.1689 58.1236 67.1367 59.1254 67.0703 59.8456C67.0048 60.5665 66.9247 61.0092 66.949 61.0137Z" fill="#263238"/>
<g opacity="0.3">
<path d="M48.6799 72.1595C47.5178 73.437 46.6767 75.0066 46.2552 76.6838C46.1616 77.0563 46.0905 77.4619 46.2409 77.8152C46.5624 78.5716 47.6004 78.6076 48.3107 79.0177C48.9054 79.3609 49.2737 79.9849 49.6157 80.5816C50.773 82.6018 51.9306 84.6216 53.0879 86.6418C52.0152 86.5529 51.6174 86.6662 50.5447 86.5771L48.8194 86.6151C48.8832 86.6426 49.1549 85.7912 49.1776 85.3918C49.2473 84.1722 48.4267 82.6956 47.336 82.1526C45.965 81.4696 44.3887 82.0402 42.9978 81.399C41.666 80.7854 40.8725 79.8466 40.0067 78.9845C38.92 77.9023 37.8434 76.4685 36.4508 75.8307C35.8214 75.5426 34.3157 75.514 34.3157 75.514C35.0321 74.6699 36.3429 74.7129 37.4098 75.0015C38.4766 75.2902 39.5684 75.756 40.6462 75.5128C41.5517 75.3088 42.2698 74.6389 42.9406 73.9953C44.6579 72.3475 46.4344 70.6088 47.1996 68.3514C47.6775 69.5898 48.155 70.8283 48.6328 72.0665" fill="#845E20"/>
</g>
<g opacity="0.3">
<path d="M25.1527 86.6414C24.5978 85.2761 25.8621 83.6619 26.3716 82.2789C26.8881 80.8772 26.7763 79.3352 26.773 77.8406C26.7662 74.6978 27.2754 71.5545 28.2742 68.5756C28.3851 72.6709 27.9194 77.0224 27.6762 81.1122C27.6247 81.9807 27.6916 82.9847 27.0564 83.577C26.7318 83.8794 26.5383 83.7468 26.175 84.0011C25.8117 84.2555 25.0955 84.8326 25.1527 86.6414Z" fill="#1D1D20"/>
</g>
<path d="M41.6462 46.2737C41.6546 46.308 42.3697 46.0556 43.0472 45.4324C43.7301 44.8149 44.0485 44.1245 44.0152 44.113C43.9763 44.0885 43.6108 44.7269 42.9489 45.3242C42.2938 45.9279 41.6258 46.2326 41.6462 46.2737Z" fill="#263238"/>
<path d="M40.5953 45.6967C40.6065 45.7319 41.2095 45.536 41.8408 45.0859C42.4749 44.6396 42.8606 44.135 42.8315 44.1126C42.7993 44.0828 42.3744 44.5319 41.7568 44.9662C41.1423 45.4047 40.5782 45.656 40.5953 45.6967Z" fill="#263238"/>
<path d="M39.212 45.6473C39.2201 45.683 39.8111 45.5329 40.4242 45.113C41.0404 44.697 41.3983 44.202 41.3684 44.1812C41.3353 44.1516 40.939 44.5899 40.3424 44.9918C39.7498 45.3985 39.1971 45.6057 39.212 45.6473Z" fill="#263238"/>
<path d="M48.7387 57.7181C48.7504 57.7512 49.4386 57.4224 50.0422 56.7213C50.6519 56.0254 50.8825 55.2962 50.8483 55.2892C50.8066 55.2698 50.5228 55.9523 49.9324 56.6252C49.349 57.304 48.7137 57.6793 48.7387 57.7181Z" fill="#263238"/>
<path d="M47.7057 57.733C47.7256 57.7642 48.2549 57.421 48.744 56.8243C49.2366 56.2303 49.4733 55.6443 49.4391 55.6308C49.4002 55.6108 49.1112 56.1533 48.6317 56.7309C48.1561 57.3117 47.6788 57.6982 47.7057 57.733Z" fill="#263238"/>
<path d="M45.9026 58.085C45.932 58.1126 46.3765 57.6817 46.8955 57.1229C47.4145 56.5638 47.8111 56.0885 47.7817 56.0609C47.7523 56.0334 47.3078 56.464 46.7888 57.0231C46.2698 57.5822 45.8732 58.0575 45.9026 58.085Z" fill="#263238"/>
<path d="M51.4607 34.6921C51.4716 34.7059 51.5851 34.6418 51.7302 34.4912C51.875 34.3416 52.0422 34.0974 52.1469 33.7932C52.2506 33.4885 52.2679 33.1928 52.245 32.9854C52.2228 32.7771 52.1724 32.6565 52.1553 32.6608C52.1111 32.6664 52.2114 33.1715 52.0088 33.7457C51.8173 34.3234 51.4293 34.6604 51.4607 34.6921Z" fill="#263238"/>
<path d="M50.9685 34.4767C50.9984 34.4997 51.2483 34.1906 51.39 33.7282C51.5345 33.2666 51.5031 32.8697 51.4653 32.8717C51.4225 32.8703 51.3886 33.2467 51.2508 33.6849C51.1166 34.1237 50.9323 34.4534 50.9685 34.4767Z" fill="#263238"/>
<path d="M49.856 35.1751C49.886 35.1982 50.2302 34.7757 50.503 34.1655C50.7789 33.5566 50.8668 33.0178 50.8299 33.0108C50.7884 33.0004 50.6391 33.5114 50.37 34.1053C50.1045 34.7007 49.8207 35.1507 49.856 35.1751Z" fill="#263238"/>
</svg>
