<svg width="121" height="121" viewBox="0 0 121 121" fill="none" xmlns="http://www.w3.org/2000/svg">
<path d="M97.9582 37.2842H78.9922C78.9922 37.2842 79.9349 36.0564 80.9748 35.903C80.9748 35.903 82.9966 29.8836 86.3818 29.8406C89.5289 29.8008 90.7906 33.5426 90.7906 33.5426C90.7906 33.5426 92.2483 31.8643 93.6415 32.6316C95.0345 33.3989 95.8234 35.5961 95.8234 35.5961C95.8234 35.5961 97.3896 36.4399 97.9582 37.2842Z" fill="#EBEBEB"/>
<path d="M11.2412 32.0964H35.2254C35.2254 32.0964 35.2254 30.5635 31.9208 30.2638C31.9208 30.2638 28.9043 23.5661 24.2989 24.4659C21.4307 25.0263 19.9645 28.9642 19.9645 28.9642C19.9645 28.9642 17.7973 25.8653 16.0635 26.4651C14.3298 27.0648 13.3004 30.3636 13.3004 30.3636C13.3004 30.3636 11.5122 31.23 11.2412 32.0964Z" fill="#EBEBEB"/>
<path d="M29.0508 15.9905H45.3593C45.3593 15.9905 43.8201 14.5582 43.1364 14.5582C42.4524 14.5582 40.4558 9.74931 37.9049 9.95379C35.3539 10.1585 34.0005 13.7396 34.0005 13.7396C34.0005 13.7396 30.8997 12.7673 29.0508 15.9905Z" fill="#EBEBEB"/>
<path d="M57.6338 28.8881H71.5802C71.5802 28.8881 70.8868 27.9852 70.1224 27.8724C70.1224 27.8724 68.6359 23.4461 66.1466 23.4144C63.8325 23.3851 62.9047 26.1365 62.9047 26.1365C62.9047 26.1365 61.8326 24.9024 60.8083 25.4667C59.7839 26.0309 59.2039 27.6466 59.2039 27.6466C59.2039 27.6466 58.0519 28.2675 57.6338 28.8881Z" fill="#EBEBEB"/>
<path d="M96.3125 17.7603H110.259C110.259 17.7603 109.566 16.8574 108.801 16.7446C108.801 16.7446 107.315 12.3183 104.825 12.2869C102.511 12.2576 101.583 15.0089 101.583 15.0089C101.583 15.0089 100.511 13.7749 99.487 14.3391C98.4627 14.9033 97.8826 16.519 97.8826 16.519C97.8826 16.519 96.7306 17.1397 96.3125 17.7603Z" fill="#EBEBEB"/>
<path d="M23.2797 62.4353C23.2797 62.4353 29.1923 75.6046 19.517 75.6046C9.84159 75.6046 16.1128 61.9875 16.1128 61.9875C16.1128 61.9875 13.8731 61.002 16.4711 53.6559C19.0691 46.3097 20.23 46.3097 21.3088 46.3097C22.6722 46.3097 23.9416 49.4904 23.0109 54.3725C23.0109 54.3725 26.4153 60.4644 23.2797 62.4353Z" fill="#EBEBEB"/>
<path d="M18.6592 84.3382L19.5918 64.4998L20.5245 84.3382H18.6592Z" fill="#A6A6A6"/>
<path d="M19.2129 72.8172L22.7289 68.7101L19.9708 73.3603L19.2129 72.8172Z" fill="#A6A6A6"/>
<path d="M53.4868 65.7485C53.4868 65.7485 48.4684 76.9255 56.6803 76.9255C64.8921 76.9255 59.5696 65.3681 59.5696 65.3681C59.5696 65.3681 61.4704 64.5317 59.2655 58.297C57.0604 52.062 56.0752 52.062 55.1596 52.062C54.0023 52.062 52.925 54.7615 53.7151 58.9051C53.7151 58.9051 50.8255 64.0757 53.4868 65.7485Z" fill="#EBEBEB"/>
<path d="M57.4092 84.3382L56.6177 67.5007L55.8262 84.3382H57.4092Z" fill="#A6A6A6"/>
<path d="M56.9392 74.5601L53.9551 71.0741L56.2958 75.0209L56.9392 74.5601Z" fill="#A6A6A6"/>
<path d="M46.294 64.3911C46.294 64.3911 43.6075 63.325 41.4756 67.0349C39.2892 70.8394 42.03 73.3459 44.2046 71.8534C44.2046 71.8534 45.9103 75.4354 49.3216 74.5824C52.733 73.7295 53.2874 71.0004 53.2874 71.0004C53.2874 71.0004 56.315 71.2135 56.4002 68.9535C56.4854 66.6934 54.268 64.6894 54.268 64.6894C54.268 64.6894 54.1401 59.0607 50.4729 59.1031C46.8057 59.1461 46.294 64.3911 46.294 64.3911Z" fill="#DBDBDB"/>
<path d="M48.7881 84.3382L49.5556 67.5893L50.3231 84.3382H48.7881Z" fill="#A6A6A6"/>
<path d="M49.2268 73.6822L46.9736 69.1851L49.8848 73.2871L49.2268 73.6822Z" fill="#A6A6A6"/>
<path d="M65.3246 51.7598H63.4502V68.3422H65.3246V51.7598Z" fill="#A6A6A6"/>
<path d="M99.2689 51.7598H97.3945V68.3422H99.2689V51.7598Z" fill="#A6A6A6"/>
<path d="M104.17 53.2699H58.5479V55.7196H104.17V53.2699Z" fill="#9B8731"/>
<path opacity="0.2" d="M104.17 53.2699H58.5479V55.7196H104.17V53.2699Z" fill="#1D1D20"/>
<path d="M104.17 57.0468H58.5479V59.4964H104.17V57.0468Z" fill="#9B8731"/>
<path opacity="0.2" d="M104.17 57.0468H58.5479V59.4964H104.17V57.0468Z" fill="#1D1D20"/>
<path d="M104.17 60.8237H58.5479V63.2733H104.17V60.8237Z" fill="#9B8731"/>
<path opacity="0.2" d="M104.17 60.8237H58.5479V63.2733H104.17V60.8237Z" fill="#1D1D20"/>
<path d="M104.17 64.6003H58.5479V67.0502H104.17V64.6003Z" fill="#9B8731"/>
<path opacity="0.2" d="M104.17 64.6003H58.5479V67.0502H104.17V64.6003Z" fill="#1D1D20"/>
<path d="M108.838 68.3422H54.5342V71.9938H108.838V68.3422Z" fill="#9B8731"/>
<path opacity="0.2" d="M108.838 68.3422H54.5342V71.9938H108.838V68.3422Z" fill="#1D1D20"/>
<path d="M59.4506 71.9938H57.5762V84.3382H59.4506V71.9938Z" fill="#A6A6A6"/>
<path d="M105.796 71.9938H103.922V84.3382H105.796V71.9938Z" fill="#A6A6A6"/>
<g opacity="0.2">
<path d="M64.3876 54.7262C64.5154 54.7262 64.619 54.6226 64.619 54.4948C64.619 54.3671 64.5154 54.2635 64.3876 54.2635C64.2598 54.2635 64.1562 54.3671 64.1562 54.4948C64.1562 54.6226 64.2598 54.7262 64.3876 54.7262Z" fill="#1D1D20"/>
<path d="M64.3876 58.5031C64.5154 58.5031 64.619 58.3995 64.619 58.2717C64.619 58.1439 64.5154 58.0403 64.3876 58.0403C64.2598 58.0403 64.1562 58.1439 64.1562 58.2717C64.1562 58.3995 64.2598 58.5031 64.3876 58.5031Z" fill="#1D1D20"/>
<path d="M64.3876 62.2797C64.5154 62.2797 64.619 62.1762 64.619 62.0484C64.619 61.9206 64.5154 61.817 64.3876 61.817C64.2598 61.817 64.1562 61.9206 64.1562 62.0484C64.1562 62.1762 64.2598 62.2797 64.3876 62.2797Z" fill="#1D1D20"/>
<path d="M64.3876 66.0566C64.5154 66.0566 64.619 65.953 64.619 65.8252C64.619 65.6975 64.5154 65.5939 64.3876 65.5939C64.2598 65.5939 64.1562 65.6975 64.1562 65.8252C64.1562 65.953 64.2598 66.0566 64.3876 66.0566Z" fill="#1D1D20"/>
<path d="M98.3329 54.7262C98.4607 54.7262 98.5643 54.6226 98.5643 54.4948C98.5643 54.3671 98.4607 54.2635 98.3329 54.2635C98.2051 54.2635 98.1016 54.3671 98.1016 54.4948C98.1016 54.6226 98.2051 54.7262 98.3329 54.7262Z" fill="#1D1D20"/>
<path d="M98.3329 58.5031C98.4607 58.5031 98.5643 58.3995 98.5643 58.2717C98.5643 58.1439 98.4607 58.0403 98.3329 58.0403C98.2051 58.0403 98.1016 58.1439 98.1016 58.2717C98.1016 58.3995 98.2051 58.5031 98.3329 58.5031Z" fill="#1D1D20"/>
<path d="M98.3329 62.2797C98.4607 62.2797 98.5643 62.1762 98.5643 62.0484C98.5643 61.9206 98.4607 61.817 98.3329 61.817C98.2051 61.817 98.1016 61.9206 98.1016 62.0484C98.1016 62.1762 98.2051 62.2797 98.3329 62.2797Z" fill="#1D1D20"/>
<path d="M98.3329 66.0566C98.4607 66.0566 98.5643 65.953 98.5643 65.8252C98.5643 65.6975 98.4607 65.5939 98.3329 65.5939C98.2051 65.5939 98.1016 65.6975 98.1016 65.8252C98.1016 65.953 98.2051 66.0566 98.3329 66.0566Z" fill="#1D1D20"/>
</g>
<path d="M20.3283 70.4547H12.8545V84.3379H20.3283V70.4547Z" fill="#F2D352"/>
<path d="M20.8251 69.9077H12.3574V70.4549H20.8251V69.9077Z" fill="#F2D352"/>
<path d="M20.8251 69.0079H12.3574V69.5551H20.8251V69.0079Z" fill="#F2D352"/>
<path d="M20.3283 69.5551H12.8545V69.9077H20.3283V69.5551Z" fill="#F2D352"/>
<path opacity="0.1" d="M20.3283 69.5551H12.8545V69.9077H20.3283V69.5551Z" fill="#1D1D20"/>
<path d="M20.3227 69.0082H12.8604C12.9609 67.0368 14.592 65.4694 16.5904 65.4694C18.5889 65.4694 20.2221 67.0368 20.3227 69.0082Z" fill="#F2D352"/>
<path opacity="0.1" d="M20.3227 69.0082H12.8604C12.868 68.8498 12.8856 68.695 12.9144 68.5423L20.1525 68.0707C20.2471 68.3683 20.3052 68.6835 20.3227 69.0082Z" fill="#1D1D20"/>
<path opacity="0.1" d="M20.3286 70.4537V71.2752L12.8545 71.6251V70.4537H20.3286Z" fill="#1D1D20"/>
<path opacity="0.1" d="M14.3292 72.3053H13.6865V83.485H14.3292V72.3053Z" fill="#1D1D20"/>
<path opacity="0.1" d="M15.6203 72.3053H14.9775V83.485H15.6203V72.3053Z" fill="#1D1D20"/>
<path opacity="0.1" d="M16.9123 72.3053H16.2695V83.485H16.9123V72.3053Z" fill="#1D1D20"/>
<path opacity="0.1" d="M18.2033 72.3053H17.5605V83.485H18.2033V72.3053Z" fill="#1D1D20"/>
<path opacity="0.1" d="M19.4943 72.3053H18.8516V83.485H19.4943V72.3053Z" fill="#1D1D20"/>
<path d="M12.8537 73.0928H11.5332V76.5207H12.8537V73.0928Z" fill="#F2D352"/>
<path d="M11.5338 73.3837H11.0303V76.3186H11.5338V73.3837Z" fill="#F2D352"/>
<path opacity="0.1" d="M11.5338 73.3837H11.0303V76.3186H11.5338V73.3837Z" fill="#1D1D20"/>
<path d="M11.0301 73.9891V75.624C10.5983 75.6019 10.2549 75.2446 10.2549 74.8068C10.2546 74.3691 10.5981 74.0112 11.0301 73.9891Z" fill="#F2D352"/>
<path opacity="0.1" d="M12.8543 73.092V76.5207H12.5471L12.0059 73.092H12.8543Z" fill="#1D1D20"/>
<path d="M20.3289 76.5205H21.6494V73.0926H20.3289V76.5205Z" fill="#F2D352"/>
<path d="M21.6488 76.3188H22.1523V73.3839H21.6488V76.3188Z" fill="#F2D352"/>
<path opacity="0.1" d="M21.6488 76.3188H22.1523V73.3839H21.6488V76.3188Z" fill="#1D1D20"/>
<path d="M22.1523 73.9891V75.624C22.5843 75.6019 22.9278 75.2446 22.9278 74.8068C22.9278 74.3691 22.5843 74.0112 22.1523 73.9891Z" fill="#F2D352"/>
<path opacity="0.1" d="M20.3281 73.092V76.5207H20.6353L21.1765 73.092H20.3281Z" fill="#1D1D20"/>
<path d="M17.5738 77.1941C18.8929 76.6518 19.5227 75.1429 18.9804 73.8238C18.4382 72.5047 16.9293 71.8749 15.6101 72.4172C14.291 72.9594 13.6613 74.4683 14.2035 75.7875C14.7458 77.1066 16.2547 77.7363 17.5738 77.1941Z" fill="#F2D352"/>
<path opacity="0.1" d="M18.3622 74.8066C18.3622 75.7848 17.5693 76.5776 16.5913 76.5776C15.6133 76.5776 14.8203 75.7846 14.8203 74.8066C14.8203 73.8286 15.6133 73.0356 16.5913 73.0356C17.5693 73.0356 18.3622 73.8286 18.3622 74.8066Z" fill="#1D1D20"/>
<path d="M18.0586 65.7729V65.2693H15.1236V65.7729H18.0586Z" fill="#F2D352"/>
<path opacity="0.1" d="M18.0586 65.7729V65.2693H15.1236V65.7729H18.0586Z" fill="#1D1D20"/>
<path d="M17.4532 65.2692H15.8184C15.8404 64.8372 16.1978 64.4938 16.6356 64.4938C17.0736 64.4938 17.4314 64.8372 17.4532 65.2692Z" fill="#F2D352"/>
<path d="M60.7497 109.511C85.6827 109.511 105.895 107.655 105.895 105.366C105.895 103.076 85.6827 101.22 60.7497 101.22C35.8167 101.22 15.6045 103.076 15.6045 105.366C15.6045 107.655 35.8167 109.511 60.7497 109.511Z" fill="#EBEBEB"/>
<path d="M27.8934 84.3543H17.9766C17.9766 84.3543 17.9994 82.8783 18.9742 82.4866C19.9491 82.0949 20.5287 82.8591 20.5287 82.8591C20.5287 82.8591 20.9264 80.1451 22.7432 80.1451C24.56 80.1451 25.4295 82.4863 25.4295 82.4863C25.4295 82.4863 25.8363 81.7786 26.845 81.9103C27.8535 82.0423 27.8934 84.3543 27.8934 84.3543Z" fill="#37474F"/>
<path d="M69.2841 84.3542C69.2841 84.3542 68.98 82.9358 68.3728 82.7172C67.7656 82.4986 67.3962 83.1353 67.3962 83.1353C67.3962 83.1353 67.2532 81.78 66.3923 81.3744C65.5314 80.9688 64.8853 81.7994 64.8853 81.7994C64.8853 81.7994 64.2246 80.0796 63.0445 80.0796C61.8644 80.0796 61.269 82.596 61.269 82.596C61.269 82.596 60.5728 81.846 59.8585 82.2696C59.1445 82.6932 59.1445 84.3545 59.1445 84.3545H69.2841V84.3542Z" fill="#37474F"/>
<path d="M110.891 84.3542C110.891 84.3542 110.586 82.9358 109.979 82.7172C109.372 82.4986 109.003 83.1353 109.003 83.1353C109.003 83.1353 108.86 81.78 107.999 81.3744C107.138 80.9688 106.492 81.7994 106.492 81.7994C106.492 81.7994 105.831 80.0796 104.651 80.0796C103.471 80.0796 102.875 82.596 102.875 82.596C102.875 82.596 102.179 81.846 101.465 82.2696C100.751 82.6932 100.751 84.3545 100.751 84.3545H110.891V84.3542Z" fill="#37474F"/>
<path d="M19.7539 84.3542H10.6094C10.6094 84.3542 10.9106 83.0649 11.5171 82.9737C12.1235 82.8825 12.4055 83.4804 12.4055 83.4804C12.4055 83.4804 12.3782 81.6823 13.5105 81.3761C14.6431 81.0698 15.5927 82.6584 15.5927 82.6584C15.5927 82.6584 16.3029 81.7524 17.2706 81.8105C18.2383 81.8685 18.484 83.3649 18.484 83.3649C18.484 83.3649 19.3648 82.8453 19.7539 84.3542Z" fill="#455A64"/>
<path d="M76.2246 84.3542H67.0801C67.0801 84.3542 67.3813 83.0649 67.9875 82.9737C68.594 82.8825 68.876 83.4804 68.876 83.4804C68.876 83.4804 68.8486 81.6823 69.981 81.3761C71.1135 81.0698 72.0632 82.6584 72.0632 82.6584C72.0632 82.6584 72.7734 81.7524 73.741 81.8105C74.7087 81.8685 74.9545 83.3649 74.9545 83.3649C74.9545 83.3649 75.8353 82.8453 76.2246 84.3542Z" fill="#455A64"/>
<path d="M59.7991 84.3542H54.1807C54.1807 84.3542 54.1936 83.5181 54.7459 83.2961C55.2981 83.0743 55.6267 83.507 55.6267 83.507C55.6267 83.507 55.852 81.9696 56.8811 81.9696C57.9105 81.9696 58.403 83.2961 58.403 83.2961C58.403 83.2961 58.6336 82.895 59.2048 82.9697C59.7763 83.0443 59.7991 84.3542 59.7991 84.3542Z" fill="#455A64"/>
<path d="M103.946 84.3542H98.3271C98.3271 84.3542 98.3401 83.5181 98.8924 83.2961C99.4446 83.0743 99.7731 83.507 99.7731 83.507C99.7731 83.507 99.9985 81.9696 101.028 81.9696C102.057 81.9696 102.549 83.2961 102.549 83.2961C102.549 83.2961 102.78 82.895 103.351 82.9697C103.923 83.0443 103.946 84.3542 103.946 84.3542Z" fill="#455A64"/>
<path d="M9.35352 85.8092L22.2026 85.7506L35.0518 85.7295L60.7498 85.6894L86.4478 85.7292L99.2969 85.7504L112.146 85.8092L99.2969 85.8677L86.4478 85.8888L60.7498 85.9289L35.0518 85.8886L22.2026 85.8675L9.35352 85.8092Z" fill="#263238"/>
<path d="M111.644 84.3519H9.85547V85.7955H111.644V84.3519Z" fill="#C7C7C7"/>
<path d="M16.9921 84.3519C17.0876 84.5923 17.1089 84.8331 17.113 85.0736C17.1094 85.3143 17.0881 85.5547 16.9921 85.7952C16.8961 85.5547 16.8747 85.314 16.8711 85.0736C16.8752 84.8331 16.8965 84.5923 16.9921 84.3519Z" fill="#263238"/>
<path d="M24.9481 84.3519C25.0436 84.5923 25.065 84.8331 25.0691 85.0736C25.0655 85.3143 25.0441 85.5547 24.9481 85.7952C24.8521 85.5547 24.8307 85.314 24.8271 85.0736C24.8312 84.8331 24.8526 84.5923 24.9481 84.3519Z" fill="#263238"/>
<path d="M32.9042 84.3519C32.9997 84.5923 33.021 84.8331 33.0251 85.0736C33.0215 85.3143 33.0002 85.5547 32.9042 85.7952C32.8082 85.5547 32.7868 85.314 32.7832 85.0736C32.7873 84.8331 32.8086 84.5923 32.9042 84.3519Z" fill="#263238"/>
<path d="M40.8602 84.3519C40.9557 84.5923 40.9771 84.8331 40.9812 85.0736C40.9776 85.3143 40.9562 85.5547 40.8602 85.7952C40.7642 85.5547 40.7429 85.314 40.7393 85.0736C40.7433 84.8331 40.7647 84.5923 40.8602 84.3519Z" fill="#263238"/>
<path d="M48.8163 84.3519C48.9118 84.5923 48.9332 84.8331 48.9372 85.0736C48.9336 85.3143 48.9123 85.5547 48.8163 85.7952C48.7203 85.5547 48.6989 85.314 48.6953 85.0736C48.6994 84.8331 48.7208 84.5923 48.8163 84.3519Z" fill="#263238"/>
<path d="M56.7723 84.3519C56.8678 84.5923 56.8892 84.8331 56.8933 85.0736C56.8897 85.3143 56.8683 85.5547 56.7723 85.7952C56.6763 85.5547 56.655 85.314 56.6514 85.0736C56.6554 84.8331 56.6768 84.5923 56.7723 84.3519Z" fill="#263238"/>
<path d="M64.7284 84.3519C64.8239 84.5923 64.8453 84.8331 64.8493 85.0736C64.8457 85.3143 64.8244 85.5547 64.7284 85.7952C64.6324 85.5547 64.611 85.314 64.6074 85.0736C64.6115 84.8331 64.6329 84.5923 64.7284 84.3519Z" fill="#263238"/>
<path d="M72.6844 84.3519C72.78 84.5923 72.8013 84.8331 72.8054 85.0736C72.8018 85.3143 72.7804 85.5547 72.6844 85.7952C72.5884 85.5547 72.5671 85.314 72.5635 85.0736C72.5676 84.8331 72.5889 84.5923 72.6844 84.3519Z" fill="#263238"/>
<path d="M80.6405 84.3519C80.736 84.5923 80.7574 84.8331 80.7615 85.0736C80.7579 85.3143 80.7365 85.5547 80.6405 85.7952C80.5445 85.5547 80.5231 85.314 80.5195 85.0736C80.5236 84.8331 80.545 84.5923 80.6405 84.3519Z" fill="#263238"/>
<path d="M88.5956 84.3519C88.6911 84.5923 88.7124 84.8331 88.7165 85.0736C88.7129 85.3143 88.6916 85.5547 88.5956 85.7952C88.4996 85.5547 88.4782 85.314 88.4746 85.0736C88.4787 84.8331 88.5 84.5923 88.5956 84.3519Z" fill="#263238"/>
<path d="M96.5516 84.3519C96.6471 84.5923 96.6685 84.8331 96.6726 85.0736C96.669 85.3143 96.6476 85.5547 96.5516 85.7952C96.4556 85.5547 96.4343 85.314 96.4307 85.0736C96.4347 84.8331 96.4561 84.5923 96.5516 84.3519Z" fill="#263238"/>
<path d="M104.508 84.3519C104.603 84.5923 104.625 84.8331 104.629 85.0736C104.625 85.3143 104.604 85.5547 104.508 85.7952C104.412 85.5547 104.39 85.314 104.387 85.0736C104.391 84.8331 104.412 84.5923 104.508 84.3519Z" fill="#263238"/>
<path d="M101.584 90.9778C103.638 90.4594 105.194 88.6551 105.9 86.6504C106.606 84.6454 106.58 82.4571 106.369 80.3413C106.33 79.947 106.289 79.5284 106.463 79.1725C106.739 78.6073 107.494 78.4114 108.094 78.5977C108.693 78.7839 109.157 79.2591 109.541 79.7571C111.648 82.4888 111.975 86.4824 110.341 89.5227C108.707 92.563 105.202 94.4818 101.769 94.2147" fill="#F2D352"/>
<path d="M86.0218 71.0797C86.0218 71.0797 81.2077 79.4488 79.9907 82.814C78.7737 86.1793 77.2235 95.4301 77.2235 95.4301C77.2235 95.4301 69.9945 97.2987 74.4731 105.097C76.1287 107.98 75.9802 109.318 77.836 109.403C79.2821 109.469 90.9212 109.38 90.9212 109.38L90.712 110.524C90.712 110.524 91.6858 113.831 93.658 112.899C95.6303 111.966 97.9515 109.38 97.9515 109.38L101.34 109.334L109.417 109.38L111.778 109.334C111.776 109.312 111.774 109.291 111.771 109.269C111.61 107.954 110.689 106.857 109.425 106.473L107.693 105.945C107.693 105.945 109.942 96.4592 107.994 94.1912C106.045 91.9232 102.875 92.072 102.875 92.072L104.331 82.3134C104.62 80.0245 104.39 77.6996 103.657 75.5128L102.565 72.2521L86.0218 71.0797Z" fill="#F2D352"/>
<path d="M102.747 92.4037C99.4105 94.3067 97.1566 97.4975 96.0361 101.141C96.0249 101.178 95.967 101.163 95.9785 101.126C96.8471 98.3005 98.3877 95.6845 100.664 93.7753C101.303 93.2387 101.992 92.7652 102.717 92.3519C102.75 92.3329 102.781 92.3848 102.747 92.4037Z" fill="#263238"/>
<path d="M102.679 72.5909C102.679 72.5909 104.248 76.801 104.38 78.9063C104.598 82.3997 102.875 92.072 102.875 92.072C102.875 92.072 103.465 101.556 103.978 102.961C104.49 104.366 104.275 105.664 106.607 106.143C107.237 106.273 108.334 108.319 108.334 109.333H101.812C101.812 109.333 100.048 107.333 99.9626 105.459C99.8772 103.586 96.7764 93.4177 96.7764 93.4177" fill="#F2D352"/>
<path d="M96.776 93.4179C96.776 93.4179 96.7808 93.4441 96.7947 93.4945C96.81 93.5485 96.8308 93.6224 96.858 93.7186C96.9164 93.92 97.0011 94.2113 97.1108 94.5896C97.3318 95.3564 97.6535 96.4726 98.0612 97.8881C98.4606 99.3092 98.9492 101.032 99.4375 103.019C99.558 103.517 99.6778 104.031 99.7809 104.563C99.8051 104.696 99.8292 104.83 99.8536 104.965C99.8766 105.1 99.8859 105.237 99.9029 105.374C99.917 105.514 99.9311 105.655 99.9455 105.797C99.9703 105.938 99.9957 106.08 100.03 106.221C100.329 107.344 100.968 108.402 101.771 109.37L101.786 109.389H101.812C103.826 109.391 106.027 109.393 108.334 109.394H108.396L108.394 109.334C108.367 108.692 108.116 108.097 107.835 107.524C107.689 107.238 107.526 106.958 107.332 106.695C107.232 106.565 107.129 106.436 107.006 106.322C106.893 106.205 106.727 106.103 106.56 106.069C105.938 105.931 105.291 105.698 104.879 105.188C104.464 104.68 104.36 103.991 104.165 103.342C104.132 103.22 104.09 103.1 104.049 102.98C104.011 102.86 103.983 102.743 103.95 102.625C103.902 102.382 103.849 102.14 103.816 101.894C103.74 101.404 103.68 100.914 103.625 100.427C103.513 99.4534 103.425 98.4901 103.342 97.5428C103.179 95.648 103.046 93.8156 102.932 92.0686L102.931 92.0823C103.426 89.2179 103.822 86.5539 104.1 84.1649C104.239 82.9707 104.349 81.8449 104.401 80.7963C104.451 79.7509 104.465 78.77 104.281 77.9069C104.115 77.0444 103.903 76.2867 103.71 75.6291C103.515 74.972 103.332 74.4161 103.179 73.9659C103.026 73.5157 102.901 73.1717 102.815 72.9401C102.772 72.8273 102.739 72.7407 102.716 72.6783C102.693 72.6197 102.678 72.5909 102.678 72.5909C102.678 72.5909 102.686 72.6221 102.706 72.6817C102.728 72.745 102.758 72.8326 102.797 72.9469C102.877 73.1852 102.993 73.5305 103.143 73.9781C103.29 74.4301 103.467 74.9871 103.657 75.6447C103.845 76.3025 104.051 77.0607 104.211 77.9199C104.389 78.7777 104.37 79.7475 104.316 80.7917C104.26 81.8372 104.146 82.9611 104.003 84.1534C103.718 86.5385 103.316 89.2011 102.817 92.0617L102.816 92.0686L102.817 92.0756C102.928 93.824 103.058 95.6569 103.221 97.5531C103.303 98.5011 103.39 99.4652 103.501 100.441C103.557 100.929 103.617 101.42 103.693 101.913C103.726 102.16 103.779 102.406 103.828 102.653C103.863 102.776 103.894 102.902 103.932 103.022C103.972 103.139 104.012 103.256 104.046 103.377C104.142 103.7 104.217 104.03 104.321 104.355C104.424 104.679 104.564 105 104.783 105.267C104.999 105.536 105.286 105.735 105.588 105.881C105.891 106.031 106.215 106.113 106.534 106.189C106.687 106.224 106.806 106.298 106.922 106.412C107.037 106.519 107.137 106.643 107.233 106.768C107.422 107.024 107.583 107.299 107.726 107.58C108.004 108.14 108.249 108.735 108.273 109.333L108.334 109.273C106.027 109.275 103.826 109.277 101.812 109.278L101.854 109.297C101.061 108.345 100.423 107.293 100.128 106.196C100.095 106.058 100.07 105.92 100.045 105.782C100.031 105.643 100.016 105.505 100.002 105.367C99.9844 105.227 99.9742 105.086 99.9505 104.949C99.9254 104.814 99.9005 104.678 99.8759 104.544C99.7704 104.01 99.6487 103.495 99.5262 102.998C99.0298 101.009 98.5328 99.2888 98.1243 97.8699C97.7125 96.452 97.3763 95.3386 97.1441 94.5795C97.0274 94.2034 96.9374 93.9137 96.8753 93.7133C96.8447 93.6183 96.821 93.5451 96.8038 93.4918C96.7868 93.4426 96.776 93.4179 96.776 93.4179Z" fill="#263238"/>
<path d="M85.355 76.9669C85.355 76.9669 85.3316 77.0188 85.2919 77.122C85.2515 77.2295 85.1938 77.3824 85.1187 77.5818C84.9686 77.9912 84.75 78.5881 84.4687 79.3556C83.9122 80.8988 83.1056 83.1318 82.1712 85.9134C81.939 86.6092 81.6992 87.3395 81.4638 88.1056C81.3447 88.4881 81.2319 88.8812 81.1223 89.284C81.0188 89.6922 80.9597 90.1136 80.9042 90.5423C80.6983 92.259 80.5991 94.1012 80.4883 96.038C80.381 97.9751 80.2872 100.01 80.1466 102.115C80.0732 103.167 79.9952 104.239 79.8486 105.315C79.8101 105.584 79.7671 105.853 79.7061 106.118C79.6764 106.25 79.6399 106.381 79.5927 106.504C79.5698 106.566 79.5406 106.625 79.5064 106.672C79.4894 106.693 79.4696 106.717 79.4538 106.72C79.4416 106.731 79.3933 106.743 79.3646 106.754C79.0989 106.841 78.8325 106.947 78.6029 107.119C78.48 107.193 78.3824 107.301 78.2762 107.397C78.1861 107.509 78.089 107.617 78.0223 107.745C77.7267 108.252 77.6688 108.857 77.7752 109.418L77.7843 109.466H77.8357C80.3554 109.469 82.7969 109.473 85.1271 109.476H85.1881L85.1871 109.416C85.1764 108.787 85.042 108.191 84.9102 107.606C84.7725 107.022 84.6149 106.453 84.4429 105.897L84.4448 105.923C84.8844 103.041 85.3012 100.375 85.6917 98.0005C85.8895 96.8137 86.0729 95.6972 86.2798 94.6708C86.308 94.5436 86.3288 94.414 86.3626 94.2923L86.4101 94.1092C86.4247 94.0477 86.4611 93.9976 86.485 93.9416C86.5979 93.7254 86.7476 93.5264 86.8932 93.3373C87.185 92.9562 87.4887 92.6106 87.7757 92.2813C88.9403 90.9779 89.9125 89.9905 90.5723 89.3106C90.9021 88.9744 91.1565 88.7152 91.3318 88.5364C91.4158 88.4502 91.4803 88.3842 91.5267 88.3364C91.5703 88.2913 91.5908 88.2666 91.5908 88.2666C91.5908 88.2666 91.5657 88.2868 91.52 88.3295C91.472 88.3756 91.4052 88.4394 91.3184 88.5227C91.1403 88.6984 90.8815 88.9535 90.546 89.2842C89.8776 89.9562 88.8973 90.9359 87.7236 92.2345C87.4339 92.5628 87.1281 92.9072 86.832 93.2898C86.6837 93.4808 86.5333 93.6772 86.4123 93.9059C86.3865 93.9649 86.3475 94.0211 86.3324 94.0837L86.2827 94.2716C86.2475 94.3974 86.2265 94.5248 86.1973 94.6535C85.9854 95.6826 85.7979 96.7976 85.5963 97.9844C85.1979 100.359 84.7748 103.023 84.3307 105.905L84.3288 105.918L84.3329 105.931C84.5027 106.485 84.6593 107.053 84.7954 107.633C84.9255 108.213 85.0578 108.811 85.0668 109.415L85.1269 109.356C82.7966 109.351 80.3551 109.346 77.8355 109.341L77.8957 109.389C77.7963 108.865 77.852 108.279 78.1294 107.809C78.1916 107.688 78.2832 107.587 78.3671 107.482C78.4673 107.392 78.5579 107.291 78.6744 107.221C78.8904 107.059 79.1455 106.958 79.4009 106.874C79.4363 106.86 79.4564 106.857 79.5047 106.834C79.5542 106.813 79.5784 106.779 79.6049 106.748C79.6516 106.683 79.6824 106.617 79.7078 106.55C79.7589 106.416 79.7963 106.281 79.8266 106.146C79.889 105.875 79.9323 105.604 79.9711 105.333C80.1184 104.249 80.1954 103.177 80.2681 102.123C80.4073 100.016 80.4984 97.9811 80.6027 96.0443C80.71 94.1082 80.8055 92.2657 81.0063 90.5552C81.0604 90.1288 81.1185 89.7085 81.2187 89.3092C81.3266 88.9084 81.4378 88.5162 81.5554 88.1339C81.7879 87.3685 82.0249 86.6377 82.2545 85.9415C83.1776 83.1577 83.9715 80.9202 84.5142 79.3722C84.7858 78.6013 84.9973 78.0018 85.1422 77.5907C85.2123 77.3896 85.2661 77.235 85.3038 77.1268C85.3397 77.0216 85.355 76.9669 85.355 76.9669Z" fill="#263238"/>
<path d="M91.7241 99.0813C91.7269 99.0847 91.7726 99.0494 91.857 98.9791C91.9503 98.8997 92.072 98.796 92.2234 98.6671C92.5345 98.3887 92.9734 97.9709 93.4828 97.4237C94.5106 96.3374 95.8157 94.7316 97.1346 92.8704C98.4439 91.0017 99.5213 89.2332 100.196 87.8966C100.537 87.2309 100.782 86.6757 100.937 86.2872C101.005 86.1002 101.061 85.95 101.103 85.8348C101.14 85.7309 101.157 85.6759 101.153 85.6745C101.149 85.673 101.124 85.7253 101.079 85.8261C101.031 85.9389 100.969 86.0858 100.892 86.2687C100.724 86.6501 100.468 87.1973 100.117 87.8558C99.4254 89.1775 98.3392 90.9338 97.0327 92.7984C95.7166 94.6555 94.426 96.2657 93.418 97.3637C92.9184 97.9169 92.4908 98.3426 92.1904 98.6313C92.0457 98.7672 91.9297 98.8764 91.8405 98.9601C91.7616 99.0365 91.7214 99.078 91.7241 99.0813Z" fill="#263238"/>
<path d="M95.7353 98.1529C95.2971 99.572 94.9965 101.031 94.8609 102.511C94.8315 102.833 94.6072 103.111 94.2631 103.111C93.9625 103.111 93.6355 102.835 93.6652 102.511C93.8104 100.923 94.1119 99.3565 94.5821 97.8337C94.6777 97.5243 94.9992 97.3268 95.3175 97.4146C95.6224 97.4986 95.8312 97.8421 95.7353 98.1529Z" fill="#A86D0D"/>
<path d="M102.639 73.556C102.841 68.4224 103.21 62.4277 102.654 60.4748C102.099 58.5221 98.1806 54.6617 95.9317 53.7665C93.6827 52.8713 89.9549 54.0656 88.8285 55.0645L81.7437 53.3453C81.7437 53.3453 80.355 56.5774 82.068 59.1706C83.7813 61.7636 88.8297 61.7321 88.8297 61.7321C88.8297 61.7321 89.2829 64.5533 87.1238 64.801C84.9648 65.0487 82.09 64.7084 81.8128 67.0657L86.2502 67.465L86.0018 71.3905L94.4423 75.8921L102.348 73.6021" fill="#F2D352"/>
<path d="M96.5685 56.881C96.5613 56.8803 96.5458 56.9539 96.5233 57.0951C96.4996 57.2604 96.4704 57.4649 96.435 57.7138C96.3638 58.2833 96.2672 59.0544 96.1495 59.9935C96.0357 60.9665 95.9015 62.1115 95.7535 63.3778C95.6798 64.0135 95.6011 64.6879 95.5949 65.3933C95.5947 66.0955 95.6585 66.8441 95.9515 67.5521C96.2442 68.2563 96.7957 68.8421 97.4636 69.1253C98.1285 69.4198 98.8519 69.4303 99.4911 69.3053C100.133 69.1678 100.705 68.874 101.142 68.4852C101.576 68.0955 101.892 67.6443 102.107 67.202C102.545 66.3132 102.626 65.5011 102.642 64.9603C102.648 64.6872 102.634 64.4755 102.619 64.333C102.602 64.1904 102.59 64.1163 102.582 64.117C102.563 64.1184 102.593 64.4184 102.56 64.9565C102.519 65.4886 102.414 66.2818 101.973 67.1333C101.757 67.5574 101.445 67.9853 101.026 68.3518C100.607 68.7142 100.062 68.9868 99.4521 69.1121C98.845 69.2254 98.1624 69.2098 97.5473 68.9331C96.9308 68.6679 96.4248 68.1303 96.1481 67.4686C95.8723 66.8031 95.8059 66.0809 95.8039 65.394C95.807 64.7031 95.8802 64.0371 95.9489 63.3991C96.0802 62.131 96.1988 60.9845 96.2995 60.0099C96.3894 59.0676 96.463 58.2939 96.5176 57.7227C96.5369 57.4721 96.5532 57.2662 96.5661 57.0996C96.575 56.9573 96.5759 56.8819 96.5685 56.881Z" fill="#263238"/>
<path d="M83.8566 53.8881C83.8838 54.2572 83.7081 54.6606 83.4696 54.9251C83.2312 55.1896 82.8919 55.3386 82.5535 55.4483C82.1134 55.5911 81.6215 55.6777 81.1973 55.4922C81.1973 54.921 81.2867 54.3501 81.461 53.8067C81.5148 53.6392 81.5918 53.4573 81.7528 53.3872C81.843 53.3481 81.9451 53.3514 82.0431 53.3586C82.6757 53.4049 83.2982 53.5869 83.8566 53.8881Z" fill="#263238"/>
<g opacity="0.3">
<path d="M102.564 65.4091C102.374 66.6784 102.025 68.0697 101.16 69.0158C100.295 69.9616 98.9378 70.5199 97.7021 70.188C96.1849 69.7804 95.246 68.159 95.1255 66.5875C95.005 65.016 95.527 63.4744 96.0419 61.9855C95.7949 63.402 95.5488 64.866 95.8795 66.2654C96.2103 67.6648 97.2742 68.9944 98.6969 69.1663C99.6856 69.2856 100.693 68.8159 101.35 68.0652C102.008 67.3144 102.496 66.406 102.564 65.4091Z" fill="#1D1D20"/>
</g>
<path d="M81.1729 56.0548C81.1598 56.0558 81.1533 56.1883 81.171 56.4266C81.1868 56.6652 81.233 57.0091 81.3317 57.4262C81.4298 57.8431 81.5905 58.3317 81.8423 58.8434C82.0987 59.3491 82.4564 59.8884 82.9828 60.3024C83.5034 60.7161 84.0786 60.9804 84.6078 61.1767C85.1387 61.3737 85.6352 61.4899 86.0535 61.5693C86.4725 61.6464 86.8152 61.6833 87.0526 61.696C87.2901 61.709 87.4219 61.7035 87.4228 61.6898C87.4257 61.6545 86.9032 61.6113 86.0841 61.4215C85.6759 61.3243 85.1916 61.1949 84.6769 60.9924C84.164 60.791 83.6089 60.5275 83.1153 60.1348C82.6207 59.7465 82.2745 59.2377 82.0167 58.7529C81.7639 58.2628 81.5917 57.7912 81.4774 57.3873C81.2468 56.5783 81.2105 56.051 81.1729 56.0548Z" fill="#263238"/>
<path d="M91.4946 57.1289C91.9115 57.2986 92.0105 57.9553 91.6625 58.2411C91.3146 58.5269 90.6928 58.2999 90.6093 57.8564C90.5258 57.4129 91.0223 56.9739 91.4502 57.1126" fill="#263238"/>
<path d="M93.9312 57.8906C94.0108 57.9208 94.1412 57.8186 94.2404 57.592C94.3399 57.3683 94.3908 57.0186 94.3119 56.6498C94.2325 56.2811 94.0429 55.9833 93.8604 55.8203C93.677 55.6547 93.5163 55.6154 93.456 55.6758C93.3341 55.8098 93.5787 56.2341 93.687 56.7846C93.814 57.3311 93.765 57.8188 93.9312 57.8906Z" fill="#263238"/>
<path d="M85.1268 99.8765C85.1271 99.8904 85.3722 99.8765 85.8129 99.8981C86.0329 99.9086 86.3025 99.9312 86.6083 99.9902C86.9142 100.048 87.256 100.155 87.597 100.348C88.2819 100.731 88.9491 101.415 89.7149 102.123C90.4696 102.84 91.1715 103.777 92.1676 104.497C92.6619 104.856 93.2301 105.098 93.8007 105.192C94.3713 105.285 94.9245 105.273 95.442 105.315C95.9574 105.355 96.451 105.445 96.8499 105.67C97.2516 105.887 97.5659 106.193 97.7864 106.515C98.2322 107.162 98.3438 107.825 98.3271 108.259C98.3137 108.7 98.2209 108.934 98.2379 108.937C98.2379 108.937 98.3465 108.709 98.3754 108.261C98.4072 107.819 98.3082 107.138 97.8588 106.464C97.6364 106.13 97.3157 105.809 96.8991 105.579C96.4835 105.339 95.9736 105.244 95.4513 105.201C94.9271 105.155 94.3759 105.164 93.8211 105.071C93.2681 104.978 92.7231 104.746 92.2396 104.394C91.266 103.693 90.5605 102.76 89.7945 102.04C89.0218 101.335 88.3493 100.656 87.6391 100.27C87.2866 100.078 86.9333 99.9739 86.6213 99.9218C86.3087 99.8685 86.0363 99.8529 85.8146 99.8498C85.5927 99.8462 85.4205 99.8522 85.304 99.8604C85.1878 99.8666 85.1268 99.8721 85.1268 99.8765Z" fill="#263238"/>
<path d="M94.0322 107.189C94.0325 107.182 93.9545 107.171 93.8127 107.171C93.6709 107.17 93.4647 107.187 93.2158 107.242C92.7214 107.346 92.0437 107.647 91.5169 108.237C90.991 108.828 90.7681 109.537 90.7188 110.042C90.692 110.296 90.6983 110.503 90.7145 110.645C90.7305 110.787 90.7494 110.863 90.7568 110.862C90.7808 110.86 90.7317 110.547 90.8059 110.053C90.8759 109.565 91.1048 108.887 91.6094 108.32C92.115 107.755 92.7602 107.452 93.2366 107.328C93.7177 107.199 94.0334 107.213 94.0322 107.189Z" fill="#263238"/>
<path d="M91.6721 110.352C91.6594 110.355 91.6896 110.577 91.8493 110.899C92.0057 111.217 92.3149 111.629 92.7844 111.919C93.2541 112.209 93.7596 112.301 94.1138 112.297C94.4716 112.296 94.6832 112.223 94.6796 112.21C94.6763 112.189 94.4615 112.23 94.1167 112.209C93.7745 112.19 93.2964 112.088 92.8499 111.812C92.4037 111.536 92.098 111.154 91.9268 110.856C91.7527 110.557 91.6924 110.346 91.6721 110.352Z" fill="#263238"/>
<path d="M93.7357 108.803C93.7319 108.823 93.9271 108.86 94.2171 108.983C94.5063 109.104 94.8887 109.326 95.2132 109.678C95.538 110.03 95.73 110.43 95.8278 110.728C95.9275 111.028 95.9498 111.226 95.9703 111.223C95.9842 111.223 95.9933 111.019 95.9122 110.703C95.8333 110.388 95.6456 109.962 95.3046 109.593C94.964 109.224 94.5551 109.003 94.2487 108.901C93.9402 108.795 93.7372 108.789 93.7357 108.803Z" fill="#263238"/>
<path d="M80.1171 109.558C80.136 109.554 80.0982 109.369 80.0666 109.07C80.037 108.774 80.0171 108.35 80.169 107.926C80.3225 107.505 80.6439 107.214 80.9072 107.096C81.1741 106.972 81.3688 106.994 81.3681 106.97C81.3731 106.96 81.1722 106.902 80.873 107.014C80.5794 107.121 80.219 107.425 80.0518 107.883C79.8892 108.339 79.927 108.783 79.9793 109.082C80.0343 109.385 80.1025 109.562 80.1171 109.558Z" fill="#263238"/>
<path d="M103.73 106.806C103.732 106.827 103.952 106.8 104.297 106.852C104.64 106.901 105.113 107.051 105.526 107.383C105.94 107.716 106.189 108.146 106.311 108.471C106.437 108.798 106.458 109.02 106.48 109.017C106.492 109.017 106.503 108.789 106.395 108.442C106.29 108.098 106.041 107.637 105.604 107.286C105.168 106.935 104.665 106.792 104.308 106.764C103.946 106.734 103.727 106.794 103.73 106.806Z" fill="#263238"/>
<path d="M73.955 104.618C73.9658 104.61 73.8412 104.467 73.6592 104.18C73.4765 103.895 73.2454 103.457 73.0651 102.878C72.8898 102.299 72.7702 101.578 72.8016 100.777C72.831 99.9788 73.0104 99.0996 73.3992 98.2633C73.7902 97.4276 74.373 96.739 75.0319 96.2897C75.6845 95.8311 76.3661 95.5596 76.9565 95.4478C77.5494 95.3376 78.0459 95.3847 78.3699 95.4754C78.5316 95.5234 78.6564 95.5644 78.737 95.6031C78.8195 95.6372 78.8642 95.6532 78.8661 95.6494C78.8681 95.6456 78.8274 95.622 78.7475 95.5803C78.6696 95.5337 78.5459 95.4848 78.3833 95.4286C78.0576 95.3216 77.5494 95.2592 76.9412 95.3607C76.3352 95.4639 75.6364 95.732 74.9664 96.1952C74.6323 96.4265 74.3049 96.71 74.0208 97.052C73.7364 97.3933 73.4882 97.7844 73.2866 98.2097C72.8891 99.0646 72.7105 99.9603 72.6868 100.773C72.6612 101.588 72.7923 102.32 72.9809 102.904C73.1749 103.489 73.4215 103.927 73.6185 104.207C73.7178 104.347 73.7988 104.452 73.8601 104.519C73.9194 104.587 73.9516 104.621 73.955 104.618Z" fill="#263238"/>
<path d="M102.892 92.3422C102.895 92.3791 103.504 92.1341 104.51 92.2512C105.008 92.305 105.592 92.4672 106.186 92.7617C106.774 93.0612 107.373 93.5054 107.846 94.1078C108.087 94.404 108.262 94.7333 108.386 95.0719C108.508 95.4115 108.581 95.754 108.634 96.0826C108.73 96.7426 108.741 97.3476 108.738 97.8542C108.733 98.3614 108.717 98.7722 108.711 99.0564C108.71 99.1865 108.709 99.2945 108.708 99.384C108.708 99.4589 108.711 99.4982 108.715 99.4985C108.719 99.4987 108.725 99.4596 108.733 99.3852C108.74 99.2962 108.749 99.1884 108.76 99.059C108.78 98.7756 108.81 98.3652 108.825 97.8559C108.84 97.3474 108.838 96.7375 108.747 96.0658C108.696 95.731 108.624 95.3806 108.501 95.0304C108.375 94.6822 108.191 94.3351 107.942 94.0301C107.457 93.4116 106.841 92.959 106.236 92.6587C105.626 92.3633 105.027 92.207 104.518 92.1634C104.009 92.117 103.592 92.1566 103.315 92.2198C103.174 92.2414 103.07 92.2829 102.998 92.3021C102.927 92.3244 102.89 92.3381 102.892 92.3422Z" fill="#263238"/>
<path d="M112.755 87.1473C112.764 87.1487 112.785 87.0556 112.816 86.8852C112.85 86.7153 112.881 86.4662 112.903 86.157C112.95 85.5393 112.927 84.6741 112.733 83.7451C112.536 82.8163 112.208 82.0158 111.916 81.4696C111.771 81.196 111.642 80.9807 111.543 80.8389C111.446 80.6958 111.389 80.6193 111.382 80.6238C111.363 80.6358 111.57 80.957 111.838 81.5095C112.106 82.0607 112.417 82.8544 112.611 83.7707C112.803 84.6873 112.839 85.5393 112.815 86.1523C112.793 86.7662 112.733 87.1437 112.755 87.1473Z" fill="#263238"/>
<path d="M113.522 87.5211C113.531 87.5228 113.555 87.4299 113.593 87.26C113.632 87.0905 113.674 86.8419 113.714 86.5332C113.793 85.9162 113.835 85.0515 113.745 84.1035C113.653 83.1555 113.446 82.3148 113.25 81.7244C113.153 81.4289 113.064 81.1932 112.993 81.0344C112.924 80.8748 112.882 80.7884 112.874 80.7917C112.854 80.7996 112.993 81.1572 113.166 81.7505C113.339 82.3431 113.529 83.1776 113.621 84.1155C113.71 85.0534 113.682 85.9088 113.626 86.5236C113.57 87.1392 113.501 87.5172 113.522 87.5211Z" fill="#263238"/>
<g opacity="0.3">
<path d="M97.9228 97.0378C96.9306 98.1286 96.2124 99.4687 95.8525 100.901C95.7726 101.219 95.7119 101.565 95.8403 101.867C96.1148 102.513 97.0011 102.543 97.6076 102.894C98.1153 103.187 98.4298 103.719 98.7218 104.229C99.71 105.954 100.698 107.678 101.687 109.403C100.771 109.327 100.431 109.424 99.5151 109.348L98.0419 109.38C98.0964 109.404 98.3284 108.677 98.3478 108.336C98.4073 107.295 97.7066 106.034 96.7754 105.57C95.6047 104.987 94.2588 105.474 93.0712 104.927C91.934 104.403 91.2565 103.601 90.5173 102.865C89.5894 101.941 88.6701 100.717 87.4811 100.172C86.9437 99.9264 85.6581 99.9019 85.6581 99.9019C86.2698 99.1812 87.389 99.2179 88.2999 99.4644C89.2109 99.7109 90.1431 100.109 91.0633 99.901C91.8365 99.7267 92.4496 99.1548 93.0224 98.6052C94.4886 97.1983 96.0055 95.7137 96.6589 93.7863C97.0669 94.8437 97.4746 95.9011 97.8826 96.9583" fill="#845E20"/>
</g>
<g opacity="0.3">
<path d="M77.835 109.403C77.3612 108.237 78.4408 106.859 78.8758 105.678C79.3168 104.481 79.2213 103.165 79.2185 101.889C79.2127 99.2051 79.6475 96.5212 80.5003 93.9777C80.595 97.4745 80.1973 101.19 79.9897 104.682C79.9457 105.424 80.0029 106.281 79.4605 106.786C79.1833 107.045 79.0181 106.931 78.7079 107.149C78.3977 107.366 77.7862 107.859 77.835 109.403Z" fill="#1D1D20"/>
</g>
<path d="M91.9176 74.9354C91.9248 74.9647 92.5354 74.7492 93.1139 74.2171C93.6969 73.6898 93.9688 73.1004 93.9404 73.0905C93.9071 73.0697 93.595 73.6147 93.0299 74.1247C92.4706 74.6402 91.9002 74.9004 91.9176 74.9354Z" fill="#263238"/>
<path d="M91.02 74.4428C91.0296 74.4728 91.5444 74.3055 92.0835 73.9213C92.6249 73.5402 92.9542 73.1094 92.9293 73.0902C92.9018 73.0647 92.5391 73.4483 92.0117 73.8191C91.487 74.1935 91.0054 74.408 91.02 74.4428Z" fill="#263238"/>
<path d="M89.8389 74.4006C89.8459 74.4311 90.3505 74.303 90.874 73.9444C91.4001 73.5892 91.7057 73.1665 91.6802 73.1488C91.6519 73.1236 91.3135 73.4978 90.8041 73.841C90.2981 74.1882 89.8263 74.3651 89.8389 74.4006Z" fill="#263238"/>
<path d="M97.9733 84.7071C97.9833 84.7354 98.5709 84.4546 99.0863 83.8561C99.6069 83.2618 99.8037 82.6393 99.7745 82.6333C99.7389 82.6167 99.4967 83.1994 98.9925 83.774C98.4944 84.3536 97.952 84.674 97.9733 84.7071Z" fill="#263238"/>
<path d="M97.0914 84.7199C97.1083 84.7465 97.5603 84.4535 97.9779 83.9439C98.3986 83.4368 98.6006 82.9364 98.5715 82.9249C98.5382 82.9079 98.2914 83.3711 97.882 83.8643C97.4759 84.3601 97.0684 84.6901 97.0914 84.7199Z" fill="#263238"/>
<path d="M95.5515 85.0204C95.5766 85.044 95.9561 84.676 96.3992 84.1989C96.8424 83.7216 97.181 83.3157 97.1559 83.2922C97.1308 83.2687 96.7513 83.6364 96.3081 84.1137C95.865 84.5911 95.5264 84.9969 95.5515 85.0204Z" fill="#263238"/>
<path d="M100.298 65.0467C100.308 65.0585 100.405 65.0037 100.528 64.8751C100.652 64.7474 100.795 64.5389 100.884 64.2792C100.973 64.019 100.988 63.7665 100.968 63.5894C100.949 63.4116 100.906 63.3086 100.891 63.3122C100.854 63.317 100.939 63.7483 100.766 64.2386C100.603 64.7318 100.272 65.0196 100.298 65.0467Z" fill="#263238"/>
<path d="M99.8778 64.8627C99.9033 64.8824 100.117 64.6184 100.238 64.2236C100.361 63.8295 100.334 63.4906 100.302 63.4923C100.265 63.4911 100.236 63.8125 100.119 64.1866C100.004 64.5613 99.8469 64.8428 99.8778 64.8627Z" fill="#263238"/>
<path d="M98.9273 65.4591C98.9529 65.4788 99.2468 65.1181 99.4797 64.597C99.7153 64.0772 99.7904 63.6171 99.7588 63.6111C99.7234 63.6022 99.5959 64.0385 99.3661 64.5457C99.1394 65.054 98.8971 65.4382 98.9273 65.4591Z" fill="#263238"/>
<path d="M40.3414 90.6423C40.3414 90.6423 39.6272 100.549 39.627 100.556C39.6171 102.496 39.643 104.197 39.7385 105.076C39.7383 105.081 39.7381 105.085 39.7402 105.09C39.776 105.422 39.8214 105.634 39.8804 105.69C39.885 105.695 39.8871 105.7 39.8917 105.703C40.4672 106.097 55.9697 106.627 56.5165 106.464C57.0656 106.303 56.6405 104.729 56.0552 104.228C55.4653 103.727 49.6232 100.87 49.6232 100.87L50.2412 90.9675L40.3414 90.6423Z" fill="#AD6359"/>
<path d="M39.6267 98.4733C39.6267 98.4733 39.6272 100.549 39.627 100.556C39.6171 102.496 39.643 104.197 39.7385 105.076C39.7383 105.081 39.7381 105.086 39.7402 105.09C39.795 105.418 39.8451 105.635 39.8804 105.69C39.885 105.695 39.8871 105.7 39.8917 105.703C40.4672 106.097 55.9697 106.627 56.5165 106.464C57.0656 106.303 56.6405 104.729 56.0552 104.228C55.4653 103.727 49.6232 100.87 49.6232 100.87L49.6517 98.756L39.6267 98.4733Z" fill="white"/>
<path d="M56.517 106.464C55.9693 106.628 40.4679 106.098 39.8912 105.702C39.6695 105.556 39.615 103.293 39.6277 100.556C39.6282 100.528 39.6284 100.499 39.6289 100.471L49.6335 100.701L49.6239 100.871C49.6239 100.871 55.4665 103.728 56.0555 104.229C56.6394 104.729 57.0647 106.303 56.517 106.464Z" fill="#F2D352"/>
<path d="M56.3621 105.857C53.7513 105.704 43.2062 105.33 40.6137 105.377C40.5926 105.378 40.5921 105.392 40.6133 105.394C43.1976 105.602 53.7453 105.89 56.3606 105.9C56.4158 105.9 56.4173 105.86 56.3621 105.857Z" fill="#263238"/>
<path d="M50.4635 100.93C49.4418 100.703 48.1787 100.817 47.368 101.523C47.3365 101.55 47.3759 101.595 47.4095 101.586C48.4348 101.3 49.3892 101.128 50.4548 101.06C50.5302 101.054 50.5367 100.946 50.4635 100.93Z" fill="#263238"/>
<path d="M51.19 101.402C50.1684 101.175 48.9052 101.29 48.0945 101.995C48.0631 102.023 48.1024 102.067 48.136 102.058C49.1616 101.773 50.1158 101.6 51.1814 101.532C51.2565 101.527 51.2632 101.419 51.19 101.402Z" fill="#263238"/>
<path d="M51.9166 101.875C50.8949 101.648 49.6318 101.763 48.8211 102.469C48.7896 102.496 48.829 102.54 48.8626 102.531C49.8881 102.246 50.8424 102.073 51.908 102.005C51.9831 102 51.9898 101.891 51.9166 101.875Z" fill="#263238"/>
<path d="M39.0302 100.984L49.8816 100.767C49.8816 100.767 51.2049 81.2405 50.9582 74.7303C50.6904 67.6589 47.6529 46.6186 47.6529 46.6186H38.4883C38.4883 46.6186 40.8309 67.741 40.8806 74.8152C40.9267 81.3737 39.0302 100.984 39.0302 100.984Z" fill="#263238"/>
<path d="M45.8522 46.6188L40.3471 65.6647C39.6955 56.6513 38.4883 46.6188 38.4883 46.6188H45.8522Z" fill="#263238"/>
<path d="M40.2275 47.6559L40.8098 53.9364L41.3486 60.2208C41.6937 64.412 42.0213 68.6038 42.2707 72.804C42.3319 73.8536 42.3688 74.9084 42.3539 75.9636C42.3314 77.0168 42.2891 78.0682 42.2359 79.1187C42.1279 81.2196 41.9923 83.3182 41.8307 85.4148C41.6716 87.5117 41.5027 89.6074 41.3219 91.7024L40.7366 97.9829L41.2055 91.693C41.362 89.5966 41.5111 87.4997 41.6476 85.4021C41.7801 83.3043 41.9222 81.2072 42.0189 79.1081C42.0686 78.0588 42.107 77.0093 42.1259 75.9603C42.1372 74.9129 42.0962 73.8658 42.0326 72.8168C41.8036 68.6208 41.4722 64.4283 41.1664 60.2352L40.2275 47.6559Z" fill="#263238"/>
<path d="M49.4281 98.9568C47.7339 98.9422 48.2204 98.9225 46.526 98.9266C45.697 98.9285 40.2486 98.9472 39.4755 99.085C39.4585 99.0881 39.4587 99.1169 39.476 99.1195C40.2522 99.2383 45.6992 99.1248 46.5282 99.1068C48.2221 99.0698 47.7354 99.0622 49.4286 99.0063C49.4605 99.0051 49.46 98.957 49.4281 98.9568Z" fill="#263238"/>
<path d="M22.7028 85.3284C22.7028 85.3284 17.4682 93.8364 17.4648 93.8427C16.6147 95.5868 15.9002 97.1309 15.6053 97.9642C15.6031 97.9683 15.601 97.9726 15.6007 97.9779C15.4891 98.2923 15.4382 98.5028 15.4668 98.5793C15.4687 98.5858 15.4687 98.5911 15.4718 98.5952C15.8194 99.2 29.5584 106.401 30.1222 106.49C30.6866 106.583 30.9862 104.981 30.6761 104.276C30.3617 103.569 26.3366 98.4605 26.3366 98.4605L31.4827 89.9148L22.7028 85.3284Z" fill="#AD6359"/>
<path d="M15.4675 98.5803C15.4675 98.5853 15.4675 98.5904 15.4702 98.5954C15.8189 99.2 29.5574 106.401 30.1222 106.491C30.6866 106.584 30.9852 104.981 30.6766 104.275C30.3605 103.568 26.3362 98.4598 26.3362 98.4598L27.2544 96.9343C25.009 95.7375 20.927 93.6351 18.3929 92.3331C17.8409 93.2287 17.4648 93.841 17.4648 93.8434C16.6142 95.5872 15.8993 97.13 15.6058 97.963C15.6031 97.968 15.6007 97.9731 15.6007 97.9781C15.4877 98.2918 15.4375 98.5025 15.4675 98.5803Z" fill="white"/>
<path d="M30.1221 106.491C29.5574 106.401 15.8195 99.2009 15.4713 98.5944C15.3347 98.3662 16.2674 96.3034 17.4655 93.8432C17.4782 93.8175 17.4909 93.792 17.5036 93.7664L26.4187 98.3124L26.3363 98.4612C26.3363 98.4612 30.3621 103.569 30.6753 104.276C30.9851 104.98 30.6859 106.583 30.1221 106.491Z" fill="#F2D352"/>
<path d="M30.2459 105.876C27.9599 104.606 18.6198 99.697 16.2635 98.6148C16.2443 98.6059 16.2376 98.6186 16.2558 98.6294C18.4941 99.9382 27.8737 104.771 30.226 105.915C30.2757 105.938 30.2941 105.903 30.2459 105.876Z" fill="#263238"/>
<path d="M27.0673 98.8781C26.2451 98.2303 25.0573 97.7861 24.0207 98.0705C23.9804 98.0815 23.9967 98.1384 24.0313 98.1446C25.0789 98.3323 26.0137 98.5906 27.0035 98.9914C27.0731 99.0197 27.1261 98.9244 27.0673 98.8781Z" fill="#263238"/>
<path d="M27.5175 99.6192C26.6953 98.9715 25.5075 98.5272 24.4709 98.8116C24.4306 98.8227 24.4469 98.8796 24.4815 98.8858C25.5291 99.0737 26.4641 99.3317 27.4537 99.7325C27.5233 99.7608 27.5763 99.6658 27.5175 99.6192Z" fill="#263238"/>
<path d="M27.9677 100.36C27.1455 99.7126 25.9577 99.2683 24.9211 99.5527C24.8808 99.5638 24.8971 99.6207 24.9317 99.6269C25.9793 99.8148 26.9141 100.073 27.9039 100.474C27.9735 100.502 28.0265 100.407 27.9677 100.36Z" fill="#263238"/>
<path d="M46.7157 46.6102C46.7157 46.6102 46.7157 46.6126 46.7133 46.6195C46.6732 46.8079 46.0324 49.781 45.3681 52.3349C44.8852 54.2009 44.3881 55.8406 44.103 56.01C43.7802 56.2008 42.2065 56.8982 41.6788 57.1171C41.6788 57.1171 38.1395 74.7852 36.2709 80.2639C34.5467 85.3195 27.412 98.8327 27.412 98.8327L17.0605 93.6026C17.0605 93.6026 25.1445 79.8886 25.9945 77.4274C27.3119 73.6128 32.2489 54.9871 32.2489 54.9871C32.2489 54.9871 32.2113 49.1558 34.1749 46.6099L46.7157 46.6102Z" fill="#263238"/>
<path d="M27.2601 96.8148C25.781 95.9885 26.2171 96.2047 24.7289 95.395C24.0007 94.9987 19.2124 92.399 18.4682 92.1487C18.4519 92.1432 18.4382 92.1686 18.4519 92.1792C19.0757 92.6561 23.9083 95.1718 24.6441 95.5538C26.1477 96.3348 25.7246 96.0941 27.2366 96.8582C27.2652 96.8729 27.2877 96.8304 27.2601 96.8148Z" fill="#263238"/>
<path d="M34.9055 53.3652C35.1887 53.2925 35.492 53.2694 35.781 53.2236C36.0145 53.1866 36.2471 53.1454 36.478 53.0945C36.9126 52.9987 37.3525 52.8535 37.708 52.5766C38.1083 52.2648 38.3121 51.792 38.5055 51.3374C38.6205 51.0674 38.739 50.7996 38.8592 50.532C38.9176 50.4022 38.9764 50.2728 39.0364 50.1439C39.1067 49.9932 39.2034 49.836 39.255 49.6783C39.2625 49.6553 39.2994 49.6675 39.2903 49.6889C39.2447 49.794 39.2253 49.9138 39.1919 50.0242C39.1525 50.1542 39.1153 50.2848 39.0752 50.4146C39.0032 50.6462 38.9332 50.8788 38.8568 51.109C38.7196 51.5225 38.5974 51.9562 38.3639 52.3279C37.9365 53.0083 37.1725 53.2824 36.4086 53.3789C36.1897 53.4065 35.9687 53.4221 35.7486 53.4346C35.476 53.4502 35.1858 53.4744 34.9141 53.4408C34.8726 53.4362 34.8606 53.3767 34.9055 53.3652Z" fill="#263238"/>
<path d="M44.9409 55.5932C43.8177 55.9798 42.7333 56.5287 41.6968 57.1042C41.6562 57.1268 41.6829 57.1899 41.727 57.1709C42.82 56.7017 43.9343 56.2527 44.9999 55.7237C45.0834 55.682 45.027 55.5634 44.9409 55.5932Z" fill="#263238"/>
<path d="M45.2699 48.1075C45.267 48.0699 45.2005 48.0615 45.2007 48.1023C45.2096 49.3997 45.1268 50.5411 45.0174 51.7536C44.9665 52.3167 44.5139 55.4275 43.5378 55.2007C43.3743 55.1628 43.2908 55.0018 43.2654 54.7555C43.2347 54.4594 43.346 54.096 43.395 53.8015C43.5035 53.1504 43.5903 52.4969 43.6463 51.8391C43.7507 50.611 43.7559 49.3831 43.6067 48.1589C43.6019 48.1188 43.5438 48.1217 43.5438 48.1625C43.5452 49.8624 43.5008 51.5592 43.2467 53.2431C43.1245 54.0521 42.717 55.2703 43.5632 55.3949C44.4253 55.5216 44.9828 53.4811 45.0879 52.9229C45.3812 51.3651 45.393 49.6836 45.2699 48.1075Z" fill="#263238"/>
<path d="M43.5634 55.2845C43.4751 55.4933 43.4043 55.7108 43.3438 55.9294C43.297 56.0991 43.2332 56.2824 43.2526 56.4593C43.2562 56.4936 43.3018 56.497 43.32 56.4737C43.4345 56.3285 43.4828 56.13 43.5468 55.958C43.621 55.7585 43.6997 55.5605 43.7681 55.3592C43.8137 55.2255 43.6179 55.1556 43.5634 55.2845Z" fill="#263238"/>
<path d="M19.8551 91.8859C21.3284 89.112 22.8474 86.3635 24.3719 83.6175C25.1233 82.2639 25.9076 80.9256 26.625 79.5535C27.3337 78.198 27.8144 76.7741 28.2628 75.3161C29.1743 72.3535 30.0378 69.3763 30.8524 66.3857C31.6672 63.3951 32.4284 60.39 33.148 57.3751C33.328 56.6211 33.525 55.8672 33.6702 55.1057C33.8212 54.3144 33.7758 53.575 33.6666 52.7823C33.5668 52.0577 33.5387 51.3444 33.6498 50.6189C33.7597 49.9018 33.939 49.1967 34.1557 48.505C34.27 48.1404 34.3938 47.7792 34.5188 47.4185C34.5328 47.3782 34.5952 47.3964 34.5827 47.4377C34.1365 48.8981 33.6803 50.3743 33.776 51.9209C33.8221 52.6647 34.0189 53.3943 34.0062 54.1426C33.9935 54.8868 33.7976 55.6169 33.6306 56.3376C32.9272 59.3715 32.1678 62.3919 31.3628 65.4005C30.5579 68.4089 29.704 71.4041 28.8004 74.3844C28.3612 75.8335 27.9503 77.3057 27.327 78.6893C26.7025 80.0753 25.9117 81.3845 25.1677 82.7081C23.63 85.4434 22.0794 88.1717 20.4942 90.8799C20.2933 91.2231 20.0905 91.5651 19.8882 91.9073C19.8755 91.9284 19.8433 91.9083 19.8551 91.8859Z" fill="#263238"/>
<path d="M41.8163 29.742C40.5407 29.0571 37.0348 28.7566 35.6224 29.7041C33.8392 30.9005 32.1973 37.8324 32.9245 38.2421C34.2229 38.9741 38.7155 34.9472 39.6942 33.2943C40.6729 31.6416 41.8163 29.742 41.8163 29.742Z" fill="#F2D352"/>
<path opacity="0.1" d="M41.816 29.7413C41.816 29.7413 40.6728 31.6426 39.6944 33.2935C38.7159 34.9466 34.2224 38.9743 32.9237 38.2416C32.5272 38.0167 32.838 35.8394 33.4942 33.7178L40.3853 29.2891C40.9673 29.4005 41.4728 29.5582 41.816 29.7413Z" fill="#1D1D20"/>
<path d="M42.159 34.711C42.7753 37.4693 45.2866 45.7078 47.9084 46.7443C49.6287 47.4247 57.068 48.39 57.8852 47.8409C58.5769 47.376 59.0821 40.8523 58.0873 40.9001C57.0922 40.9479 50.4459 40.4753 49.7699 40.1523C49.0979 39.8311 45.7681 33.4882 44.031 31.6404C41.0353 28.4542 41.827 33.2254 42.159 34.711Z" fill="#AD6359"/>
<path d="M61.2521 48.2069C59.7963 48.6116 56.4951 48.2746 55.7302 47.887C54.9651 47.4994 55.3515 41.868 56.0828 41.3784C56.814 40.8888 61.8214 39.906 63.2391 40.5123C64.6568 41.1185 62.7605 47.7876 61.2521 48.2069Z" fill="#AD6359"/>
<path d="M60.1619 41.257L57.2891 46.1617" stroke="#F2D352" stroke-width="6" stroke-miterlimit="10"/>
<path d="M101.103 69.5986C101.103 69.5986 89.134 79.2416 82.7694 69.5986C78.5545 63.2127 69.5502 39.5482 63.9315 39.464C61.6902 39.4304 59.7829 41.5671 59.2194 42.698C58.6558 43.8286 57.585 45.5715 57.585 45.5715" stroke="#263238" stroke-miterlimit="10"/>
<path d="M60.871 40.0176C60.3219 40.6003 61.323 40.9138 61.323 40.9138C61.323 40.9138 59.7733 40.8096 59.4394 41.6292C59.1198 42.42 60.3423 42.7563 60.4294 42.7815C60.3474 42.7767 58.921 42.7181 58.6705 43.5763C58.4106 44.4684 59.6957 44.5951 59.779 44.6031C59.7001 44.6227 58.6618 44.9021 58.6196 45.5974C58.5476 46.7921 61.2226 46.1513 62.0266 46.6925C62.0266 46.6925 61.2653 48.1596 61.2521 48.2069C61.2521 48.2069 63.8096 47.6494 64.4787 46.5243C64.8315 45.931 64.3482 45.4853 64.3482 45.4853C64.3482 45.4853 65.1925 45.3967 65.4113 44.7274C65.5227 44.3835 65.0715 43.8994 65.0715 43.8994C65.0715 43.8994 65.7447 43.8003 65.9022 43.1926C66.0294 42.708 65.557 42.2979 65.557 42.2979C65.557 42.2979 66.1592 41.9026 66.1282 41.3655C66.0682 40.2819 62.048 38.7711 60.871 40.0176Z" fill="#AD6359"/>
<path d="M65.4917 42.2213C65.5047 42.2273 65.5157 42.2105 65.5035 42.2021C64.3025 41.3827 62.732 40.8502 61.2701 40.8912C61.2221 40.8924 61.2037 40.9709 61.2567 40.9795C62.7716 41.2255 64.0964 41.5646 65.4917 42.2213Z" fill="#263238"/>
<path d="M65.0945 43.8984C65.1096 43.9056 65.1216 43.8806 65.1067 43.8705C63.8647 43.0327 62.0793 42.4819 60.3998 42.7277C60.3422 42.7361 60.299 42.8013 60.366 42.7968C61.4952 42.7181 63.8414 43.3008 65.0945 43.8984Z" fill="#263238"/>
<path d="M59.6673 44.6607C61.2868 44.4874 62.799 44.8507 64.2985 45.4471C64.318 45.4548 64.3271 45.4265 64.3125 45.4155C63.6585 44.9237 62.6629 44.6434 61.87 44.4905C61.1104 44.3443 60.3957 44.3647 59.6613 44.604C59.6329 44.6134 59.6327 44.6643 59.6673 44.6607Z" fill="#263238"/>
<path d="M61.3229 40.9138C61.0229 40.9229 60.7238 40.9548 60.4339 41.0177C60.1481 41.083 59.8557 41.1838 59.6565 41.3758C59.5591 41.4713 59.4955 41.592 59.4869 41.7233C59.4794 41.857 59.5001 41.9969 59.5589 42.114C59.6724 42.3524 59.9349 42.5091 60.1874 42.5748L60.8225 42.7407L60.1682 42.806C59.8826 42.8345 59.585 42.9046 59.3258 43.0239C59.0669 43.1422 58.8403 43.3289 58.7681 43.5768C58.6877 43.8344 58.7623 44.0895 58.9869 44.2318C59.2032 44.3816 59.5053 44.4521 59.783 44.473L60.5587 44.5311L59.8101 44.7288C59.6073 44.7824 59.3971 44.8654 59.2133 44.9708C59.0301 45.0771 58.8624 45.2148 58.7808 45.3867C58.7001 45.5549 58.7109 45.7692 58.8259 45.9058C58.9449 46.051 59.1559 46.1367 59.3633 46.1979C59.7885 46.3176 60.2453 46.3479 60.6962 46.4002C60.9225 46.4247 61.1498 46.4489 61.3761 46.4844C61.5991 46.5233 61.8353 46.562 62.0263 46.692C61.8242 46.5831 61.5917 46.5711 61.3685 46.5468C61.1426 46.5291 60.9158 46.5221 60.6881 46.5149C60.233 46.5005 59.7749 46.4811 59.3155 46.3791C59.0901 46.3208 58.8477 46.2492 58.6601 46.0493C58.4681 45.8415 58.4513 45.5252 58.5638 45.2861C58.6778 45.0416 58.8823 44.8798 59.0865 44.7555C59.2963 44.6324 59.5116 44.5428 59.7473 44.4764L59.7741 44.7324C59.4461 44.7104 59.1269 44.6484 58.8309 44.4569C58.686 44.3619 58.5573 44.21 58.5041 44.029C58.4498 43.8476 58.4642 43.6659 58.5168 43.4974C58.6279 43.148 58.9317 42.9245 59.2226 42.7971C59.5224 42.6665 59.8301 42.5993 60.1529 42.5717L60.1337 42.8026C59.8154 42.7078 59.525 42.5074 59.3865 42.1916C59.3198 42.0353 59.3049 41.868 59.3227 41.7039C59.3414 41.5347 59.4355 41.3772 59.5577 41.2702C59.8089 41.0554 60.1221 40.9872 60.4188 40.9392C60.72 40.896 61.0233 40.8898 61.3229 40.9138Z" fill="#263238"/>
<path d="M56.9066 41.0607C56.9066 41.0607 61.9089 37.0515 62.5181 39.7745C62.699 40.5838 62.4765 44.1228 61.7649 44.0916C60.846 44.0515 60.6631 42.5571 60.6974 41.6007C60.6974 41.6007 59.1878 43.2039 57.7584 42.4858C56.8615 42.0355 56.9066 41.0607 56.9066 41.0607Z" fill="#AD6359"/>
<path d="M62.4532 39.5513C62.5744 39.8552 62.6114 40.1859 62.6392 40.5104C62.6661 40.8368 62.6616 41.1649 62.6441 41.4915C62.6009 42.1455 62.5389 42.7911 62.3808 43.4398C62.3388 43.6021 62.2891 43.7653 62.1945 43.9268C62.1475 44.0065 62.0827 44.0885 61.9953 44.1483C61.9521 44.1788 61.9116 44.2006 61.8477 44.2208C61.7913 44.2352 61.7371 44.2421 61.686 44.2383C61.4776 44.2321 61.3 44.1315 61.1625 44.0077C61.0288 43.8783 60.9324 43.7261 60.8556 43.5694C60.7056 43.2533 60.6405 42.9185 60.6067 42.5881C60.5692 42.2564 60.5726 41.9261 60.5841 41.5973L60.7817 41.677C60.5988 41.8597 60.406 42.0118 60.1989 42.1527C59.9928 42.2924 59.7729 42.4129 59.5423 42.5079C59.3109 42.601 59.0661 42.6617 58.8189 42.6833C58.5717 42.7069 58.3217 42.6817 58.0879 42.6113C58.3291 42.649 58.5729 42.6473 58.8086 42.6049C59.0448 42.5633 59.2701 42.4791 59.4845 42.3766C59.699 42.2734 59.9021 42.1467 60.0912 42.0022C60.2791 41.8587 60.461 41.696 60.6134 41.5249L60.8073 41.3074L60.8107 41.6045C60.8145 41.9245 60.8164 42.2449 60.8625 42.5576C60.9048 42.8689 60.9655 43.1818 61.0999 43.4518C61.2273 43.7151 61.4443 43.9594 61.6948 43.9676C61.9142 43.994 62.051 43.6647 62.1326 43.3719C62.2195 43.0695 62.2759 42.7515 62.332 42.4347C62.3877 42.1167 62.4391 41.7982 62.4741 41.4781C62.5317 40.8392 62.5956 40.1869 62.4532 39.5513Z" fill="#263238"/>
<path d="M56.3499 40.3205L55.3129 48.39C55.3129 48.39 48.3886 48.2609 45.349 45.9869C44.0955 45.0492 42.1107 36.4502 41.7022 33.456C41.2937 30.4618 42.4589 28.6752 44.9132 32.5183C47.3674 36.3614 49.682 39.6979 49.9897 39.7313C50.2976 39.7646 56.3499 40.3205 56.3499 40.3205Z" fill="#F2D352"/>
<path d="M42.7458 36.0022C42.5775 36.2323 42.4191 36.4625 42.3078 36.7346C42.3003 36.7495 42.2929 36.7618 42.2881 36.7766C42.2955 36.7692 42.3054 36.7644 42.3128 36.7567C42.5454 36.5712 42.7309 36.3509 42.9066 36.1234C43.0846 35.8834 43.2505 35.6335 43.3642 35.3489C43.1245 35.5418 42.9289 35.767 42.7458 36.0022ZM52.579 44.5831C52.4058 44.8231 52.2375 45.073 52.1262 45.3576C52.3662 45.1721 52.5615 44.9443 52.7446 44.7067C52.9227 44.4691 53.0862 44.2193 53.2023 43.9298C52.9575 44.1204 52.7622 44.3482 52.579 44.5831ZM46.6306 45.9862C46.3882 45.8081 46.1382 45.6422 45.8562 45.5258C46.0417 45.7733 46.2694 45.9638 46.5044 46.147C46.7444 46.325 46.9942 46.4885 47.2789 46.6046C47.091 46.3646 46.8656 46.1693 46.6306 45.9862ZM54.4124 40.889C54.1131 40.931 53.8234 40.9879 53.5414 41.1094C53.8434 41.149 54.1426 41.1242 54.4395 41.087C54.734 41.0424 55.0258 40.9855 55.3129 40.8667C55.0064 40.8247 54.7069 40.8494 54.4124 40.889ZM44.3814 40.889C44.0821 40.931 43.7924 40.9879 43.508 41.1094C43.8099 41.149 44.1092 41.1242 44.4087 41.087C44.7008 41.0424 44.995 40.9855 45.2797 40.8667C44.9727 40.8247 44.6734 40.8494 44.3814 40.889ZM49.3326 41.3196C49.2855 41.0251 49.2262 40.7306 49.1048 40.4462C49.0676 40.753 49.0926 41.0525 49.1319 41.347C49.1766 41.6438 49.2334 41.9333 49.3546 42.2203C49.3894 41.9158 49.3674 41.6165 49.3326 41.3196Z" fill="white"/>
<path d="M54.5106 40.7431C54.3625 41.2918 54.2953 41.8714 54.2044 42.4318C54.1093 43.0162 54.0328 43.6032 53.9536 44.19C53.8744 44.7761 53.6348 47.1326 53.5753 47.7209C53.5727 47.7475 53.612 47.7518 53.6164 47.7257C53.7126 47.1413 54.094 44.8241 54.1691 44.2483C54.2442 43.6723 54.3236 43.0968 54.3832 42.5189C54.4434 41.9345 54.5341 41.3371 54.5346 40.7491C54.5344 40.7364 54.5144 40.7285 54.5106 40.7431Z" fill="#263238"/>
<path opacity="0.1" d="M51.5317 48.0489C49.4091 47.7362 46.8848 47.1338 45.3493 45.9873C44.096 45.0494 42.1107 36.4495 41.7015 33.4548C41.5261 32.1609 41.643 31.0932 42.0344 30.6077L51.5317 48.0489Z" fill="#1D1D20"/>
<path d="M32.191 51.8568C32.233 51.8979 48.3932 50.8457 48.5341 50.6621C48.6248 50.5431 44.2376 32.8582 42.7414 30.685C42.0536 29.6861 39.4506 29.4603 38.3744 30.4721C35.6804 33.0055 33.8055 41.1972 33.4114 43.6534C32.757 47.7005 32.041 51.7085 32.191 51.8568Z" fill="#F2D352"/>
<path d="M42.5905 49.2077C42.5485 48.9132 42.4842 48.6187 42.3654 48.3343C42.3308 48.6413 42.3505 48.9406 42.3877 49.235C42.4297 49.5319 42.494 49.8264 42.6155 50.106C42.6498 49.8041 42.6277 49.5048 42.5905 49.2077ZM38.9977 38.9539C38.9531 38.657 38.8962 38.3676 38.775 38.083C38.7354 38.3897 38.7577 38.6818 38.7973 38.981C38.842 39.2755 38.9012 39.57 39.02 39.8544C39.062 39.5455 39.0323 39.2484 38.9977 38.9539ZM44.3819 40.889C44.0826 40.931 43.7929 40.9879 43.5085 41.1094C43.8104 41.149 44.1097 41.1242 44.4092 41.087C44.7013 41.0424 44.9956 40.9855 45.2802 40.8667C44.9732 40.8247 44.674 40.8494 44.3819 40.889ZM38.3322 34.4011C38.0329 34.4458 37.7432 34.5026 37.4588 34.6238C37.7608 34.6634 38.06 34.6387 38.3596 34.6015C38.6516 34.5569 38.9459 34.5 39.2305 34.3812C38.9236 34.3394 38.624 34.3615 38.3322 34.4011ZM36.4367 43.0565C36.1398 43.1011 35.8453 43.158 35.5657 43.2766C35.8676 43.3186 36.1669 43.2965 36.4664 43.2569C36.7585 43.2122 37.0528 43.1554 37.3374 43.0342C37.0307 42.9946 36.7312 43.0169 36.4367 43.0565ZM35.8417 51.097C35.5448 51.1416 35.2504 51.1985 34.9708 51.317C35.2727 51.359 35.572 51.337 35.8715 51.2974C36.1633 51.2527 36.4578 51.1958 36.7424 51.0746C36.4355 51.035 36.1362 51.0574 35.8417 51.097ZM46.6312 45.9862C46.3888 45.8081 46.1387 45.6422 45.8567 45.5258C46.0422 45.7733 46.27 45.9638 46.5049 46.147C46.7449 46.325 46.9948 46.4885 47.2794 46.6046C47.0915 46.3646 46.8661 46.1693 46.6312 45.9862ZM34.6948 38.1821C34.6751 38.2514 34.6552 38.3206 34.6355 38.3899C34.8558 38.5483 35.0857 38.6942 35.3456 38.8008C35.1575 38.5606 34.9324 38.3626 34.6948 38.1821ZM37.2433 47.7528C37.0033 47.5747 36.7535 47.4113 36.4688 47.2951C36.6544 47.5402 36.8821 47.7355 37.1197 47.9186C37.3597 48.0919 37.6096 48.2602 37.8942 48.3763C37.7087 48.1315 37.4809 47.9359 37.2433 47.7528ZM39.9428 30.024C39.8711 29.9722 39.7993 29.9201 39.7276 29.873C39.6508 29.8855 39.5766 29.9002 39.5024 29.9177C39.6064 30.0118 39.7127 30.0984 39.8216 30.185C40.0616 30.3607 40.3067 30.5266 40.5961 30.6427C40.4032 30.3953 40.178 30.2047 39.9428 30.024ZM41.0144 44.2094C40.8412 44.4494 40.6729 44.6969 40.5616 44.9839C40.8016 44.7984 40.9969 44.5682 41.18 44.333C41.3581 44.093 41.5216 43.8432 41.6377 43.5535C41.3929 43.7443 41.1973 43.9721 41.0144 44.2094ZM32.3987 49.8562C32.379 49.9922 32.3591 50.1209 32.3418 50.2447C32.3492 50.2373 32.3567 50.2274 32.3641 50.2176C32.5422 49.98 32.7056 49.7326 32.8218 49.4431C32.6658 49.5665 32.5273 49.7076 32.3987 49.8562ZM42.7463 36.0022C42.5682 36.2446 42.4048 36.4872 42.2886 36.7766C42.5336 36.5861 42.724 36.3586 42.9071 36.1234C43.0852 35.8834 43.251 35.6335 43.3648 35.3489C43.125 35.5418 42.9294 35.767 42.7463 36.0022Z" fill="white"/>
<path d="M42.0046 32.8267C41.141 32.917 39.697 31.3217 39.2626 30.211C39.2333 30.1347 39.4387 29.3988 39.6463 28.4928C39.7702 27.9425 39.895 27.3269 39.9682 26.7569L43.4314 28.0853C43.4314 28.0853 42.9262 29.2349 42.8045 30.2295C42.7951 30.3127 42.7934 30.391 42.799 30.4666C42.7987 30.4774 42.8002 30.4908 42.7992 30.5059C42.8143 30.9598 42.839 32.7389 42.0046 32.8267Z" fill="#AD6359"/>
<path d="M42.7985 30.467C42.7977 30.4771 42.7997 30.4898 42.7987 30.505C42.6849 30.5081 42.5618 30.4978 42.4291 30.4795C40.3663 30.1668 40.2048 27.5719 40.2021 26.8474L41.0673 27.179L43.4313 28.0862C43.4313 28.0862 42.9254 29.2358 42.8054 30.2306C42.7956 30.313 42.7932 30.391 42.7985 30.467Z" fill="#263238"/>
<path d="M40.3086 22.5852C39.7477 23.8291 39.9522 27.6559 40.766 28.6075C41.9459 29.987 44.1162 30.3826 45.3488 28.9099C46.5436 27.4824 46.1886 22.4995 45.2574 21.6103C43.8858 20.3002 41.1371 20.7478 40.3086 22.5852Z" fill="#AD6359"/>
<path d="M43.679 25.3992C43.6766 25.3896 43.6593 25.4124 43.6602 25.423C43.6809 25.6805 43.6612 25.9788 43.4322 26.0755C43.4253 26.0784 43.4265 26.0914 43.4351 26.0897C43.7176 26.0362 43.7397 25.6397 43.679 25.3992Z" fill="#263238"/>
<path d="M43.436 25.1412C43.0199 25.1299 43.0278 25.963 43.4135 25.9735C43.7929 25.9839 43.785 25.1506 43.436 25.1412Z" fill="#263238"/>
<path d="M45.1136 25.3625C45.1155 25.3526 45.134 25.3745 45.1338 25.385C45.128 25.6433 45.165 25.9399 45.3992 26.0234C45.4064 26.0261 45.4059 26.039 45.3973 26.0378C45.1119 26.0004 45.0668 25.6061 45.1136 25.3625Z" fill="#263238"/>
<path d="M45.342 25.0906C45.7569 25.0551 45.7972 25.8874 45.4128 25.9203C45.0345 25.9527 44.9942 25.1203 45.342 25.0906Z" fill="#263238"/>
<path d="M43.1034 24.7632C43.2167 24.7335 43.3161 24.6874 43.425 24.6466C43.5479 24.6005 43.6506 24.5765 43.7303 24.4649C43.773 24.4052 43.7541 24.2988 43.7001 24.2518C43.5741 24.1424 43.4094 24.1613 43.2592 24.211C43.0962 24.2648 42.9844 24.3478 42.892 24.4923C42.8025 24.6322 42.9541 24.8024 43.1034 24.7632Z" fill="#263238"/>
<path d="M45.6599 24.668C45.5443 24.6502 45.4406 24.6147 45.328 24.5852C45.2008 24.552 45.0964 24.5386 45.0055 24.4361C44.9567 24.3812 44.9647 24.2734 45.0136 24.2211C45.1276 24.0992 45.2932 24.1011 45.4478 24.1347C45.6155 24.1712 45.7355 24.2422 45.8421 24.3764C45.9458 24.5064 45.8126 24.6915 45.6599 24.668Z" fill="#263238"/>
<path d="M43.3973 27.7435C43.4597 27.8033 43.5221 27.8861 43.616 27.8931C43.706 27.8998 43.8109 27.8583 43.8929 27.8254C43.9011 27.8223 43.9095 27.8307 43.9042 27.8386C43.8382 27.9382 43.6978 28.0015 43.5778 27.9819C43.4607 27.9627 43.4019 27.8621 43.3726 27.7555C43.3685 27.7404 43.3882 27.7349 43.3973 27.7435Z" fill="#263238"/>
<path d="M43.6609 26.9681C43.8076 27.1908 44.0212 27.3111 44.2513 27.3535C44.3541 27.3732 44.4621 27.3756 44.5677 27.3651C44.5885 27.3643 44.6092 27.3619 44.6279 27.3576C44.6466 27.355 44.6637 27.3528 44.6843 27.3485C44.7145 27.3437 44.7309 27.3187 44.7357 27.2902V27.2883C44.7354 27.2789 44.7352 27.2712 44.733 27.2619C44.733 27.2619 44.733 27.2619 44.733 27.2599L44.7323 27.2374C44.7359 27.0387 44.7136 26.7365 44.7136 26.7365C44.7865 26.7723 45.1583 26.9352 45.1516 26.8313C45.0921 25.9723 45.0261 25.0169 44.7853 24.1747C44.7789 24.1467 44.7357 24.1536 44.7383 24.1819C44.7628 25.0099 44.9327 25.8279 44.9706 26.659C44.8521 26.6153 44.6586 26.5339 44.5545 26.5371C44.5264 26.5455 44.6077 27.12 44.5989 27.2093C44.5989 27.2093 44.5991 27.2131 44.5972 27.2189C44.2638 27.2647 44.0111 27.1663 43.6847 26.9451C43.6655 26.9302 43.6451 26.9477 43.6609 26.9681Z" fill="#263238"/>
<path d="M44.4555 27.3274C44.4555 27.3274 44.2697 27.5499 44.029 27.62C43.9402 27.6461 43.8459 27.6531 43.7494 27.6212C43.5509 27.5566 43.5567 27.3713 43.6027 27.2151C43.6402 27.0867 43.7071 26.978 43.7071 26.978C43.7071 26.978 43.9855 27.271 44.4555 27.3274Z" fill="#263238"/>
<path d="M44.029 27.6202C43.9402 27.6464 43.8459 27.6533 43.7494 27.6214C43.5509 27.5569 43.5567 27.3716 43.6027 27.2153C43.8175 27.2501 44.0227 27.4093 44.029 27.6202Z" fill="#FF98B9"/>
<path opacity="0.2" d="M39.9722 25.3968C40.2525 25.2682 40.7934 24.401 41.0354 24.0468C41.2845 23.6774 41.3301 21.9122 41.3303 21.3826C41.2744 21.4181 41.2202 21.457 41.1688 21.4966C41.1148 21.5354 41.0651 21.5784 41.0154 21.6216C40.913 21.7097 40.8141 21.8045 40.727 21.9082C40.575 22.0879 40.4433 22.2878 40.3367 22.5091C40.061 23.0914 39.9388 24.2362 39.9722 25.3968Z" fill="#263238"/>
<path d="M44.7417 22.8324C44.4359 23.1939 43.9655 23.383 43.4941 23.3122C43.035 23.2433 42.5766 22.932 42.4069 22.4897C42.4019 22.4765 42.3815 22.4844 42.3865 22.4976C42.568 22.9704 42.9573 23.3571 43.4761 23.4223C43.9631 23.4835 44.4832 23.2536 44.7676 22.8543C44.7805 22.8365 44.7561 22.8156 44.7417 22.8324Z" fill="#263238"/>
<path d="M43.2826 19.4628C42.4879 19.4894 41.7631 19.938 41.4787 20.4828C41.3059 20.814 41.2834 21.1483 41.3407 21.4875C41.3431 21.5011 41.3714 21.498 41.37 21.4841C41.3182 20.9465 41.5769 20.3302 42.149 19.9479C42.6989 19.5804 43.4328 19.4602 44.0724 19.6939C44.4062 19.8159 44.6782 20.0239 44.8193 20.2793C44.8351 20.3078 44.8944 20.2884 44.8814 20.2591C44.6602 19.7657 44.0018 19.4386 43.2826 19.4628Z" fill="#263238"/>
<path d="M47.9202 21.1322C47.7901 20.7422 47.513 20.4098 47.1623 20.1984C46.671 19.9022 46.12 19.9531 45.5735 20.015C45.5586 20.0167 45.561 20.0398 45.5759 20.0381C46.0413 19.987 46.5162 19.9622 46.9473 20.1763C47.2986 20.3508 47.5943 20.6455 47.7542 21.0058C48.0856 21.7531 47.7916 22.6882 47.0826 23.1C46.6814 23.333 46.1817 23.3902 45.7386 23.2526C45.7211 23.2474 45.7086 23.273 45.7266 23.279C46.5369 23.5538 47.4825 23.1749 47.8398 22.3877C48.016 21.9991 48.0561 21.5393 47.9202 21.1322Z" fill="#263238"/>
<path d="M40.0607 23.3803C40.0607 23.3803 39.2954 21.9641 39.9203 21.1361C40.2746 20.6669 41.4616 20.7199 41.4616 20.7199C41.4616 20.7199 41.8391 20.035 42.8205 19.8031C43.8122 19.5689 44.997 20.1406 44.997 20.1406C44.997 20.1406 45.9364 19.5938 46.8234 20.0926C48.0602 20.7878 47.9193 22.6654 46.6835 23.2771C45.8159 23.7067 44.6282 22.9445 44.6282 22.9445C44.5146 22.9608 43.3552 23.6707 42.4682 22.638C42.4682 22.638 41.7573 23.2788 41.1122 22.8377C41.1122 22.8377 40.7915 23.4852 40.0607 23.3803Z" fill="#263238"/>
<path d="M40.718 25.735C40.718 25.735 40.0011 24.4315 39.4184 24.6744C38.8359 24.9175 39.2837 26.7432 39.9037 27.053C40.5233 27.3629 40.8216 26.7948 40.8216 26.7948L40.718 25.735Z" fill="#AD6359"/>
<path d="M39.5599 25.1947C39.5496 25.1928 39.546 25.2069 39.5547 25.2117C39.9876 25.4438 40.1808 25.8895 40.3008 26.3426C40.1842 26.1605 40.0107 26.0491 39.769 26.1849C39.7563 26.1921 39.7656 26.2118 39.7786 26.2104C39.9684 26.1907 40.0987 26.2373 40.2079 26.3993C40.2852 26.514 40.3315 26.6534 40.3822 26.7818C40.399 26.8245 40.4743 26.8109 40.464 26.7626C40.4633 26.759 40.4623 26.7554 40.4614 26.7518C40.5353 26.1758 40.1736 25.3195 39.5599 25.1947Z" fill="#263238"/>
<path d="M48.5316 37.9983L47.8961 45.9922H43.4981L42.8623 37.9983H48.5316Z" fill="#C7C7C7"/>
<path d="M48.9105 37.2764H42.4463V38.4418H48.9105V37.2764Z" fill="#455A64"/>
<path d="M48.4677 37.2764H42.8896L43.2158 35.9672H48.1418L48.4677 37.2764Z" fill="#37474F"/>
<path d="M47.2237 42.0655C47.2237 43.1033 46.5402 43.9447 45.6968 43.9447C44.8534 43.9447 44.1699 43.1033 44.1699 42.0655C44.1699 41.0278 44.8534 40.1863 45.6968 40.1863C46.5402 40.1863 47.2237 41.0275 47.2237 42.0655Z" fill="white"/>
<path d="M36.8145 31.9335C32.9673 36.4649 29.9037 44.4792 31.0146 46.2058C32.2521 48.1289 36.5514 42.8535 36.5032 42.5098C36.4667 42.2499 38.0039 37.3313 38.902 32.8481C39.7314 28.7067 37.7656 30.8129 36.8145 31.9335Z" fill="#AD6359"/>
<path d="M36.8145 31.9335C32.9673 36.4649 29.9037 44.4792 31.0146 46.2058C32.2521 48.1289 36.5514 42.8535 36.5032 42.5098C36.4667 42.2499 38.0039 37.3313 38.902 32.8481C39.7314 28.7067 37.7656 30.8129 36.8145 31.9335Z" fill="#F2D352"/>
<path d="M31.8396 44.9223C31.6663 45.1623 31.4981 45.4121 31.3867 45.6967C31.6267 45.5112 31.8221 45.2835 32.0052 45.0485C32.1833 44.8085 32.3467 44.5587 32.4629 44.269C32.2181 44.4595 32.0227 44.6871 31.8396 44.9223ZM34.6949 38.1821C34.4549 38.004 34.205 37.8382 33.9204 37.7218C34.1059 37.9668 34.3361 38.1598 34.5713 38.3429C34.8113 38.521 35.0611 38.6844 35.3458 38.8006C35.1576 38.5606 34.9325 38.3626 34.6949 38.1821ZM35.5658 43.2768C35.7118 43.2967 35.8579 43.3015 36.0038 43.2967C36.0559 43.23 36.1027 43.1657 36.1474 43.1062C35.9494 43.1455 35.754 43.1976 35.5658 43.2768ZM38.3323 34.4011C38.033 34.4458 37.7434 34.5027 37.459 34.6239C37.7609 34.6635 38.0602 34.6387 38.3597 34.6015C38.4166 34.5917 38.4734 34.5843 38.5303 34.5744C38.5452 34.5077 38.5601 34.4407 38.575 34.374C38.4931 34.3815 38.4115 34.3913 38.3323 34.4011Z" fill="white"/>
<path d="M36.9229 40.8367C37.0294 40.2996 37.1532 39.7675 37.2795 39.2357C37.405 38.7039 37.5452 38.1761 37.6755 37.6457L38.102 36.0639C38.2491 35.5378 38.3967 35.0122 38.5517 34.4873C38.4697 35.0287 38.3552 35.5642 38.2364 36.0977C38.1168 36.6312 37.9805 37.1604 37.8497 37.6911C37.7048 38.2181 37.5672 38.7468 37.4129 39.2712C37.2586 39.7956 37.1009 40.3191 36.9229 40.8367Z" fill="#263238"/>
<path d="M38.8097 35.0952C38.7643 35.3422 38.6683 35.5735 38.5529 35.7939C38.4331 36.0108 38.2879 36.2208 38.0938 36.3804L38.2738 36.0579L38.4475 35.7367C38.5649 35.5231 38.6774 35.3076 38.8097 35.0952Z" fill="#263238"/>
<path d="M31.1498 46.1616C31.9073 47.0333 33.9302 48.151 40.6313 47.4264C41.5584 47.3261 42.1123 40.4316 41.1165 40.4878C39.8623 40.5586 35.7187 41.2006 35.3738 41.3038C32.8065 42.0727 30.3933 45.2911 31.1498 46.1616Z" fill="#AD6359"/>
<path d="M49.3839 40.1052C49.6992 40.7835 49.1276 41.3057 49.1276 41.3057C49.1276 41.3057 49.6373 41.6167 49.7796 42.1726C49.9428 42.8091 49.0162 43.3438 49.0162 43.3438C49.0162 43.3438 49.4669 43.7655 49.5581 44.3676C49.6529 44.9926 48.7949 45.6653 48.7949 45.6653C48.7949 45.6653 48.9989 46.2888 48.7044 46.8658C48.2009 47.8524 46.5159 47.9993 45.4455 48.1035C44.3753 48.2076 41.2416 47.5006 40.6311 47.4264L40.3037 40.5511C40.3037 40.5511 44.5699 38.73 45.8458 38.7862C46.9207 38.8337 49.0299 39.3439 49.3839 40.1052Z" fill="#AD6359"/>
<path d="M49.0689 41.2003C47.9382 40.8759 46.7733 40.9032 45.6088 40.8646C45.5829 40.8636 45.5819 40.9044 45.6078 40.9049C46.7663 40.9299 47.9049 41.1845 49.06 41.2555C49.0919 41.2575 49.0994 41.2092 49.0689 41.2003Z" fill="#263238"/>
<path d="M48.9852 43.2562C48.7272 43.1904 48.4483 43.2101 48.1843 43.2144C47.9001 43.2192 47.6162 43.2291 47.3323 43.243C46.764 43.2713 46.1964 43.3123 45.6302 43.3704C45.605 43.3728 45.6028 43.4119 45.6292 43.4107C46.1956 43.3836 46.7625 43.3649 47.3294 43.3615C47.6131 43.3599 47.897 43.3608 48.1807 43.3632C48.4447 43.3656 48.7228 43.3903 48.9828 43.3339C49.0214 43.3255 49.024 43.266 48.9852 43.2562Z" fill="#263238"/>
<path d="M48.7717 45.6658C48.5497 45.5996 48.2766 45.6507 48.0488 45.6668C47.7901 45.685 47.5314 45.7018 47.2726 45.7172C46.7552 45.7479 46.2375 45.7784 45.7191 45.7911C45.6932 45.7918 45.6922 45.8319 45.7184 45.8314C46.245 45.8211 46.7718 45.8182 47.2986 45.8033C47.557 45.7959 47.8155 45.7872 48.0742 45.7772C48.2941 45.7685 48.5696 45.7827 48.7746 45.6917C48.7856 45.6867 48.7827 45.6692 48.7717 45.6658Z" fill="#263238"/>
<path d="M39.9704 40.3143L40.2281 48.5494C40.2281 48.5494 31.7722 48.151 30.9368 46.1578C30.1011 44.1646 33.3053 42.0257 34.7045 41.3285C36.1037 40.6313 39.9704 40.3143 39.9704 40.3143Z" fill="#F2D352"/>
<path d="M36.4368 43.0565C36.1399 43.1012 35.8454 43.1581 35.5658 43.2766C35.8678 43.3186 36.167 43.2965 36.4666 43.2569C36.7586 43.2123 37.0529 43.1554 37.3375 43.0342C37.0308 42.9946 36.7313 43.0169 36.4368 43.0565ZM37.8794 48.3591C37.6963 48.1215 37.4762 47.9309 37.2434 47.7529C37.0034 47.5748 36.7536 47.4113 36.469 47.2952C36.6545 47.5402 36.8822 47.7356 37.1198 47.9187C37.3476 48.0821 37.5826 48.2429 37.8497 48.3543C37.8497 48.3543 37.8521 48.3543 37.8521 48.3567C37.867 48.3641 37.8792 48.3692 37.8941 48.3764C37.8893 48.3716 37.8845 48.3641 37.8794 48.3591ZM31.8396 44.9223C31.6663 45.1623 31.4981 45.4121 31.3867 45.6968C31.6267 45.5113 31.8221 45.2835 32.0052 45.0485C32.1833 44.8085 32.3467 44.5587 32.4629 44.269C32.2181 44.4596 32.0227 44.6871 31.8396 44.9223Z" fill="white"/>
<path d="M39.9438 40.3143C39.3618 40.4309 38.7786 40.5336 38.1961 40.64C37.6141 40.747 37.0304 40.8432 36.4528 40.9656C35.8696 41.0753 35.3032 41.2006 34.7641 41.4408C34.2217 41.6674 33.6947 41.9369 33.1768 42.2256C33.6524 41.8697 34.166 41.5652 34.7044 41.3067C35.2386 41.0343 35.8391 40.9008 36.4153 40.7784C37.0002 40.6709 37.5851 40.5715 38.1733 40.4952C38.7618 40.4191 39.3512 40.3527 39.9438 40.3143Z" fill="#263238"/>
<path d="M32.8193 47.3734C33.4261 47.5332 34.0378 47.6662 34.6513 47.7886C35.2659 47.904 35.8798 48.0226 36.499 48.1102C37.118 48.1973 37.7362 48.2923 38.3593 48.3495C38.9804 48.4251 39.6046 48.469 40.2291 48.5256L40.2044 48.5501L40.1878 47.1312L40.2519 48.5489L40.2529 48.5734L40.2272 48.5736C38.9713 48.5791 37.7151 48.4728 36.4721 48.2842C35.8522 48.1803 35.2328 48.0701 34.6229 47.9177C34.0126 47.7679 33.4059 47.5987 32.8193 47.3734Z" fill="#263238"/>
<path d="M38.4052 40.8965C38.3428 41.4615 38.3649 42.0445 38.3603 42.6123C38.3555 43.2044 38.3697 43.7962 38.381 44.3881C38.3923 44.9794 38.5156 47.3449 38.5466 47.9353C38.548 47.9619 38.5876 47.9602 38.5879 47.9336C38.5939 47.3413 38.6167 44.9931 38.6027 44.4128C38.5891 43.832 38.5795 43.2512 38.5502 42.6711C38.5204 42.0843 38.5187 41.48 38.4295 40.8989C38.4278 40.8865 38.4069 40.8814 38.4052 40.8965Z" fill="#263238"/>
</svg>
