<?xml version="1.0" encoding="UTF-8"?>
<!DOCTYPE svg PUBLIC "-//W3C//DTD SVG 1.1//EN" "http://www.w3.org/Graphics/SVG/1.1/DTD/svg11.dtd">
<svg xmlns="http://www.w3.org/2000/svg" version="1.1" width="512px" height="512px" style="shape-rendering:geometricPrecision; text-rendering:geometricPrecision; image-rendering:optimizeQuality; fill-rule:evenodd; clip-rule:evenodd" xmlns:xlink="http://www.w3.org/1999/xlink">
<g><path style="opacity:0.998" fill="#cf1f25" d="M 246.5,27.5 C 268.523,24.7809 286.689,31.7809 301,48.5C 368.586,166.671 435.92,285.004 503,403.5C 517.464,433.134 511.964,458.301 486.5,479C 480.019,483.049 473.019,485.716 465.5,487C 326.167,487.667 186.833,487.667 47.5,487C 19.4328,479.733 4.43283,461.566 2.5,432.5C 2.81389,422.578 5.31389,413.244 10,404.5C 77.5864,286.329 144.92,167.996 212,49.5C 221.055,38.2286 232.555,30.8952 246.5,27.5 Z"/></g>
<g><path style="opacity:1" fill="#fefdfd" d="M 255.5,134.5 C 275.902,133.392 287.402,143.058 290,163.5C 290.167,169.5 290.333,175.5 290.5,181.5C 287.753,224.222 284.253,266.888 280,309.5C 277.598,324.917 268.765,331.417 253.5,329C 250.734,327.533 248.234,325.7 246,323.5C 241.631,314.362 238.964,304.696 238,294.5C 235.478,254.167 232.978,213.834 230.5,173.5C 229.073,153.978 237.407,140.978 255.5,134.5 Z"/></g>
<g><path style="opacity:1" fill="#fefcfc" d="M 253.5,355.5 C 271.891,354.108 284.058,362.108 290,379.5C 292.347,398.321 284.514,410.488 266.5,416C 248.186,418.268 236.019,410.768 230,393.5C 227.489,374.222 235.322,361.555 253.5,355.5 Z"/></g>
</svg>
