<svg width="33" height="33" viewBox="0 0 33 33" fill="none" xmlns="http://www.w3.org/2000/svg">
<path d="M30.5014 16.6229C30.5014 15.4718 30.4061 14.6318 30.1998 13.7607H16.7871V18.9562H24.6601C24.5014 20.2474 23.6442 22.1918 21.7394 23.4984L21.7127 23.6724L25.9536 26.892L26.2474 26.9207C28.9458 24.4785 30.5014 20.8851 30.5014 16.6229Z" fill="#4285F4"/>
<path d="M16.7863 30.312C20.6434 30.312 23.8814 29.0675 26.2466 26.9209L21.7386 23.4985C20.5323 24.323 18.9132 24.8986 16.7863 24.8986C13.0086 24.8986 9.80225 22.4564 8.65929 19.0808L8.49176 19.0947L4.08208 22.4392L4.02441 22.5963C6.37359 27.1697 11.199 30.312 16.7863 30.312Z" fill="#34A853"/>
<path d="M8.65964 19.0809C8.35806 18.2098 8.18352 17.2764 8.18352 16.312C8.18352 15.3475 8.35806 14.4142 8.64377 13.5431L8.63578 13.3576L4.17083 9.95938L4.02475 10.0275C3.05654 11.9253 2.50098 14.0564 2.50098 16.312C2.50098 18.5675 3.05654 20.6986 4.02475 22.5964L8.65964 19.0809Z" fill="#E18C00"/>
<path d="M16.7864 7.72531C19.4689 7.72531 21.2784 8.86086 22.3102 9.80981L26.3419 5.95201C23.8658 3.69646 20.6435 2.31201 16.7864 2.31201C11.199 2.31201 6.3736 5.45421 4.02441 10.0275L8.64345 13.5431C9.80229 10.1676 13.0086 7.72531 16.7864 7.72531Z" fill="#EB4335"/>
</svg>
