<svg width="330" height="218" viewBox="0 0 330 218" fill="none" xmlns="http://www.w3.org/2000/svg">
    <path d="M296.473 215.597H274.646V215.762H296.473V215.597Z" fill="#EBEBEB"/>
    <path d="M218.265 217.385H212.537V217.55H218.265V217.385Z" fill="#EBEBEB"/>
    <path d="M273.987 209.478H261.34V209.642H273.987V209.478Z" fill="#EBEBEB"/>
    <path d="M63.0321 210.585H34.5691V210.75H63.0321V210.585Z" fill="#EBEBEB"/>
    <path d="M73.0729 210.585H68.8996V210.75H73.0729V210.585Z" fill="#EBEBEB"/>
    <path d="M148.366 213.368H86.6359V213.532H148.366V213.368Z" fill="#EBEBEB"/>
    <path d="M63.4228 106.811L57.4911 110.152L58.8198 112.511L64.7514 109.17L63.4228 106.811Z" fill="#E0E0E0"/>
    <path d="M77.8346 140.856H73.4735V148.323H77.8346V140.856Z" fill="#E0E0E0"/>
    <path d="M79.3034 141.79L76.1357 143.715C74.5825 144.658 72.5549 144.102 71.7008 142.498L56.3197 113.609C55.5316 112.128 56.0357 110.29 57.4696 109.419C58.9036 108.547 60.7678 108.947 61.718 110.329L80.2675 137.293C81.2975 138.791 80.8573 140.846 79.3034 141.79Z" fill="#EBEBEB"/>
    <path d="M62.3698 110.905L61.2245 108.055C60.9332 107.331 61.3055 106.51 62.0423 106.252L94.3115 94.9383C95.0028 94.6958 95.7626 95.0404 96.0361 95.7205C96.3095 96.4005 95.9992 97.1748 95.3323 97.478L64.2083 111.641C63.4979 111.965 62.661 111.63 62.3698 110.905Z" fill="#EBEBEB"/>
    <path d="M96.1046 96.8704C94.8334 96.5429 93.9616 95.3752 94.0084 94.0631L94.1488 90.1357L94.5217 88.796L96.726 85.4102C97.0634 84.8916 97.7764 84.7802 98.2568 85.171L96.5474 89.6948L96.3221 90.5693L96.21 94.1369C96.2015 94.4124 96.3853 94.6575 96.6522 94.7267C96.9191 94.7953 97.1985 94.6701 97.3244 94.4243L98.9507 91.2467L99.1761 90.3722L99.866 85.5854C100.473 85.4754 101.04 85.9195 101.079 86.5357L101.349 90.8058L100.976 92.1455L99.2907 95.4371C98.6944 96.6015 97.3711 97.1966 96.1046 96.8704Z" fill="#E6E6E6"/>
    <g opacity="0.7">
        <path d="M76.1647 136.036C75.7667 135.814 75.3081 135.685 74.8191 135.685C73.2942 135.685 72.058 136.921 72.058 138.446C72.058 138.935 72.1858 139.393 72.4092 139.791L76.1647 136.036Z" fill="white"/>
        <path d="M73.4735 140.856C73.8715 141.079 74.3301 141.207 74.8191 141.207C76.344 141.207 77.5802 139.971 77.5802 138.446C77.5802 137.957 77.4523 137.499 77.229 137.101L73.4735 140.856Z" fill="white"/>
    </g>
    <g opacity="0.7">
        <path d="M65.859 106.747C65.6501 106.57 65.3951 106.442 65.1071 106.386C64.209 106.211 63.3391 106.796 63.1638 107.695C63.1078 107.983 63.1302 108.267 63.2159 108.527L65.859 106.747Z" fill="white"/>
        <path d="M63.72 109.276C63.9289 109.453 64.1839 109.581 64.4719 109.638C65.3701 109.813 66.2399 109.227 66.4152 108.329C66.4712 108.041 66.4488 107.757 66.3632 107.497L63.72 109.276Z" fill="white"/>
    </g>
    <path d="M80.2655 188.528H71.0623V193.597H80.2655V188.528Z" fill="#E0E0E0"/>
    <path d="M99.2017 205.155H52.126L53.2133 199.921C54.1906 195.217 58.3349 191.846 63.1388 191.846H88.1883C92.9922 191.846 97.1365 195.218 98.1138 199.921L99.2017 205.155Z" fill="#F0F0F0"/>
    <path d="M77.7324 189.633H72.7466C68.7255 189.633 65.5348 186.97 65.772 183.812L68.2649 150.606C68.483 147.7 71.5407 145.433 75.2401 145.433C78.939 145.433 81.9973 147.701 82.2147 150.606L84.7076 183.812C84.9449 186.971 81.7534 189.633 77.7324 189.633Z" fill="#EBEBEB"/>
    <g opacity="0.7">
        <path d="M77.1169 178.235C76.5317 177.908 75.8589 177.72 75.1407 177.72C72.9008 177.72 71.0847 179.535 71.0847 181.776C71.0847 182.493 71.2731 183.167 71.6 183.752L77.1169 178.235Z" fill="white"/>
        <path d="M73.1644 185.316C73.7496 185.643 74.4224 185.831 75.1407 185.831C77.3805 185.831 79.1966 184.016 79.1966 181.775C79.1966 181.057 79.0082 180.384 78.6813 179.799L73.1644 185.316Z" fill="white"/>
    </g>
    <path d="M283.421 169.903C290.535 169.903 296.303 164.136 296.303 157.021C296.303 149.906 290.535 144.139 283.421 144.139C276.306 144.139 270.538 149.906 270.538 157.021C270.538 164.136 276.306 169.903 283.421 169.903Z" fill="#F0F0F0"/>
    <path d="M283.457 170.19C276.194 170.19 270.285 164.281 270.285 157.018C270.285 149.754 276.194 143.845 283.457 143.845V144.425C276.513 144.425 270.864 150.074 270.864 157.018C270.864 163.961 276.513 169.61 283.457 169.61V170.19Z" fill="white"/>
    <path d="M283.457 170.19V169.61C290.4 169.61 296.049 163.961 296.049 157.018C296.049 150.074 290.4 144.425 283.457 144.425V143.845C290.72 143.845 296.629 149.754 296.629 157.018C296.629 164.281 290.721 170.19 283.457 170.19Z" fill="white"/>
    <path d="M290.188 157.021H289.608C289.608 152.751 287.442 147.039 283.301 144.382L283.613 143.894C287.93 146.664 290.188 152.594 290.188 157.021Z" fill="white"/>
    <path d="M283.614 169.754L283.301 169.266C287.442 166.609 289.609 160.897 289.609 156.627H290.189C290.188 161.054 287.93 166.985 283.614 169.754Z" fill="white"/>
    <path d="M277.306 157.018H276.726C276.726 152.591 278.984 146.661 283.3 143.891L283.614 144.38C279.473 147.037 277.306 152.749 277.306 157.018Z" fill="white"/>
    <path d="M283.3 169.751C278.984 166.981 276.726 161.051 276.726 156.625H277.306C277.306 160.894 279.473 166.606 283.614 169.263L283.3 169.751Z" fill="white"/>
    <path d="M283.747 144.135H283.167V169.9H283.747V144.135Z" fill="white"/>
    <path d="M294.362 149.866H272.553V150.446H294.362V149.866Z" fill="white"/>
    <path d="M296.334 156.948H270.58V157.528H296.334V156.948Z" fill="white"/>
    <path d="M294.073 164.023H272.841V164.603H294.073V164.023Z" fill="white"/>
    <path d="M55.3142 5.37193C54.9208 5.01477 54.5076 4.69253 54.0819 4.39929L54.592 2.21941C54.047 1.88926 53.4849 1.60195 52.9096 1.35417L51.4348 3.03456C50.4411 2.67476 49.4105 2.45598 48.3719 2.37427L47.7248 0.23458C47.0929 0.222059 46.4616 0.253031 45.8336 0.326177L45.3967 2.51858C44.3706 2.70046 43.3664 3.01874 42.4122 3.47278L40.7819 1.9433C40.2336 2.24577 39.7018 2.58579 39.1911 2.96734L39.9101 5.08726C39.5147 5.4207 39.1351 5.78116 38.7779 6.17522C38.4208 6.56863 38.0992 6.98115 37.8053 7.40685L35.6254 6.8968C35.2953 7.44177 35.008 8.00388 34.7602 8.57916L36.4406 10.0539C36.0808 11.0477 35.862 12.0783 35.7803 13.1168L33.6406 13.7646C33.6281 14.3966 33.659 15.0279 33.7322 15.6559L35.9246 16.0928C36.1065 17.1188 36.4247 18.1231 36.8788 19.0773L35.3493 20.7082C35.6511 21.2565 35.9918 21.7883 36.3733 22.2983L38.4939 21.5794C38.8274 21.9748 39.1878 22.3543 39.5819 22.7108C39.9753 23.068 40.3878 23.3902 40.8135 23.6835L40.3035 25.8634C40.8484 26.1935 41.4105 26.4808 41.9858 26.7286L43.4606 25.0482C44.4543 25.408 45.485 25.6268 46.5235 25.7085L47.1706 27.8482C47.8026 27.8607 48.4339 27.8298 49.0619 27.7559L49.4988 25.5635C50.5248 25.3817 51.5291 25.064 52.4833 24.6093L54.1136 26.1388C54.6618 25.8364 55.1936 25.4963 55.7037 25.1148L54.9847 22.9949C55.3801 22.6614 55.7597 22.301 56.1168 21.9069C56.474 21.5135 56.7963 21.101 57.0895 20.6746L59.2694 21.1847C59.5995 20.6397 59.8868 20.0776 60.1346 19.5023L58.4542 18.0275C58.814 17.0338 59.0328 16.0032 59.1145 14.9646L61.2542 14.3175C61.2667 13.6855 61.2358 13.0542 61.1626 12.4262L58.9702 11.9893C58.7883 10.9633 58.47 9.95905 58.016 9.00486L59.5455 7.37456C59.243 6.82629 58.903 6.2945 58.5214 5.78445L56.4015 6.50339C56.0687 6.10867 55.7076 5.7291 55.3142 5.37193ZM52.3093 18.5784C49.9462 21.1833 45.9192 21.3791 43.3143 19.016C40.7094 16.6529 40.5137 12.6259 42.8768 10.021C45.2398 7.41607 49.2668 7.22035 51.8717 9.58343C54.4767 11.9465 54.6724 15.9735 52.3093 18.5784Z" fill="#F0F0F0"/>
    <path d="M74.9095 9.92414C74.7111 9.74424 74.5048 9.57818 74.2933 9.42398L74.8561 7.01675C74.5582 6.84278 74.2538 6.68727 73.9434 6.54756L72.3131 8.40521C71.8077 8.23651 71.2884 8.12514 70.7638 8.07045L70.0482 5.7054C69.7055 5.70408 69.3629 5.72055 69.0222 5.75548L68.5392 8.17852C68.0232 8.28396 67.5171 8.44541 67.0301 8.66221L65.2278 6.97128C64.9326 7.13998 64.644 7.32449 64.3646 7.5268L65.1586 9.86813C64.9629 10.0421 64.7738 10.2273 64.5939 10.4256C64.414 10.624 64.2479 10.8302 64.0937 11.0418L61.6865 10.479C61.5125 10.7769 61.357 11.0813 61.2173 11.3917L63.0749 13.022C62.9063 13.5274 62.7949 14.0467 62.7402 14.5712L60.3751 15.2869C60.3738 15.6295 60.3903 15.9715 60.4252 16.3129L62.8483 16.7959C62.9537 17.3119 63.1151 17.818 63.3313 18.305L61.641 20.1073C61.8097 20.4025 61.9942 20.6911 62.1965 20.9705L64.5379 20.1765C64.7118 20.3722 64.897 20.5613 65.0954 20.7412C65.2937 20.9211 65.5 21.0871 65.7115 21.2413L65.1487 23.6486C65.4466 23.8225 65.751 23.9781 66.0614 24.1178L67.6911 22.2601C68.1965 22.4288 68.7164 22.5402 69.2403 22.5949L69.9559 24.9599C70.2986 24.9613 70.6413 24.9448 70.982 24.9099L71.465 22.4868C71.981 22.3814 72.4871 22.2199 72.974 22.0038L74.7763 23.6947C75.0716 23.526 75.3602 23.3415 75.6396 23.1392L74.8455 20.7979C75.0412 20.6239 75.2304 20.4387 75.4103 20.2404C75.5902 20.042 75.7562 19.8358 75.9104 19.6242L78.3177 20.187C78.4916 19.8891 78.6471 19.5847 78.7868 19.2743L76.9292 17.644C77.0979 17.1386 77.2093 16.6187 77.264 16.0948L79.629 15.3791C79.6303 15.0365 79.6139 14.6938 79.5789 14.3531L77.1559 13.8701C77.0505 13.3541 76.889 12.848 76.6729 12.361L78.3631 10.5587C78.1944 10.2635 78.0099 9.97488 77.8076 9.69548L75.4663 10.4895C75.293 10.2932 75.1078 10.104 74.9095 9.92414ZM73.1988 18.2318C71.5975 19.9965 68.8686 20.1297 67.1033 18.5284C65.3385 16.9271 65.2054 14.1982 66.8067 12.4329C68.408 10.6675 71.1375 10.535 72.9022 12.1363C74.6669 13.7376 74.8001 16.4671 73.1988 18.2318Z" fill="#F0F0F0"/>
    <path opacity="0.5" d="M74.9095 9.92414C74.7111 9.74424 74.5048 9.57818 74.2933 9.42398L74.8561 7.01675C74.5582 6.84278 74.2538 6.68727 73.9434 6.54756L72.3131 8.40521C71.8077 8.23651 71.2884 8.12514 70.7638 8.07045L70.0482 5.7054C69.7055 5.70408 69.3629 5.72055 69.0222 5.75548L68.5392 8.17852C68.0232 8.28396 67.5171 8.44541 67.0301 8.66221L65.2278 6.97128C64.9326 7.13998 64.644 7.32449 64.3646 7.5268L65.1586 9.86813C64.9629 10.0421 64.7738 10.2273 64.5939 10.4256C64.414 10.624 64.2479 10.8302 64.0937 11.0418L61.6865 10.479C61.5125 10.7769 61.357 11.0813 61.2173 11.3917L63.0749 13.022C62.9063 13.5274 62.7949 14.0467 62.7402 14.5712L60.3751 15.2869C60.3738 15.6295 60.3903 15.9715 60.4252 16.3129L62.8483 16.7959C62.9537 17.3119 63.1151 17.818 63.3313 18.305L61.641 20.1073C61.8097 20.4025 61.9942 20.6911 62.1965 20.9705L64.5379 20.1765C64.7118 20.3722 64.897 20.5613 65.0954 20.7412C65.2937 20.9211 65.5 21.0871 65.7115 21.2413L65.1487 23.6486C65.4466 23.8225 65.751 23.9781 66.0614 24.1178L67.6911 22.2601C68.1965 22.4288 68.7164 22.5402 69.2403 22.5949L69.9559 24.9599C70.2986 24.9613 70.6413 24.9448 70.982 24.9099L71.465 22.4868C71.981 22.3814 72.4871 22.2199 72.974 22.0038L74.7763 23.6947C75.0716 23.526 75.3602 23.3415 75.6396 23.1392L74.8455 20.7979C75.0412 20.6239 75.2304 20.4387 75.4103 20.2404C75.5902 20.042 75.7562 19.8358 75.9104 19.6242L78.3177 20.187C78.4916 19.8891 78.6471 19.5847 78.7868 19.2743L76.9292 17.644C77.0979 17.1386 77.2093 16.6187 77.264 16.0948L79.629 15.3791C79.6303 15.0365 79.6139 14.6938 79.5789 14.3531L77.1559 13.8701C77.0505 13.3541 76.889 12.848 76.6729 12.361L78.3631 10.5587C78.1944 10.2635 78.0099 9.97488 77.8076 9.69548L75.4663 10.4895C75.293 10.2932 75.1078 10.104 74.9095 9.92414ZM73.1988 18.2318C71.5975 19.9965 68.8686 20.1297 67.1033 18.5284C65.3385 16.9271 65.2054 14.1982 66.8067 12.4329C68.408 10.6675 71.1375 10.535 72.9022 12.1363C74.6669 13.7376 74.8001 16.4671 73.1988 18.2318Z" fill="#F0F0F0"/>
    <path d="M288.073 8.63383C287.875 8.45393 287.67 8.28787 287.457 8.13367L288.02 5.72644C287.722 5.55247 287.418 5.39695 287.107 5.25725L285.477 7.1149C284.972 6.94686 284.452 6.83483 283.928 6.78014L283.212 4.41574C282.87 4.41377 282.528 4.4309 282.186 4.46582L281.703 6.88887C281.187 6.9943 280.681 7.15575 280.194 7.3719L278.392 5.68163C278.097 5.85033 277.808 6.03484 277.529 6.23714L278.323 8.57848C278.127 8.75245 277.938 8.93761 277.758 9.13596C277.578 9.33432 277.412 9.54058 277.258 9.75211L274.851 9.18934C274.677 9.4872 274.521 9.79165 274.381 10.102L276.239 11.7323C276.071 12.2378 275.959 12.757 275.904 13.2816L273.539 13.9972C273.538 14.3399 273.554 14.6819 273.589 15.0232L276.012 15.5063C276.117 16.0222 276.279 16.5283 276.495 17.0153L274.805 18.8176C274.974 19.1128 275.158 19.4015 275.361 19.6809L277.702 18.8868C277.876 19.0825 278.061 19.2716 278.259 19.4515C278.458 19.6314 278.664 19.7975 278.876 19.9517L278.313 22.3589C278.611 22.5329 278.916 22.6884 279.225 22.8281L280.856 20.9705C281.361 21.1392 281.881 21.2505 282.405 21.3052L283.121 23.6703C283.463 23.6716 283.806 23.6551 284.147 23.6202L284.63 21.1972C285.146 21.0917 285.652 20.9303 286.139 20.7141L287.941 22.4044C288.236 22.2357 288.525 22.0512 288.804 21.8489L288.01 19.5076C288.206 19.3336 288.395 19.1484 288.575 18.9501C288.755 18.7517 288.921 18.5454 289.075 18.3339L291.482 18.8967C291.656 18.5988 291.812 18.2944 291.952 17.984L290.094 16.3544C290.262 15.8489 290.374 15.329 290.429 14.8051L292.794 14.0895C292.795 13.7468 292.779 13.4041 292.744 13.0634L290.321 12.5804C290.215 12.0644 290.054 11.5584 289.838 11.0714L291.528 9.26908C291.359 8.97386 291.175 8.68523 290.972 8.40583L288.631 9.19989C288.457 9.00285 288.272 8.81373 288.073 8.63383ZM286.363 16.9415C284.761 18.7062 282.033 18.8394 280.267 17.238C278.503 15.6367 278.369 12.9079 279.971 11.1425C281.572 9.37715 284.301 9.2447 286.066 10.846C287.832 12.4473 287.964 15.1768 286.363 16.9415Z" fill="#F0F0F0"/>
    <path opacity="0.5" d="M288.073 8.63383C287.875 8.45393 287.67 8.28787 287.457 8.13367L288.02 5.72644C287.722 5.55247 287.418 5.39695 287.107 5.25725L285.477 7.1149C284.972 6.94686 284.452 6.83483 283.928 6.78014L283.212 4.41574C282.87 4.41377 282.528 4.4309 282.186 4.46582L281.703 6.88887C281.187 6.9943 280.681 7.15575 280.194 7.3719L278.392 5.68163C278.097 5.85033 277.808 6.03484 277.529 6.23714L278.323 8.57848C278.127 8.75245 277.938 8.93761 277.758 9.13596C277.578 9.33432 277.412 9.54058 277.258 9.75211L274.851 9.18934C274.677 9.4872 274.521 9.79165 274.381 10.102L276.239 11.7323C276.071 12.2378 275.959 12.757 275.904 13.2816L273.539 13.9972C273.538 14.3399 273.554 14.6819 273.589 15.0232L276.012 15.5063C276.117 16.0222 276.279 16.5283 276.495 17.0153L274.805 18.8176C274.974 19.1128 275.158 19.4015 275.361 19.6809L277.702 18.8868C277.876 19.0825 278.061 19.2716 278.259 19.4515C278.458 19.6314 278.664 19.7975 278.876 19.9517L278.313 22.3589C278.611 22.5329 278.916 22.6884 279.225 22.8281L280.856 20.9705C281.361 21.1392 281.881 21.2505 282.405 21.3052L283.121 23.6703C283.463 23.6716 283.806 23.6551 284.147 23.6202L284.63 21.1972C285.146 21.0917 285.652 20.9303 286.139 20.7141L287.941 22.4044C288.236 22.2357 288.525 22.0512 288.804 21.8489L288.01 19.5076C288.206 19.3336 288.395 19.1484 288.575 18.9501C288.755 18.7517 288.921 18.5454 289.075 18.3339L291.482 18.8967C291.656 18.5988 291.812 18.2944 291.952 17.984L290.094 16.3544C290.262 15.8489 290.374 15.329 290.429 14.8051L292.794 14.0895C292.795 13.7468 292.779 13.4041 292.744 13.0634L290.321 12.5804C290.215 12.0644 290.054 11.5584 289.838 11.0714L291.528 9.26908C291.359 8.97386 291.175 8.68523 290.972 8.40583L288.631 9.19989C288.457 9.00285 288.272 8.81373 288.073 8.63383ZM286.363 16.9415C284.761 18.7062 282.033 18.8394 280.267 17.238C278.503 15.6367 278.369 12.9079 279.971 11.1425C281.572 9.37715 284.301 9.2447 286.066 10.846C287.832 12.4473 287.964 15.1768 286.363 16.9415Z" fill="#F0F0F0"/>
    <path d="M329.487 204.99H0V205.155H329.487V204.99Z" fill="#EBEBEB"/>
    <path d="M256.52 72.7888L254.443 73.7351C253.817 74.0204 253.541 74.7591 253.826 75.3852L253.834 75.4023C254.033 75.8392 254.454 76.1002 254.902 76.1245L263.231 94.4031C263.559 95.1227 264.408 95.4404 265.127 95.1122L265.641 94.8783C266.36 94.5501 266.678 93.7013 266.35 92.9817L258.021 74.7031C258.297 74.3486 258.376 73.8603 258.177 73.4234L258.169 73.4063C257.885 72.7796 257.146 72.5035 256.52 72.7888Z" fill="#6941C6"/>
    <path opacity="0.6" d="M256.52 72.7888L254.443 73.7351C253.817 74.0204 253.541 74.7591 253.826 75.3852L253.834 75.4023C254.033 75.8392 254.454 76.1002 254.902 76.1245L263.231 94.4031C263.559 95.1227 264.408 95.4404 265.127 95.1122L265.641 94.8783C266.36 94.5501 266.678 93.7013 266.35 92.9817L258.021 74.7031C258.297 74.3486 258.376 73.8603 258.177 73.4234L258.169 73.4063C257.885 72.7796 257.146 72.5035 256.52 72.7888Z" fill="white"/>
    <path d="M253.858 74.3012C254.143 74.3737 254.894 74.1812 255.728 73.8017C256.561 73.4221 257.199 72.9813 257.332 72.7183C257.069 72.6537 256.785 72.6682 256.52 72.7895L254.444 73.7358C254.179 73.8557 253.981 74.06 253.858 74.3012Z" fill="#6941C6"/>
    <path d="M260.373 83.996C259.836 84.2405 259.34 84.2998 259.251 84.1337L263.81 94.1389C263.992 94.5376 264.464 94.7142 264.864 94.5323L265.377 94.2984C265.777 94.1165 265.953 93.644 265.771 93.2447L261.212 83.2395C261.28 83.4161 260.91 83.7515 260.373 83.996Z" fill="#6941C6"/>
    <path d="M261.214 83.2329C261.293 83.4069 260.917 83.7489 260.373 83.996C259.829 84.2438 259.324 84.3037 259.245 84.1298C259.166 83.9558 259.543 83.6138 260.086 83.3667C260.63 83.1189 261.135 83.0589 261.214 83.2329Z" fill="#6941C6"/>
    <path opacity="0.3" d="M261.214 83.2329C261.293 83.4069 260.917 83.7489 260.373 83.996C259.829 84.2438 259.324 84.3037 259.245 84.1298C259.166 83.9558 259.543 83.6138 260.086 83.3667C260.63 83.1189 261.135 83.0589 261.214 83.2329Z" fill="black"/>
    <g opacity="0.8">
        <path d="M255.528 75.9994C258.284 82.0481 261.04 88.0968 263.797 94.1455C263.967 94.5178 264.546 94.2549 264.376 93.8819C261.62 87.8332 258.864 81.7845 256.107 75.7358C255.937 75.3628 255.358 75.6257 255.528 75.9994Z" fill="white"/>
    </g>
    <path d="M280.237 100.93C279.799 97.8924 277.465 95.4226 274.528 94.703V86.1647C275.214 85.9993 275.726 85.3858 275.726 84.6484V84.6247C275.726 83.7614 275.026 83.0609 274.162 83.0609H271.299C270.436 83.0609 269.736 83.7607 269.736 84.6247V84.6484C269.736 85.3851 270.248 85.9993 270.934 86.1647V94.6918C267.612 95.4997 265.143 98.4868 265.143 102.057C265.143 104.61 266.406 106.865 268.339 108.24C268.839 108.595 269.444 108.78 270.058 108.78H275.404C276.014 108.78 276.615 108.6 277.112 108.248C279.332 106.675 280.671 103.942 280.237 100.93Z" fill="#6941C6"/>
    <path d="M280.237 100.93C279.799 97.8924 277.465 95.4226 274.528 94.703V86.1647C275.214 85.9993 275.726 85.3858 275.726 84.6484V84.6247C275.726 83.7614 275.026 83.0609 274.162 83.0609H271.299C270.436 83.0609 269.736 83.7607 269.736 84.6247V84.6484C269.736 85.3851 270.248 85.9993 270.934 86.1647V94.6918C267.612 95.4997 265.143 98.4868 265.143 102.057C265.143 104.61 266.406 106.865 268.339 108.24C268.839 108.595 269.444 108.78 270.058 108.78H275.404C276.014 108.78 276.615 108.6 277.112 108.248C279.332 106.675 280.671 103.942 280.237 100.93Z" fill="#6941C6"/>
    <path opacity="0.7" d="M280.237 100.93C279.799 97.8924 277.465 95.4226 274.528 94.703V86.1647C275.214 85.9993 275.726 85.3858 275.726 84.6484V84.6247C275.726 83.7614 275.026 83.0609 274.162 83.0609H271.299C270.436 83.0609 269.736 83.7607 269.736 84.6247V84.6484C269.736 85.3851 270.248 85.9993 270.934 86.1647V94.6918C267.612 95.4997 265.143 98.4868 265.143 102.057C265.143 104.61 266.406 106.865 268.339 108.24C268.839 108.595 269.444 108.78 270.058 108.78H275.404C276.014 108.78 276.615 108.6 277.112 108.248C279.332 106.675 280.671 103.942 280.237 100.93Z" fill="white"/>
    <path d="M270.335 83.4036C270.624 83.6349 271.582 83.8062 272.731 83.8062C273.881 83.8062 274.839 83.6349 275.127 83.4036C274.861 83.1927 274.529 83.0623 274.163 83.0623H271.299C270.934 83.0623 270.601 83.1927 270.335 83.4036Z" fill="#6941C6"/>
    <path d="M279.448 101.045C279.32 100.165 278.999 99.3421 278.549 98.5982C278.47 99.0298 275.899 99.3758 272.731 99.3758C269.543 99.3758 266.956 99.0245 266.911 98.5896C266.3 99.613 265.943 100.797 265.943 102.058C265.943 104.248 267.012 106.315 268.803 107.589C269.158 107.842 269.605 107.981 270.06 107.981H275.405C275.865 107.981 276.296 107.848 276.652 107.595C278.746 106.112 279.817 103.602 279.448 101.045Z" fill="#6941C6"/>
    <path d="M278.557 98.5777C278.557 99.0186 275.948 99.3758 272.731 99.3758C269.514 99.3758 266.906 99.0186 266.906 98.5777C266.906 98.1369 269.514 97.7797 272.731 97.7797C275.948 97.7797 278.557 98.1369 278.557 98.5777Z" fill="#6941C6"/>
    <path opacity="0.2" d="M278.557 98.5777C278.557 99.0186 275.948 99.3758 272.731 99.3758C269.514 99.3758 266.906 99.0186 266.906 98.5777C266.906 98.1369 269.514 97.7797 272.731 97.7797C275.948 97.7797 278.557 98.1369 278.557 98.5777Z" fill="black"/>
    <path opacity="0.5" d="M266.681 102.237C266.681 102.237 268.028 107.324 270.168 107.011C272.309 106.7 268.644 104.994 266.681 102.237Z" fill="white"/>
    <path d="M265.087 28.1025C264.466 30.1453 254.389 28.892 242.58 25.3025C230.771 21.7131 221.701 17.1477 222.322 15.1049C222.943 13.0621 233.019 14.3155 244.828 17.9049C256.637 21.4937 265.707 26.059 265.087 28.1025Z" fill="#6941C6"/>
    <path opacity="0.8" d="M265.087 28.1025C264.466 30.1453 254.389 28.892 242.58 25.3025C230.771 21.7131 221.701 17.1477 222.322 15.1049C222.943 13.0621 233.019 14.3155 244.828 17.9049C256.637 21.4937 265.707 26.059 265.087 28.1025Z" fill="white"/>
    <path d="M235.275 25.3091L232.441 32.4814C232.187 33.1259 232.893 33.7269 233.488 33.3717C233.624 33.2906 233.73 33.1674 233.789 33.0204L236.836 25.4884L235.275 25.3091Z" stroke="#263238" stroke-miterlimit="10"/>
    <path d="M248.713 29.3934L247.077 36.9294C246.93 37.6062 246.009 37.7123 245.711 37.0863C245.644 36.9433 245.624 36.7818 245.657 36.627L247.317 28.6738L248.713 29.3934Z" stroke="#263238" stroke-miterlimit="10"/>
    <path d="M235.363 26.6647L234.131 26.2897L234.859 23.8937L236.489 24.3892L235.363 26.6647Z" fill="#6941C6"/>
    <path d="M235.363 26.6647L236.969 26.3589L237.996 24.2179L236.489 24.3892L235.363 26.6647Z" fill="#6941C6"/>
    <path opacity="0.1" d="M235.363 26.6647L234.131 26.2897L234.859 23.8937L236.489 24.3892L235.363 26.6647Z" fill="white"/>
    <path d="M247.905 30.4768L249.138 30.851L249.866 28.455L248.236 27.9595L247.905 30.4768Z" fill="#6941C6"/>
    <path d="M247.905 30.4768L246.741 29.3288L247.08 26.9789L248.236 27.9595L247.905 30.4768Z" fill="#6941C6"/>
    <path opacity="0.1" d="M247.905 30.4768L249.138 30.851L249.866 28.455L248.236 27.9595L247.905 30.4768Z" fill="white"/>
    <path d="M233.87 18.0848C233.81 18.0683 230.87 17.4291 229.525 17.1372C229.478 17.1267 229.459 17.1958 229.505 17.211L232.79 18.3266L233.87 18.0848Z" fill="#6941C6"/>
    <g opacity="0.3">
        <path d="M233.87 18.0848C233.81 18.0683 230.87 17.4291 229.525 17.1372C229.478 17.1267 229.459 17.1958 229.505 17.211L232.79 18.3266L233.87 18.0848Z" fill="white"/>
    </g>
    <path d="M233.673 19.8212L231.972 19.3046L232.134 18.7715C232.277 18.3016 232.773 18.0367 233.243 18.1797C233.713 18.3227 233.978 18.8189 233.835 19.2888L233.673 19.8212Z" fill="#6941C6"/>
    <path d="M233.872 17.7237L233.744 18.1435L232.908 17.8891L233.036 17.4687C233.105 17.2407 233.351 17.1095 233.578 17.1794C233.81 17.2505 233.941 17.4957 233.872 17.7237Z" fill="#6941C6"/>
    <path opacity="0.4" d="M233.673 19.8212L231.972 19.3046L232.134 18.7715C232.277 18.3016 232.773 18.0367 233.243 18.1797C233.713 18.3227 233.978 18.8189 233.835 19.2888L233.673 19.8212Z" fill="white"/>
    <path d="M236.128 18.6423L236.957 19.0152C237.107 19.0825 237.086 19.3012 236.927 19.3401C236.484 19.4469 236.023 19.4469 235.58 19.3388L234.519 19.0798C234.501 19.0752 234.484 19.068 234.468 19.0587L233.4 18.3912L232.991 17.9714L234.193 18.1098C234.863 18.1869 235.514 18.3662 236.128 18.6423Z" fill="#6941C6"/>
    <path opacity="0.6" d="M236.128 18.6423L236.957 19.0152C237.107 19.0825 237.086 19.3012 236.927 19.3401C236.484 19.4469 236.023 19.4469 235.58 19.3388L234.519 19.0798C234.501 19.0752 234.484 19.068 234.468 19.0587L233.4 18.3912L232.991 17.9714L234.193 18.1098C234.863 18.1869 235.514 18.3662 236.128 18.6423Z" fill="white"/>
    <path d="M238.515 21.862L237.725 23.2393L231.948 20.4301C231.64 20.3365 231.464 20.0077 231.558 19.6999C231.653 19.3876 231.982 19.2123 232.289 19.3059L233.502 19.6742C233.714 19.7388 233.863 19.9108 233.903 20.1105L233.907 20.1118L238.515 21.862Z" fill="#6941C6"/>
    <path opacity="0.4" d="M238.515 21.862L237.725 23.2393L231.948 20.4301C231.64 20.3365 231.464 20.0077 231.558 19.6999C231.653 19.3876 231.982 19.2123 232.289 19.3059L233.502 19.6742C233.714 19.7388 233.863 19.9108 233.903 20.1105L233.907 20.1118L238.515 21.862Z" fill="white"/>
    <path d="M253.938 24.1843C253.997 24.204 256.795 25.3091 258.075 25.8146C258.12 25.8324 258.098 25.8996 258.051 25.8871L254.7 24.9856L253.938 24.1843Z" fill="#6941C6"/>
    <g opacity="0.3">
        <path d="M253.938 24.1843C253.997 24.204 256.795 25.3091 258.075 25.8146C258.12 25.8324 258.098 25.8996 258.051 25.8871L254.7 24.9856L253.938 24.1843Z" fill="white"/>
    </g>
    <path d="M253.135 25.7369L254.836 26.2535L254.998 25.7204C255.141 25.2505 254.876 24.7543 254.407 24.6113C253.937 24.4683 253.441 24.7339 253.298 25.2031L253.135 25.7369Z" fill="#6941C6"/>
    <path d="M254.136 23.8825L254.009 24.3023L254.845 24.5566L254.973 24.1362C255.042 23.9082 254.911 23.6631 254.683 23.5939C254.451 23.524 254.206 23.6545 254.136 23.8825Z" fill="#6941C6"/>
    <path opacity="0.4" d="M253.135 25.7369L254.836 26.2535L254.998 25.7204C255.141 25.2505 254.876 24.7543 254.407 24.6113C253.937 24.4683 253.441 24.7339 253.298 25.2031L253.135 25.7369Z" fill="white"/>
    <path d="M251.751 23.3909L250.854 23.2393C250.692 23.2116 250.587 23.4047 250.699 23.526C251.007 23.8614 251.39 24.1177 251.818 24.2746L252.844 24.6495C252.861 24.6561 252.879 24.6594 252.898 24.6601L254.156 24.7003L254.73 24.579L253.653 24.0248C253.056 23.7164 252.414 23.5029 251.751 23.3909Z" fill="#6941C6"/>
    <path opacity="0.6" d="M251.751 23.3909L250.854 23.2393C250.692 23.2116 250.587 23.4047 250.699 23.526C251.007 23.8614 251.39 24.1177 251.818 24.2746L252.844 24.6495C252.861 24.6561 252.879 24.6594 252.898 24.6601L254.156 24.7003L254.73 24.579L253.653 24.0248C253.056 23.7164 252.414 23.5029 251.751 23.3909Z" fill="white"/>
    <path d="M247.976 24.7378L247.866 26.3213L254.229 27.2017C254.536 27.2953 254.865 27.12 254.959 26.8116C255.054 26.4992 254.878 26.1711 254.571 26.0768L253.358 25.7085C253.146 25.6439 252.927 25.7038 252.782 25.8482L252.778 25.8468L247.976 24.7378Z" fill="#6941C6"/>
    <path opacity="0.4" d="M247.976 24.7378L247.866 26.3213L254.229 27.2017C254.536 27.2953 254.865 27.12 254.959 26.8116C255.054 26.4992 254.878 26.1711 254.571 26.0768L253.358 25.7085C253.146 25.6439 252.927 25.7038 252.782 25.8482L252.778 25.8468L247.976 24.7378Z" fill="white"/>
    <path d="M228.884 15.9622C229.003 15.9787 234.663 17.0475 237.254 17.5372C237.344 17.5543 237.327 17.6894 237.234 17.6828L230.606 17.1958L228.884 15.9622Z" fill="#6941C6"/>
    <path opacity="0.6" d="M228.884 15.9622C229.003 15.9787 234.663 17.0475 237.254 17.5372C237.344 17.5543 237.327 17.6894 237.234 17.6828L230.606 17.1958L228.884 15.9622Z" fill="white"/>
    <path d="M230.823 16.4835C230.703 16.8769 230.287 17.0989 229.894 16.979C229.501 16.8597 229.279 16.4433 229.398 16.0499C229.517 15.6565 229.934 15.4344 230.327 15.5543C230.721 15.6736 230.943 16.0901 230.823 16.4835Z" fill="#6941C6"/>
    <path d="M230.827 16.4852L229.402 16.0521L229.185 16.7646L230.61 17.1977L230.827 16.4852Z" fill="#6941C6"/>
    <path d="M230.313 17.1022L229.487 16.851L229.374 17.223L230.2 17.4742L230.313 17.1022Z" fill="#6941C6"/>
    <path d="M224.485 15.2585L222.744 15.2967C222.429 15.3039 222.302 15.7046 222.554 15.8917C223.255 16.411 224.069 16.7556 224.93 16.8954L226.994 17.2314C227.029 17.2374 227.064 17.2374 227.099 17.2314L229.481 16.8525L230.516 16.4176L228.291 15.7632C227.057 15.4008 225.772 15.2301 224.485 15.2585Z" fill="#6941C6"/>
    <g opacity="0.6">
        <path d="M224.485 15.2585L222.744 15.2967C222.429 15.3039 222.302 15.7046 222.554 15.8917C223.255 16.411 224.069 16.7556 224.93 16.8954L226.994 17.2314C227.029 17.2374 227.064 17.2374 227.099 17.2314L229.481 16.8525L230.516 16.4176L228.291 15.7632C227.057 15.4008 225.772 15.2301 224.485 15.2585Z" fill="white"/>
    </g>
    <path d="M230.484 20.0565L227.585 19.1754L227.915 18.0888C228.129 17.3863 228.871 16.9896 229.574 17.2038L229.928 17.3118C230.631 17.5253 231.028 18.268 230.814 18.9705L230.484 20.0565Z" fill="#6941C6"/>
    <path opacity="0.2" d="M230.484 20.0565L227.585 19.1754L227.915 18.0888C228.129 17.3863 228.871 16.9896 229.574 17.2038L229.928 17.3118C230.631 17.5253 231.028 18.268 230.814 18.9705L230.484 20.0565Z" fill="white"/>
    <path d="M243.194 30.5381L239.096 29.2927L239.402 28.9645C239.647 28.7009 240.021 28.6001 240.367 28.7048L242.466 29.3427C242.811 29.4475 243.066 29.7394 243.123 30.0953L243.194 30.5381Z" fill="#6941C6"/>
    <path opacity="0.1" d="M243.194 30.5381L239.096 29.2927L239.402 28.9645C239.647 28.7009 240.021 28.6001 240.367 28.7048L242.466 29.3427C242.811 29.4475 243.066 29.7394 243.123 30.0953L243.194 30.5381Z" fill="white"/>
    <path opacity="0.3" d="M242.549 27.0423L241.517 26.7288L240.789 29.1234L241.821 29.4369L242.549 27.0423Z" fill="black"/>
    <path d="M242.598 29.8758L239.962 29.0745C239.496 28.9328 239.004 29.1958 238.863 29.6616L238.479 30.9256C238.337 31.3915 238.6 31.8837 239.066 32.0254L241.702 32.8267C242.168 32.9684 242.66 32.7054 242.802 32.2396L243.186 30.9763C243.327 30.5091 243.064 30.0168 242.598 29.8758Z" fill="#6941C6"/>
    <path opacity="0.2" d="M242.598 29.8758L239.962 29.0745C239.496 28.9328 239.004 29.1958 238.863 29.6616L238.479 30.9256C238.337 31.3915 238.6 31.8837 239.066 32.0254L241.702 32.8267C242.168 32.9684 242.66 32.7054 242.802 32.2396L243.186 30.9763C243.327 30.5091 243.064 30.0168 242.598 29.8758Z" fill="white"/>
    <path d="M241.925 32.1203L239.206 31.2939L239.282 31.0455C239.51 30.2949 240.304 29.8712 241.054 30.0992C241.805 30.3272 242.229 31.1206 242.001 31.8719L241.925 32.1203Z" fill="#6941C6"/>
    <path d="M241.966 31.9846C241.76 32.66 240.998 32.9809 240.247 32.7529C239.497 32.5249 239.042 31.8343 239.247 31.1582C239.453 30.4828 240.227 30.1197 240.978 30.3483C241.729 30.5763 242.171 31.3091 241.966 31.9846Z" fill="#6941C6"/>
    <path opacity="0.3" d="M241.966 31.9846C241.76 32.66 240.998 32.9809 240.247 32.7529C239.497 32.5249 239.042 31.8343 239.247 31.1582C239.453 30.4828 240.227 30.1197 240.978 30.3483C241.729 30.5763 242.171 31.3091 241.966 31.9846Z" fill="black"/>
    <path d="M241.623 32.0063C241.474 32.4959 240.874 32.7476 240.283 32.5677C239.692 32.3878 239.333 31.8455 239.481 31.3552C239.63 30.8656 240.231 30.6139 240.822 30.7938C241.413 30.9737 241.772 31.516 241.623 32.0063Z" fill="#6941C6"/>
    <path opacity="0.2" d="M241.623 32.0063C241.474 32.4959 240.874 32.7476 240.283 32.5677C239.692 32.3878 239.333 31.8455 239.481 31.3552C239.63 30.8656 240.231 30.6139 240.822 30.7938C241.413 30.9737 241.772 31.516 241.623 32.0063Z" fill="black"/>
    <path d="M241.352 31.9272C241.241 32.2936 240.792 32.4821 240.35 32.3476C239.908 32.2132 239.64 31.8073 239.751 31.4409C239.862 31.0745 240.311 30.8867 240.754 31.0211C241.195 31.1549 241.464 31.5608 241.352 31.9272Z" fill="#6941C6"/>
    <path opacity="0.3" d="M241.352 31.9272C241.241 32.2936 240.792 32.4821 240.35 32.3476C239.908 32.2132 239.64 31.8073 239.751 31.4409C239.862 31.0745 240.311 30.8867 240.754 31.0211C241.195 31.1549 241.464 31.5608 241.352 31.9272Z" fill="black"/>
    <path d="M241.054 31.7737C240.987 31.9944 240.716 32.1078 240.45 32.0267C240.184 31.9457 240.022 31.7012 240.089 31.4804C240.156 31.2597 240.426 31.1463 240.693 31.2274C240.959 31.3084 241.121 31.5529 241.054 31.7737Z" fill="#6941C6"/>
    <path opacity="0.4" d="M241.054 31.7737C240.987 31.9944 240.716 32.1078 240.45 32.0267C240.184 31.9457 240.022 31.7012 240.089 31.4804C240.156 31.2597 240.426 31.1463 240.693 31.2274C240.959 31.3084 241.121 31.5529 241.054 31.7737Z" fill="black"/>
    <path d="M240.97 31.659C240.918 31.8304 240.708 31.918 240.502 31.8554C240.296 31.7928 240.171 31.603 240.223 31.4317C240.275 31.2603 240.484 31.1727 240.691 31.2353C240.897 31.2979 241.022 31.4877 240.97 31.659Z" fill="#6941C6"/>
    <path d="M240.817 31.5477C240.793 31.6254 240.682 31.661 240.569 31.6267C240.455 31.5925 240.383 31.5009 240.407 31.4231C240.43 31.3454 240.542 31.3098 240.655 31.344C240.768 31.3783 240.841 31.4692 240.817 31.5477Z" fill="#6941C6"/>
    <path opacity="0.2" d="M240.817 31.5477C240.793 31.6254 240.682 31.661 240.569 31.6267C240.455 31.5925 240.383 31.5009 240.407 31.4231C240.43 31.3454 240.542 31.3098 240.655 31.344C240.768 31.3783 240.841 31.4692 240.817 31.5477Z" fill="white"/>
    <path d="M242.37 27.9826L241.138 27.6083C240.728 27.4838 240.496 27.0495 240.621 26.639C240.745 26.2284 241.18 25.9971 241.59 26.1217L242.822 26.496C243.232 26.6205 243.464 27.0548 243.339 27.4646C243.215 27.8758 242.781 28.1078 242.37 27.9826Z" fill="#6941C6"/>
    <path d="M258.117 28.2403L256.054 27.6129C255.835 27.5464 255.612 27.5589 255.413 27.6327L230.697 20.1204C230.573 19.9484 230.394 19.814 230.176 19.7474L228.113 19.1201C227.584 18.9593 227.024 19.2578 226.863 19.7869C226.703 20.3161 227.001 20.8756 227.53 21.0364L229.045 21.497L237.566 25.0311L237.972 26.6851C238.184 27.5503 238.838 28.2403 239.69 28.4992L243.28 29.5905C244.133 29.8495 245.06 29.6399 245.717 29.0389L246.975 27.8903L256.021 29.6959L257.536 30.1566C258.065 30.3173 258.625 30.0188 258.785 29.4897C258.945 28.9605 258.646 28.4011 258.117 28.2403Z" fill="#6941C6"/>
    <path opacity="0.2" d="M258.117 28.2403L256.054 27.6129C255.835 27.5464 255.612 27.5589 255.413 27.6327L230.697 20.1204C230.573 19.9484 230.394 19.814 230.176 19.7474L228.113 19.1201C227.584 18.9593 227.024 19.2578 226.863 19.7869C226.703 20.3161 227.001 20.8756 227.53 21.0364L229.045 21.497L237.566 25.0311L237.972 26.6851C238.184 27.5503 238.838 28.2403 239.69 28.4992L243.28 29.5905C244.133 29.8495 245.06 29.6399 245.717 29.0389L246.975 27.8903L256.021 29.6959L257.536 30.1566C258.065 30.3173 258.625 30.0188 258.785 29.4897C258.945 28.9605 258.646 28.4011 258.117 28.2403Z" fill="white"/>
    <path d="M248.373 25.4936C248.067 26.4992 245.408 26.5816 242.434 25.6775C239.46 24.7734 237.296 23.2255 237.602 22.2199C237.908 21.2143 240.567 21.1319 243.541 22.036C246.515 22.9401 248.679 24.4881 248.373 25.4936Z" fill="#6941C6"/>
    <path opacity="0.4" d="M248.373 25.4936C248.067 26.4992 245.408 26.5816 242.434 25.6775C239.46 24.7734 237.296 23.2255 237.602 22.2199C237.908 21.2143 240.567 21.1319 243.541 22.036C246.515 22.9401 248.679 24.4881 248.373 25.4936Z" fill="white"/>
    <path d="M259.216 25.1813C259.109 25.1292 253.811 22.867 251.386 21.8324C251.301 21.7961 251.241 21.918 251.321 21.9642L257.099 25.2478L259.216 25.1813Z" fill="#6941C6"/>
    <path opacity="0.6" d="M259.216 25.1813C259.109 25.1292 253.811 22.867 251.386 21.8324C251.301 21.7961 251.241 21.918 251.321 21.9642L257.099 25.2478L259.216 25.1813Z" fill="white"/>
    <path d="M257.315 24.5349C257.196 24.9283 257.418 25.3441 257.811 25.464C258.205 25.5833 258.621 25.3619 258.741 24.9685C258.86 24.575 258.639 24.1592 258.244 24.0393C257.851 23.9194 257.435 24.1414 257.315 24.5349Z" fill="#6941C6"/>
    <path d="M257.09 25.2524L258.515 25.6855L258.732 24.973L257.307 24.5399L257.09 25.2524Z" fill="#6941C6"/>
    <path d="M257.275 25.7177L258.102 25.9689L258.215 25.5969L257.388 25.3457L257.275 25.7177Z" fill="#6941C6"/>
    <path d="M263.263 27.0448L264.689 28.0458C264.946 28.2264 264.829 28.6303 264.515 28.6455C263.643 28.687 262.776 28.5203 261.982 28.1579L260.08 27.2887C260.048 27.2742 260.019 27.2544 259.993 27.2307L258.225 25.5905L257.607 24.6528L259.819 25.3467C261.048 25.7315 262.21 26.3048 263.263 27.0448Z" fill="#6941C6"/>
    <g opacity="0.6">
        <path d="M263.263 27.0448L264.689 28.0458C264.946 28.2264 264.829 28.6303 264.515 28.6455C263.643 28.687 262.776 28.5203 261.982 28.1579L260.08 27.2887C260.048 27.2742 260.019 27.2544 259.993 27.2307L258.225 25.5905L257.607 24.6528L259.819 25.3467C261.048 25.7315 262.21 26.3048 263.263 27.0448Z" fill="white"/>
    </g>
    <path d="M255.609 27.6926L258.507 28.5737L258.783 27.6649C259.027 26.8643 258.575 26.0182 257.775 25.775C256.974 25.5318 256.128 25.9832 255.885 26.7839L255.609 27.6926Z" fill="#6941C6"/>
    <path opacity="0.2" d="M255.609 27.6926L258.507 28.5737L258.783 27.6649C259.027 26.8643 258.575 26.0182 257.775 25.775C256.974 25.5318 256.128 25.9832 255.885 26.7839L255.609 27.6926Z" fill="white"/>
    <path d="M86.9647 37.2063L89.4879 15.7283C89.5268 15.3975 89.1887 15.1511 88.8856 15.2895L69.2179 24.2812C68.9207 24.4169 68.8798 24.8228 69.1441 25.0159L86.2893 37.5021C86.5522 37.6946 86.9265 37.5311 86.9647 37.2063Z" fill="#6941C6"/>
    <path opacity="0.3" d="M86.9647 37.2063L89.4879 15.7283C89.5268 15.3975 89.1887 15.1511 88.8856 15.2895L69.2179 24.2812C68.9207 24.4169 68.8798 24.8228 69.1441 25.0159L86.2893 37.5021C86.5522 37.6946 86.9265 37.5311 86.9647 37.2063Z" fill="black"/>
    <path d="M80.1344 36.5038L81.7957 35.0982L83.2962 36.1908L82.4679 38.2026C81.5295 37.9773 80.6774 37.3928 80.1344 36.5038Z" fill="#263238"/>
    <path opacity="0.2" d="M83.2955 36.1914C83.2955 36.1914 83.171 36.4933 83.1018 36.6626C82.4474 36.426 81.8544 36.0082 81.4056 35.4277L81.795 35.0982L83.2955 36.1914Z" fill="white"/>
    <path opacity="0.4" d="M82.8936 37.1681C82.8408 37.2959 82.7881 37.4244 82.738 37.5463C81.9367 37.2728 81.2119 36.7628 80.6768 36.0445L80.9885 35.7803C81.5374 36.3733 82.1865 36.8392 82.8936 37.1681Z" fill="white"/>
    <path d="M81.0491 34.37C81.7872 35.5773 82.9443 36.3707 84.2188 36.6784L93.4622 23.9866C94.5502 22.4927 94.9297 20.699 94.6642 19.0067C92.9719 19.2729 91.3811 20.1843 90.2932 21.6782L81.0491 34.37Z" fill="#6941C6"/>
    <path d="M93.4615 23.9866C93.4615 23.9866 85.6896 34.658 84.7479 35.9509C83.5005 35.5694 82.3717 34.7832 81.5783 33.6432C82.5199 32.3503 90.2919 21.6789 90.2919 21.6789C91.3798 20.185 92.9706 19.273 94.6628 19.0074C94.9291 20.699 94.5495 22.492 93.4615 23.9866Z" fill="#6941C6"/>
    <path opacity="0.4" d="M93.4615 23.9866C93.4615 23.9866 85.6896 34.658 84.7479 35.9509C83.5005 35.5694 82.3717 34.7832 81.5783 33.6432C82.5199 32.3503 90.2919 21.6789 90.2919 21.6789C91.3798 20.185 92.9706 19.273 94.6628 19.0074C94.9291 20.699 94.5495 22.492 93.4615 23.9866Z" fill="white"/>
    <path d="M93.4615 23.9866C93.4615 23.9866 89.5268 29.3895 86.9173 32.9717C85.6962 32.5236 84.5898 31.7427 83.7476 30.664C86.3571 27.0811 90.2919 21.6782 90.2919 21.6782C91.3798 20.1843 92.9706 19.2723 94.6628 19.0067C94.9291 20.699 94.5495 22.492 93.4615 23.9866Z" fill="#6941C6"/>
    <path opacity="0.6" d="M93.4615 23.9866C93.4615 23.9866 89.5268 29.3895 86.9173 32.9717C85.6962 32.5236 84.5898 31.7427 83.7476 30.664C86.3571 27.0811 90.2919 21.6782 90.2919 21.6782C91.3798 20.1843 92.9706 19.2723 94.6628 19.0067C94.9291 20.699 94.5495 22.492 93.4615 23.9866Z" fill="white"/>
    <path d="M93.4615 23.9866C93.4615 23.9866 91.8668 26.1763 90.0349 28.6916C88.8138 28.2435 87.7074 27.4627 86.8652 26.3839C88.6978 23.868 90.2925 21.6782 90.2925 21.6782C91.3805 20.1843 92.9713 19.2723 94.6635 19.0067C94.9291 20.699 94.5495 22.492 93.4615 23.9866Z" fill="#6941C6"/>
    <path opacity="0.8" d="M93.4615 23.9866C93.4615 23.9866 91.8668 26.1763 90.0349 28.6916C88.8138 28.2435 87.7074 27.4627 86.8652 26.3839C88.6978 23.868 90.2925 21.6782 90.2925 21.6782C91.3805 20.1843 92.9713 19.2723 94.6635 19.0067C94.9291 20.699 94.5495 22.492 93.4615 23.9866Z" fill="white"/>
    <path d="M93.4615 23.9866C93.4615 23.9866 93.3152 24.1876 93.0615 24.5355C91.8405 24.0874 90.734 23.3065 89.8919 22.2278C90.1456 21.8792 90.2919 21.6782 90.2919 21.6782C91.3798 20.1843 92.9706 19.2723 94.6628 19.0067C94.9291 20.699 94.5495 22.492 93.4615 23.9866Z" fill="#6941C6"/>
    <path opacity="0.4" d="M93.4615 23.9866C93.4615 23.9866 93.3152 24.1876 93.0615 24.5355C91.8405 24.0874 90.734 23.3065 89.8919 22.2278C90.1456 21.8792 90.2919 21.6782 90.2919 21.6782C91.3798 20.1843 92.9706 19.2723 94.6628 19.0067C94.9291 20.699 94.5495 22.492 93.4615 23.9866Z" fill="white"/>
    <path d="M69.9395 29.0791L71.6007 27.6735L73.1012 28.7668L72.2729 30.7786C71.3345 30.5519 70.4825 29.9674 69.9395 29.0791Z" fill="#263238"/>
    <path opacity="0.2" d="M73.1012 28.7668C73.1012 28.7668 72.9767 29.0686 72.9075 29.2379C72.2531 29.0014 71.66 28.5836 71.2113 28.003L71.6007 27.6735L73.1012 28.7668Z" fill="white"/>
    <path opacity="0.4" d="M72.6986 29.7433C72.6459 29.8712 72.5931 29.9997 72.5431 30.1216C71.7418 29.8481 71.0169 29.3381 70.4818 28.6198L70.7935 28.3555C71.3424 28.9486 71.9915 29.4145 72.6986 29.7433Z" fill="white"/>
    <path d="M70.8535 26.9447C71.5915 28.152 72.7487 28.9454 74.0231 29.2531L83.2666 16.5613C84.3545 15.0674 84.7341 13.2737 84.4685 11.5814C82.7763 11.8476 81.1855 12.759 80.0975 14.2529L70.8535 26.9447Z" fill="#6941C6"/>
    <path d="M83.2666 16.5613C83.2666 16.5613 75.4946 27.2327 74.553 28.5256C73.3049 28.1441 72.1767 27.3579 71.3833 26.2179C72.325 24.925 80.0969 14.2536 80.0969 14.2536C81.1849 12.7597 82.7756 11.8477 84.4679 11.5821C84.7341 13.2737 84.3545 15.0674 83.2666 16.5613Z" fill="#6941C6"/>
    <path opacity="0.4" d="M83.2666 16.5613C83.2666 16.5613 75.4946 27.2327 74.553 28.5256C73.3049 28.1441 72.1767 27.3579 71.3833 26.2179C72.325 24.925 80.0969 14.2536 80.0969 14.2536C81.1849 12.7597 82.7756 11.8477 84.4679 11.5821C84.7341 13.2737 84.3545 15.0674 83.2666 16.5613Z" fill="white"/>
    <path d="M83.2666 16.5613C83.2666 16.5613 79.3318 21.9635 76.7223 25.5464C75.5012 25.0983 74.3948 24.3174 73.5526 23.2387C76.1622 19.6558 80.0969 14.2529 80.0969 14.2529C81.1849 12.759 82.7756 11.847 84.4679 11.5814C84.7341 13.2737 84.3545 15.0674 83.2666 16.5613Z" fill="#6941C6"/>
    <path opacity="0.6" d="M83.2666 16.5613C83.2666 16.5613 79.3318 21.9635 76.7223 25.5464C75.5012 25.0983 74.3948 24.3174 73.5526 23.2387C76.1622 19.6558 80.0969 14.2529 80.0969 14.2529C81.1849 12.759 82.7756 11.847 84.4679 11.5814C84.7341 13.2737 84.3545 15.0674 83.2666 16.5613Z" fill="white"/>
    <path d="M83.2666 16.5613C83.2666 16.5613 81.6718 18.7511 79.8399 21.2664C78.6188 20.8182 77.5124 20.0374 76.6702 18.9586C78.5022 16.4427 80.0976 14.2529 80.0976 14.2529C81.1855 12.759 82.7763 11.847 84.4685 11.5814C84.7341 13.2737 84.3545 15.0674 83.2666 16.5613Z" fill="#6941C6"/>
    <path opacity="0.8" d="M83.2666 16.5613C83.2666 16.5613 81.6718 18.7511 79.8399 21.2664C78.6188 20.8182 77.5124 20.0374 76.6702 18.9586C78.5022 16.4427 80.0976 14.2529 80.0976 14.2529C81.1855 12.759 82.7763 11.847 84.4685 11.5814C84.7341 13.2737 84.3545 15.0674 83.2666 16.5613Z" fill="white"/>
    <path d="M83.2666 16.5613C83.2666 16.5613 83.1203 16.7623 82.8666 17.1102C81.6455 16.6621 80.5391 15.8812 79.6969 14.8025C79.9506 14.4539 80.0969 14.2529 80.0969 14.2529C81.1849 12.759 82.7756 11.847 84.4679 11.5814C84.7341 13.2737 84.3545 15.0674 83.2666 16.5613Z" fill="#6941C6"/>
    <path opacity="0.4" d="M83.2666 16.5613C83.2666 16.5613 83.1203 16.7623 82.8666 17.1102C81.6455 16.6621 80.5391 15.8812 79.6969 14.8025C79.9506 14.4539 80.0969 14.2529 80.0969 14.2529C81.1849 12.759 82.7756 11.847 84.4679 11.5814C84.7341 13.2737 84.3545 15.0674 83.2666 16.5613Z" fill="white"/>
    <path d="M73.6053 33.251L76.2867 30.9822L78.7091 32.7469L77.372 35.995C75.8577 35.6293 74.4818 34.6856 73.6053 33.251Z" fill="#263238"/>
    <path opacity="0.2" d="M78.7091 32.7463C78.7091 32.7463 78.5081 33.2339 78.3961 33.5068C77.3391 33.1245 76.3823 32.4498 75.6581 31.5134L76.2861 30.9816L78.7091 32.7463Z" fill="white"/>
    <path opacity="0.4" d="M78.06 34.3232C77.975 34.5295 77.89 34.737 77.8089 34.9334C76.5154 34.4912 75.345 33.6682 74.4818 32.5091L74.9852 32.0827C75.8702 33.0402 76.918 33.7921 78.06 34.3232Z" fill="white"/>
    <path d="M75.0815 29.806C76.2722 31.7546 78.1404 33.0356 80.1977 33.5325L95.1202 13.043C96.877 10.6312 97.4898 7.73498 97.0602 5.00354C94.3281 5.43319 91.7601 6.90468 90.0039 9.31652L75.0815 29.806Z" fill="#6941C6"/>
    <path d="M95.1208 13.043C95.1208 13.043 82.574 30.2706 81.0537 32.3582C79.0392 31.7427 77.2178 30.4729 75.9368 28.6324C77.4564 26.5454 90.0039 9.31719 90.0039 9.31719C91.7607 6.90535 94.3287 5.4332 97.0602 5.00421C97.4898 7.735 96.877 10.6305 95.1208 13.043Z" fill="#6941C6"/>
    <path opacity="0.4" d="M95.1208 13.043C95.1208 13.043 82.574 30.2706 81.0537 32.3582C79.0392 31.7427 77.2178 30.4729 75.9368 28.6324C77.4564 26.5454 90.0039 9.31719 90.0039 9.31719C91.7607 6.90535 94.3287 5.4332 97.0602 5.00421C97.4898 7.735 96.877 10.6305 95.1208 13.043Z" fill="white"/>
    <path d="M95.1208 13.043C95.1208 13.043 88.769 21.7645 84.5562 27.549C82.5845 26.8261 80.7987 25.5648 79.4386 23.8232C83.6514 18.0393 90.0039 9.31652 90.0039 9.31652C91.7607 6.90468 94.3287 5.43253 97.0602 5.00354C97.4898 7.73498 96.877 10.6305 95.1208 13.043Z" fill="#6941C6"/>
    <path opacity="0.6" d="M95.1208 13.043C95.1208 13.043 88.769 21.7645 84.5562 27.549C82.5845 26.8261 80.7987 25.5648 79.4386 23.8232C83.6514 18.0393 90.0039 9.31652 90.0039 9.31652C91.7607 6.90468 94.3287 5.43253 97.0602 5.00354C97.4898 7.73498 96.877 10.6305 95.1208 13.043Z" fill="white"/>
    <path d="M95.1208 13.043C95.1208 13.043 92.5462 16.5777 89.5887 20.639C87.6171 19.9161 85.8313 18.6548 84.4712 16.9132C87.4293 12.8519 90.0039 9.31652 90.0039 9.31652C91.7607 6.90468 94.3287 5.43253 97.0602 5.00354C97.4898 7.73498 96.877 10.6305 95.1208 13.043Z" fill="#6941C6"/>
    <path opacity="0.8" d="M95.1208 13.043C95.1208 13.043 92.5462 16.5777 89.5887 20.639C87.6171 19.9161 85.8313 18.6548 84.4712 16.9132C87.4293 12.8519 90.0039 9.31652 90.0039 9.31652C91.7607 6.90468 94.3287 5.43253 97.0602 5.00354C97.4898 7.73498 96.877 10.6305 95.1208 13.043Z" fill="white"/>
    <path d="M95.1208 13.043C95.1208 13.043 94.8849 13.3672 94.4757 13.9293C92.504 13.2064 90.7182 11.9452 89.3581 10.2035C89.768 9.64074 90.0039 9.31652 90.0039 9.31652C91.7607 6.90468 94.3287 5.43253 97.0602 5.00354C97.4898 7.73498 96.877 10.6305 95.1208 13.043Z" fill="#6941C6"/>
    <path opacity="0.1" d="M95.1208 13.043C95.1208 13.043 94.8849 13.3672 94.4757 13.9293C92.504 13.2064 90.7182 11.9452 89.3581 10.2035C89.768 9.64074 90.0039 9.31652 90.0039 9.31652C91.7607 6.90468 94.3287 5.43253 97.0602 5.00354C97.4898 7.73498 96.877 10.6305 95.1208 13.043Z" fill="white"/>
    <path d="M88.0869 14.1936C87.4873 15.0167 87.6685 16.1692 88.4916 16.7689C89.3146 17.3685 90.4672 17.1866 91.0668 16.3643C91.6665 15.5412 91.4853 14.3887 90.6622 13.789C89.8391 13.1893 88.6866 13.3705 88.0869 14.1936Z" fill="#6941C6"/>
    <path d="M88.4922 16.7689C89.277 17.3409 90.3611 17.2005 90.9798 16.4723C90.9555 16.5119 90.9311 16.5508 90.9034 16.589C90.3037 17.412 89.1512 17.5932 88.3281 16.9936C87.5051 16.3939 87.3239 15.2414 87.9235 14.4183C87.9512 14.3801 87.9808 14.3452 88.0112 14.3102C87.5077 15.1221 87.7067 16.1969 88.4922 16.7689Z" fill="#6941C6"/>
    <path opacity="0.3" d="M88.4922 16.7689C89.277 17.3409 90.3611 17.2005 90.9798 16.4723C90.9555 16.5119 90.9311 16.5508 90.9034 16.589C90.3037 17.412 89.1512 17.5932 88.3281 16.9936C87.5051 16.3939 87.3239 15.2414 87.9235 14.4183C87.9512 14.3801 87.9808 14.3452 88.0112 14.3102C87.5077 15.1221 87.7067 16.1969 88.4922 16.7689Z" fill="black"/>
    <path d="M88.5232 14.5112C88.0995 15.0931 88.2273 15.9082 88.8092 16.332C89.391 16.7557 90.2062 16.6278 90.6299 16.046C91.0536 15.4641 90.9258 14.6489 90.3439 14.2252C89.7627 13.8008 88.9476 13.9293 88.5232 14.5112Z" fill="white"/>
    <path d="M88.8692 16.3669L89.9156 14.0236C90.0553 14.0611 90.1911 14.1224 90.3163 14.2087L89.2724 16.5455C89.1321 16.5118 88.9963 16.4499 88.8692 16.3669Z" fill="#6941C6"/>
    <path d="M88.5159 16.0255L89.426 13.9873C89.507 13.9781 89.5888 13.9754 89.6705 13.9814L88.6748 16.2107C88.6154 16.154 88.5627 16.0921 88.5159 16.0255Z" fill="#6941C6"/>
    <g opacity="0.7">
        <path d="M88.8692 16.3669L89.9156 14.0236C90.0553 14.0611 90.1911 14.1224 90.3163 14.2087L89.2724 16.5455C89.1321 16.5118 88.9963 16.4499 88.8692 16.3669Z" fill="white"/>
        <path d="M88.5159 16.0255L89.426 13.9873C89.507 13.9781 89.5888 13.9754 89.6705 13.9814L88.6748 16.2107C88.6154 16.154 88.5627 16.0921 88.5159 16.0255Z" fill="white"/>
    </g>
    <path opacity="0.1" d="M85.7454 83.1443C91.0783 81.3381 93.9373 75.5508 92.1311 70.2179C90.3249 64.885 84.5376 62.026 79.2047 63.8321C73.8718 65.6383 71.0128 71.4256 72.819 76.7585C74.6251 82.0914 80.4125 84.9504 85.7454 83.1443Z" fill="black"/>
    <path d="M79.0715 81.9901L69.3714 100.764L67.7641 99.9319L77.4649 81.1578L79.0715 81.9901Z" fill="#6941C6"/>
    <path opacity="0.5" d="M77.4649 81.1578L79.0715 81.9901L69.3714 100.764L67.7641 99.9319" fill="black"/>
    <path d="M75.8965 90.8612L71.1275 100.064C70.7644 100.766 69.9012 101.039 69.2 100.676L67.9348 100.02C67.2337 99.6572 66.9602 98.7939 67.3233 98.0928L72.0923 88.8896C72.4969 88.108 73.459 87.8029 74.2405 88.2075L75.2138 88.7123C75.996 89.1176 76.3011 90.0796 75.8965 90.8612Z" fill="#6941C6"/>
    <path opacity="0.5" d="M75.8965 90.8612L71.1275 100.064C70.7644 100.766 69.9012 101.039 69.2 100.676L67.9348 100.02C67.2337 99.6572 66.9602 98.7939 67.3233 98.0928L72.0923 88.8896C72.4969 88.108 73.459 87.8029 74.2405 88.2075L75.2138 88.7123C75.996 89.1176 76.3011 90.0796 75.8965 90.8612Z" fill="white"/>
    <path d="M86.1297 83.9749C86.0309 84.0092 85.932 84.0421 85.8319 84.0738C83.0029 84.97 79.994 84.7116 77.3588 83.3462C71.9176 80.5272 69.7832 73.8102 72.6003 68.3737C73.9651 65.7398 76.2774 63.7958 79.1031 62.899C81.9314 62.0028 84.9409 62.2611 87.5762 63.6265C93.0173 66.4456 95.1517 73.1625 92.3346 78.599C91.0186 81.1394 88.8229 83.0385 86.1297 83.9749ZM79.4194 64.7592C77.1789 65.5381 75.3522 67.1177 74.257 69.231C71.913 73.7542 73.6896 79.343 78.2168 81.6889C80.4098 82.8257 82.9146 83.0405 85.2678 82.2945C87.6196 81.5479 89.5425 79.9314 90.6779 77.7404C93.0219 73.2172 91.2453 67.6284 86.7182 65.2825C84.5251 64.1457 82.0203 63.9309 79.6672 64.6769C79.5841 64.7039 79.5011 64.7309 79.4194 64.7592Z" fill="#6941C6"/>
    <path opacity="0.5" d="M78.0922 65.8782C75.0926 67.7193 72.829 72.7012 74.2432 76.6972C74.6932 77.5176 74.9832 78.0283 75.3845 78.6688C75.5018 78.856 75.7904 78.773 75.7917 78.5522C75.8122 73.5829 77.3621 69.2666 80.5087 65.4182C80.6477 65.2482 80.4803 65.0011 80.2708 65.069C79.5321 65.3055 78.9759 65.519 78.0922 65.8782Z" fill="white"/>
    <g opacity="0.5">
        <path d="M89.4997 68.236C89.132 73.119 87.2842 78.054 84.4572 82.0415C84.4322 82.0771 84.3953 82.1047 84.3538 82.1192C83.9432 82.2682 83.6625 82.3696 83.3475 82.481C83.163 82.5462 82.9976 82.3479 83.0945 82.1772C85.6217 77.7035 87.5195 72.6366 88.4078 67.5592C88.4645 67.237 88.8855 67.1507 89.0648 67.4248C89.1795 67.5994 89.2974 67.7826 89.4424 68.01C89.4852 68.0765 89.5056 68.1562 89.4997 68.236Z" fill="white"/>
    </g>
    <path d="M221.973 214.721L221.095 222.947L216.604 222.479L217.043 213.509L221.973 214.721Z" fill="#DD8C6A"/>
    <path d="M233.224 131.86L225.273 179.935L222.662 220.29L215.923 219.459C215.923 219.459 214.74 199.27 215.868 178.076C216.888 158.938 220.203 138.963 220.684 132.578L223.175 128.169L228.137 128.781L233.224 131.86Z" fill="#6941C6"/>
    <path d="M263.697 216.491L260.262 218.252C260.262 218.252 259.48 216.876 258.223 214.648C257.943 214.152 257.636 213.612 257.314 213.04L261.415 211.248L261.469 211.221C261.506 211.313 261.548 211.405 261.585 211.491C261.79 211.976 261.979 212.429 262.163 212.854C263.114 215.096 263.697 216.491 263.697 216.491Z" fill="#DD8C6A"/>
    <path d="M257.801 218.131C257.283 218.365 256.704 218.512 256.432 218.367C256.285 218.276 256.21 218.103 256.246 217.934C256.264 217.788 256.338 217.654 256.452 217.562C257.062 217.057 258.89 217.23 258.971 217.238C259.016 217.243 259.054 217.275 259.065 217.319C259.075 217.364 259.058 217.41 259.021 217.437C258.636 217.703 258.228 217.936 257.801 218.131ZM256.772 217.619C256.708 217.647 256.648 217.684 256.594 217.729C256.519 217.78 256.47 217.864 256.463 217.955C256.445 218.111 256.498 218.158 256.541 218.179C256.857 218.363 257.91 217.895 258.642 217.449C258.014 217.387 257.38 217.445 256.772 217.619Z" fill="#6941C6"/>
    <path d="M259.006 217.442C258.994 217.453 258.979 217.458 258.963 217.457C258.366 217.461 256.956 217.01 256.834 216.501C256.793 216.383 256.816 216.208 257.075 216.058C257.264 215.947 257.491 215.919 257.701 215.978C258.428 216.174 259.047 217.248 259.076 217.298C259.094 217.332 259.093 217.374 259.072 217.407C259.055 217.427 259.032 217.439 259.006 217.442ZM257.226 216.215L257.167 216.235C256.996 216.33 257.017 216.407 257.021 216.436C257.123 216.73 258.098 217.14 258.752 217.212C258.49 216.762 258.095 216.404 257.622 216.185C257.491 216.147 257.35 216.158 257.226 216.215Z" fill="#6941C6"/>
    <path d="M259.477 216.581L263.075 214.916C263.246 214.838 263.448 214.89 263.561 215.04L266.054 218.369C266.277 218.663 266.22 219.082 265.927 219.305C265.889 219.333 265.848 219.358 265.805 219.378C264.153 220.09 263.605 220.27 261.565 221.195C259.156 222.284 259.898 222.295 257.084 223.615C255.388 224.407 254.2 222.609 254.88 222.187C258.003 220.276 259.112 216.729 259.477 216.581Z" fill="#263238"/>
    <path opacity="0.2" d="M262.163 212.854L258.223 214.648C257.943 214.152 257.637 213.612 257.315 213.04L261.415 211.248L261.585 211.491C261.79 211.977 261.979 212.429 262.163 212.854Z" fill="black"/>
    <path d="M225.831 131.577C225.831 131.577 234.131 171.876 238.108 181.523C241.64 190.089 257.305 214.198 257.305 214.198L262.193 211.756C262.193 211.756 256.752 196.362 251.529 186.476C249.707 183.027 247.809 180.38 246.996 178.518C245.925 176.063 246.254 135.399 240.154 131.385L225.831 131.577Z" fill="#6941C6"/>
    <path opacity="0.2" d="M229.657 152.327L226.915 169.566C226.207 159.704 227.575 144.469 227.575 144.469L229.657 152.327Z" fill="black"/>
    <path d="M219.953 125.874C220.12 124.089 220.234 122.346 220.092 120.688C218.686 104.244 218.668 102.64 218.806 99.7461C218.831 99.2275 219.169 98.7742 219.66 98.6061C231.031 94.7149 240.958 96.5468 243.529 97.9906C246.955 99.9135 245.591 101.977 245.553 102.569C245.232 107.442 242.088 117.095 242.038 125.005C242.031 126.165 242.163 128.959 242.241 130.502C242.272 131.129 241.844 131.683 241.229 131.811C238.676 132.346 226.413 132.496 224.31 132.431C222.309 132.37 220.989 132.249 220.144 132.137C219.41 132.038 218.92 131.331 219.076 130.607C219.387 129.173 219.857 126.902 219.953 125.874Z" fill="#263238"/>
    <path d="M233.94 89.5268C233.511 92.075 233.114 95.8075 234.935 97.4562C234.935 97.4562 234.906 100.05 227.793 103.038C225.105 99.3916 227.009 97.6645 227.009 97.6645C229.835 96.9139 229.727 95.7627 229.184 93.7996L233.94 89.5268Z" fill="#DD8C6A"/>
    <path opacity="0.2" d="M232.01 91.248L229.215 93.7983C229.35 94.2536 229.444 94.7195 229.495 95.192C230.581 95.0095 232.26 94.0434 232.461 92.8586C232.447 92.2925 232.292 91.739 232.01 91.248Z" fill="black"/>
    <path d="M237.145 85.0814C236.115 89.2757 235.766 91.0668 233.228 92.85C229.41 95.5367 224.487 93.3475 224.243 88.9351C224.031 84.9595 225.759 78.748 230.216 77.8439C233.397 77.1645 236.525 79.1915 237.204 82.3717C237.395 83.2672 237.375 84.1951 237.145 85.0814Z" fill="#DD8C6A"/>
    <path d="M229.88 84.5515C229.813 84.8962 229.579 85.1433 229.356 85.1051C229.134 85.0668 228.998 84.7472 229.058 84.4033C229.118 84.0593 229.358 83.8115 229.581 83.8497C229.804 83.8879 229.921 84.2207 229.88 84.5515Z" fill="#263238"/>
    <path d="M226.009 83.884C225.943 84.2346 225.709 84.4757 225.486 84.4375C225.263 84.3993 225.128 84.0797 225.188 83.7357C225.248 83.3917 225.488 83.144 225.712 83.1888C225.934 83.2329 226.07 83.54 226.009 83.884Z" fill="#263238"/>
    <path d="M228.562 89.2269C228.388 89.223 228.216 89.2045 228.046 89.1716C227.991 89.1637 227.952 89.1123 227.96 89.0569C227.96 89.0556 227.961 89.0536 227.961 89.0536C227.974 88.9983 228.029 88.9633 228.085 88.9739C228.952 89.1492 229.851 88.9034 230.508 88.3103C230.546 88.2688 230.612 88.2668 230.653 88.3063C230.695 88.3452 230.696 88.4105 230.657 88.452C230.092 88.9825 229.337 89.2619 228.562 89.2269Z" fill="#263238"/>
    <path d="M231.71 84.0224C231.621 84.0369 231.532 83.9908 231.494 83.9091C231.122 83.3424 230.529 82.9562 229.86 82.8448C229.746 82.8277 229.669 82.7216 229.685 82.6076C229.702 82.4969 229.805 82.4204 229.916 82.4376C229.918 82.4382 229.921 82.4382 229.923 82.4389C230.728 82.5674 231.437 83.0399 231.866 83.7338C231.914 83.8353 231.872 83.9559 231.77 84.004C231.752 84.0158 231.731 84.0224 231.71 84.0224Z" fill="#263238"/>
    <path d="M225.326 82.5469C225.252 82.5628 225.176 82.5384 225.124 82.4837C225.048 82.3993 225.053 82.2695 225.136 82.1911C225.614 81.7166 226.297 81.5117 226.958 81.6441C227.064 81.6665 227.132 81.7713 227.109 81.8774C227.108 81.8827 227.107 81.888 227.105 81.8932C227.078 82.002 226.968 82.0685 226.859 82.0415C226.858 82.0415 226.858 82.0408 226.856 82.0408C226.338 81.9558 225.81 82.1232 225.435 82.4909C225.406 82.5206 225.368 82.5404 225.326 82.5469Z" fill="#263238"/>
    <path d="M235.872 96.2345L235.125 96.1125L230.96 98.3886L229.668 98.4394L227.188 96.3419L226.363 96.5402C225.592 98.9257 225.447 101.469 225.942 103.926L227.356 110.957L228.832 118.65L228.861 118.649L229.171 117.94L230.331 115.287L231.918 112.259L234.811 104.862L235.63 101.815C236.12 99.9952 236.202 98.0895 235.872 96.2345Z" fill="#263238"/>
    <path opacity="0.1" d="M231.373 98.4427C226.906 98.4915 226.406 96.846 226.406 96.846L226.409 96.4572C226.409 96.4572 225.07 98.9956 228.946 99.4364C232.823 99.8773 235.406 98.0401 235.955 96.9343C235.955 96.933 235.955 96.9317 235.956 96.9304C235.518 97.5175 234.365 98.4098 231.373 98.4427Z" fill="black"/>
    <path d="M237.11 89.3805C238.249 88.485 238.117 86.9785 238.792 85.6955C239.958 83.4761 238.805 82.5516 238.805 82.5516C239.793 81.1756 238.968 79.2462 237.099 79.4649C236.434 78.3908 235.744 77.2883 234.718 76.551C232.973 75.2963 230.376 75.4874 228.755 76.8995C228.239 76.3967 227.273 76.493 226.866 77.088C226.46 77.6831 226.72 78.6181 227.376 78.9173C227.93 79.7687 228.954 80.4059 229.911 80.7447C231.252 81.2191 233.539 81.3338 234.935 81.6046C234.915 82.6544 234.625 83.9763 234.467 85.0141C233.972 88.2774 234.449 91.8233 234.449 91.8233C235.41 91.0813 236.944 90.5838 237.11 89.3805Z" fill="#263238"/>
    <path d="M236.976 88.1067C236.596 88.7729 235.969 89.2632 235.23 89.4694C234.244 89.7291 233.762 88.8441 234.044 87.9149C234.307 87.0813 235.131 85.94 236.116 86.0731C236.828 86.1924 237.309 86.8665 237.19 87.5789C237.158 87.768 237.085 87.9485 236.976 88.1067Z" fill="#DD8C6A"/>
    <path d="M235.086 85.1189L232.227 84.6372C231.985 83.9058 230.956 83.7311 230.519 83.6573C230.064 83.5809 228.97 83.399 228.531 84.1015L227.534 83.9334C227.349 83.1262 226.256 82.939 225.802 82.8626C225.269 82.773 223.855 82.5344 223.651 83.7483C223.489 84.711 224.23 85.6408 225.303 85.8221C226.376 86.0033 227.381 85.3674 227.543 84.4046C227.555 84.3367 227.559 84.2735 227.561 84.2122L228.415 84.3558C228.396 84.4145 228.38 84.4758 228.369 84.5436C228.206 85.5064 228.947 86.4362 230.021 86.6174C231.093 86.798 232.098 86.1627 232.261 85.2C232.278 85.0992 232.28 85.0076 232.276 84.9199L235.042 85.3858C235.42 85.4491 235.765 85.6435 236.015 85.9328L236.22 85.7562C235.928 85.4194 235.526 85.1927 235.086 85.1189ZM225.348 85.5558C224.421 85.3996 223.779 84.6089 223.917 83.7931C224.029 83.1288 224.579 82.9298 225.757 83.1288C226.935 83.3272 227.389 83.6955 227.277 84.3598C227.14 85.1749 226.274 85.712 225.348 85.5558ZM230.065 86.3505C229.138 86.1944 228.496 85.4036 228.634 84.5878C228.746 83.9235 229.296 83.7245 230.474 83.9235C231.652 84.1219 232.106 84.4903 231.994 85.1545C231.856 85.9703 230.991 86.5067 230.065 86.3505Z" fill="white"/>
    <path d="M226.419 95.4121L226.404 97.0608C226.404 97.0608 226.904 98.7063 231.371 98.6575C235.837 98.6087 236.216 96.6391 236.216 96.6391L236.227 95.4404C236.235 94.5778 235.455 93.9261 234.607 94.0875C233.323 94.3327 231.199 94.4902 227.948 94.0691C227.141 93.9643 226.427 94.5989 226.419 95.4121Z" fill="#263238"/>
    <path d="M227.602 84.4039C227.019 85.3463 226.309 86.2036 225.493 86.9535C225.896 87.3614 226.456 87.5749 227.028 87.5393L227.602 84.4039Z" fill="#F84A35"/>
    <path d="M198.36 91.2454C198.36 91.2454 198.312 88.9179 196.016 87.7409C196.016 87.7409 195.685 85.2889 194.344 84.7565C193.002 84.224 191.154 87.1538 191.154 87.1538C191.154 87.1538 191.567 90.5706 194.171 91.4319L197.009 93.0147L198.36 91.2454Z" fill="#DD8C6A"/>
    <path d="M199.783 92.4889L199.008 90.6016C199.008 90.6016 196.559 90.9897 195 93.2592L196.817 94.7603L199.783 92.4889Z" fill="#6941C6"/>
    <path d="M199.761 92.1007C204.091 97.9096 209.447 100.979 209.447 100.979C216.784 98.1507 222.881 98.7056 222.881 98.7056L220.343 104.487C220.343 104.487 211.745 107.473 207.574 106.402C204.269 105.553 198.557 97.7699 196.325 94.5712C197.674 93.0437 199.171 92.3366 199.761 92.1007Z" fill="#263238"/>
    <path d="M252.899 125.36C252.899 125.36 251.477 127.204 252.53 129.56C252.53 129.56 251.252 131.678 251.964 132.934C252.676 134.189 255.953 133.064 255.953 133.064C255.953 133.064 257.771 130.142 256.281 127.839L255.062 124.827L252.899 125.36Z" fill="#DD8C6A"/>
    <path d="M252.568 123.499L251.989 125.456C251.989 125.456 254.142 126.688 256.778 125.896L256.302 123.587L252.568 123.499Z" fill="#6941C6"/>
    <path d="M252.342 123.815C252.606 116.575 250.354 110.827 250.354 110.827C250.354 110.827 241.595 105.614 238.888 102.811C237.337 101.204 237.768 98.5587 239.75 97.5268C240.871 96.9429 242.223 97.0391 243.247 97.7798C246.444 100.091 253.259 105.164 255.212 107.774C257.256 110.506 256.833 120.151 256.569 124.043C254.559 124.388 252.95 124.002 252.342 123.815Z" fill="#263238"/>
    <path d="M252.342 123.815C252.606 116.575 250.354 110.827 250.354 110.827C250.354 110.827 241.595 105.614 238.888 102.811C237.337 101.204 237.768 98.5587 239.75 97.5268C240.871 96.9429 242.223 97.0391 243.247 97.7798C246.444 100.091 253.259 105.164 255.212 107.774C257.256 110.506 256.833 120.151 256.569 124.043C254.559 124.388 252.95 124.002 252.342 123.815Z" fill="#263238"/>
    <path d="M209.83 53.8783C209.683 28.7595 189.202 8.5152 164.083 8.66149C138.964 8.80779 118.721 29.2893 118.866 54.4081C118.972 72.6287 133.544 84.879 142.794 99.2499C145.659 103.701 145.443 120.411 145.443 120.411L184.024 120.186C184.024 120.186 183.614 103.481 186.427 98.9955C195.508 84.5172 209.936 72.0989 209.83 53.8783Z" fill="#6941C6"/>
    <path opacity="0.5" d="M209.83 53.8783C209.683 28.7595 189.202 8.5152 164.083 8.66149C138.964 8.80779 118.721 29.2893 118.866 54.4081C118.972 72.6287 133.544 84.879 142.794 99.2499C145.659 103.701 145.443 120.411 145.443 120.411L184.024 120.186C184.024 120.186 183.614 103.481 186.427 98.9955C195.508 84.5172 209.936 72.0989 209.83 53.8783Z" fill="white"/>
    <path opacity="0.3" d="M204.429 45.4711C204.456 74.0975 186.557 106.561 164.442 106.582C142.326 106.602 124.364 70.3381 124.341 45.5449C124.327 30.2718 142.244 17.8746 164.36 17.8542C186.476 17.8337 204.416 30.198 204.429 45.4711Z" fill="white"/>
    <path opacity="0.4" d="M190.351 73.3601C190.364 87.5992 178.832 99.1524 164.593 99.1655C150.354 99.1787 138.801 87.6467 138.788 73.4076C138.775 59.1691 150.307 47.6154 164.546 47.6022C178.785 47.589 190.339 59.121 190.351 73.3601Z" fill="white"/>
    <path opacity="0.4" d="M182.483 79.8827C182.492 89.8852 174.386 92.935 164.384 92.9435C154.381 92.9527 146.27 89.9182 146.26 79.9156C146.251 69.9131 154.357 66.9971 164.36 66.9879C174.362 66.9793 182.474 69.8801 182.483 79.8827Z" fill="white"/>
    <path d="M175.112 153.717L153.418 153.716L147.392 145.837L181.139 145.838L175.112 153.717Z" fill="#6941C6"/>
    <path opacity="0.5" d="M175.112 153.717L153.418 153.716L147.392 145.837L181.139 145.838L175.112 153.717Z" fill="white"/>
    <path d="M143.491 114.985C143.487 114.195 144.123 113.551 144.914 113.547L183.47 113.345C184.259 113.341 184.902 113.977 184.907 114.766C184.911 115.556 184.275 116.2 183.485 116.204L144.928 116.406C144.139 116.41 143.496 115.774 143.491 114.985Z" fill="#6941C6"/>
    <path d="M188.329 120.974C188.323 123.88 185.971 126.227 183.075 126.232L177.728 126.241C177.352 126.336 176.943 126.389 176.532 126.388L145.636 126.439C142.73 126.444 140.372 124.091 140.367 121.185C140.375 118.322 142.652 115.998 145.502 115.931L145.621 115.928L150.968 115.919C151.312 115.835 151.678 115.783 152.045 115.774L152.164 115.772L183.06 115.722C185.967 115.715 188.324 118.068 188.329 120.974Z" fill="#6941C6"/>
    <path d="M188.329 120.974C188.323 123.88 185.971 126.227 183.075 126.232L177.728 126.241C177.352 126.336 176.943 126.389 176.532 126.388L145.636 126.439C142.73 126.444 140.372 124.091 140.367 121.185C140.375 118.322 142.652 115.998 145.502 115.931L145.621 115.928L150.968 115.919C151.312 115.835 151.678 115.783 152.045 115.774L152.164 115.772L183.06 115.722C185.967 115.715 188.324 118.068 188.329 120.974Z" fill="#6941C6"/>
    <g opacity="0.2">
        <path d="M188.329 120.974C188.323 123.88 185.971 126.227 183.075 126.232L177.728 126.241C177.352 126.336 176.943 126.389 176.532 126.388L145.636 126.439C142.73 126.444 140.372 124.091 140.367 121.185C140.375 118.322 142.652 115.998 145.502 115.931L145.621 115.928L150.968 115.919C151.312 115.835 151.678 115.783 152.045 115.774L152.164 115.772L183.06 115.722C185.967 115.715 188.324 118.068 188.329 120.974Z" fill="white"/>
    </g>
    <path d="M186.493 131.219C186.492 134.125 184.308 136.467 181.616 136.467L176.643 136.468C176.294 136.563 175.914 136.616 175.531 136.614L146.8 136.612C144.097 136.612 141.901 134.255 141.891 131.349C141.893 128.486 144.007 126.167 146.658 126.103L146.769 126.1L151.741 126.1C152.061 126.016 152.401 125.965 152.742 125.957L152.852 125.954L181.585 125.956C184.287 125.957 186.484 128.313 186.493 131.219Z" fill="#6941C6"/>
    <path opacity="0.3" d="M186.493 131.219C186.492 134.125 184.308 136.467 181.616 136.467L176.643 136.468C176.294 136.563 175.914 136.616 175.531 136.614L146.8 136.612C144.097 136.612 141.901 134.255 141.891 131.349C141.893 128.486 144.007 126.167 146.658 126.103L146.769 126.1L151.741 126.1C152.061 126.016 152.401 125.965 152.742 125.957L152.852 125.954L181.585 125.956C184.287 125.957 186.484 128.313 186.493 131.219Z" fill="white"/>
    <path d="M184.657 141.201C184.661 144.107 182.646 146.446 180.157 146.44L175.558 146.432C175.236 146.526 174.884 146.577 174.53 146.575L147.963 146.522C145.464 146.517 143.429 144.157 143.414 141.251C143.411 138.388 145.362 136.073 147.812 136.013L147.915 136.011L152.513 136.019C152.808 135.936 153.122 135.886 153.439 135.878L153.541 135.876L180.109 135.929C182.607 135.934 184.643 138.295 184.657 141.201Z" fill="#6941C6"/>
    <path opacity="0.4" d="M184.657 141.201C184.661 144.107 182.646 146.446 180.157 146.44L175.558 146.432C175.236 146.526 174.884 146.577 174.53 146.575L147.963 146.522C145.464 146.517 143.429 144.157 143.414 141.251C143.411 138.388 145.362 136.073 147.812 136.013L147.915 136.011L152.513 136.019C152.808 135.936 153.122 135.886 153.439 135.878L153.541 135.876L180.109 135.929C182.607 135.934 184.643 138.295 184.657 141.201Z" fill="white"/>
    <path d="M146.454 147.928C146.45 147.136 147.089 146.492 147.881 146.49L180.505 146.424C181.293 146.423 181.933 147.058 181.937 147.845C181.942 148.636 181.302 149.28 180.511 149.282L147.886 149.348C147.099 149.35 146.459 148.715 146.454 147.928Z" fill="#6941C6"/>
    <path d="M156.522 50.2355L153.758 51.7709C153.93 52.6539 154.163 53.5152 154.45 54.3514L157.607 54.2994C158.174 55.6806 158.923 56.9662 159.823 58.13L158.199 60.8377C158.786 61.5105 159.418 62.1418 160.09 62.7283L162.797 61.1046C163.961 62.0047 165.247 62.754 166.628 63.3214L166.576 66.4785C167.412 66.7652 168.273 66.9984 169.156 67.1704L170.692 64.406C171.416 64.5029 172.154 64.5576 172.904 64.5576C173.655 64.5576 174.392 64.5029 175.116 64.406L176.652 67.1704C177.535 66.9984 178.396 66.7652 179.232 66.4785L179.18 63.3214C180.561 62.754 181.847 62.0054 183.011 61.1046L185.718 62.7283C186.391 62.1418 187.023 61.5099 187.609 60.8377L185.985 58.13C186.886 56.9662 187.635 55.6806 188.201 54.2994L191.359 54.3514C191.645 53.5152 191.879 52.6546 192.051 51.7709L189.286 50.2355C189.383 49.5113 189.438 48.7739 189.438 48.0233C189.438 47.2727 189.383 46.5353 189.286 45.8111L192.051 44.2757C191.879 43.3927 191.645 42.5314 191.359 41.6952L188.201 41.7472C187.634 40.3667 186.886 39.0804 185.985 37.9166L187.608 35.2089C187.022 34.5361 186.39 33.9048 185.718 33.3183L183.01 34.942C181.846 34.0419 180.561 33.2926 179.179 32.7259L179.232 29.5688C178.395 29.2821 177.534 29.0488 176.651 28.8768L175.116 31.6412C174.391 31.5444 173.654 31.4897 172.903 31.4897C172.153 31.4897 171.415 31.5444 170.691 31.6412L169.156 28.8768C168.273 29.0488 167.412 29.2821 166.575 29.5688L166.627 32.7259C165.247 33.2933 163.961 34.0419 162.797 34.942L160.089 33.3183C159.416 33.9048 158.785 34.5368 158.198 35.2089L159.822 37.9166C158.922 39.0804 158.173 40.366 157.606 41.7472L154.449 41.6952C154.162 42.5314 153.929 43.3927 153.757 44.2757L156.521 45.8111C156.424 46.5353 156.37 47.2727 156.37 48.0233C156.37 48.7745 156.425 49.5119 156.522 50.2355ZM164.042 48.4193C164.042 43.452 168.069 39.4257 173.036 39.4257C178.003 39.4257 182.03 43.4527 182.03 48.4193C182.03 53.3867 178.003 57.413 173.036 57.413C168.069 57.413 164.042 53.386 164.042 48.4193Z" fill="#263238"/>
    <path d="M142.597 73.9592L139.545 75.6547C139.645 76.1312 139.772 76.5977 139.92 77.055L143.41 76.9971C143.714 77.6857 144.09 78.3354 144.531 78.9351L142.736 81.9281C143.06 82.2879 143.402 82.6306 143.762 82.9542L146.755 81.1598C147.355 81.6 148.005 81.9763 148.693 82.28L148.635 85.77C149.092 85.9189 149.559 86.0454 150.035 86.1456L151.731 83.0932C152.098 83.1327 152.471 83.1545 152.85 83.1545C153.228 83.1545 153.601 83.1327 153.968 83.0932L155.664 86.1456C156.14 86.0454 156.607 85.9189 157.064 85.77L157.006 82.28C157.694 81.9763 158.344 81.6 158.944 81.1598L161.937 82.9542C162.297 82.6306 162.639 82.2879 162.963 81.9281L161.168 78.9351C161.609 78.3354 161.985 77.6857 162.289 76.9971L165.779 77.055C165.928 76.5984 166.054 76.1318 166.154 75.6547L163.102 73.9592C163.141 73.5915 163.163 73.2185 163.163 72.8402C163.163 72.462 163.141 72.089 163.102 71.7213L166.154 70.0258C166.054 69.5493 165.928 69.0828 165.779 68.6254L162.289 68.6834C161.985 67.9948 161.609 67.3457 161.168 66.7454L162.963 63.7523C162.639 63.3925 162.297 63.0499 161.937 62.7263L158.944 64.5207C158.344 64.0805 157.694 63.7042 157.006 63.4004L157.064 59.9105C156.607 59.7616 156.14 59.6351 155.663 59.5349L153.968 62.5873C153.6 62.5477 153.227 62.526 152.849 62.526C152.471 62.526 152.098 62.5477 151.73 62.5873L150.034 59.5349C149.558 59.6351 149.091 59.7616 148.634 59.9105L148.692 63.4004C148.003 63.7042 147.354 64.0805 146.754 64.5207L143.761 62.7263C143.401 63.0499 143.059 63.3919 142.735 63.7523L144.529 66.7454C144.089 67.3451 143.714 67.9948 143.41 68.6834L139.92 68.6254C139.771 69.0821 139.644 69.5487 139.544 70.0258L142.597 71.7213C142.557 72.089 142.535 72.462 142.535 72.8402C142.536 73.2185 142.558 73.5915 142.597 73.9592ZM146.755 72.8402C146.755 69.4742 149.484 66.7454 152.85 66.7454C156.216 66.7454 158.944 69.4742 158.944 72.8402C158.944 76.2063 156.216 78.9351 152.85 78.9351C149.484 78.9351 146.755 76.2063 146.755 72.8402Z" fill="#263238"/>
    <path opacity="0.5" d="M142.597 73.9592L139.545 75.6547C139.645 76.1312 139.772 76.5977 139.92 77.055L143.41 76.9971C143.714 77.6857 144.09 78.3354 144.531 78.9351L142.736 81.9281C143.06 82.2879 143.402 82.6306 143.762 82.9542L146.755 81.1598C147.355 81.6 148.005 81.9763 148.693 82.28L148.635 85.77C149.092 85.9189 149.559 86.0454 150.035 86.1456L151.731 83.0932C152.098 83.1327 152.471 83.1545 152.85 83.1545C153.228 83.1545 153.601 83.1327 153.968 83.0932L155.664 86.1456C156.14 86.0454 156.607 85.9189 157.064 85.77L157.006 82.28C157.694 81.9763 158.344 81.6 158.944 81.1598L161.937 82.9542C162.297 82.6306 162.639 82.2879 162.963 81.9281L161.168 78.9351C161.609 78.3354 161.985 77.6857 162.289 76.9971L165.779 77.055C165.928 76.5984 166.054 76.1318 166.154 75.6547L163.102 73.9592C163.141 73.5915 163.163 73.2185 163.163 72.8402C163.163 72.462 163.141 72.089 163.102 71.7213L166.154 70.0258C166.054 69.5493 165.928 69.0828 165.779 68.6254L162.289 68.6834C161.985 67.9948 161.609 67.3457 161.168 66.7454L162.963 63.7523C162.639 63.3925 162.297 63.0499 161.937 62.7263L158.944 64.5207C158.344 64.0805 157.694 63.7042 157.006 63.4004L157.064 59.9105C156.607 59.7616 156.14 59.6351 155.663 59.5349L153.968 62.5873C153.6 62.5477 153.227 62.526 152.849 62.526C152.471 62.526 152.098 62.5477 151.73 62.5873L150.034 59.5349C149.558 59.6351 149.091 59.7616 148.634 59.9105L148.692 63.4004C148.003 63.7042 147.354 64.0805 146.754 64.5207L143.761 62.7263C143.401 63.0499 143.059 63.3919 142.735 63.7523L144.529 66.7454C144.089 67.3451 143.714 67.9948 143.41 68.6834L139.92 68.6254C139.771 69.0821 139.644 69.5487 139.544 70.0258L142.597 71.7213C142.557 72.089 142.535 72.462 142.535 72.8402C142.536 73.2185 142.558 73.5915 142.597 73.9592ZM146.755 72.8402C146.755 69.4742 149.484 66.7454 152.85 66.7454C156.216 66.7454 158.944 69.4742 158.944 72.8402C158.944 76.2063 156.216 78.9351 152.85 78.9351C149.484 78.9351 146.755 76.2063 146.755 72.8402Z" fill="#263238"/>
    <defs>
        <linearGradient id="paint0_linear_3245_4326" x1="146.697" y1="12.3572" x2="145.716" y2="142.478" gradientUnits="userSpaceOnUse">
            <stop stop-color="#6941C6"/>
            <stop offset="0.1207" stop-color="#C1B2E5"/>
            <stop offset="0.3345" stop-color="#CFC5E5"/>
            <stop offset="0.4334" stop-color="#6A42C6"/>
            <stop offset="0.6895" stop-color="#2A6090"/>
            <stop offset="0.88" stop-color="#2B406D"/>
            <stop offset="0.9823" stop-color="#212757"/>
        </linearGradient>
    </defs>
</svg>
