<svg width="24" height="15" viewBox="0 0 24 15" fill="none" xmlns="http://www.w3.org/2000/svg">
<path fill-rule="evenodd" clip-rule="evenodd" d="M11.9533 12.9524C10.6872 14.0196 9.04488 14.6639 7.25026 14.6639C3.24605 14.6639 0 11.4565 0 7.49992C0 3.54336 3.24605 0.335938 7.25026 0.335938C9.04488 0.335938 10.6872 0.980214 11.9533 2.04745C13.2194 0.980214 14.8617 0.335938 16.6563 0.335938C20.6605 0.335938 23.9066 3.54336 23.9066 7.49992C23.9066 11.4565 20.6605 14.6639 16.6563 14.6639C14.8617 14.6639 13.2194 14.0196 11.9533 12.9524Z" fill="#ED0006"/>
<path fill-rule="evenodd" clip-rule="evenodd" d="M11.9541 12.9524C13.5129 11.6384 14.5013 9.6832 14.5013 7.49992C14.5013 5.31663 13.5129 3.36146 11.9541 2.04745C13.2202 0.980214 14.8625 0.335938 16.6571 0.335938C20.6613 0.335938 23.9074 3.54336 23.9074 7.49992C23.9074 11.4565 20.6613 14.6639 16.6571 14.6639C14.8625 14.6639 13.2202 14.0196 11.9541 12.9524Z" fill="#F9A000"/>
<path fill-rule="evenodd" clip-rule="evenodd" d="M11.9535 12.9518C13.5123 11.6378 14.5007 9.68262 14.5007 7.49934C14.5007 5.31605 13.5123 3.36088 11.9535 2.04688C10.3947 3.36088 9.40625 5.31605 9.40625 7.49934C9.40625 9.68262 10.3947 11.6378 11.9535 12.9518Z" fill="#FF5E00"/>
</svg>
