<svg width="16" height="16" viewBox="0 0 16 16" fill="none" xmlns="http://www.w3.org/2000/svg">
<path d="M14.2082 5.83869C14.4975 6.26535 14.6668 6.77935 14.6668 7.33335V13.3334H13.3335V11.3527L12.0002 10C11.9908 10 7.3335 10 7.3335 10V13.3334H6.00016V11.404L4.2575 8.96335C4.09883 8.67602 4.00016 8.35135 4.00016 8.00002H3.00016C2.0795 8.00002 1.3335 7.25402 1.3335 6.33335C1.3335 5.52602 1.90816 4.85335 2.67016 4.70002C2.67016 4.68869 2.66683 4.67802 2.66683 4.66669C2.66683 3.56202 4.00016 2.66669 5.3335 2.66669C6.13616 2.66669 6.93416 2.99469 7.4455 3.49402L8.66683 4.66669H12.0002C12.2428 4.66669 12.4728 4.70935 12.6962 4.77002C12.8002 4.32935 13.1942 4.00002 13.6668 4.00002C14.2188 4.00002 14.6668 4.44802 14.6668 5.00002C14.6668 5.35202 14.4835 5.66069 14.2082 5.83869Z" fill="#1D1D20"/>
<path opacity="0.3" d="M6.6665 2.97869V3.66669C6.6665 4.21869 6.2185 4.66669 5.6665 4.66669C5.1145 4.66669 4.6665 4.21869 4.6665 3.66669V2.74335C4.8845 2.69469 5.1085 2.66669 5.33317 2.66669C5.8005 2.66669 6.2585 2.78735 6.6665 2.97869Z" fill="#C6AC41"/>
<path opacity="0.4" d="M11.9888 9.99999H7.3335V13.3333H6.00016V11.404L4.2575 8.96332C4.09883 8.67599 4.00016 8.35132 4.00016 7.99999H3.14616C2.6875 7.99999 2.54216 7.92799 2.54216 7.92799C1.8455 7.72799 1.3335 7.09399 1.3335 6.33332C1.3335 5.57799 1.8395 4.94799 2.52816 4.74399C2.5755 4.72932 2.62083 4.70999 2.67016 4.69999C2.67016 4.68865 2.66683 4.67799 2.66683 4.66665C2.66683 3.74865 3.59016 2.98332 4.66683 2.74799V3.66665C4.66683 4.21865 5.11483 4.66665 5.66683 4.66665C6.21883 4.66665 6.66683 4.21865 6.66683 3.66665V7.33332C6.66683 8.06999 7.2635 8.66665 8.00016 8.66665H10.6635L11.9888 9.99999Z" fill="white"/>
</svg>
