<svg width="217" height="100" viewBox="0 0 217 100" fill="none" xmlns="http://www.w3.org/2000/svg">
<path fill-rule="evenodd" clip-rule="evenodd" d="M46.5 85H137.5C138.015 85 138.517 84.9444 139 84.8389C139.483 84.9444 139.985 85 140.5 85H192.5C196.366 85 199.5 81.866 199.5 78C199.5 74.134 196.366 71 192.5 71H186.5C182.634 71 179.5 67.866 179.5 64C179.5 60.134 182.634 57 186.5 57H205.5C209.366 57 212.5 53.866 212.5 50C212.5 46.134 209.366 43 205.5 43H183.5C187.366 43 190.5 39.866 190.5 36C190.5 32.134 187.366 29 183.5 29H119.5C123.366 29 126.5 25.866 126.5 22C126.5 18.134 123.366 15 119.5 15H62.5C58.634 15 55.5 18.134 55.5 22C55.5 25.866 58.634 29 62.5 29H22.5C18.634 29 15.5 32.134 15.5 36C15.5 39.866 18.634 43 22.5 43H47.5C51.366 43 54.5 46.134 54.5 50C54.5 53.866 51.366 57 47.5 57H7.5C3.63401 57 0.5 60.134 0.5 64C0.5 67.866 3.63401 71 7.5 71H46.5C42.634 71 39.5 74.134 39.5 78C39.5 81.866 42.634 85 46.5 85ZM209.5 85C213.366 85 216.5 81.866 216.5 78C216.5 74.134 213.366 71 209.5 71C205.634 71 202.5 74.134 202.5 78C202.5 81.866 205.634 85 209.5 85Z" fill="#F1EFFB"/>
<path d="M130.232 19.2989L130.656 18.8751L130.163 18.5341C123.839 14.1612 116.35 11.806 108.5 11.806C98.2989 11.806 88.706 15.7795 81.4928 22.9927C74.2795 30.206 70.306 39.7989 70.306 50C70.306 57.8496 72.6612 65.339 77.0342 71.6627L77.3751 72.1558L77.799 71.7319L130.232 19.2989ZM86.768 80.701L86.3442 81.1249L86.8372 81.4658C93.1609 85.8388 100.65 88.194 108.5 88.194C118.701 88.194 128.294 84.2205 135.507 77.0072C142.72 69.794 146.694 60.201 146.694 50C146.694 42.1503 144.339 34.661 139.966 28.3372L139.625 27.8442L139.201 28.2681L86.768 80.701ZM73.4982 14.9982C92.8291 -4.33273 124.171 -4.33273 143.502 14.9982C162.833 34.3291 162.833 65.6708 143.502 85.0017C124.171 104.333 92.8292 104.333 73.4982 85.0017C54.1672 65.6708 54.1673 34.3291 73.4982 14.9982Z" fill="#F1EFFB" stroke="#6941C6"/>
</svg>
