<?xml version="1.0" encoding="UTF-8"?>
<!DOCTYPE svg PUBLIC "-//W3C//DTD SVG 1.1//EN" "http://www.w3.org/Graphics/SVG/1.1/DTD/svg11.dtd">
<svg xmlns="http://www.w3.org/2000/svg" version="1.1" width="512px" height="512px" style="shape-rendering:geometricPrecision; text-rendering:geometricPrecision; image-rendering:optimizeQuality; fill-rule:evenodd; clip-rule:evenodd" xmlns:xlink="http://www.w3.org/1999/xlink">
<g><path style="opacity:0.997" fill="#f6524b" d="M 240.5,-0.5 C 250.5,-0.5 260.5,-0.5 270.5,-0.5C 295.767,2.96702 317.433,13.6337 335.5,31.5C 342.807,64.2151 338.307,95.5484 322,125.5C 319.209,130.772 315.709,135.438 311.5,139.5C 311.167,139.5 310.833,139.5 310.5,139.5C 302.855,131.521 295.188,123.521 287.5,115.5C 295.152,107.348 302.985,99.3476 311,91.5C 319.133,79.6972 317.966,68.8639 307.5,59C 297.912,52.7702 288.579,53.1035 279.5,60C 271.652,68.0145 263.652,75.8479 255.5,83.5C 247.348,75.8479 239.348,68.0145 231.5,60C 216.347,50.7172 204.514,53.8839 196,69.5C 193.267,77.5596 194.6,84.8929 200,91.5C 208.015,99.3476 215.848,107.348 223.5,115.5C 215.848,123.652 208.015,131.652 200,139.5C 191.992,151.276 193.159,162.11 203.5,172C 212.433,177.946 221.433,177.946 230.5,172C 238.681,163.652 247.014,155.486 255.5,147.5C 262.52,154.188 269.52,160.855 276.5,167.5C 276.5,167.833 276.5,168.167 276.5,168.5C 254.04,179.269 230.373,183.102 205.5,180C 184.709,176.935 165.709,169.435 148.5,157.5C 147.893,157.624 147.56,157.957 147.5,158.5C 132.07,116.404 137.904,77.4041 165,41.5C 185.065,18.2548 210.232,4.25481 240.5,-0.5 Z"/></g>
<g><path style="opacity:0.999" fill="#df4a44" d="M 335.5,31.5 C 352.583,46.8113 363.75,65.8113 369,88.5C 374.178,113.02 372.345,137.02 363.5,160.5C 341.9,205.659 305.9,229.325 255.5,231.5C 213.451,230.063 180.617,212.063 157,177.5C 153.792,171.739 150.625,166.072 147.5,160.5C 147.5,159.833 147.5,159.167 147.5,158.5C 147.56,157.957 147.893,157.624 148.5,157.5C 165.709,169.435 184.709,176.935 205.5,180C 230.373,183.102 254.04,179.269 276.5,168.5C 288.624,179.432 300.457,179.099 312,167.5C 318.14,157.994 317.973,148.66 311.5,139.5C 315.709,135.438 319.209,130.772 322,125.5C 338.307,95.5484 342.807,64.2151 335.5,31.5 Z"/></g>
<g><path style="opacity:1" fill="#f0eefa" d="M 310.5,139.5 C 310.649,140.552 310.483,141.552 310,142.5C 300.602,153.425 289.435,161.758 276.5,167.5C 269.52,160.855 262.52,154.188 255.5,147.5C 247.014,155.486 238.681,163.652 230.5,172C 221.433,177.946 212.433,177.946 203.5,172C 193.159,162.11 191.992,151.276 200,139.5C 208.015,131.652 215.848,123.652 223.5,115.5C 215.848,107.348 208.015,99.3476 200,91.5C 194.6,84.8929 193.267,77.5596 196,69.5C 204.514,53.8839 216.347,50.7172 231.5,60C 239.348,68.0145 247.348,75.8479 255.5,83.5C 263.652,75.8479 271.652,68.0145 279.5,60C 288.579,53.1035 297.912,52.7702 307.5,59C 317.966,68.8639 319.133,79.6972 311,91.5C 302.985,99.3476 295.152,107.348 287.5,115.5C 295.188,123.521 302.855,131.521 310.5,139.5 Z"/></g>
<g><path style="opacity:1" fill="#d8d5e0" d="M 310.5,139.5 C 310.833,139.5 311.167,139.5 311.5,139.5C 317.973,148.66 318.14,157.994 312,167.5C 300.457,179.099 288.624,179.432 276.5,168.5C 276.5,168.167 276.5,167.833 276.5,167.5C 289.435,161.758 300.602,153.425 310,142.5C 310.483,141.552 310.649,140.552 310.5,139.5 Z"/></g>
<g><path style="opacity:0.999" fill="#e09e44" d="M 147.5,160.5 C 150.625,166.072 153.792,171.739 157,177.5C 180.617,212.063 213.451,230.063 255.5,231.5C 255.5,252.833 255.5,274.167 255.5,295.5C 192.378,265.439 129.378,235.106 66.5,204.5C 69.006,199.828 72.6727,196.328 77.5,194C 100.734,182.549 124.067,171.383 147.5,160.5 Z"/></g>
<g><path style="opacity:0.999" fill="#ca8f3d" d="M 363.5,160.5 C 387.6,171.716 411.6,183.216 435.5,195C 439.38,197.379 442.38,200.546 444.5,204.5C 381.622,235.106 318.622,265.439 255.5,295.5C 255.5,274.167 255.5,252.833 255.5,231.5C 305.9,229.325 341.9,205.659 363.5,160.5 Z"/></g>
<g><path style="opacity:0.998" fill="#f0bd59" d="M 66.5,204.5 C 129.378,235.106 192.378,265.439 255.5,295.5C 318.622,265.439 381.622,235.106 444.5,204.5C 457.979,222.766 471.479,241.099 485,259.5C 490.23,270.678 488.73,280.844 480.5,290C 470.423,295.705 460.09,300.872 449.5,305.5C 434.974,312.263 420.641,319.263 406.5,326.5C 378.855,339.655 351.188,352.822 323.5,366C 313.561,367.448 305.394,364.282 299,356.5C 284.967,336.41 270.467,316.743 255.5,297.5C 240.533,316.743 226.033,336.41 212,356.5C 204.667,365.389 195.501,368.223 184.5,365C 143.478,345.155 102.478,325.322 61.5,305.5C 50.9098,300.872 40.5765,295.705 30.5,290C 22.0157,280.888 20.5157,270.722 26,259.5C 39.5211,241.099 53.0211,222.766 66.5,204.5 Z"/></g>
<g><path style="opacity:0.998" fill="#fedb6d" d="M 255.5,297.5 C 270.467,316.743 284.967,336.41 299,356.5C 305.394,364.282 313.561,367.448 323.5,366C 351.188,352.822 378.855,339.655 406.5,326.5C 369.452,380.516 319.119,415.85 255.5,432.5C 255.5,387.5 255.5,342.5 255.5,297.5 Z"/></g>
<g><path style="opacity:0.997" fill="#fee590" d="M 255.5,297.5 C 255.5,342.5 255.5,387.5 255.5,432.5C 255.5,432.833 255.5,433.167 255.5,433.5C 212.662,443.81 169.329,446.31 125.5,441C 113.505,438.723 101.505,436.557 89.5,434.5C 79.8294,431.757 71.9961,426.423 66,418.5C 64.0728,415.052 62.7394,411.385 62,407.5C 61.5,373.502 61.3333,339.502 61.5,305.5C 102.478,325.322 143.478,345.155 184.5,365C 195.501,368.223 204.667,365.389 212,356.5C 226.033,336.41 240.533,316.743 255.5,297.5 Z"/></g>
<g><path style="opacity:0.997" fill="#e6c663" d="M 449.5,305.5 C 449.667,339.502 449.5,373.502 449,407.5C 447.299,416.196 442.799,423.03 435.5,428C 378.198,456.153 320.864,483.986 263.5,511.5C 260.833,511.5 258.167,511.5 255.5,511.5C 255.5,485.5 255.5,459.5 255.5,433.5C 255.5,433.167 255.5,432.833 255.5,432.5C 319.119,415.85 369.452,380.516 406.5,326.5C 420.641,319.263 434.974,312.263 449.5,305.5 Z"/></g>
<g><path style="opacity:0.996" fill="#e6cf83" d="M 255.5,433.5 C 255.5,459.5 255.5,485.5 255.5,511.5C 252.833,511.5 250.167,511.5 247.5,511.5C 194.833,485.833 142.167,460.167 89.5,434.5C 101.505,436.557 113.505,438.723 125.5,441C 169.329,446.31 212.662,443.81 255.5,433.5 Z"/></g>
</svg>
