<svg width="200" height="200" viewBox="0 0 200 200" fill="none" xmlns="http://www.w3.org/2000/svg">
<g clip-path="url(#clip0_335_5090)">
<path fill-rule="evenodd" clip-rule="evenodd" d="M131 135H40C36.134 135 33 131.866 33 128C33 124.134 36.134 121 40 121H1C-2.86599 121 -6 117.866 -6 114C-6 110.134 -2.86599 107 1 107H41C44.866 107 48 103.866 48 100C48 96.134 44.866 93 41 93H16C12.134 93 9 89.866 9 86C9 82.134 12.134 79 16 79H56C52.134 79 49 75.866 49 72C49 68.134 52.134 65 56 65H113C116.866 65 120 68.134 120 72C120 75.866 116.866 79 113 79H177C180.866 79 184 82.134 184 86C184 89.866 180.866 93 177 93H199C202.866 93 206 96.134 206 100C206 103.866 202.866 107 199 107H180C176.134 107 173 110.134 173 114C173 117.866 176.134 121 180 121H186C189.866 121 193 124.134 193 128C193 131.866 189.866 135 186 135H134C133.485 135 132.983 134.944 132.5 134.839C132.017 134.944 131.515 135 131 135Z" fill="#F1EFFB"/>
<g opacity="0.3">
<path d="M160.937 113.473L155.474 118.937L160.937 124.4L166.4 118.937L160.937 113.473Z" stroke="#896FD9" stroke-miterlimit="10" stroke-linecap="round" stroke-linejoin="round"/>
<path d="M43.1325 16.9378L37.6694 22.4009L43.1325 27.8639L48.5955 22.4009L43.1325 16.9378Z" stroke="#896FD9" stroke-miterlimit="10" stroke-linecap="round" stroke-linejoin="round"/>
<path d="M33.2074 130.831L29.8306 134.208L33.2074 137.584L36.5842 134.208L33.2074 130.831Z" stroke="#896FD9" stroke-miterlimit="10" stroke-linecap="round" stroke-linejoin="round"/>
<path d="M14.1195 76.0172L10.7427 79.394L14.1195 82.7709L17.4963 79.394L14.1195 76.0172Z" stroke="#896FD9" stroke-miterlimit="10" stroke-linecap="round" stroke-linejoin="round"/>
<path d="M152.2 36.9274L148.823 40.3042L152.2 43.681L155.576 40.3042L152.2 36.9274Z" stroke="#896FD9" stroke-miterlimit="10" stroke-linecap="round" stroke-linejoin="round"/>
<path d="M40.7804 134.585L35.9775 139.388L40.7804 144.191L45.5834 139.388L40.7804 134.585Z" stroke="#896FD9" stroke-miterlimit="10" stroke-linecap="round" stroke-linejoin="round"/>
<path d="M136.559 129.466L133.183 132.843L136.559 136.22L139.936 132.843L136.559 129.466Z" stroke="#896FD9" stroke-miterlimit="10" stroke-linecap="round" stroke-linejoin="round"/>
<path d="M162.466 30.0332L156.003 36.4961L162.466 42.959L168.929 36.4961L162.466 30.0332Z" stroke="#896FD9" stroke-miterlimit="10" stroke-linecap="round" stroke-linejoin="round"/>
<path d="M93.2001 182.644L89.8232 186.021L93.2001 189.397L96.5769 186.021L93.2001 182.644Z" stroke="#896FD9" stroke-miterlimit="10" stroke-linecap="round" stroke-linejoin="round"/>
<path d="M25.9504 80.7582C28.6612 80.7582 30.8588 78.5606 30.8588 75.8498C30.8588 73.139 28.6612 70.9414 25.9504 70.9414C23.2396 70.9414 21.042 73.139 21.042 75.8498C21.042 78.5606 23.2396 80.7582 25.9504 80.7582Z" stroke="#896FD9" stroke-miterlimit="10" stroke-linecap="round" stroke-linejoin="round"/>
<path d="M168.299 95.7569C170.859 95.7569 172.935 93.6813 172.935 91.1209C172.935 88.5605 170.859 86.4849 168.299 86.4849C165.739 86.4849 163.663 88.5605 163.663 91.1209C163.663 93.6813 165.739 95.7569 168.299 95.7569Z" stroke="#896FD9" stroke-miterlimit="10" stroke-linecap="round" stroke-linejoin="round"/>
<path d="M184.934 61.9424C186.44 61.9424 187.661 60.7215 187.661 59.2156C187.661 57.7096 186.44 56.4888 184.934 56.4888C183.428 56.4888 182.207 57.7096 182.207 59.2156C182.207 60.7215 183.428 61.9424 184.934 61.9424Z" stroke="#896FD9" stroke-miterlimit="10" stroke-linecap="round" stroke-linejoin="round"/>
<path d="M130.394 23.492C130.394 22.5884 129.662 21.856 128.758 21.856C127.854 21.856 127.122 22.5884 127.122 23.492C127.122 24.3956 127.854 25.128 128.758 25.128C129.661 25.128 130.394 24.3956 130.394 23.492Z" stroke="#896FD9" stroke-miterlimit="10" stroke-linecap="round" stroke-linejoin="round"/>
<path d="M61.6741 118.391C62.5776 118.391 63.3101 117.658 63.3101 116.755C63.3101 115.851 62.5776 115.119 61.6741 115.119C60.7706 115.119 60.0381 115.851 60.0381 116.755C60.0381 117.658 60.7706 118.391 61.6741 118.391Z" stroke="#896FD9" stroke-miterlimit="10" stroke-linecap="round" stroke-linejoin="round"/>
<path d="M22.951 163.113C24.3065 163.113 25.4054 162.015 25.4054 160.659C25.4054 159.303 24.3065 158.205 22.951 158.205C21.5955 158.205 20.4966 159.303 20.4966 160.659C20.4966 162.015 21.5955 163.113 22.951 163.113Z" stroke="#896FD9" stroke-miterlimit="10" stroke-linecap="round" stroke-linejoin="round"/>
<path d="M171.571 156.569C171.571 155.364 170.594 154.387 169.39 154.387C168.185 154.387 167.208 155.364 167.208 156.569C167.208 157.774 168.185 158.75 169.39 158.75C170.594 158.75 171.571 157.774 171.571 156.569Z" stroke="#896FD9" stroke-miterlimit="10" stroke-linecap="round" stroke-linejoin="round"/>
<path d="M154.119 15.5835C154.119 14.3787 153.142 13.4019 151.937 13.4019C150.732 13.4019 149.755 14.3787 149.755 15.5835C149.755 16.7883 150.732 17.7651 151.937 17.7651C153.142 17.7651 154.119 16.7887 154.119 15.5835Z" stroke="#896FD9" stroke-miterlimit="10" stroke-linecap="round" stroke-linejoin="round"/>
</g>
<path d="M140.126 69.4312C138.585 68.364 132.775 69.3128 129.1 72.2768C125.424 75.2408 124.594 76.308 124.594 76.308C124.594 76.308 122.934 64.6888 122.934 64.3332C122.934 63.9776 120.563 42.162 120.089 38.9608C119.614 35.7596 118.903 31.0172 118.192 29.95C117.48 28.8828 114.635 28.7644 113.686 29.2388C112.738 29.7132 112.738 29.7132 112.738 29.7132C112.738 29.7132 113.212 21.4136 112.263 19.3984C111.315 17.3828 108.351 18.5684 107.521 19.6356C106.691 20.7028 106.098 22.3624 106.098 22.3624C106.098 22.3624 103.371 21.414 101.83 24.4964C100.289 27.5792 99.103 30.306 98.8658 33.27C98.6286 36.234 97.3246 40.028 97.3246 40.028C97.3246 40.028 95.7834 37.538 94.1234 38.9608C92.4634 40.3836 90.5666 45.956 90.0922 49.9872C89.6178 54.0184 89.1438 64.6892 89.1438 64.6892C89.1438 64.6892 88.1954 69.5504 87.721 73.4628C87.2466 77.3752 87.6026 93.6184 89.381 100.376C91.1594 107.134 93.5306 111.403 93.5306 111.403C93.5306 111.403 97.6802 125.038 98.273 126.934C98.8658 128.832 105.387 154.678 105.387 154.678L124.831 130.017C124.831 130.017 119.97 116.619 118.903 113.536C117.836 110.454 117.125 109.505 117.125 109.505C117.125 109.505 123.053 101.087 126.254 98.5976C129.455 96.1076 131.115 87.8084 131.945 84.1328C132.775 80.4572 136.213 75.3592 138.11 73.6992C140.008 72.0396 141.668 70.4984 140.126 69.4312ZM96.2582 63.74C95.9026 63.74 96.021 59.116 96.021 53.5436C96.021 47.9712 96.9694 45.4812 96.9694 45.4812C96.495 47.9712 97.4438 60.3016 97.4438 61.1316C97.4438 61.9616 96.6138 63.74 96.2582 63.74Z" fill="white" stroke="#6941C6" stroke-miterlimit="10" stroke-linecap="round" stroke-linejoin="round"/>
<path d="M114.189 111.53C115.673 110.78 115.94 109.98 115.94 109.98" stroke="#6941C6" stroke-miterlimit="10" stroke-linecap="round" stroke-linejoin="round"/>
<path d="M102.542 108.794C102.542 108.794 109.063 113.062 112.264 112.232" stroke="#6941C6" stroke-miterlimit="10" stroke-linecap="round" stroke-linejoin="round"/>
<path d="M124.595 76.3081C124.595 76.3081 122.105 80.2205 121.512 81.6433C120.919 83.0661 120.564 84.2517 119.496 84.8445C118.429 85.4373 117.007 86.2673 117.007 86.2673" stroke="#6941C6" stroke-miterlimit="10" stroke-linecap="round" stroke-linejoin="round"/>
<path d="M117.432 77.4668C114.416 78.868 110.173 81.3412 107.759 84.9628" stroke="#6941C6" stroke-miterlimit="10" stroke-linecap="round" stroke-linejoin="round"/>
<path d="M120.919 76.0708C120.919 76.0708 120.05 76.3416 118.73 76.894" stroke="#6941C6" stroke-miterlimit="10" stroke-linecap="round" stroke-linejoin="round"/>
<path d="M106.454 86.5044C106.454 86.5044 104.32 90.4168 103.372 93.4996" stroke="#6941C6" stroke-miterlimit="10" stroke-linecap="round" stroke-linejoin="round"/>
<path d="M106.099 22.3618C106.099 22.3618 105.506 27.3414 104.676 34.811C103.846 42.2806 103.372 45.9558 103.49 50.6986C103.609 55.4414 104.913 59.591 104.794 60.1838" stroke="#6941C6" stroke-miterlimit="10" stroke-linecap="round" stroke-linejoin="round"/>
<path d="M112.738 29.7129C112.738 29.7129 112.383 32.7957 112.738 36.8269C113.094 40.8581 112.383 48.3273 112.383 51.1729C112.383 54.0185 112.501 58.2865 112.62 59.5909C112.738 60.8949 113.45 61.8437 113.45 61.8437" stroke="#6941C6" stroke-miterlimit="10" stroke-linecap="round" stroke-linejoin="round"/>
<path d="M114.991 62.5547C114.991 62.5547 115.584 63.6219 119.496 63.7403" stroke="#6941C6" stroke-miterlimit="10" stroke-linecap="round" stroke-linejoin="round"/>
<path d="M105.98 59.709C105.98 59.709 108.826 60.3018 110.722 59.9462" stroke="#6941C6" stroke-miterlimit="10" stroke-linecap="round" stroke-linejoin="round"/>
<path d="M95.6654 64.689C95.6654 64.689 95.6655 65.8746 92.2271 66.9418" stroke="#6941C6" stroke-miterlimit="10" stroke-linecap="round" stroke-linejoin="round"/>
<path d="M102.423 61.4874C102.779 61.2502 104.202 60.7762 104.557 59.1162" stroke="#6941C6" stroke-miterlimit="10" stroke-linecap="round" stroke-linejoin="round"/>
<path d="M102.627 79.6499C102.627 79.6499 109.999 76.9467 114.668 75.9639" stroke="#6941C6" stroke-miterlimit="10" stroke-linecap="round" stroke-linejoin="round"/>
<path d="M123.557 199.655H187.294C182.842 193.781 166.595 172.369 165.536 171.309C164.307 170.081 158.901 169.343 158.901 169.343L142.928 156.074L123.023 123.145L104.102 149.439L100.907 136.66L93.7808 163.2C93.7808 163.2 119.583 194.654 120.566 195.883C120.757 196.121 121.869 197.531 123.557 199.655Z" fill="#CFC7F1" stroke="#6941C6" stroke-miterlimit="10" stroke-linecap="round" stroke-linejoin="round"/>
<path d="M73.6482 107.471C73.6482 107.471 68.3714 93.9591 67.099 91.4731C65.8266 88.9871 58.9226 78.1815 58.575 75.2503C58.227 72.3191 57.1482 67.4439 56.0346 65.4039C54.9214 63.3639 58.2358 62.0287 60.9734 64.6115C63.711 67.1943 65.3642 71.4011 65.331 72.6115C65.2982 73.8219 71.4746 78.3511 71.4746 78.3511L72.5986 67.9343C72.5986 67.9343 73.7994 42.0987 73.5478 38.2435C73.2962 34.3883 73.0482 26.2007 76.107 25.8847C79.1654 25.5687 79.6414 27.9903 79.6414 27.9903C79.6414 27.9903 79.751 21.8887 83.1534 22.2819C85.7522 22.5819 86.7482 25.0335 87.1294 26.2127C87.5106 27.3919 87.9554 28.8575 87.9554 28.8575C87.9554 28.8575 90.1014 27.4027 92.191 30.8683C93.391 32.8583 95.9434 39.1227 96.3562 40.7159C96.769 42.3091 96.8958 42.8827 96.8958 42.8827C96.8958 42.8827 99.763 42.7895 101.035 45.8171C102.307 48.8447 104.116 56.7471 105.863 63.2795C107.609 69.8119 107.54 76.0239 107.54 76.0239C107.54 76.0239 108.223 97.0507 106.816 103.74C105.408 110.429 102.759 116.129 102.217 116.67C101.675 117.211 93.8506 140.302 93.8506 140.302L66.7158 130.244C66.7158 130.244 72.3666 116.359 73.261 113.333C74.1558 110.307 73.6482 107.471 73.6482 107.471Z" fill="white" stroke="#6941C6" stroke-miterlimit="10" stroke-linecap="round" stroke-linejoin="round"/>
<path d="M67.9692 87.7598C68.0268 89.083 68.3108 89.8814 68.3108 89.8814" stroke="#6941C6" stroke-miterlimit="10" stroke-linecap="round" stroke-linejoin="round"/>
<path d="M70.6458 79.4976C70.6458 79.4976 69.115 81.2804 68.3158 84.4656C68.1554 85.1056 68.059 85.7068 68.0078 86.2592" stroke="#6941C6" stroke-miterlimit="10" stroke-linecap="round" stroke-linejoin="round"/>
<path d="M79.6414 27.9912C79.6414 27.9912 80.1122 36.3704 80.427 40.512C80.7422 44.6536 80.8958 51.0572 80.9242 55.2628C80.9526 59.468 80.4382 64.756 80.1506 65.9028C79.863 67.0496 79.2246 68.5144 79.2246 68.5144" stroke="#6941C6" stroke-miterlimit="10" stroke-linecap="round" stroke-linejoin="round"/>
<path d="M87.9556 28.8584C87.9556 28.8584 86.6164 30.4184 87.0604 32.4256C87.5048 34.4332 89.566 45.6488 89.5644 47.2736C89.5632 48.8984 89.6784 63.0116 89.7096 63.9672C89.7408 64.9228 89.0688 68.14 88.7492 69.414" stroke="#6941C6" stroke-miterlimit="10" stroke-linecap="round" stroke-linejoin="round"/>
<path d="M96.896 42.8833C96.896 42.8833 95.3668 43.0413 95.7152 45.4309C96.0636 47.8205 96.8216 55.5945 96.8196 57.7609C96.8176 59.9273 97.3232 64.9293 97.2236 69.6441C97.124 74.3589 98.206 75.9845 98.7144 77.1957" stroke="#6941C6" stroke-miterlimit="10" stroke-linecap="round" stroke-linejoin="round"/>
<path d="M73.2941 74.3389C73.2941 74.3389 72.7501 77.0465 73.4817 78.4489C74.2133 79.8513 75.2301 82.8149 75.2289 84.4397" stroke="#6941C6" stroke-miterlimit="10" stroke-linecap="round" stroke-linejoin="round"/>
<path d="M78.7748 73.0054C78.7748 73.0054 78.4864 75.235 78.8036 76.669C79.1208 78.103 80.1072 79.569 80.1072 79.569" stroke="#6941C6" stroke-miterlimit="10" stroke-linecap="round" stroke-linejoin="round"/>
<path d="M87.9151 76.5176C87.9151 76.5176 87.5947 78.8748 88.1667 80.3724C88.7387 81.8704 89.4071 82.986 89.4071 82.986" stroke="#6941C6" stroke-miterlimit="10" stroke-linecap="round" stroke-linejoin="round"/>
<path d="M75.6095 199.655L100.837 142.733C100.837 142.733 90.0735 133.845 82.9935 129.181C75.9135 124.517 67.4227 124.656 67.4227 124.656C67.4227 124.656 56.3403 148.275 55.7567 149.779C55.1731 151.283 47.4451 167.287 47.4451 167.287C47.4451 167.287 44.0479 168.497 42.5415 171.213C41.3611 173.342 32.8467 191.779 29.2183 199.655H75.6095Z" fill="#AB9BE5" stroke="#6941C6" stroke-miterlimit="10" stroke-linecap="round" stroke-linejoin="round"/>
<path d="M93.4668 146.451C94.5846 145.79 94.9548 144.348 94.2936 143.23C93.6324 142.112 92.1902 141.742 91.0724 142.403C89.9545 143.065 89.5843 144.507 90.2455 145.625C90.9067 146.742 92.3489 147.113 93.4668 146.451Z" fill="#6941C6" stroke="#6941C6" stroke-miterlimit="10" stroke-linecap="round" stroke-linejoin="round"/>
<path d="M90.9933 153.809C90.6773 155.068 89.4001 155.833 88.1405 155.517C86.8809 155.201 86.1161 153.924 86.4321 152.664C86.7481 151.405 88.0253 150.64 89.2849 150.956C90.5441 151.272 91.3093 152.549 90.9933 153.809Z" fill="#6941C6" stroke="#6941C6" stroke-miterlimit="10" stroke-linecap="round" stroke-linejoin="round"/>
</g>
<defs>
<clipPath id="clip0_335_5090">
<rect width="200" height="200" fill="white"/>
</clipPath>
</defs>
</svg>
