<svg width="216" height="102" viewBox="0 0 216 102" fill="none" xmlns="http://www.w3.org/2000/svg">
<path fill-rule="evenodd" clip-rule="evenodd" d="M46 86.7598H137C137.515 86.7598 138.017 86.7042 138.5 86.5987C138.983 86.7042 139.485 86.7598 140 86.7598H192C195.866 86.7598 199 83.6258 199 79.7598C199 75.8938 195.866 72.7598 192 72.7598H186C182.134 72.7598 179 69.6258 179 65.7598C179 61.8938 182.134 58.7598 186 58.7598H205C208.866 58.7598 212 55.6258 212 51.7598C212 47.8938 208.866 44.7598 205 44.7598H183C186.866 44.7598 190 41.6258 190 37.7598C190 33.8938 186.866 30.7598 183 30.7598H119C122.866 30.7598 126 27.6258 126 23.7598C126 19.8938 122.866 16.7598 119 16.7598H62C58.134 16.7598 55 19.8938 55 23.7598C55 27.6258 58.134 30.7598 62 30.7598H22C18.134 30.7598 15 33.8938 15 37.7598C15 41.6258 18.134 44.7598 22 44.7598H47C50.866 44.7598 54 47.8938 54 51.7598C54 55.6258 50.866 58.7598 47 58.7598H7C3.13401 58.7598 0 61.8938 0 65.7598C0 69.6258 3.13401 72.7598 7 72.7598H46C42.134 72.7598 39 75.8938 39 79.7598C39 83.6258 42.134 86.7598 46 86.7598ZM209 86.7598C212.866 86.7598 216 83.6258 216 79.7598C216 75.8938 212.866 72.7598 209 72.7598C205.134 72.7598 202 75.8938 202 79.7598C202 83.6258 205.134 86.7598 209 86.7598Z" fill="#F1EFFB"/>
<path fill-rule="evenodd" clip-rule="evenodd" d="M151.577 78.8345C149 80.7598 146.488 82.5695 143.644 84.1334L143.809 98.2168C143.822 99.3213 142.937 100.227 141.832 100.24C141.383 100.245 140.945 100.099 140.589 99.8253L127.926 90.0828C123.18 91.1754 118.173 91.7598 113 91.7598C82.6243 91.7598 58 71.6126 58 46.7598C58 21.907 82.6243 1.75977 113 1.75977C143.376 1.75977 168 21.907 168 46.7598C168 53.6385 166.114 60.1568 162.741 65.9871C162.119 67.0624 161.446 68.1143 160.726 69.1408C160.726 69.1408 159.317 71.2598 156.5 74.2598C153.683 77.2598 151.577 78.8345 151.577 78.8345Z" fill="white"/>
<path fill-rule="evenodd" clip-rule="evenodd" d="M151.577 78.8345C149 80.7598 146.488 82.5695 143.644 84.1334L143.809 98.2168C143.822 99.3213 142.937 100.227 141.832 100.24C141.383 100.245 140.945 100.099 140.589 99.8253L127.926 90.0828C123.18 91.1754 118.173 91.7598 113 91.7598C82.6243 91.7598 58 71.6126 58 46.7598C58 21.907 82.6243 1.75977 113 1.75977C143.376 1.75977 168 21.907 168 46.7598C168 53.6385 166.114 60.1568 162.741 65.9871C162.119 67.0624 161.446 68.1143 160.726 69.1408C160.726 69.1408 159.317 71.2598 156.5 74.2598C153.683 77.2598 151.577 78.8345 151.577 78.8345Z" stroke="#6941C6" stroke-width="2.5" stroke-linecap="round"/>
<path fill-rule="evenodd" clip-rule="evenodd" d="M145.853 34.3492C151.157 34.3492 156.266 33.7168 161.051 32.5466C162.961 36.8962 164 41.583 164 46.4671C164 52.8029 162.251 58.8067 159.123 64.1769C158.547 65.1673 157.923 66.1362 157.255 67.0816C156.2 68.5744 155.448 69.6284 154.785 70.4737C153.219 72.4732 152.155 73.3042 148.771 76.0102C146.515 77.815 144.052 79.4504 141.415 80.8909L141.568 93.8626C141.58 94.88 141.889 96.7476 140.865 96.7598C140.449 96.7643 138.913 95.5965 138.583 95.3442L128.373 86.2264C123.972 87.2327 117.797 87.9153 113 87.9153C84.8335 87.9153 62 69.3583 62 46.4671C62 27.7208 77.3133 11.8812 98.3283 6.75977C103.832 22.6343 123.023 34.3492 145.853 34.3492ZM93.291 40.908C89.986 40.908 87.3067 43.6046 87.3067 46.9309C87.3067 50.2572 89.986 52.9537 93.291 52.9537C96.596 52.9537 99.2753 50.2572 99.2753 46.9309C99.2753 43.6046 96.596 40.908 93.291 40.908ZM112.241 40.908C108.936 40.908 106.257 43.6046 106.257 46.9309C106.257 50.2572 108.936 52.9537 112.241 52.9537C115.546 52.9537 118.225 50.2572 118.225 46.9309C118.225 43.6046 115.546 40.908 112.241 40.908ZM131.191 40.908C127.886 40.908 125.207 43.6046 125.207 46.9309C125.207 50.2572 127.886 52.9537 131.191 52.9537C134.496 52.9537 137.176 50.2572 137.176 46.9309C137.176 43.6046 134.496 40.908 131.191 40.908Z" fill="#F1EFFB"/>
<path fill-rule="evenodd" clip-rule="evenodd" d="M93 40.7598C96.3137 40.7598 99 43.4461 99 46.7598C99 50.0735 96.3137 52.7598 93 52.7598C89.6863 52.7598 87 50.0735 87 46.7598C87 43.4461 89.6863 40.7598 93 40.7598ZM112 40.7598C115.314 40.7598 118 43.4461 118 46.7598C118 50.0735 115.314 52.7598 112 52.7598C108.686 52.7598 106 50.0735 106 46.7598C106 43.4461 108.686 40.7598 112 40.7598ZM131 40.7598C134.314 40.7598 137 43.4461 137 46.7598C137 50.0735 134.314 52.7598 131 52.7598C127.686 52.7598 125 50.0735 125 46.7598C125 43.4461 127.686 40.7598 131 40.7598Z" fill="white" stroke="#6941C6" stroke-width="2.5"/>
<path d="M72.6619 32.0713C71.7539 33.6032 70.967 35.1931 70.3115 36.8323" stroke="#F1EFFB" stroke-width="2.5" stroke-linecap="round"/>
<path d="M91.0222 15.833C84.4695 18.9603 78.9373 23.3842 74.9395 28.6801" stroke="#F1EFFB" stroke-width="2.5" stroke-linecap="round"/>
</svg>
