<svg width="217" height="103" viewBox="0 0 217 103" fill="none" xmlns="http://www.w3.org/2000/svg">
<circle cx="209.5" cy="78.6074" r="7" fill="#F1EFFB"/>
<path fill-rule="evenodd" clip-rule="evenodd" d="M137.5 85.6074H46.5C42.634 85.6074 39.5 82.4734 39.5 78.6074C39.5 74.7414 42.634 71.6074 46.5 71.6074H7.5C3.63401 71.6074 0.5 68.4734 0.5 64.6074C0.5 60.7414 3.63401 57.6074 7.5 57.6074H47.5C51.366 57.6074 54.5 54.4734 54.5 50.6074C54.5 46.7414 51.366 43.6074 47.5 43.6074H22.5C18.634 43.6074 15.5 40.4734 15.5 36.6074C15.5 32.7414 18.634 29.6074 22.5 29.6074H62.5C58.634 29.6074 55.5 26.4734 55.5 22.6074C55.5 18.7414 58.634 15.6074 62.5 15.6074H119.5C123.366 15.6074 126.5 18.7414 126.5 22.6074C126.5 26.4734 123.366 29.6074 119.5 29.6074H183.5C187.366 29.6074 190.5 32.7414 190.5 36.6074C190.5 40.4734 187.366 43.6074 183.5 43.6074H205.5C209.366 43.6074 212.5 46.7414 212.5 50.6074C212.5 54.4734 209.366 57.6074 205.5 57.6074H186.5C182.634 57.6074 179.5 60.7414 179.5 64.6074C179.5 68.4734 182.634 71.6074 186.5 71.6074H192.5C196.366 71.6074 199.5 74.7414 199.5 78.6074C199.5 82.4734 196.366 85.6074 192.5 85.6074H140.5C139.985 85.6074 139.483 85.5518 139 85.4463C138.517 85.5518 138.015 85.6074 137.5 85.6074Z" fill="#F1EFFB"/>
<path fill-rule="evenodd" clip-rule="evenodd" d="M131.311 14.6081L140.613 82.4508L141.449 89.2571C141.718 91.4498 140.159 93.4456 137.966 93.7148L79.4061 100.905C77.2135 101.174 75.2177 99.6151 74.9485 97.4224L65.9327 23.9949C65.7981 22.8985 66.5777 21.9006 67.6741 21.766C67.681 21.7652 67.6879 21.7644 67.6948 21.7636L72.5532 21.2186M76.4817 20.7779L81.0688 20.2634L76.4817 20.7779Z" fill="white"/>
<path d="M132.55 14.4383C132.456 13.7543 131.826 13.2759 131.142 13.3697C130.458 13.4635 129.979 14.0939 130.073 14.7779L132.55 14.4383ZM140.613 82.4508L141.854 82.2985C141.853 82.2927 141.853 82.2868 141.852 82.281L140.613 82.4508ZM141.449 89.2571L142.69 89.1048L141.449 89.2571ZM137.966 93.7148L138.119 94.9555L137.966 93.7148ZM79.4061 100.905L79.5585 102.146L79.4061 100.905ZM74.9485 97.4224L76.1892 97.2701L74.9485 97.4224ZM65.9327 23.9949L67.1734 23.8425L65.9327 23.9949ZM67.6948 21.7636L67.8342 23.0058L67.6948 21.7636ZM72.6926 22.4608C73.3786 22.3839 73.8724 21.7653 73.7954 21.0793C73.7185 20.3932 73.0999 19.8994 72.4139 19.9764L72.6926 22.4608ZM76.3424 19.5357C75.6563 19.6127 75.1626 20.2312 75.2395 20.9173C75.3165 21.6033 75.935 22.0971 76.6211 22.0201L76.3424 19.5357ZM81.2081 21.5056C81.8942 21.4286 82.388 20.8101 82.311 20.124C82.234 19.438 81.6155 18.9442 80.9295 19.0212L81.2081 21.5056ZM130.073 14.7779L139.375 82.6206L141.852 82.281L132.55 14.4383L130.073 14.7779ZM139.373 82.6032L140.208 89.4095L142.69 89.1048L141.854 82.2985L139.373 82.6032ZM140.208 89.4095C140.393 90.9169 139.321 92.289 137.814 92.4741L138.119 94.9555C140.997 94.6021 143.043 91.9827 142.69 89.1048L140.208 89.4095ZM137.814 92.4741L79.2538 99.6644L79.5585 102.146L138.119 94.9555L137.814 92.4741ZM79.2538 99.6644C77.7463 99.8495 76.3742 98.7775 76.1892 97.2701L73.7078 97.5747C74.0611 100.453 76.6806 102.499 79.5585 102.146L79.2538 99.6644ZM76.1892 97.2701L67.1734 23.8425L64.692 24.1472L73.7078 97.5747L76.1892 97.2701ZM67.1734 23.8425C67.1229 23.4314 67.4153 23.0572 67.8264 23.0067L67.5217 20.5253C65.7402 20.7441 64.4733 22.3656 64.692 24.1472L67.1734 23.8425ZM67.8264 23.0067C67.829 23.0064 67.8316 23.0061 67.8342 23.0058L67.5555 20.5214C67.5442 20.5226 67.533 20.524 67.5217 20.5253L67.8264 23.0067ZM67.8342 23.0058L72.6926 22.4608L72.4139 19.9764L67.5555 20.5214L67.8342 23.0058ZM76.6211 22.0201L81.2081 21.5056L80.9295 19.0212L76.3424 19.5357L76.6211 22.0201Z" fill="#6941C6"/>
<path fill-rule="evenodd" clip-rule="evenodd" d="M128.779 18.876L137.198 80.3598L137.956 86.528C138.2 88.5151 136.806 90.3214 134.842 90.5625L82.4002 97.0016C80.4366 97.2427 78.647 95.8272 78.403 93.8401L70.253 27.4636C70.1184 26.3673 70.898 25.3694 71.9944 25.2348L78.482 24.4382" fill="#F1EFFB"/>
<path d="M85.561 4.60742C85.561 3.08864 86.7923 1.85742 88.311 1.85742H133.868C134.597 1.85742 135.296 2.14692 135.812 2.66228L149.255 16.0972C149.771 16.613 150.061 17.3127 150.061 18.0423V80.6074C150.061 82.1262 148.83 83.3574 147.311 83.3574H88.311C86.7923 83.3574 85.561 82.1262 85.561 80.6074V4.60742Z" fill="white" stroke="#6941C6" stroke-width="2.5"/>
<path d="M134.311 3.00977V14.6069C134.311 16.2638 135.654 17.6069 137.311 17.6069H145.245" stroke="#6941C6" stroke-width="2.5" stroke-linecap="round" stroke-linejoin="round"/>
<path d="M95.6392 68.6074H121.639M95.6392 17.6074H121.639H95.6392ZM95.6392 29.6074H138.639H95.6392ZM95.6392 42.6074H138.639H95.6392ZM95.6392 55.6074H138.639H95.6392Z" stroke="#896FD9" stroke-width="2.5" stroke-linecap="round" stroke-linejoin="round"/>
</svg>
