<svg width="217" height="123" viewBox="0 0 217 123" fill="none" xmlns="http://www.w3.org/2000/svg">
<circle cx="209.5" cy="89.5" r="7" fill="#F1EFFB"/>
<path fill-rule="evenodd" clip-rule="evenodd" d="M137.5 96.5H46.5C42.634 96.5 39.5 93.366 39.5 89.5C39.5 85.634 42.634 82.5 46.5 82.5H7.5C3.63401 82.5 0.5 79.366 0.5 75.5C0.5 71.634 3.63401 68.5 7.5 68.5H47.5C51.366 68.5 54.5 65.366 54.5 61.5C54.5 57.634 51.366 54.5 47.5 54.5H22.5C18.634 54.5 15.5 51.366 15.5 47.5C15.5 43.634 18.634 40.5 22.5 40.5H62.5C58.634 40.5 55.5 37.366 55.5 33.5C55.5 29.634 58.634 26.5 62.5 26.5H119.5C123.366 26.5 126.5 29.634 126.5 33.5C126.5 37.366 123.366 40.5 119.5 40.5H183.5C187.366 40.5 190.5 43.634 190.5 47.5C190.5 51.366 187.366 54.5 183.5 54.5H205.5C209.366 54.5 212.5 57.634 212.5 61.5C212.5 65.366 209.366 68.5 205.5 68.5H186.5C182.634 68.5 179.5 71.634 179.5 75.5C179.5 79.366 182.634 82.5 186.5 82.5H192.5C196.366 82.5 199.5 85.634 199.5 89.5C199.5 93.366 196.366 96.5 192.5 96.5H140.5C139.985 96.5 139.483 96.4444 139 96.3389C138.517 96.4444 138.015 96.5 137.5 96.5Z" fill="#F1EFFB"/>
<path fill-rule="evenodd" clip-rule="evenodd" d="M82.8775 99.6925L84.3675 99.6409V120.64C84.3675 121.115 84.7544 121.5 85.2315 121.5H137.072C137.549 121.5 137.936 121.115 137.936 120.64V48.655C137.936 46.9126 136.517 45.5 134.768 45.5H87.5355C85.7859 45.5 84.3675 46.9126 84.3675 48.655V63.6227L82.8775 63.5711C82.7026 63.565 82.5272 63.562 82.3515 63.562C73.3164 63.562 65.9355 71.6241 65.9355 81.6318C65.9355 91.6395 73.3164 99.7015 82.3515 99.7015C82.5272 99.7015 82.7026 99.6985 82.8775 99.6925ZM83.0427 92.7903C82.8133 92.8086 82.5829 92.8178 82.3515 92.8178C76.898 92.8178 72.5788 87.763 72.5788 81.6318C72.5788 75.5006 76.898 70.4457 82.3515 70.4457C82.5829 70.4457 82.8133 70.4549 83.0427 70.4733L84.3675 70.5791V92.6844L83.0427 92.7903Z" fill="white" stroke="#6941C6" stroke-width="2.5" stroke-linejoin="round"/>
<path d="M129.936 51.6816V70M129.936 75.6816V80.4248V75.6816Z" stroke="#AB9BE5" stroke-width="2.5" stroke-linecap="round" stroke-linejoin="round"/>
<path d="M50.0635 113.5H56.9355M164.063 113.5H166.936M143.936 113.5H159.363M62.9355 113.5H80.3896" stroke="#6941C6" stroke-width="2.5" stroke-linecap="round" stroke-linejoin="round"/>
<path d="M110.936 1.5C108.269 5.71354 106.936 9.38021 106.936 12.5C106.936 18.0562 111.589 20.5444 111.589 26.563C111.589 29.6177 110.038 32.6507 106.936 35.6621" stroke="#AB9BE5" stroke-width="2.5" stroke-linecap="round"/>
<path d="M98.9357 12.5C98.0631 18.0127 101.936 19.0322 101.936 23.9746C101.936 26.4831 100.936 28.9915 98.9357 31.5" stroke="#AB9BE5" stroke-width="2.5" stroke-linecap="round"/>
<path d="M117.731 9.97412C116.41 13.3933 117.152 15.4774 117.731 16.7041C118.968 19.3262 120.936 21.5896 120.936 24.2578C120.936 27.3568 119.868 30.3392 117.731 33.2051" stroke="#AB9BE5" stroke-width="2.5" stroke-linecap="round"/>
<path d="M87.9355 50.5C87.9355 49.9477 88.3833 49.5 88.9355 49.5L107.936 49.5V118.5H88.9355C88.3833 118.5 87.9355 118.052 87.9355 117.5V50.5Z" fill="#F1EFFB"/>
</svg>
