<svg width="164" height="164" viewBox="0 0 164 164" fill="none" xmlns="http://www.w3.org/2000/svg">
    <path opacity="0.26" d="M163.5 0H0V163.5H163.5V0Z" fill="#6941C6"/>
    <path opacity="0.26" d="M40.3311 130.16L66.472 112.855L40.6641 95.294L40.5753 104.592L0 104.568V122.133L40.4073 122.191L40.3311 130.16Z" fill="#6941C6"/>
    <path opacity="0.26" d="M50.9979 52.8065L77.1388 35.6099L51.3308 17.9404L51.2421 27.238L0 27.0976V44.7951L51.074 44.837L50.9979 52.8065Z" fill="#6941C6"/>
    <path opacity="0.26" d="M77.6955 94.2712L103.836 76.9656L78.0284 59.4051L77.9396 68.7027L0 68.4708V86.3463L77.7716 86.3018L77.6955 94.2712Z" fill="#6941C6"/>
    <g opacity="0.9">
        <path d="M8.80104 132.598H24.6004C24.6004 132.598 25.8262 128.376 23.3746 128.24C20.923 128.104 20.923 128.104 20.923 128.104C20.923 128.104 22.0126 124.971 20.242 124.699C18.4714 124.426 16.4283 123.473 16.1559 126.197C16.1559 126.197 13.1595 124.835 12.3423 125.788C11.5251 126.742 11.6613 129.193 11.6613 129.193C11.6613 129.193 8.12001 127.695 8.80104 132.598Z" fill="white"/>
        <path d="M140.556 121.81H156.355C156.355 121.81 157.581 117.587 155.129 117.451C152.678 117.315 152.678 117.315 152.678 117.315C152.678 117.315 153.767 114.182 151.997 113.91C150.226 113.638 148.183 112.684 147.911 115.408C147.911 115.408 144.914 114.046 144.097 114.999C143.28 115.953 143.416 118.405 143.416 118.405C143.416 118.405 139.875 116.906 140.556 121.81Z" fill="white"/>
        <path d="M4.85275 101.867H16.1006C16.1006 101.867 16.9732 98.8608 15.2279 98.7638C13.4826 98.6669 13.4826 98.6669 13.4826 98.6669C13.4826 98.6669 14.2583 96.4367 12.9977 96.2427C11.7372 96.0488 10.2828 95.3701 10.0888 97.3094C10.0888 97.3094 7.95555 96.3397 7.37376 97.0185C6.79197 97.6972 6.88893 99.4426 6.88893 99.4426C6.88893 99.4426 4.36797 98.3759 4.85275 101.867Z" fill="white"/>
        <path d="M148.622 95.3757H155.878C155.878 95.3757 156.441 93.4364 155.315 93.3739C154.189 93.3113 154.189 93.3113 154.189 93.3113C154.189 93.3113 154.69 91.8725 153.877 91.7474C153.063 91.6223 152.125 91.1844 152 92.4355C152 92.4355 150.624 91.81 150.248 92.2479C149.873 92.6858 149.936 93.8118 149.936 93.8118C149.936 93.8118 148.309 93.1237 148.622 95.3757Z" fill="white"/>
        <path d="M83.1475 125.43H107.929C107.929 125.43 109.852 118.808 106.006 118.594C102.161 118.38 102.161 118.38 102.161 118.38C102.161 118.38 103.87 113.467 101.093 113.039C98.3154 112.612 95.1109 111.117 94.6836 115.389C94.6836 115.389 89.9837 113.253 88.7019 114.748C87.4201 116.244 87.6338 120.089 87.6338 120.089C87.6338 120.089 82.0793 117.739 83.1475 125.43Z" fill="white"/>
        <path d="M73.1802 103.743H80.7461C80.7461 103.743 81.3331 101.721 80.159 101.656C78.985 101.591 78.985 101.591 78.985 101.591C78.985 101.591 79.5068 100.09 78.6589 99.9599C77.811 99.8294 76.8326 99.3729 76.7022 100.677C76.7022 100.677 75.2673 100.025 74.8759 100.482C74.4846 100.938 74.5498 102.112 74.5498 102.112C74.5498 102.112 72.8541 101.395 73.1802 103.743Z" fill="white"/>
        <path d="M37.5443 93.6079H45.1102C45.1102 93.6079 45.6972 91.586 44.5232 91.5207C43.3491 91.4555 43.3491 91.4555 43.3491 91.4555C43.3491 91.4555 43.8709 89.9554 43.023 89.8249C42.1751 89.6944 41.1968 89.2379 41.0664 90.5424C41.0664 90.5424 39.6315 89.8901 39.2401 90.3467C38.8488 90.8032 38.914 91.9773 38.914 91.9773C38.914 91.9773 37.2182 91.2598 37.5443 93.6079Z" fill="white"/>
    </g>
    <path d="M128.947 4.12268H163.498V146.55L128.947 146.44V4.12268Z" fill="url(#paint0_linear_3245_4326)"/>
    <path d="M36.4453 111.671H35.1525V110.378C35.1525 110.216 35.0203 110.084 34.8587 110.084C34.6971 110.084 34.5649 110.216 34.5649 110.378V111.671H33.2721C33.1105 111.671 32.9783 111.803 32.9783 111.964C32.9783 112.126 33.1105 112.258 33.2721 112.258H34.5649V113.551C34.5649 113.713 34.6971 113.845 34.8587 113.845C35.0203 113.845 35.1525 113.713 35.1525 113.551V112.258H36.4453C36.6069 112.258 36.7391 112.126 36.7391 111.964C36.7391 111.803 36.6069 111.671 36.4453 111.671Z" fill="white"/>
    <path d="M17.8337 9.21051H16.5409V7.91771C16.5409 7.75612 16.4086 7.6239 16.2471 7.6239C16.0855 7.6239 15.9532 7.75612 15.9532 7.91771V9.21051H14.6605C14.4989 9.21051 14.3667 9.34272 14.3667 9.50432C14.3667 9.66591 14.4989 9.79812 14.6605 9.79812H15.9533V11.0909C15.9533 11.2525 16.0855 11.3847 16.2471 11.3847C16.4087 11.3847 16.5409 11.2525 16.5409 11.0909V9.79812H17.8337C17.9953 9.79812 18.1275 9.66591 18.1275 9.50432C18.1275 9.34272 17.9953 9.21051 17.8337 9.21051Z" fill="white"/>
    <path d="M90.1908 28.4921H89.2212V27.5225C89.2212 27.4013 89.1221 27.3022 89.0009 27.3022C88.8797 27.3022 88.7805 27.4013 88.7805 27.5225V28.4921H87.8109C87.6897 28.4921 87.5906 28.5913 87.5906 28.7125C87.5906 28.8337 87.6897 28.9328 87.8109 28.9328H88.7805V29.9024C88.7805 30.0236 88.8797 30.1228 89.0009 30.1228C89.1221 30.1228 89.2212 30.0236 89.2212 29.9024V28.9328H90.1908C90.312 28.9328 90.4112 28.8337 90.4112 28.7125C90.4112 28.5913 90.312 28.4921 90.1908 28.4921Z" fill="white"/>
    <path d="M58.0244 16.1818H57.0548V15.2122C57.0548 15.091 56.9557 14.9919 56.8345 14.9919C56.7133 14.9919 56.6141 15.091 56.6141 15.2122V16.1818H55.6445C55.5233 16.1818 55.4242 16.281 55.4242 16.4021C55.4242 16.5233 55.5233 16.6225 55.6445 16.6225H56.6141V17.592C56.6141 17.7132 56.7133 17.8124 56.8345 17.8124C56.9557 17.8124 57.0548 17.7132 57.0548 17.592V16.6225H58.0244C58.1457 16.6225 58.2448 16.5234 58.2448 16.4022C58.2448 16.281 58.1456 16.1818 58.0244 16.1818Z" fill="white"/>
    <path d="M49.2021 39.3921H48.2325V38.4225C48.2325 38.3013 48.1333 38.2021 48.0122 38.2021C47.891 38.2021 47.7918 38.3013 47.7918 38.4225V39.3921H46.8223C46.7011 39.3921 46.6019 39.4912 46.6019 39.6124C46.6019 39.7337 46.7011 39.8328 46.8223 39.8328H47.7918V40.8024C47.7918 40.9236 47.891 41.0227 48.0122 41.0227C48.1334 41.0227 48.2325 40.9236 48.2325 40.8024V39.8328H49.2021C49.3233 39.8328 49.4225 39.7337 49.4225 39.6124C49.4225 39.4912 49.3233 39.3921 49.2021 39.3921Z" fill="white"/>
    <path d="M147.096 151.679H146.126V150.71C146.126 150.588 146.027 150.489 145.906 150.489C145.785 150.489 145.685 150.588 145.685 150.71V151.679H144.716C144.595 151.679 144.495 151.778 144.495 151.9C144.495 152.021 144.595 152.12 144.716 152.12H145.685V153.09C145.685 153.211 145.785 153.31 145.906 153.31C146.027 153.31 146.126 153.211 146.126 153.09V152.12H147.096C147.217 152.12 147.316 152.021 147.316 151.9C147.316 151.778 147.217 151.679 147.096 151.679Z" fill="white"/>
    <path d="M79.0934 53.9145H78.1237V52.9449C78.1237 52.8237 78.0246 52.7245 77.9034 52.7245C77.7822 52.7245 77.6831 52.8237 77.6831 52.9449V53.9145H76.7135C76.5922 53.9145 76.4931 54.0137 76.4931 54.1348C76.4931 54.2561 76.5923 54.3552 76.7135 54.3552H77.6831V55.3247C77.6831 55.446 77.7822 55.5451 77.9034 55.5451C78.0246 55.5451 78.1237 55.4459 78.1237 55.3247V54.3552H79.0934C79.2146 54.3552 79.3137 54.256 79.3137 54.1348C79.3137 54.0137 79.2146 53.9145 79.0934 53.9145Z" fill="white"/>
    <path d="M101.522 68.6041H100.553V67.6345C100.553 67.5133 100.453 67.4142 100.332 67.4142C100.211 67.4142 100.112 67.5134 100.112 67.6345V68.6041H99.1422C99.021 68.6041 98.9219 68.7033 98.9219 68.8245C98.9219 68.9457 99.021 69.0448 99.1422 69.0448H100.112V70.0144C100.112 70.1356 100.211 70.2348 100.332 70.2348C100.453 70.2348 100.553 70.1356 100.553 70.0144V69.0448H101.522C101.643 69.0448 101.742 68.9457 101.742 68.8245C101.742 68.7033 101.643 68.6041 101.522 68.6041Z" fill="white"/>
    <path d="M115.372 143.833H114.402V142.863C114.402 142.742 114.303 142.643 114.182 142.643C114.061 142.643 113.962 142.742 113.962 142.863V143.833H112.992C112.871 143.833 112.772 143.932 112.772 144.053C112.772 144.174 112.871 144.273 112.992 144.273H113.962V145.243C113.962 145.364 114.061 145.463 114.182 145.463C114.303 145.463 114.402 145.364 114.402 145.243V144.273H115.372C115.493 144.273 115.592 144.174 115.592 144.053C115.592 143.932 115.493 143.833 115.372 143.833Z" fill="white"/>
    <path d="M87.5937 92.8309H86.6241V91.8613C86.6241 91.7401 86.5249 91.641 86.4037 91.641C86.2826 91.641 86.1834 91.7401 86.1834 91.8613V92.8309H85.2138C85.0926 92.8309 84.9935 92.9301 84.9935 93.0513C84.9935 93.1725 85.0926 93.2716 85.2138 93.2716H86.1834V94.2412C86.1834 94.3625 86.2826 94.4616 86.4037 94.4616C86.5249 94.4616 86.6241 94.3624 86.6241 94.2412V93.2716H87.5937C87.7149 93.2716 87.814 93.1725 87.814 93.0513C87.814 92.9301 87.7148 92.8309 87.5937 92.8309Z" fill="white"/>
    <path d="M111.673 9.4626H110.703V8.49305C110.703 8.37184 110.604 8.27271 110.483 8.27271C110.362 8.27271 110.263 8.37184 110.263 8.49305V9.4626H109.293C109.172 9.4626 109.073 9.56174 109.073 9.68295C109.073 9.80416 109.172 9.90329 109.293 9.90329H110.263V10.8728C110.263 10.9941 110.362 11.0932 110.483 11.0932C110.604 11.0932 110.703 10.9941 110.703 10.8728V9.90329H111.673C111.794 9.90329 111.893 9.8041 111.893 9.68295C111.893 9.56179 111.794 9.4626 111.673 9.4626Z" fill="white"/>
    <path d="M20.9644 52.8105H19.9948V51.8409C19.9948 51.7197 19.8957 51.6205 19.7745 51.6205C19.6533 51.6205 19.5541 51.7197 19.5541 51.8409V52.8105H18.5845C18.4633 52.8105 18.3641 52.9097 18.3641 53.0308C18.3641 53.152 18.4633 53.2512 18.5845 53.2512H19.554V54.2207C19.554 54.3419 19.6532 54.4411 19.7744 54.4411C19.8956 54.4411 19.9947 54.3419 19.9947 54.2207V53.2512H20.9643C21.0855 53.2512 21.1846 53.152 21.1846 53.0308C21.1847 52.9097 21.0855 52.8105 20.9644 52.8105Z" fill="white"/>
    <path d="M128.947 146.44C141.408 146.44 151.51 114.581 151.51 75.2815C151.51 35.9816 141.408 4.12268 128.947 4.12268C116.485 4.12268 106.384 35.9816 106.384 75.2815C106.384 114.581 116.485 146.44 128.947 146.44Z" fill="white"/>
    <path d="M126.779 137.39C137.111 137.39 145.487 109.583 145.487 75.2815C145.487 40.9801 137.111 13.1733 126.779 13.1733C116.447 13.1733 108.072 40.9801 108.072 75.2815C108.072 109.583 116.447 137.39 126.779 137.39Z" fill="#6941C6"/>
    <path d="M124.716 127.863C132.792 127.863 139.339 104.322 139.339 75.2815C139.339 46.2414 132.792 22.6998 124.716 22.6998C116.639 22.6998 110.093 46.2414 110.093 75.2815C110.093 104.322 116.639 127.863 124.716 127.863Z" fill="white"/>
    <path d="M123.728 119.304C130.07 119.304 135.211 99.5944 135.211 75.2815C135.211 50.9686 130.07 31.2591 123.728 31.2591C117.387 31.2591 112.246 50.9686 112.246 75.2815C112.246 99.5944 117.387 119.304 123.728 119.304Z" fill="#6941C6"/>
    <path d="M122.299 107.172C126.508 107.172 129.919 92.8939 129.919 75.2815C129.919 57.6691 126.508 43.3915 122.299 43.3915C118.091 43.3915 114.68 57.6691 114.68 75.2815C114.68 92.8939 118.091 107.172 122.299 107.172Z" fill="white"/>
    <path d="M120.766 92.1313C122.989 92.1313 124.792 84.5874 124.792 75.2815C124.792 65.9757 122.989 58.4318 120.766 58.4318C118.542 58.4318 116.74 65.9757 116.74 75.2815C116.74 84.5874 118.542 92.1313 120.766 92.1313Z" fill="#6941C6"/>
    <path opacity="0.25" d="M133.167 5.36603C133.282 5.68033 133.392 5.99736 133.497 6.31793C135.708 10.5266 136.722 15.0622 136.538 19.9245C136.539 20.7754 136.544 21.6262 136.553 22.4771C136.633 29.4128 137.013 36.3399 137.31 43.2685C137.602 50.1017 137.817 56.9469 137.557 63.7849C137.53 64.5038 137.502 65.2226 137.436 65.9392C137.092 69.6822 136.561 73.4117 135.943 77.1192C135.743 78.3228 135.451 79.5118 135.065 80.6696C134.967 80.964 134.863 81.2564 134.752 81.5465C133.584 84.6172 132.076 87.9469 130.909 90.6898C130.682 91.2232 130.438 91.7487 130.171 92.2631C129.651 93.2621 129.05 94.2192 128.368 95.1163C126.397 97.7118 124.454 100.337 122.38 102.853C122.206 103.064 122.028 103.271 121.844 103.474C121.482 103.875 121.102 104.261 120.705 104.627C120.508 104.809 120.307 104.986 120.103 105.158C117.613 107.248 114.955 109.177 112.389 111.134C111.979 111.448 111.556 111.744 111.118 112.018C110.683 112.291 110.236 112.542 109.776 112.77C109.773 112.772 109.77 112.773 109.766 112.775C113.747 132.984 120.848 146.44 128.947 146.44C141.408 146.44 151.51 114.581 151.51 75.2815C151.51 40.5304 143.611 11.5983 133.167 5.36603Z" fill="#26A9E0"/>
    <path d="M71.7998 105.587C71.7998 105.587 78.3455 100.166 79.3856 98.5208C80.4257 96.8756 82.4092 84.4286 82.4092 84.4286C82.4092 84.4286 79.8067 83.8166 79.2717 84.7605L75.8695 97.2748L70.7325 99.6484C70.7325 99.6484 69.6827 103.381 71.7998 105.587Z" fill="#CDD0D7"/>
    <path d="M79.0715 91.2492C79.295 92.9123 79.5184 94.5755 79.7419 96.2386C79.7607 96.737 79.7556 97.2289 79.727 97.7144C80.8065 94.4858 82.4092 84.4286 82.4092 84.4286C82.4092 84.4286 79.8067 83.8166 79.2717 84.7605L78.1863 88.7529C78.5341 89.5542 78.8294 90.3862 79.0715 91.2492Z" fill="#C5C7CF"/>
    <path d="M79.7446 84.4716L79.9924 83.4922C79.9924 83.4922 79.5799 82.9921 79.4889 82.4638C79.3978 81.9356 78.7567 80.7405 78.7567 80.7405C78.7567 80.7405 79.0391 80.0119 79.4289 80.3799C79.8187 80.7479 80.9727 80.6578 81.4372 80.9857C81.9017 81.3137 82.7233 80.8729 83.2679 81.3502C83.8125 81.8276 83.8808 82.2238 83.5182 82.803C83.1556 83.3822 82.426 83.7256 82.426 83.7256L82.0469 84.9824C81.9463 85.3156 81.6176 85.5255 81.273 85.4764L80.3283 85.3418C79.9138 85.2829 79.6419 84.8775 79.7446 84.4716Z" fill="#EE9E78"/>
    <path d="M65.6343 97.0574C65.6343 97.0574 65.334 96.6199 66.1134 96.6353C66.8928 96.6507 69.8844 97.6318 70.0482 97.9023C70.2121 98.1728 70.8594 98.6662 70.1697 99.1993C69.48 99.7325 66.5919 98.724 65.6343 97.0574Z" fill="#BABABE"/>
    <path d="M66.3287 92.2015C66.3287 92.2015 66.5609 96.2249 66.2351 97.0719C65.9093 97.9188 64.095 98.4549 64.095 98.4549C64.095 98.4549 67.5438 101.524 69.0493 100.877C70.5549 100.23 71.0702 99.8818 71.0702 99.8818C71.0702 99.8818 69.9776 99.6111 69.8835 98.9616C69.7893 98.312 70.5014 92.8644 70.5014 92.8644L66.3287 92.2015Z" fill="#DF8867"/>
    <path d="M73.2783 90.1128C73.2783 90.1128 73.4532 92.5778 73.3589 93.4513C73.2645 94.3248 71.5992 95.9319 71.1668 96.2389C70.7344 96.546 70.0025 96.5139 70.0025 96.5139C70.0025 96.5139 67.5487 95.37 67.1322 94.8168C66.7158 94.2636 65.8089 91.7665 65.8089 91.7665C65.8089 91.7665 64.6953 88.5248 65.182 87.5849C65.6688 86.645 67.1787 84.5965 69.3872 84.7685C71.5958 84.9404 72.3077 85.0928 72.7012 86.7024C72.8744 87.4109 73.2783 90.1128 73.2783 90.1128Z" fill="#EE9E78"/>
    <path d="M72.5796 87.7196L71.1443 88.618C71.1443 88.618 70.9699 88.6129 70.9493 88.3976C70.9286 88.1822 71.8358 87.4432 72.1178 87.4378C72.3999 87.4325 72.6103 87.5862 72.5796 87.7196Z" fill="#31141E"/>
    <path d="M67.2542 89.1333L69.0043 88.3523C69.0043 88.3523 69.1097 88.1854 68.9204 88.03C68.7311 87.8746 67.4642 88.2602 67.2811 88.5217C67.098 88.7833 67.1096 89.0779 67.2542 89.1333Z" fill="#31141E"/>
    <path d="M71.8412 89.0297C71.8102 89.3358 71.9623 89.6019 72.181 89.6241C72.3996 89.6463 72.6021 89.4161 72.6331 89.1099C72.6641 88.8038 72.512 88.5377 72.2933 88.5155C72.0747 88.4934 71.8722 88.7235 71.8412 89.0297Z" fill="#2B203D"/>
    <path d="M68.6332 89.4864C68.6022 89.7925 68.7543 90.0586 68.973 90.0808C69.1916 90.103 69.394 89.8728 69.4251 89.5667C69.4561 89.2606 69.304 88.9944 69.0853 88.9722C68.8666 88.9501 68.6642 89.1802 68.6332 89.4864Z" fill="#2B203D"/>
    <path d="M70.5447 92.4819C70.7464 92.412 70.9843 92.309 71.0342 92.1313C71.0733 91.9916 70.9897 91.8378 70.7785 91.6611C70.4113 91.3538 70.3734 89.4943 70.3897 88.8037L70.2312 88.8089C70.2311 88.8152 70.2168 89.4468 70.2604 90.1183C70.3197 91.0327 70.4554 91.5847 70.6637 91.7591C70.8326 91.9004 70.9053 92.0176 70.88 92.1077C70.8554 92.1956 70.7321 92.2751 70.4921 92.3584L70.5447 92.4819Z" fill="#EF7A6D"/>
    <path d="M70.9139 117.266C70.9139 117.266 82.1985 120.948 83.4224 122.196C84.6462 123.443 89.5312 135.586 89.5312 135.586C89.5312 135.586 89.5774 138.349 87.7588 138.477C85.9402 138.605 85.7094 138.414 85.7094 138.414L78.9241 127.343C78.9241 127.343 72.3289 123.747 70.3098 123.553C68.2907 123.359 69.3803 132.363 69.9311 135.288C70.2811 137.146 72.2472 146.491 73.1158 150.609C73.3593 151.764 72.8001 152.938 71.7504 153.477L71.6137 153.547C70.1561 154.295 68.3777 153.535 67.911 151.964C66.4775 147.141 63.8586 137.958 63.8603 135.259C63.8623 132.022 60.3377 129.003 59.3033 120.583C59.1072 118.987 61.0292 116.378 61.0292 116.378L70.9139 117.266Z" fill="#212A48"/>
    <path d="M71.6528 93.0007L68.736 93.4135C68.736 93.4135 68.4354 93.5451 68.9992 94.0148C69.563 94.4844 71.1844 94.0486 71.1844 94.0486C71.1844 94.0486 71.8375 93.6152 71.6528 93.0007Z" fill="#C0272D"/>
    <path d="M71.6451 92.9552L68.736 93.4135C68.736 93.4135 68.4277 93.4997 68.9377 93.6513C69.4476 93.8029 71.0844 93.458 71.0844 93.458C71.0844 93.458 71.7683 93.2063 71.6451 92.9552Z" fill="white"/>
    <path d="M65.3808 91.3831C65.3808 91.3831 66.1908 90.9231 65.9663 90.0732C65.7418 89.2233 65.737 87.2868 65.9325 87.0115C66.1281 86.7362 70.851 86.5021 72.2557 85.7397L73.0344 88.4332L72.7452 85.2936C72.7452 85.2936 73.4117 84.9386 72.7295 84.2469C72.0474 83.5551 71.1021 82.2621 68.9833 82.6206C66.8645 82.9791 64.2363 83.6661 63.4672 84.8455C62.6981 86.025 61.6779 86.1977 61.6779 86.1977L62.6087 86.9281C62.6087 86.9281 63.4538 90.0139 64.2741 91.0456L65.3808 91.3831Z" fill="#3D1623"/>
    <path d="M63.4672 84.8456C64.2363 83.6661 66.8645 82.9792 68.9834 82.6207C71.1022 82.2621 72.0475 83.5551 72.7296 84.2469C73.4117 84.9387 72.7453 85.2937 72.7453 85.2937L72.7487 85.3175C72.563 85.4435 72.4016 85.5988 72.2684 85.7759L72.2558 85.7398C70.8511 86.5022 66.1282 86.7363 65.9326 87.0116C65.9278 87.0184 65.9232 87.0269 65.9187 87.0356C65.4816 86.7506 64.9415 86.6174 64.4276 86.7043C63.7085 86.826 63.1697 87.2981 62.9034 87.9085C62.7212 87.338 62.609 86.9283 62.609 86.9283L61.6782 86.1979C61.678 86.1978 62.6982 86.0251 63.4672 84.8456Z" fill="#31141E"/>
    <path d="M70.9138 117.266C70.9138 117.266 70.7787 118.479 69.3546 119.041C67.9306 119.603 65.9091 119.778 64.9072 119.426C63.9053 119.074 61.067 117.236 61.0057 116.349L61.0292 116.378L70.9138 117.266Z" fill="#262727"/>
    <path d="M63.7259 119.219L64.1767 119.376L64.6757 117.949L64.2249 117.791L63.7259 119.219Z" fill="#212A4E"/>
    <path d="M68.7552 119.493L69.2099 119.347L68.7476 117.907L68.293 118.053L68.7552 119.493Z" fill="#212A4E"/>
    <path d="M62.1618 118.382L62.5671 118.635L63.3666 117.351L62.9613 117.099L62.1618 118.382Z" fill="#212A4E"/>
    <path d="M87.939 135.543C87.939 135.543 93.6287 137.873 95.4888 137.151C95.4888 137.151 97.7426 137.405 97.5713 138.77C97.3999 140.135 96.0813 141.041 95.1041 141.435C94.127 141.828 89.3605 140.943 89.3605 140.943L88.8487 140.602L88.8896 141.267L87.336 141.225L85.2489 136.975L87.939 135.543Z" fill="#643530"/>
    <path d="M88.4959 136.098C89.055 136.127 89.6002 135.971 90.1531 135.914C90.4294 135.886 90.709 135.874 90.986 135.901C91.1258 135.914 91.951 136.035 91.8706 136.264C91.8201 136.408 91.3215 136.462 91.1672 136.488C90.8565 136.539 90.5345 136.556 90.2237 136.496C89.7322 136.401 89.3386 136.054 88.8387 135.994C88.7686 135.985 88.7303 136.089 88.7809 136.133C89.0504 136.369 89.2744 136.646 89.4369 136.966C89.5221 137.134 89.5896 137.311 89.6383 137.493C89.6736 137.625 89.8395 138.081 89.5642 137.967C89.4363 137.914 89.2551 137.603 89.1804 137.499C89.076 137.354 88.9797 137.203 88.8918 137.047C88.704 136.714 88.5603 136.362 88.4527 135.996C88.423 135.895 88.2652 135.938 88.295 136.04C88.4403 136.534 88.6523 137.005 88.9376 137.435C89.0729 137.638 89.2226 137.836 89.3882 138.017C89.4764 138.113 89.6157 138.257 89.7641 138.201C90.062 138.087 89.7772 137.359 89.7051 137.171C89.5333 136.724 89.2566 136.333 88.8965 136.018C88.8772 136.064 88.8579 136.111 88.8386 136.157C89.1985 136.201 89.4897 136.419 89.8198 136.549C90.1191 136.666 90.4426 136.708 90.7628 136.695C91.0888 136.682 91.4118 136.616 91.7245 136.526C91.868 136.484 92.0717 136.456 92.064 136.269C92.0434 135.768 91.0284 135.726 90.6939 135.723C89.9539 135.716 89.2335 135.974 88.4959 135.934C88.3907 135.928 88.3911 136.092 88.4959 136.098Z" fill="#3F1D1B"/>
    <path d="M71.9448 152.273C71.9448 152.273 77.0049 155.765 78.9765 155.457C78.9765 155.457 81.1239 156.187 80.6647 157.484C80.2055 158.781 78.7237 159.384 77.685 159.56C76.6462 159.735 72.1792 157.852 72.1792 157.852L71.7521 157.409L71.6499 158.067L70.1411 157.694L69.0107 153.096L71.9448 152.273Z" fill="#643530"/>
    <path d="M72.366 152.932C72.896 153.078 73.4499 153.047 73.9924 153.105C74.2394 153.131 75.8008 153.438 75.5784 153.797C75.4758 153.963 75.0129 153.894 74.8291 153.882C74.529 153.862 74.2237 153.804 73.9476 153.681C73.5009 153.482 73.1977 153.067 72.7316 152.906C72.6676 152.884 72.5969 152.969 72.6392 153.026C72.8433 153.303 72.9992 153.606 73.0914 153.938C73.1439 154.127 73.1763 154.321 73.1869 154.516C73.1908 154.589 73.1914 154.661 73.1895 154.734C73.1864 154.849 73.2196 154.94 73.0957 154.971C72.974 155.002 72.9714 154.916 72.9206 154.822C72.8746 154.737 72.831 154.65 72.7901 154.562C72.7043 154.378 72.6313 154.189 72.5698 153.995C72.4491 153.616 72.3782 153.226 72.3498 152.829C72.3424 152.725 72.1788 152.724 72.1863 152.829C72.225 153.37 72.3393 153.9 72.5441 154.403C72.6258 154.604 72.8443 155.32 73.1667 155.258C73.4741 155.199 73.3522 154.453 73.3243 154.257C73.2566 153.779 73.0665 153.331 72.7805 152.944C72.7497 152.984 72.7189 153.024 72.6881 153.064C73.0318 153.182 73.2693 153.457 73.564 153.655C73.8084 153.819 74.0881 153.926 74.3755 153.985C74.6975 154.052 75.0292 154.064 75.3567 154.046C75.5088 154.038 75.7675 154.069 75.818 153.878C75.9455 153.398 74.9395 153.119 74.6375 153.047C73.9051 152.872 73.1329 152.974 72.4095 152.775C72.3079 152.747 72.2646 152.904 72.366 152.932Z" fill="#3F1D1B"/>
    <path d="M70.6002 118.902L70.9841 118.618L70.0846 117.402L69.7008 117.686L70.6002 118.902Z" fill="#212A4E"/>
    <path d="M65.9122 89.9963C66.2547 90.031 66.5789 89.9793 66.8701 89.8612C66.6823 90.4773 66.0061 90.6489 66.0061 90.6489L65.0288 90.0299C64.9733 89.8996 64.9238 89.7462 64.8796 89.5765C65.1797 89.8057 65.5373 89.9583 65.9122 89.9963Z" fill="#31141E"/>
    <path d="M70.6141 138.662C70.0073 140.543 69.0009 142.223 67.5945 143.702C67.1043 144.299 66.5781 144.844 66.0164 145.335C66.6814 147.776 67.3781 150.171 67.9109 151.964C68.3777 153.534 70.1561 154.295 71.6137 153.547L71.7504 153.477C72.8 152.938 73.3593 151.764 73.1158 150.609C72.5091 147.732 71.367 142.306 70.6141 138.662Z" fill="#151E39"/>
    <path d="M89.5312 135.586C89.5312 135.586 88.1641 132.188 86.6952 128.802C85.84 129.845 84.8025 130.716 83.5828 131.415C83.0627 131.766 82.5277 132.07 81.978 132.326L85.7094 138.414C85.7094 138.414 85.9402 138.605 87.7588 138.477C89.5774 138.349 89.5312 135.586 89.5312 135.586Z" fill="#151E39"/>
    <path d="M65.621 90.6563C65.621 90.6563 65.2069 89.8788 64.567 90.3906C63.9271 90.9025 64.2833 92.0531 64.7421 92.3791C65.2009 92.705 66.0399 93.3703 66.1835 93.2652C66.3272 93.1602 66.4443 92.8982 66.4443 92.8982L65.621 90.6563Z" fill="#EE9E78"/>
    <path d="M70.5387 99.072L68.6018 100.952L65.0893 98.1157L62.2051 99.146C60.8936 99.6146 60.091 100.939 60.2833 102.318C60.6291 104.799 61.1075 108.479 61.055 109.506C61.005 110.485 60.6988 112.798 60.4704 114.435C60.3161 115.541 60.8978 116.618 61.907 117.095C63.1729 117.693 64.8948 118.385 66.1512 118.423C67.1872 118.453 68.3258 118.322 69.2488 118.173C70.355 117.994 71.2309 117.142 71.4433 116.042C72.0177 113.067 73.085 107.164 72.948 105.032C72.7618 102.133 71.7249 99.9249 71.7249 99.9249L70.5387 99.072Z" fill="#D9DDE9"/>
    <path d="M61.055 109.506C61.064 109.331 61.0574 109.077 61.0386 108.765C62.0182 110.035 63.2266 110.996 64.6652 111.648C66.0744 112.601 67.6471 113.141 69.3836 113.269C70.2535 113.363 71.1099 113.371 71.9529 113.294C71.7698 114.327 71.5904 115.28 71.4434 116.042C71.2305 117.144 70.3518 117.995 69.243 118.174C68.3211 118.323 67.1851 118.453 66.1512 118.423C64.8929 118.385 63.1677 117.691 61.9014 117.092C60.8944 116.616 60.3165 115.538 60.4705 114.435C60.6989 112.798 61.0051 110.485 61.055 109.506Z" fill="#CDD0D7"/>
    <path d="M68.6484 100.943L70.0549 100.54L71.0215 101.208L70.1694 99.5113L68.6484 100.943Z" fill="#BABABE"/>
    <path d="M68.3046 101.121L68.2035 99.7513L65.6337 96.691L64.1742 98.463L66.4983 101.578L68.3046 101.121Z" fill="#D9DDE9"/>
    <path d="M69.9206 97.8054L70.6004 98.5182C70.8448 99.263 71.0214 101.208 71.0214 101.208L70.2044 99.9156L68.6042 100.928C68.6043 100.927 70.2312 99.4768 69.9206 97.8054Z" fill="#D9DDE9"/>
    <path d="M66.416 100.855L68.2181 99.7744L68.5693 100.935L67.7345 100.521L66.416 100.855Z" fill="#BABABE"/>
    <path d="M64.1369 103.973L67.5381 104.351L67.5909 103.877L64.1898 103.498L64.1369 103.973Z" fill="#CDD0D7"/>
    <path d="M66.0517 119.879L67.6905 119.883C67.8422 119.884 67.9667 119.76 67.9672 119.608L67.9694 118.807C67.9699 118.655 67.846 118.531 67.6943 118.53L66.0555 118.526C65.9038 118.525 65.7792 118.649 65.7788 118.801L65.7766 119.602C65.7761 119.754 65.8999 119.878 66.0517 119.879Z" fill="#CDD0D7"/>
    <path d="M66.1402 119.75L67.6027 119.754C67.732 119.755 67.8382 119.649 67.8385 119.52L67.8403 118.876C67.8407 118.747 67.7351 118.64 67.6058 118.64L66.1433 118.636C66.0139 118.636 65.9078 118.741 65.9074 118.871L65.9056 119.514C65.9053 119.644 66.0108 119.75 66.1402 119.75Z" fill="#262727"/>
    <g opacity="0.69">
        <mask id="mask0_3245_4326" style="mask-type:luminance" maskUnits="userSpaceOnUse" x="70" y="87" width="4" height="4">
            <path d="M72.2572 87.8687C71.5694 87.647 70.8321 88.0248 70.6104 88.7126C70.3887 89.4004 70.7665 90.1377 71.4543 90.3595C72.1421 90.5812 72.8794 90.2034 73.1011 89.5156C73.3228 88.8278 72.945 88.0905 72.2572 87.8687Z" fill="white"/>
        </mask>
        <g mask="url(#mask0_3245_4326)">
            <path opacity="0.43" d="M73.1474 89.3216C73.2596 88.6077 72.7719 87.9381 72.0581 87.8259C71.3442 87.7136 70.6745 88.2014 70.5623 88.9152C70.4501 89.6291 70.9378 90.2987 71.6517 90.411C72.3655 90.5232 73.0352 90.0354 73.1474 89.3216Z" fill="white"/>
        </g>
        <mask id="mask1_3245_4326" style="mask-type:luminance" maskUnits="userSpaceOnUse" x="71" y="87" width="4" height="3">
            <path d="M72.3568 87.5282C71.8037 87.9933 71.7325 88.8187 72.1976 89.3717C72.6627 89.9248 73.4881 89.9961 74.0411 89.531C74.5942 89.0658 74.6655 88.2404 74.2004 87.6874C73.7352 87.1343 72.9099 87.0631 72.3568 87.5282Z" fill="white"/>
        </mask>
        <g mask="url(#mask1_3245_4326)">
            <path opacity="0.43" d="M70.8092 87.4593L73.7385 90.006L74.0203 89.6818L71.091 87.1352L70.8092 87.4593Z" fill="white"/>
        </g>
        <mask id="mask2_3245_4326" style="mask-type:luminance" maskUnits="userSpaceOnUse" x="70" y="87" width="4" height="4">
            <path d="M71.2944 88.1415C70.7413 88.6066 70.67 89.432 71.1351 89.9851C71.6003 90.5381 72.4257 90.6094 72.9787 90.1443C73.5318 89.6792 73.603 88.8538 73.1379 88.3007C72.6728 87.7477 71.8474 87.6764 71.2944 88.1415Z" fill="white"/>
        </mask>
        <g mask="url(#mask2_3245_4326)">
            <path opacity="0.43" d="M70.4323 87.919L73.3617 90.4656L73.5643 90.2326L70.6349 87.686L70.4323 87.919Z" fill="white"/>
        </g>
    </g>
    <g opacity="0.69">
        <mask id="mask3_3245_4326" style="mask-type:luminance" maskUnits="userSpaceOnUse" x="67" y="88" width="3" height="4">
            <path d="M69.0273 90.9726C69.7182 90.7607 70.1066 90.0289 69.8948 89.338C69.683 88.6471 68.9512 88.2587 68.2602 88.4705C67.5693 88.6823 67.1809 89.4142 67.3928 90.1051C67.6046 90.796 68.3364 91.1844 69.0273 90.9726Z" fill="white"/>
        </mask>
        <g mask="url(#mask3_3245_4326)">
            <path opacity="0.43" d="M68.833 91.0138C69.5477 90.9067 70.0402 90.2405 69.9331 89.5259C69.826 88.8112 69.1599 88.3187 68.4452 88.4258C67.7306 88.5329 67.2381 89.199 67.3451 89.9137C67.4522 90.6283 68.1184 91.1209 68.833 91.0138Z" fill="white"/>
        </g>
        <mask id="mask4_3245_4326" style="mask-type:luminance" maskUnits="userSpaceOnUse" x="68" y="87" width="4" height="4">
            <path d="M70.6879 88.0233C70.0783 87.6352 69.2695 87.8148 68.8814 88.4244C68.4934 89.0341 68.673 89.8428 69.2826 90.2309C69.8922 90.6189 70.7009 90.4393 71.089 89.8297C71.4771 89.2201 71.2975 88.4114 70.6879 88.0233Z" fill="white"/>
        </mask>
        <g mask="url(#mask4_3245_4326)">
            <path opacity="0.43" d="M67.5939 88.0584L70.5233 90.605L70.8051 90.2809L67.8757 87.7342L67.5939 88.0584Z" fill="white"/>
        </g>
        <mask id="mask5_3245_4326" style="mask-type:luminance" maskUnits="userSpaceOnUse" x="67" y="88" width="4" height="4">
            <path d="M69.6252 88.6366C69.0156 88.2486 68.2068 88.4282 67.8187 89.0378C67.4307 89.6474 67.6103 90.4562 68.2199 90.8442C68.8295 91.2323 69.6383 91.0527 70.0263 90.4431C70.4144 89.8335 70.2348 89.0247 69.6252 88.6366Z" fill="white"/>
        </mask>
        <g mask="url(#mask5_3245_4326)">
            <path opacity="0.43" d="M67.2168 88.5181L70.1461 91.0648L70.3487 90.8317L67.4193 88.2851L67.2168 88.5181Z" fill="white"/>
        </g>
    </g>
    <path d="M72.9516 89.8682C73.3648 89.2657 73.2113 88.4423 72.6088 88.029C72.0062 87.6158 71.1828 87.7692 70.7695 88.3717C70.3563 88.9743 70.5098 89.7977 71.1123 90.211C71.7149 90.6242 72.5383 90.4708 72.9516 89.8682Z" stroke="#402312" stroke-width="3" stroke-miterlimit="10"/>
    <path d="M69.9993 89.7948L70.5995 89.6829L70.4877 89.0827L69.8874 89.1945L69.9993 89.7948Z" fill="#402312"/>
    <path d="M67.2608 89.4854L66.6605 89.5972L66.7324 89.983C66.7324 89.983 67.1422 90.0398 67.3188 90.273L67.2608 89.4854Z" fill="#402312"/>
    <path d="M73.0059 88.4149L73.4775 88.327L73.5494 88.7129C73.5494 88.7129 73.2702 88.898 73.2171 89.1741L73.0059 88.4149Z" fill="#402312"/>
    <path d="M66.6606 89.5972L65.5783 89.5032L65.7173 89.773L66.7325 89.9832L66.6606 89.5972Z" fill="#8B6339"/>
    <path d="M69.6923 90.4313C70.1056 89.8288 69.9521 89.0053 69.3495 88.592C68.747 88.1788 67.9235 88.3323 67.5103 88.9348C67.0971 89.5373 67.2505 90.3608 67.8531 90.774C68.4557 91.1873 69.2791 91.0338 69.6923 90.4313Z" stroke="#402312" stroke-width="3" stroke-miterlimit="10"/>
    <path d="M60.569 104.806C60.569 104.806 65.1589 97.6526 65.6501 95.7693C66.1413 93.886 64.5795 80.7667 64.5795 80.7667C64.5795 80.7667 61.5714 81.1138 61.3483 82.1755L61.9216 95.6502L58.9479 99.1449C58.948 99.1449 57.8818 103.347 60.569 104.806Z" fill="#D9DDE9"/>
    <path d="M61.981 86.0742C63.4882 87.5915 64.6938 89.2849 65.5987 91.1538C65.2853 86.6953 64.5795 80.7667 64.5795 80.7667C64.5795 80.7667 61.5713 81.1138 61.3484 82.1755L61.4984 85.7013L61.981 86.0742Z" fill="#CDD0D7"/>
    <path d="M64.2898 81.293C64.2898 81.293 64.1569 79.895 64.4762 79.5142C64.7956 79.1335 64.6598 78.0021 64.3475 77.9078C64.0352 77.8136 62.4169 77.5298 62.055 77.1481C61.6931 76.7663 61.266 74.1156 61.266 74.1156C61.266 74.1156 60.7108 73.4711 60.5412 74.0333C60.5412 74.0333 60.0318 73.9195 60.0199 74.4612C60.0199 74.4612 59.7726 74.4775 59.7523 75.0469C59.7523 75.0469 59.4936 75.3021 59.6623 75.7468C59.6623 75.7468 59.6506 77.8941 59.9137 78.4278C60.1768 78.9616 62.2022 80.4814 62.2274 80.3981C62.2525 80.3148 61.8239 82.6392 61.8239 82.6392C61.8239 82.6392 63.3933 82.6583 64.2898 81.293Z" fill="#EE9E78"/>
    <path d="M120.676 74.4068L90.4917 74.7419L90.5207 77.3504L120.704 77.0153L120.676 74.4068Z" fill="#212757"/>
    <path d="M82.3823 71.1467C76.426 71.7719 48.5142 75.4361 48.5142 75.4361L48.5236 76.2892L48.5287 76.7404L48.5381 77.5935C48.5381 77.5935 76.5244 80.637 82.4931 81.1298C86.9369 81.4967 96.9386 80.0459 101.759 79.2806C103.309 79.0345 104.444 77.6891 104.427 76.1198L104.422 75.6685C104.404 74.0992 103.24 72.7793 101.684 72.5677C96.8483 71.9097 86.8169 70.6813 82.3823 71.1467Z" fill="#2F3A74"/>
    <path d="M75.581 71.9557L73.4224 74.8148C71.3711 76.8981 69.0072 78.4596 66.3315 79.5004C73.1409 80.2193 79.8981 80.9157 82.4931 81.1299C86.937 81.4968 96.9386 80.0459 101.759 79.2807C103.309 79.0346 104.444 77.6892 104.427 76.1198L104.422 75.6686C104.404 74.0992 103.24 72.7794 101.684 72.5678C96.8483 71.9098 86.8169 70.6813 82.3823 71.1468C81.0401 71.2876 78.5826 71.5829 75.581 71.9557Z" fill="#212757"/>
    <path d="M84.6751 75.8878C84.6897 77.7144 84.4748 79.4811 84.0306 81.188C88.9871 81.2054 97.5933 79.9439 101.879 79.2615C103.36 79.0257 104.445 77.7403 104.428 76.2404L104.42 75.5478C104.404 74.0479 103.291 72.787 101.804 72.5841C97.5446 72.0025 89.0318 70.9467 84.0562 71.0512C84.5133 72.592 84.7199 74.204 84.6751 75.8878Z" fill="#F1F1F2"/>
    <path d="M93.3749 80.4667C94.9815 77.9552 96.9968 75.798 99.4212 73.9953C99.9304 73.4618 100.458 72.9558 101.004 72.476C99.6033 72.2891 97.8715 72.0693 96.0094 71.8587C94.3442 75.4812 91.9909 78.5072 88.9488 80.9363C90.3842 80.8107 91.8897 80.6472 93.3749 80.4667Z" fill="#E6E7E8"/>
    <path d="M48.6194 76.518L36.3218 76.6545C36.3218 76.6545 32.8125 79.4784 34.1522 82.6552C35.4919 85.832 39.0396 86.4645 40.7109 85.942C42.3823 85.4195 48.6298 77.4559 48.6298 77.4559L48.6194 76.518Z" fill="#212757"/>
    <path d="M48.6193 76.5096L36.3217 76.6461C36.3217 76.6461 32.7506 73.9008 34.0195 70.6951C35.2883 67.4893 38.8211 66.7782 40.5036 67.2634C42.1861 67.7487 48.6089 75.5716 48.6089 75.5716L48.6193 76.5096Z" fill="#2C346B"/>
    <defs>
        <linearGradient id="paint0_linear_3245_4326" x1="146.697" y1="12.3572" x2="145.716" y2="142.478" gradientUnits="userSpaceOnUse">
            <stop stop-color="#6941C6"/>
            <stop offset="0.1207" stop-color="#C1B2E5"/>
            <stop offset="0.3345" stop-color="#CFC5E5"/>
            <stop offset="0.4334" stop-color="#6A42C6"/>
            <stop offset="0.6895" stop-color="#2A6090"/>
            <stop offset="0.88" stop-color="#2B406D"/>
            <stop offset="0.9823" stop-color="#212757"/>
        </linearGradient>
    </defs>
</svg>
