<svg width="151" height="50" viewBox="0 0 151 50" fill="none" xmlns="http://www.w3.org/2000/svg">
<path d="M24.0078 24.7125L15.9639 46.52L22.4979 49.4429L24.2982 41.9726L27.3742 42.4365L27.6118 48.6083L34.6192 45.8767L32.2048 27.1319L24.0078 24.7125ZM26.2093 38.0529C25.8468 38.1 25.4948 38.154 25.1534 38.215L26.9994 30.5118L27.237 37.8891C26.9167 37.9529 26.5771 38.0063 26.2145 38.0529H26.2093Z" fill="#6941C6"/>
<path d="M51.9668 37.4269C52.4003 36.4146 52.6102 35.3238 52.5827 34.2263C52.581 33.3501 52.4699 32.4774 52.2518 31.6276C51.9351 30.2354 51.43 29.0909 50.7367 28.1942C50.0913 27.3412 49.2782 26.6235 48.3451 26.0834C47.4423 25.5702 46.4587 25.2078 45.4345 25.0108C44.405 24.8126 43.3583 24.7127 42.3091 24.7125C41.0794 24.7038 39.8514 24.8036 38.64 25.0108C37.5184 25.212 36.5951 25.3902 35.8701 25.5454L38.4728 50L45.387 48.4635L44.6831 42.9452L45.1564 42.7607C45.2067 42.755 45.2553 42.7392 45.299 42.7141C45.3652 42.6824 45.4382 42.6664 45.5119 42.6676C45.6061 42.6621 45.6967 42.6297 45.7724 42.5744L49.6544 48.003L55.2857 44.9404L50.4041 39.7463C51.056 39.0661 51.5845 38.2817 51.9668 37.4269ZM45.9536 36.1974C45.7955 36.4854 45.5877 36.7445 45.3395 36.9631C45.0774 37.1699 44.7693 37.3134 44.4402 37.3821H43.9651L43.0658 30.3291C43.225 30.3417 43.3832 30.3648 43.5392 30.398C43.8455 30.4673 44.1353 30.5938 44.3927 30.7705C44.7684 31.0329 45.0897 31.363 45.3395 31.7431C45.7072 32.3189 45.9637 32.956 46.0962 33.6228C46.1836 34.0197 46.2313 34.4239 46.2387 34.8299C46.2387 35.4116 46.1437 35.8669 45.9536 36.1957V36.1974Z" fill="#6941C6"/>
<path d="M72.0434 32.6933L67.5929 26.987L62.1957 33.064L61.9581 24.759H55.8975L57.0818 49.3033L62.7166 49.9534L62.5265 42.6693L67.4979 49.5826L72.6118 45.5922L66.5511 38.0753L72.0434 32.6933Z" fill="#6941C6"/>
<path d="M81.8894 32.6553C81.601 32.8636 81.2516 32.9749 80.8934 32.9726C80.3766 32.9518 79.8608 33.0328 79.3765 33.2106C78.9038 33.3996 78.4734 33.6773 78.1094 34.028C77.9222 34.2077 77.6972 34.3453 77.4502 34.4311C77.2031 34.517 76.94 34.549 76.679 34.5251C76.418 34.5011 76.1655 34.4217 75.9391 34.2924C75.7126 34.163 75.5176 33.9869 75.3677 33.7762C75.2523 33.6186 75.1631 33.444 75.1037 33.2589L74.0303 49.6205L79.9977 48.879L82.405 32.1069C82.2744 32.3232 82.0987 32.5101 81.8894 32.6553Z" fill="#6941C6"/>
<path d="M83.0879 27.2423C83.1116 27.4536 83.1169 27.6665 83.1038 27.8786C83.0776 28.1377 82.9826 28.3855 82.8282 28.5973C82.6738 28.8091 82.4655 28.9775 82.2239 29.0858C81.9375 29.22 81.6086 29.2382 81.3085 29.1366C81.0085 29.0349 80.7614 28.8215 80.6207 28.5426C80.4436 28.199 80.3981 27.8046 80.4923 27.4309C80.5866 27.0572 80.8145 26.7291 81.1346 26.506C81.2722 26.406 81.4298 26.3357 81.5971 26.2996C81.7644 26.2636 81.9376 26.2626 82.1053 26.2968C82.273 26.331 82.4314 26.3996 82.5701 26.4981C82.7088 26.5965 82.8247 26.7226 82.9102 26.8681C82.9222 26.8843 82.9358 26.8993 82.9507 26.9129L83.0879 27.2423Z" fill="#C6AC41"/>
<path d="M79.2659 32.7709C78.8407 32.9399 78.4538 33.1896 78.1273 33.5055C77.9589 33.6668 77.7567 33.7902 77.5348 33.8672C77.3129 33.9442 77.0765 33.9729 76.8421 33.9514C76.6077 33.9299 76.3808 33.8587 76.1773 33.7427C75.9738 33.6267 75.7985 33.4687 75.6636 33.2796C75.5439 33.1267 75.4573 32.9515 75.4089 32.7647C75.3605 32.578 75.3513 32.3835 75.382 32.1932C75.5263 31.393 75.6513 30.586 75.8712 29.8048C76.1493 28.8219 76.8514 28.2252 77.8791 28.0303C78.2176 27.9649 78.5662 27.9693 78.9029 28.0432C79.2395 28.1171 79.5567 28.259 79.8343 28.4597C80.4033 28.8529 80.9681 29.2507 81.5289 29.6531C81.7435 29.7997 81.9187 29.995 82.0397 30.2223C82.1607 30.4496 82.2239 30.7021 82.2239 30.9585C82.2239 31.2148 82.1607 31.4674 82.0397 31.6947C81.9187 31.9219 81.7435 32.1172 81.5289 32.2639C81.2698 32.4502 80.9564 32.5499 80.635 32.5484C80.168 32.5317 79.7023 32.6073 79.2659 32.7709Z" fill="#C6AC41"/>
<path d="M76.4834 28.2736C75.9871 28.446 75.4697 28.3098 75.0104 27.9287C74.7112 27.6734 74.4992 27.3342 74.4032 26.957C74.3072 26.5798 74.3318 26.1828 74.4737 25.8197C74.5451 25.6329 74.6571 25.4635 74.8018 25.3232C74.9465 25.1829 75.1205 25.075 75.3119 25.007C75.5033 24.9389 75.7074 24.9124 75.9103 24.9291C76.1131 24.9459 76.3098 25.0056 76.4869 25.104C76.9046 25.327 77.2239 25.6928 77.3839 26.1317C77.5439 26.5707 77.5335 27.052 77.3544 27.4838C77.2736 27.6678 77.1544 27.8331 77.0043 27.9692C76.8543 28.1052 76.6768 28.2089 76.4834 28.2736Z" fill="#C6AC41"/>
<path d="M80.4033 25.3712C80.6303 26.0231 80.6022 26.5697 80.2502 27.0716C79.7223 27.8269 78.7438 27.8769 78.1244 27.1906C77.8503 26.874 77.7012 26.4716 77.7041 26.0564C77.707 25.6413 77.8618 25.2409 78.1402 24.9281C78.2631 24.7926 78.4141 24.6845 78.5831 24.6109C78.7521 24.5372 78.9352 24.4998 79.1201 24.5011C79.305 24.5024 79.4876 24.5424 79.6554 24.6184C79.8233 24.6944 79.9727 24.8047 80.0936 24.9419C80.2073 25.0775 80.3108 25.221 80.4033 25.3712Z" fill="#C6AC41"/>
<path d="M75.3105 28.8547C75.4741 29.303 75.4759 29.7393 75.182 30.1342C74.8476 30.5826 74.376 30.6981 73.8393 30.586C73.4897 30.4994 73.1784 30.3033 72.9529 30.0276C72.7274 29.7518 72.5999 29.4114 72.5898 29.0582C72.5898 28.1959 73.3782 27.6338 74.2458 27.8924C74.4862 27.9631 74.707 28.0864 74.8914 28.2532C75.0759 28.4199 75.2192 28.6256 75.3105 28.8547Z" fill="#C6AC41"/>
<path d="M35.5988 14.7814C35.477 13.7569 35.1157 12.7738 34.5429 11.9084C34.4724 11.81 34.4134 11.7042 34.367 11.5929C34.3032 11.4193 34.2028 11.2608 34.0724 11.1277C33.9421 10.9946 33.7846 10.8899 33.6103 10.8203C32.8676 10.5254 32.1039 10.2702 31.3648 9.98222C28.9609 9.05446 26.9178 8.32329 25.2056 6.36086C23.4933 4.39843 22.1242 2.61534 19.6729 1.56859C17.767 0.754644 15.8013 0.163155 13.7107 0.0165759C9.70549 -0.242093 6.46223 2.56878 4.19564 5.50208C1.78415 8.62582 0.485833 12.439 0.500117 16.3558C0.519474 18.4528 1.21635 20.7118 1.87626 22.6949C4.15341 29.5341 6.46223 36.3595 8.7165 43.2056C9.12946 44.4576 9.54007 45.7096 9.94834 46.9615L10.1507 47.5668C10.471 48.4739 11.189 48.4687 11.4987 47.5478C14.2299 39.4739 16.8695 31.369 19.5215 23.2692C19.7133 22.6846 19.9333 22.0621 20.4384 21.6965C20.9153 21.3516 21.547 21.3136 22.1383 21.3102C24.0318 21.2964 25.9236 21.5016 27.8136 21.4309C29.7036 21.3602 31.6446 20.986 33.2055 19.9341C34.0558 19.38 34.7306 18.6036 35.1536 17.6929C35.5766 16.7822 35.7309 15.7736 35.5988 14.7814Z" fill="#C6AC41"/>
<path d="M16.8284 21.1998C16.6524 21.4567 15.5825 22.9363 15.403 23.1656C14.4668 24.3641 13.2384 25.0522 11.6863 25.1039C10.2099 25.1539 8.88476 24.6763 7.67932 23.8692C6.35069 22.9794 5.40745 21.7688 4.73346 20.3548C3.69994 18.1666 3.29765 15.7429 3.57025 13.3466C3.71103 11.967 4.05771 10.6288 4.80209 9.43205C5.38633 8.50084 6.00577 7.58688 6.62873 6.67292C7.23963 5.75418 7.96431 4.91314 8.78622 4.169C9.47082 3.55077 10.2796 3.07943 11.1608 2.78515C12.042 2.49088 12.9762 2.38015 13.9036 2.46006C15.5508 2.57043 17.1047 3.03776 18.6075 3.67926C19.6749 4.10475 20.6355 4.75191 21.4231 5.57616C21.9159 6.11247 22.3611 6.69361 22.8011 7.27303C23.4557 8.13526 24.2194 8.8647 25.2366 9.29237C26.0936 9.65278 26.9647 9.98215 27.8322 10.3184C28.42 10.5443 29.0183 10.7461 29.6026 10.9789C29.7463 11.0356 29.8755 11.1227 29.981 11.2338C30.0866 11.345 30.1658 11.4776 30.2132 11.6221C30.2254 11.6606 30.2432 11.6972 30.266 11.7308C30.7506 12.4417 31.0524 13.257 31.1459 14.1071C31.4028 15.9143 30.7359 17.3025 29.145 18.2561C28.2534 18.7617 27.2715 19.0959 26.252 19.2408C24.9498 19.4489 23.6261 19.4964 22.3118 19.3822C21.3193 19.3063 20.3286 19.2839 19.3484 19.4977C18.2749 19.734 17.3968 20.2565 16.8196 21.198" fill="#6941C6"/>
<path d="M16.8284 21.1998C16.6524 21.4567 15.5825 22.9363 15.403 23.1656C14.4668 24.3641 13.2384 25.0522 11.6863 25.1039C10.2099 25.1539 8.88476 24.6763 7.67932 23.8692C6.35069 22.9794 5.40745 21.7688 4.73346 20.3548C3.69994 18.1666 3.29765 15.7429 3.57025 13.3466C3.71103 11.967 4.05771 10.6288 4.80209 9.43205C5.38633 8.50084 6.00577 7.58688 6.62873 6.67292C7.23963 5.75418 7.96431 4.91314 8.78622 4.169C9.47082 3.55077 10.2796 3.07943 11.1608 2.78515C12.042 2.49088 12.9762 2.38015 13.9036 2.46006C15.5508 2.57043 17.1047 3.03776 18.6075 3.67926C19.6749 4.10475 20.6355 4.75191 21.4231 5.57616C21.9159 6.11247 22.3611 6.69361 22.8011 7.27303C23.4557 8.13526 24.2194 8.8647 25.2366 9.29237C26.0936 9.65278 26.9647 9.98215 27.8322 10.3184C28.42 10.5443 29.0183 10.7461 29.6026 10.9789C29.7463 11.0356 29.8755 11.1227 29.981 11.2338C30.0866 11.345 30.1658 11.4776 30.2132 11.6221C30.2254 11.6606 30.2432 11.6972 30.266 11.7308C30.7506 12.4417 31.0524 13.257 31.1459 14.1071C31.4028 15.9143 30.7359 17.3025 29.145 18.2561C28.2534 18.7617 27.2715 19.0959 26.252 19.2408C24.9498 19.4489 23.6261 19.4964 22.3118 19.3822C21.3193 19.3063 20.3286 19.2839 19.3484 19.4977C18.2749 19.734 17.3968 20.2565 16.8196 21.198" stroke="white" stroke-miterlimit="10"/>
<path d="M15.8676 22.6174C15.6916 22.8778 15.5297 23.1347 15.3397 23.3606C14.3894 24.5677 13.1435 25.2748 11.5702 25.3265C10.0727 25.3765 8.72995 24.8919 7.50691 24.0745C6.16069 23.1726 5.20337 21.9448 4.5153 20.5101C3.47118 18.2902 3.06767 15.8324 3.34857 13.4036C3.49111 11.9981 3.84306 10.6444 4.60504 9.43732C5.19809 8.49232 5.82457 7.56629 6.45809 6.64543C7.07713 5.71275 7.81188 4.85895 8.64548 4.10357C9.34044 3.4781 10.161 3.00166 11.0546 2.70472C11.9482 2.40778 12.8952 2.29688 13.8351 2.37911C15.5051 2.4912 17.0801 2.96543 18.604 3.61555C19.6846 4.04313 20.6583 4.69429 21.4584 5.52453C21.9582 6.06773 22.4104 6.6575 22.8557 7.24899C23.5191 8.12156 24.2934 8.86135 25.3193 9.29592C26.1887 9.6615 27.0791 9.99605 27.959 10.3306C28.5556 10.5617 29.1609 10.7652 29.7557 11.0014C29.9009 11.0595 30.0314 11.1479 30.1381 11.2604C30.2448 11.373 30.3251 11.5071 30.3734 11.6533C30.3869 11.6921 30.4052 11.7292 30.428 11.7636C30.9206 12.4858 31.2274 13.3141 31.3219 14.1779C31.5753 16.0127 30.9049 17.4233 29.2876 18.3873C28.3832 18.9007 27.3868 19.2396 26.3523 19.3857C25.0321 19.5968 23.6902 19.6455 22.3576 19.5306C21.351 19.453 20.3462 19.4288 19.3519 19.6478C18.2644 19.8858 17.3757 20.4135 16.7897 21.3723M17.3176 20.2307C18.0673 19.5789 18.9877 19.315 19.9573 19.196C20.8741 19.0788 21.7875 19.1478 22.7026 19.2047C24.0665 19.3076 25.4385 19.2223 26.7782 18.9512C27.8728 18.7166 28.9075 18.3459 29.7698 17.613C30.6796 16.8387 31.0615 15.8454 31.0016 14.6814C30.9734 14.1712 30.8745 13.667 30.7078 13.1828C30.7255 13.4982 30.7255 13.8142 30.7078 14.1296C30.6772 14.414 30.6036 14.6924 30.4896 14.9556C30.4194 15.1121 30.2971 15.2406 30.1427 15.3202C29.9883 15.3997 29.8109 15.4256 29.6396 15.3936C28.9902 15.3195 28.4746 14.9694 28.0153 14.5503C27.7942 14.3546 27.6171 14.1158 27.4953 13.8492C27.3736 13.5827 27.3098 13.2942 27.3082 13.0021C27.3065 12.7101 27.367 12.4209 27.4857 12.153C27.6044 11.8852 27.7788 11.6445 27.9977 11.4463C28.2252 11.2692 28.4691 11.1133 28.7263 10.9807C28.2423 10.8083 27.7214 10.6358 27.2093 10.441C26.5406 10.184 25.8737 9.92362 25.2155 9.63564C24.0699 9.14934 23.2164 8.32677 22.4879 7.35245C22.0679 6.78109 21.6174 6.23194 21.1381 5.70732C20.4422 4.98839 19.6039 4.41625 18.6744 4.02597C17.1736 3.32432 15.559 2.88544 13.9037 2.72918C11.792 2.55673 9.99875 3.24652 8.50998 4.71403C7.6495 5.6065 6.88305 6.58173 6.22228 7.62492C5.77001 8.30435 5.30895 8.97862 4.88485 9.67358C4.18094 10.8238 3.85714 12.0878 3.7146 13.4157C3.49377 15.385 3.72588 17.3778 4.39387 19.2478C4.97812 20.8826 5.86504 22.3294 7.25526 23.4365C8.39208 24.3401 9.68375 24.9005 11.1584 24.9695C12.883 25.0488 14.2275 24.3349 15.2059 22.964C16.0963 21.6997 16.51 20.1713 16.3762 18.6408C16.3391 17.7085 16.0552 16.8016 15.5526 16.0092C15.2875 15.6119 14.9795 15.2436 14.634 14.9108C13.1689 13.5003 12.095 11.7471 11.5139 9.81671C11.2893 9.07775 11.154 8.31549 11.1109 7.54559C11.1109 7.48179 11.1109 7.41798 11.1109 7.35245C11.1109 7.23347 11.169 7.15587 11.2869 7.15931C11.4048 7.16276 11.4629 7.24899 11.4629 7.3628C11.4629 7.44385 11.4629 7.53525 11.4734 7.60767C11.6613 9.94472 12.6135 12.16 14.1888 13.9244C14.4985 14.2813 14.8452 14.6141 15.176 14.9487C15.8859 15.6899 16.3731 16.609 16.5838 17.6044C16.8419 18.7626 16.8062 19.9651 16.48 21.1067C16.48 21.1223 16.48 21.1395 16.48 21.1223C16.7446 20.81 17.0253 20.5113 17.3212 20.2273L17.3176 20.2307ZM30.1517 12.2103C30.1161 12.05 30.0439 11.8998 29.9406 11.7708C29.8373 11.6418 29.7056 11.5374 29.5552 11.4654C29.4049 11.3933 29.2399 11.3556 29.0725 11.355C28.9052 11.3544 28.7399 11.3909 28.589 11.4618C27.7848 11.8447 27.4187 12.9449 27.8464 13.7519C28.1983 14.4227 28.8037 14.8056 29.5164 15.0211C29.893 15.1349 30.12 14.997 30.2537 14.6279C30.4033 14.2192 30.3734 13.795 30.3488 13.3725C30.34 13.2277 30.3083 13.0828 30.2872 12.9363H30.3048C30.2573 12.6897 30.208 12.4482 30.1552 12.2068L30.1517 12.2103Z" fill="white"/>
<path d="M15.8676 22.6174C15.6916 22.8778 15.5297 23.1347 15.3397 23.3606C14.3894 24.5677 13.1435 25.2748 11.5702 25.3265C10.0727 25.3765 8.72995 24.8919 7.50691 24.0745C6.16069 23.1726 5.20337 21.9448 4.5153 20.5101C3.47118 18.2902 3.06767 15.8324 3.34857 13.4036C3.49111 11.9981 3.84306 10.6444 4.60504 9.43732C5.19809 8.49232 5.82457 7.56629 6.45809 6.64543C7.07713 5.71275 7.81188 4.85895 8.64548 4.10357C9.34044 3.4781 10.161 3.00166 11.0546 2.70472C11.9482 2.40778 12.8952 2.29688 13.8351 2.37911C15.5051 2.4912 17.0801 2.96543 18.604 3.61555C19.6846 4.04313 20.6583 4.69429 21.4584 5.52453C21.9582 6.06773 22.4104 6.6575 22.8557 7.24899C23.5191 8.12156 24.2934 8.86135 25.3193 9.29592C26.1887 9.6615 27.0791 9.99605 27.959 10.3306C28.5556 10.5617 29.1609 10.7652 29.7557 11.0014C29.9009 11.0595 30.0314 11.1479 30.1381 11.2604C30.2448 11.373 30.3251 11.5071 30.3734 11.6533C30.3869 11.6921 30.4052 11.7292 30.428 11.7636C30.9206 12.4858 31.2274 13.3141 31.3219 14.1779C31.5753 16.0127 30.9049 17.4233 29.2876 18.3873C28.3832 18.9007 27.3868 19.2396 26.3523 19.3857C25.0321 19.5968 23.6902 19.6455 22.3576 19.5306C21.351 19.453 20.3462 19.4288 19.3519 19.6478C18.2644 19.8858 17.3757 20.4135 16.7897 21.3723M17.3176 20.2307C18.0673 19.5789 18.9877 19.315 19.9573 19.196C20.8741 19.0788 21.7875 19.1478 22.7026 19.2047C24.0665 19.3076 25.4385 19.2223 26.7782 18.9512C27.8728 18.7166 28.9075 18.3459 29.7698 17.613C30.6796 16.8387 31.0615 15.8454 31.0016 14.6814C30.9734 14.1712 30.8745 13.667 30.7078 13.1828C30.7255 13.4982 30.7255 13.8142 30.7078 14.1296C30.6772 14.414 30.6036 14.6924 30.4896 14.9556C30.4194 15.1121 30.2971 15.2406 30.1427 15.3202C29.9883 15.3997 29.8109 15.4256 29.6396 15.3936C28.9902 15.3195 28.4746 14.9694 28.0153 14.5503C27.7942 14.3546 27.6171 14.1158 27.4953 13.8492C27.3736 13.5827 27.3098 13.2942 27.3082 13.0021C27.3065 12.7101 27.367 12.4209 27.4857 12.153C27.6044 11.8852 27.7788 11.6445 27.9977 11.4463C28.2252 11.2692 28.4691 11.1133 28.7263 10.9807C28.2423 10.8083 27.7214 10.6358 27.2093 10.441C26.5406 10.184 25.8737 9.92362 25.2155 9.63564C24.0699 9.14934 23.2164 8.32677 22.4879 7.35245C22.0679 6.78109 21.6174 6.23194 21.1381 5.70732C20.4422 4.98839 19.6039 4.41625 18.6744 4.02597C17.1736 3.32432 15.559 2.88544 13.9037 2.72918C11.792 2.55673 9.99875 3.24652 8.50998 4.71403C7.64949 5.6065 6.88305 6.58173 6.22228 7.62492C5.77001 8.30435 5.30895 8.97862 4.88485 9.67358C4.18094 10.8238 3.85714 12.0878 3.7146 13.4157C3.49377 15.385 3.72588 17.3778 4.39387 19.2478C4.97812 20.8826 5.86504 22.3294 7.25526 23.4365C8.39208 24.3401 9.68375 24.9005 11.1584 24.9695C12.883 25.0488 14.2275 24.3349 15.2059 22.964C16.0963 21.6997 16.51 20.1713 16.3762 18.6408C16.3391 17.7085 16.0552 16.8016 15.5526 16.0092C15.2875 15.6119 14.9795 15.2436 14.634 14.9108C13.1689 13.5003 12.095 11.7471 11.5139 9.81671C11.2893 9.07775 11.154 8.31549 11.1109 7.54559C11.1109 7.48179 11.1109 7.41798 11.1109 7.35245C11.1109 7.23347 11.169 7.15587 11.2869 7.15931C11.4048 7.16276 11.4629 7.24899 11.4629 7.3628C11.4629 7.44385 11.4629 7.53525 11.4734 7.60767C11.6613 9.94472 12.6135 12.16 14.1888 13.9244C14.4985 14.2813 14.8452 14.6141 15.176 14.9487C15.8859 15.6899 16.3731 16.609 16.5838 17.6044C16.8419 18.7626 16.8062 19.9651 16.48 21.1067C16.48 21.1223 16.48 21.1395 16.48 21.1223C16.7446 20.81 17.0253 20.5113 17.3212 20.2273L17.3176 20.2307ZM30.1517 12.2103C30.1161 12.05 30.0439 11.8998 29.9406 11.7708C29.8373 11.6418 29.7056 11.5374 29.5552 11.4654C29.4049 11.3933 29.2399 11.3556 29.0725 11.355C28.9052 11.3544 28.7399 11.3909 28.589 11.4618C27.7848 11.8447 27.4187 12.9449 27.8464 13.7519C28.1983 14.4227 28.8037 14.8056 29.5164 15.0211C29.893 15.1349 30.12 14.997 30.2537 14.6279C30.4033 14.2192 30.3734 13.795 30.3488 13.3725C30.34 13.2277 30.3083 13.0828 30.2872 12.9363H30.3048C30.2573 12.6897 30.208 12.4482 30.1552 12.2068L30.1517 12.2103Z" stroke="white" stroke-miterlimit="10"/>
<path d="M30.3078 12.9397C30.2568 12.6983 30.2075 12.4569 30.1547 12.2155C30.1191 12.0552 30.047 11.905 29.9437 11.776C29.8404 11.647 29.7086 11.5426 29.5583 11.4706C29.4079 11.3986 29.2429 11.3608 29.0756 11.3602C28.9082 11.3596 28.7429 11.3961 28.592 11.4671C27.7878 11.8499 27.4218 12.9501 27.8494 13.7571C28.2014 14.428 28.8067 14.8108 29.5194 15.0263C29.896 15.1402 30.123 15.0022 30.2568 14.6332C30.4064 14.2245 30.3765 13.8002 30.3518 13.3778C30.343 13.2329 30.3113 13.088 30.2902 12.9415L30.3078 12.9397Z" fill="#6941C6" stroke="white" stroke-miterlimit="10"/>
<path d="M19.5947 7.64211C19.3411 7.67758 19.0983 7.76637 18.8829 7.9024C18.6676 8.03842 18.4848 8.21847 18.3471 8.43019C18.2061 8.64165 18.0769 8.8604 17.9599 9.08548C17.9427 9.10605 17.9305 9.13025 17.9244 9.15618C17.9183 9.18212 17.9184 9.20908 17.9247 9.23497C17.931 9.26086 17.9434 9.28497 17.9608 9.3054C17.9782 9.32584 18.0002 9.34205 18.025 9.35277C18.1517 9.41485 18.2204 9.33725 18.282 9.23551C18.4172 8.99287 18.5665 8.75797 18.7289 8.53193C18.8941 8.29343 19.1383 8.11819 19.4202 8.03586C19.7021 7.95352 20.0043 7.96916 20.2758 8.08012C20.6928 8.23322 21.0701 8.47464 21.3809 8.78715C21.4742 8.87337 21.5674 8.9596 21.6871 8.84751C21.8068 8.73542 21.7293 8.62333 21.6308 8.53193C21.124 8.06633 20.5749 7.69039 19.8464 7.63694C19.7625 7.63364 19.6784 7.63537 19.5947 7.64211Z" fill="white" stroke="white" stroke-miterlimit="10"/>
<path d="M15.6494 22.9415C16.1034 22.2517 16.7299 21.5016 16.9833 21.0894L15.6494 22.9415Z" fill="#6941C6"/>
<path d="M15.6494 22.9415C16.1034 22.2517 16.7299 21.5016 16.9833 21.0894" stroke="white" stroke-miterlimit="10"/>
<path d="M91.8459 18.5872C92.4466 18.5872 93.2989 18.6263 94.4029 18.7045C95.6154 18.798 96.8187 18.9843 98.0016 19.2615C99.3593 19.5765 100.683 20.0189 101.954 20.5824C103.316 21.184 104.559 22.0164 105.625 23.0415C106.782 24.1715 107.699 25.5149 108.323 26.994C109.018 28.5724 109.366 30.49 109.364 32.7467C109.38 34.2934 109.203 35.8362 108.837 37.3407C108.528 38.6005 108.075 39.8222 107.487 40.9828C106.979 41.9859 106.342 42.9217 105.593 43.7678C104.924 44.5206 104.187 45.2131 103.392 45.8371C101.633 47.2085 99.601 48.2041 97.4262 48.7601L91.3655 46.4407L87.2529 22.5311L91.8459 18.5872ZM97.1974 40.4447C98.072 40.0579 98.8601 39.5059 99.5168 38.8203C100.184 38.1022 100.735 37.288 101.15 36.4061C101.639 35.4162 101.884 34.1482 101.884 32.6019C101.908 31.656 101.728 30.7158 101.356 29.8428C101.057 29.1551 100.623 28.5321 100.078 28.0097C99.5955 27.562 99.024 27.2163 98.3993 26.994C97.8615 26.7928 97.2925 26.6831 96.717 26.6698C96.3708 26.6642 96.0264 26.7191 95.6998 26.8319C95.4253 26.9215 95.1857 27.092 95.0135 27.3199L97.1974 40.4447Z" fill="#6941C6"/>
<path d="M120.584 25.0367C121.885 25.0055 123.171 25.3246 124.3 25.9593C125.363 26.5837 126.263 27.4414 126.929 28.4649C127.647 29.5736 128.174 30.7899 128.49 32.0656C128.843 33.4385 129.02 34.8489 129.018 36.2646C129.018 37.9406 128.795 39.6095 128.357 41.2294C127.947 42.7962 127.275 44.2856 126.368 45.6371C125.514 46.9072 124.392 47.9833 123.077 48.7928C121.766 49.5976 120.24 50 118.502 50C117.112 50 115.92 49.7373 114.926 49.2119C113.946 48.6987 113.109 47.958 112.489 47.0546C111.834 46.0928 111.361 45.024 111.091 43.8988C110.785 42.6609 110.634 41.3909 110.641 40.1171C110.649 38.3303 110.895 36.5521 111.375 34.8282C111.828 33.1223 112.513 31.4838 113.411 29.9566C114.206 28.5848 115.268 27.3791 116.536 26.4076C117.688 25.5154 119.115 25.0322 120.584 25.0367ZM119.589 43.316C119.824 43.3157 120.055 43.2658 120.267 43.1697C120.48 43.0735 120.669 42.9334 120.821 42.759C121.198 42.3387 121.488 41.8501 121.673 41.3208C121.91 40.667 122.077 39.9908 122.171 39.3031C122.281 38.5422 122.336 37.7747 122.336 37.0062C122.338 36.2848 122.29 35.5641 122.194 34.8489C122.114 34.2198 121.979 33.5986 121.793 32.9916C121.656 32.5304 121.449 32.0925 121.177 31.6931C120.942 31.3689 120.666 31.2068 120.348 31.2068C120.03 31.2068 119.714 31.4695 119.401 31.9949C119.037 32.6324 118.751 33.3096 118.548 34.0125C118.28 34.8957 118.075 35.7956 117.932 36.7061C117.777 37.6343 117.698 38.573 117.694 39.5135C117.672 40.4279 117.816 41.3389 118.12 42.2037C118.406 42.9475 118.896 43.3188 119.589 43.3177V43.316Z" fill="#6941C6"/>
<path d="M145.016 31.4862C144.369 31.5005 143.722 31.5471 143.08 31.6259C142.192 31.7264 141.327 31.9675 140.518 32.3398C139.643 32.7446 138.874 33.3397 138.269 34.0798C137.617 34.8558 137.29 35.9089 137.29 37.239C137.29 38.2306 137.433 39.0256 137.718 39.6291C137.96 40.1792 138.333 40.6646 138.806 41.0449C139.23 41.3749 139.723 41.6103 140.25 41.7347C140.738 41.8548 141.239 41.9173 141.743 41.9209C142.22 41.9304 142.697 41.8835 143.163 41.7813C143.372 41.7536 143.578 41.7068 143.779 41.6416L142.878 36.8131L148.417 35.8388L150.501 47.91L145.246 49.5327L144.488 46.796C144.114 47.2207 143.684 47.5953 143.21 47.91C142.684 48.2253 142.119 48.4745 141.53 48.6515C140.739 48.8837 139.916 48.9931 139.091 48.9757C138.094 48.9658 137.113 48.7297 136.226 48.2859C135.201 47.7709 134.31 47.033 133.621 46.1286C132.849 45.1549 132.21 43.9173 131.705 42.4159C131.199 40.9144 130.949 39.1273 130.955 37.0545C130.955 35.0128 131.287 33.2573 131.949 31.788C132.571 30.3759 133.548 29.1416 134.79 28.2011C136.019 27.2734 137.534 26.5928 139.333 26.1594C141.336 25.7041 143.386 25.4859 145.442 25.5093V31.4949L145.016 31.4862Z" fill="#6941C6"/>
</svg>
