<svg width="87" height="87" viewBox="0 0 87 87" fill="none" xmlns="http://www.w3.org/2000/svg">
<path d="M86.5 43.3119C86.5 56.8476 80.2482 68.9179 70.4781 76.7922C69.102 77.9027 67.6587 78.9267 66.1522 79.8617C63.796 81.3312 61.2834 82.5726 58.6509 83.5634C53.94 85.3393 48.8321 86.3115 43.5001 86.3115C38.0673 86.3115 32.8698 85.3057 28.0835 83.4628C25.5335 82.4832 23.0994 81.2678 20.8073 79.8393C19.188 78.8334 17.6403 77.7196 16.1743 76.5114C6.60228 68.6297 0.5 56.6831 0.5 43.3119C0.5 19.5647 19.7528 0.312012 43.5001 0.312012C67.2474 0.312012 86.5 19.5647 86.5 43.3119Z" fill="#896FD9"/>
<path d="M35.2063 42.1995C35.2063 44.2166 33.6431 45.8512 31.7149 45.8512C29.7864 45.8512 27.6748 43.4444 27.6748 41.4275C27.6748 39.4106 28.37 38.5466 30.298 38.5466C32.2267 38.5464 35.2063 40.1826 35.2063 42.1995Z" fill="#DE7F61"/>
<path d="M52.2842 42.1995C52.2842 44.2166 53.8474 45.8512 55.7752 45.8512C57.7046 45.8512 59.8169 43.4444 59.8169 41.4275C59.8169 39.4106 59.121 38.5466 57.1935 38.5466C55.2643 38.5464 52.2842 40.1826 52.2842 42.1995Z" fill="#DE7F61"/>
<path d="M47.7457 52.7195H38.9492V67.6296H47.7457V52.7195Z" fill="#DE7F61"/>
<path d="M70.4776 76.7927C69.1015 77.9032 67.6582 78.9272 66.1517 79.8622C63.7955 81.3317 61.2829 82.5731 58.6504 83.5639C53.9395 85.3398 48.8316 86.312 43.4996 86.312C38.0668 86.312 32.8693 85.3062 28.083 83.4633C25.533 82.4837 23.0988 81.2683 20.8068 79.8398C19.1875 78.8339 17.6398 77.7201 16.1738 76.5119C18.1481 72.9265 20.2942 69.5087 21.3976 69.2321C24.8411 68.3832 38.9489 63.7619 38.9489 63.7619C38.9489 63.7619 47.6913 64.0838 47.7435 64.1054C47.7473 64.1054 62.3522 68.0136 65.4708 69.2321C66.9181 69.7964 69.0004 73.6705 70.4776 76.7927Z" fill="#F2D352"/>
<path d="M57.6559 36.3872C57.6559 46.5855 51.4714 57.0148 43.8426 57.0148C36.2133 57.0148 30.0283 46.5855 30.0283 36.3872C30.0283 26.1877 36.2131 20.0804 43.8426 20.0804C51.4714 20.0802 57.6559 26.1877 57.6559 36.3872Z" fill="#FD9E80"/>
<path d="M46.974 16.994C40.7749 14.7825 32.3276 18.1536 29.2267 24.6325C27.6751 27.8749 30.7479 42.5094 30.7479 42.5094L31.2848 41.4278C32.8164 37.8264 33.025 29.2166 35.2066 27.6548C38.0921 25.0574 41.0076 26.4787 43.3473 27.3844C48.2597 29.2876 51.1914 27.9509 51.1914 27.9509L53.9188 24.247C52.9925 18.7944 46.9771 16.995 46.974 16.994Z" fill="#A16451"/>
<path d="M51.0366 26.8192C51.0366 26.8192 50.8437 30.3845 53.378 31.9215C57.1567 34.2129 55.017 42.9183 56.838 42.9183C56.838 42.9183 60.8628 28.9806 57.9301 25.8422C54.9984 22.7038 51.6028 24.093 51.6028 24.093L51.0347 26.6652L51.0366 26.8192Z" fill="#A16451"/>
<path d="M47.766 64.1127C47.766 65.0292 45.822 65.7718 43.4239 65.7718C41.0258 65.7718 38.9492 64.6785 38.9492 63.762C38.9492 62.8451 41.0258 62.4532 43.4239 62.4532C45.822 62.4532 47.766 63.1965 47.766 64.1127Z" fill="#DE7F61"/>
</svg>
