<svg width="121" height="121" viewBox="0 0 121 121" fill="none" xmlns="http://www.w3.org/2000/svg">
<path d="M93.3929 21.4892H102.509V18.8036H93.3929V21.4892Z" fill="#EBEBEB"/>
<path d="M98.4783 15.4174C99.997 15.3929 103.828 15.3324 105.296 15.3175L107.594 15.3072L107.704 15.3067L107.704 15.4171L107.714 18.1027L107.715 18.223L107.594 18.2225L103.037 18.2059C101.902 18.1961 99.6135 18.1723 98.4788 18.1567L98.4238 18.156L98.4248 18.1027L98.4783 15.4174ZM98.4783 15.4174L98.5323 18.103L98.4783 18.049C99.6154 18.0331 101.9 18.0094 103.036 17.9998L107.594 17.9832L107.474 18.103L107.484 15.4174L107.594 15.5273L105.334 15.517C103.889 15.5021 99.973 15.4411 98.4783 15.4174Z" fill="#EBEBEB"/>
<path d="M88.3076 15.4174C89.8264 15.3929 93.6577 15.3324 95.1256 15.3175L97.4236 15.3072L97.5332 15.3067L97.5337 15.4171L97.5436 18.1027L97.544 18.223L97.4238 18.2225L92.866 18.2059C91.7312 18.1961 89.4428 18.1723 88.3081 18.1567L88.2529 18.156L88.2541 18.1027L88.3076 15.4174ZM88.3076 15.4174L88.3617 18.103L88.3076 18.049C89.4448 18.0331 91.7288 18.0094 92.8655 17.9998L97.4233 17.9832L97.3036 18.103L97.3134 15.4174L97.4233 15.5273L95.1635 15.517C93.7187 15.5021 89.8024 15.4411 88.3076 15.4174Z" fill="#EBEBEB"/>
<path d="M13.906 15.1774C15.4248 15.1529 19.2561 15.0924 20.724 15.0775L23.022 15.0672L23.1316 15.0667L23.1321 15.1771L23.142 17.8627L23.1424 17.983L23.0222 17.9825L18.4644 17.9659C17.3296 17.9561 15.0412 17.9323 13.9065 17.9167L13.8516 17.916L13.8528 17.8627L13.906 15.1774ZM13.906 15.1774L13.96 17.863L13.906 17.809C15.0432 17.7931 17.3272 17.7694 18.4639 17.7598L23.0217 17.7432L22.902 17.863L22.9118 15.1774L23.0217 15.2873L20.7619 15.277C19.3168 15.2621 15.4008 15.2011 13.906 15.1774Z" fill="#EBEBEB"/>
<path d="M18.9915 99.7145H28.1074V97.0289H18.9915V99.7145Z" fill="#EBEBEB"/>
<path d="M13.906 93.6427C15.4248 93.6183 19.2561 93.5576 20.724 93.5429L23.022 93.5328L23.1316 93.5323L23.1321 93.6427L23.142 96.3283L23.1424 96.4486L23.0222 96.4481L18.4644 96.4315C17.3296 96.4217 15.0412 96.3979 13.9065 96.3823L13.8516 96.3816L13.8528 96.3283L13.906 93.6427ZM13.906 93.6427L13.96 96.3283L13.906 96.2743C15.0432 96.2585 17.3272 96.2347 18.4639 96.2251L23.0217 96.2086L22.902 96.3283L22.9118 93.6427L23.0217 93.7527L20.7619 93.7426C19.3168 93.7275 15.4008 93.6665 13.906 93.6427Z" fill="#EBEBEB"/>
<path d="M98.4783 97.2663C99.997 97.2418 103.828 97.1813 105.296 97.1664L107.594 97.1561L107.704 97.1556L107.704 97.266L107.714 99.9516L107.715 100.072L107.594 100.071L103.037 100.055C101.902 100.045 99.6135 100.021 98.4788 100.006L98.4238 100.005L98.4248 99.9516L98.4783 97.2663ZM98.4783 97.2663L98.5323 99.9519L98.4783 99.8979C99.6154 99.882 101.9 99.8583 103.036 99.8487L107.594 99.8321L107.474 99.9519L107.484 97.2663L107.594 97.3762L105.334 97.3661C103.889 97.351 99.973 97.2898 98.4783 97.2663Z" fill="#EBEBEB"/>
<path d="M33.7903 43.0615H42.9062V40.3759H33.7903V43.0615Z" fill="#EBEBEB"/>
<path d="M74.9519 51.8477H65.8359V54.5333H74.9519V51.8477Z" fill="#EBEBEB"/>
<path d="M69.8673 57.9197C68.3485 57.9442 64.5172 58.0047 63.0493 58.0195L60.7513 58.0296L60.6417 58.0301L60.6412 57.9197L60.6313 55.2341L60.6309 55.1139L60.7511 55.1143L65.3089 55.1309C66.4437 55.1407 68.7321 55.1645 69.8668 55.1801L69.9217 55.1808L69.9208 55.2341L69.8673 57.9197ZM69.8673 57.9197L69.8133 55.2341L69.8673 55.2881C68.7301 55.3039 66.4461 55.3277 65.3094 55.3373L60.7516 55.3539L60.8713 55.2341L60.8615 57.9197L60.7516 57.8098L63.0114 57.8199C64.4565 57.835 68.3725 57.8959 69.8673 57.9197Z" fill="#EBEBEB"/>
<path d="M57.5457 12.9247H19.8242V90.8724H57.5457V12.9247Z" fill="#EBEBEB"/>
<path d="M55.8775 14.5016H21.4932V89.2971H55.8775V14.5016Z" fill="white"/>
<path d="M57.5457 32.6107H19.8242V34.1875H57.5457V32.6107Z" fill="#EBEBEB"/>
<path d="M101.676 12.9247H63.9551V90.8719H101.676V12.9247Z" fill="#EBEBEB"/>
<path d="M100.007 14.5016H65.623V89.2971H100.007V14.5016Z" fill="white"/>
<path d="M101.676 32.6096H63.9551V34.1888H101.676V32.6096Z" fill="#EBEBEB"/>
<g opacity="0.2">
<path d="M55.8774 14.6024V16.9376L21.6006 56.444V43.2488L46.455 14.6024H55.8774Z" fill="#EBEBEB"/>
<path d="M100.009 50.5639V63.7591L77.8543 89.2975H66.4062L100.009 50.5639Z" fill="#EBEBEB"/>
<path d="M55.8778 74.5135V81.1111L48.7738 89.2976H43.0498L55.8778 74.5135Z" fill="#EBEBEB"/>
<path d="M100.009 23.6503V30.2479L97.9593 32.6095L96.5889 34.1887L65.6241 69.8767L63.9561 71.7991V65.2015L65.6241 63.2791L90.8649 34.1887L92.2353 32.6095L100.009 23.6503Z" fill="#EBEBEB"/>
<path d="M31.5049 14.6035L21.6006 26.0237V19.4215L25.7807 14.6035H31.5049Z" fill="#EBEBEB"/>
<path d="M21.6006 73.6927L55.8774 34.1815V35.8303L21.6006 75.3368V73.6927Z" fill="#EBEBEB"/>
<path d="M74.2962 14.5008L65.625 24.492V22.8432L72.861 14.5008H74.2962Z" fill="#EBEBEB"/>
<path d="M55.8776 66.08V67.7264L37.1624 89.2976H35.7344L55.8776 66.08Z" fill="#EBEBEB"/>
<path d="M100.009 15.2119V16.8631L86.3456 32.6095L84.9753 34.1887L65.6241 56.4944L63.9561 58.4167V56.7679L65.6241 54.8456L83.5449 34.1887L84.9153 32.6095L100.009 15.2119Z" fill="#EBEBEB"/>
<path d="M100.008 83.252V84.9008L96.1945 89.2976H94.7617L100.008 83.252Z" fill="#EBEBEB"/>
<path d="M40.2164 14.6035L21.6006 36.0648V34.4134L38.7906 14.6035H40.2164Z" fill="#EBEBEB"/>
</g>
<path d="M74.0903 61.4671H16.6357V63.1368H74.0903V61.4671Z" fill="#C7C7C7"/>
<path d="M16.6352 55.4926H14.5068V69.1114H16.6352V55.4926Z" fill="#C7C7C7"/>
<path d="M14.5072 56.6208H13.0977V67.9834H14.5072V56.6208Z" fill="#C7C7C7"/>
<path d="M14.5074 67.9834H14.0785L13.6758 56.6208H14.5074V67.9834Z" fill="#A6A6A6"/>
<path d="M74.0904 69.1115H76.2188V55.4927H74.0904V69.1115Z" fill="#C7C7C7"/>
<path d="M76.2184 67.9833H77.6279V56.6207H76.2184V67.9833Z" fill="#C7C7C7"/>
<path d="M76.2188 56.6208H76.6474L77.0501 67.9834H76.2188V56.6208Z" fill="#A6A6A6"/>
<path d="M26.2423 59.4423H23.7432V110.079H26.2423V59.4423Z" fill="#DBDBDB"/>
<path d="M66.9825 59.4423H64.4834V110.079H66.9825V59.4423Z" fill="#DBDBDB"/>
<path d="M89.3868 64.8831H86.6055V71.2354H89.3868V64.8831Z" fill="#DBDBDB"/>
<path d="M86.6056 65.5651H85.2686V70.5533H86.6056V65.5651Z" fill="#DBDBDB"/>
<path d="M86.6061 65.5659V70.5545H85.9375L86.1825 65.5659H86.6061Z" fill="#C7C7C7"/>
<path d="M104.922 71.2356H107.703V64.8832H104.922V71.2356Z" fill="#DBDBDB"/>
<path d="M107.703 70.5535H109.04V65.5654H107.703V70.5535Z" fill="#DBDBDB"/>
<path d="M107.703 70.5529V65.5642H108.372L108.127 70.5529H107.703Z" fill="#C7C7C7"/>
<path d="M104.921 66.8539H89.3867V69.2667H104.921V66.8539Z" fill="#C7C7C7"/>
<path d="M89.3868 73.0085H86.6055V79.3608H89.3868V73.0085Z" fill="#DBDBDB"/>
<path d="M86.6056 73.6906H85.2686V78.6787H86.6056V73.6906Z" fill="#DBDBDB"/>
<path d="M86.6061 73.6913V78.6799H85.9375L86.1825 73.6913H86.6061Z" fill="#C7C7C7"/>
<path d="M104.922 79.3609H107.703V73.0086H104.922V79.3609Z" fill="#DBDBDB"/>
<path d="M107.703 78.6788H109.04V73.6906H107.703V78.6788Z" fill="#DBDBDB"/>
<path d="M107.703 78.6783V73.6894H108.372L108.127 78.6783H107.703Z" fill="#C7C7C7"/>
<path d="M104.921 74.9792H89.3867V77.3919H104.921V74.9792Z" fill="#C7C7C7"/>
<path d="M89.3868 81.1339H86.6055V87.4862H89.3868V81.1339Z" fill="#DBDBDB"/>
<path d="M86.6056 81.816H85.2686V86.8042H86.6056V81.816Z" fill="#DBDBDB"/>
<path d="M86.6061 81.8167V86.8054H85.9375L86.1825 81.8167H86.6061Z" fill="#C7C7C7"/>
<path d="M104.922 87.4862H107.703V81.1339H104.922V87.4862Z" fill="#DBDBDB"/>
<path d="M107.703 86.8041H109.04V81.816H107.703V86.8041Z" fill="#DBDBDB"/>
<path d="M107.703 86.8035V81.8148H108.372L108.127 86.8035H107.703Z" fill="#C7C7C7"/>
<path d="M104.921 83.1046H89.3867V85.5173H104.921V83.1046Z" fill="#C7C7C7"/>
<path d="M89.3868 89.2594H86.6055V95.6117H89.3868V89.2594Z" fill="#DBDBDB"/>
<path d="M86.6056 89.9415H85.2686V94.9296H86.6056V89.9415Z" fill="#DBDBDB"/>
<path d="M86.6061 89.942V94.9306H85.9375L86.1825 89.942H86.6061Z" fill="#C7C7C7"/>
<path d="M104.922 95.6115H107.703V89.2592H104.922V95.6115Z" fill="#DBDBDB"/>
<path d="M107.703 94.9294H109.04V89.9413H107.703V94.9294Z" fill="#DBDBDB"/>
<path d="M107.703 94.9289V89.9402H108.372L108.127 94.9289H107.703Z" fill="#C7C7C7"/>
<path d="M104.921 91.23H89.3867V93.6427H104.921V91.23Z" fill="#C7C7C7"/>
<path d="M89.3868 97.3846H86.6055V103.737H89.3868V97.3846Z" fill="#DBDBDB"/>
<path d="M86.6056 98.0667H85.2686V103.055H86.6056V98.0667Z" fill="#DBDBDB"/>
<path d="M86.6061 98.0674V103.056H85.9375L86.1825 98.0674H86.6061Z" fill="#C7C7C7"/>
<path d="M104.922 103.737H107.703V97.3847H104.922V103.737Z" fill="#DBDBDB"/>
<path d="M107.703 103.055H109.04V98.0669H107.703V103.055Z" fill="#DBDBDB"/>
<path d="M107.703 103.054V98.0657H108.372L108.127 103.054H107.703Z" fill="#C7C7C7"/>
<path d="M104.921 99.3555H89.3867V101.768H104.921V99.3555Z" fill="#C7C7C7"/>
<path d="M92.5514 64.9983H90.4619V110.079H92.5514V64.9983Z" fill="#DBDBDB"/>
<path d="M103.845 64.9983H101.756V110.079H103.845V64.9983Z" fill="#DBDBDB"/>
<path d="M35.461 91.212C33.3989 90.6936 31.8374 88.8893 31.129 86.8846C30.4205 84.8796 30.4469 82.6913 30.6583 80.5754C30.6977 80.1811 30.7392 79.7626 30.5645 79.4066C30.287 78.8414 29.5294 78.6456 28.9279 78.8319C28.3265 79.0181 27.8604 79.4933 27.475 79.9913C25.3603 82.723 25.0322 86.7166 26.6724 89.7569C28.3126 92.7972 31.8302 94.716 35.2745 94.4489" fill="#F2D352"/>
<path d="M51.0787 71.3141C51.0787 71.3141 55.9099 79.6831 57.1313 83.0484C58.3526 86.4137 59.9083 95.6645 59.9083 95.6645C59.9083 95.6645 67.163 97.5331 62.6686 105.331C61.007 108.214 61.1561 109.552 59.2937 109.637C57.8424 109.703 46.1618 109.614 46.1618 109.614L46.3718 110.759C46.3718 110.759 45.3945 114.066 43.4153 113.133C41.436 112.2 39.1065 109.614 39.1065 109.614L35.706 109.568L27.6005 109.614L25.2305 109.568C25.2329 109.547 25.2353 109.525 25.2379 109.504C25.3994 108.188 26.3241 107.092 27.5923 106.707L29.3304 106.179C29.3304 106.179 27.0729 96.6936 29.0285 94.4256C30.984 92.1576 34.1659 92.3064 34.1659 92.3064L32.7045 82.5478C32.4144 80.2589 32.6455 77.934 33.3804 75.7471L34.4762 72.4865L51.0787 71.3141Z" fill="#F2D352"/>
<path d="M34.293 92.6379C37.6414 94.5408 39.9034 97.7316 41.0278 101.376C41.0391 101.412 41.0972 101.397 41.0857 101.36C40.214 98.5347 38.6679 95.9187 36.3838 94.0095C35.7418 93.4728 35.0506 92.9993 34.3234 92.586C34.2896 92.5671 34.2594 92.6189 34.293 92.6379Z" fill="#263238"/>
<path d="M34.3628 72.8254C34.3628 72.8254 32.7877 77.0355 32.6554 79.1407C32.4363 82.6342 34.1662 92.3064 34.1662 92.3064C34.1662 92.3064 33.5739 101.79 33.0593 103.196C32.545 104.601 32.7613 105.898 30.421 106.378C29.7884 106.507 28.6875 108.553 28.6875 109.568H35.2323C35.2323 109.568 37.003 107.567 37.0887 105.694C37.1744 103.82 40.2862 93.6521 40.2862 93.6521" fill="#F2D352"/>
<path d="M40.2859 93.6521C40.2859 93.6521 40.2811 93.6783 40.2671 93.7287C40.2518 93.7827 40.2309 93.8566 40.2035 93.9528C40.145 94.1542 40.06 94.4455 39.9499 94.8238C39.7281 95.5906 39.4053 96.7068 38.9961 98.1223C38.5953 99.5434 38.105 101.266 37.6149 103.254C37.4939 103.751 37.3737 104.265 37.2703 104.797C37.246 104.93 37.2218 105.064 37.1973 105.199C37.1743 105.335 37.1649 105.471 37.1479 105.608C37.1337 105.748 37.1195 105.889 37.1051 106.031C37.0802 106.172 37.0547 106.314 37.0204 106.455C36.7204 107.579 36.0787 108.636 35.2732 109.605L35.2576 109.623H35.2317C33.2111 109.625 31.0015 109.627 28.6871 109.628H28.624L28.6267 109.568C28.6538 108.926 28.9051 108.331 29.1873 107.758C29.3337 107.472 29.4976 107.192 29.6925 106.929C29.7926 106.799 29.8963 106.671 30.0196 106.556C30.1331 106.44 30.2992 106.338 30.467 106.303C31.091 106.165 31.7404 105.932 32.1539 105.423C32.5708 104.915 32.675 104.225 32.8703 103.576C32.9042 103.454 32.9462 103.334 32.987 103.214C33.0247 103.094 33.053 102.977 33.0868 102.859C33.1348 102.616 33.1874 102.374 33.2205 102.128C33.2973 101.639 33.3568 101.148 33.413 100.662C33.5248 99.6876 33.6131 98.7243 33.6962 97.777C33.8603 95.8822 33.9933 94.0498 34.1078 92.3028L34.1085 92.3165C33.6122 89.4521 33.2152 86.7881 32.9359 84.3991C32.7964 83.2049 32.686 82.0791 32.6335 81.0305C32.5833 79.9851 32.5691 79.0042 32.7544 78.1411C32.9212 77.2786 33.1336 76.5209 33.3275 75.8633C33.5234 75.2062 33.707 74.6503 33.8601 74.2001C34.0137 73.7499 34.1392 73.4059 34.2251 73.1743C34.2681 73.0615 34.3012 72.9749 34.3252 72.9125C34.3483 72.8539 34.3627 72.8251 34.3627 72.8251C34.3627 72.8251 34.3545 72.8563 34.3343 72.9159C34.3127 72.9792 34.2825 73.0668 34.2434 73.1811C34.1632 73.4194 34.0468 73.7647 33.8961 74.2123C33.7487 74.6643 33.5709 75.2213 33.3806 75.8789C33.1922 76.5367 32.9853 77.2949 32.8243 78.1541C32.6455 79.0119 32.6644 79.9817 32.7187 81.0259C32.7755 82.0714 32.89 83.1953 33.0331 84.3876C33.3196 86.7727 33.7226 89.4353 34.223 92.2959L34.2242 92.3028L34.2237 92.3098C34.1119 94.0582 33.9811 95.8911 33.8183 97.7873C33.736 98.7353 33.6482 99.6994 33.5366 100.675C33.4804 101.163 33.4209 101.654 33.3439 102.147C33.3107 102.394 33.2575 102.64 33.2085 102.887C33.1739 103.01 33.1425 103.136 33.1046 103.256C33.0647 103.373 33.0237 103.49 32.9901 103.611C32.8939 103.934 32.8185 104.265 32.7143 104.589C32.6109 104.913 32.47 105.234 32.2504 105.501C32.0332 105.77 31.7452 105.969 31.4421 106.115C31.1387 106.266 30.8135 106.347 30.4929 106.423C30.3398 106.458 30.2198 106.533 30.1036 106.646C29.9887 106.753 29.8881 106.877 29.7914 107.003C29.6018 107.258 29.4403 107.533 29.2965 107.814C29.0181 108.374 28.7723 108.97 28.7476 109.568L28.6871 109.507C31.0017 109.509 33.2111 109.511 35.2317 109.512L35.1902 109.531C35.986 108.579 36.6263 107.527 36.9215 106.43C36.9554 106.293 36.9806 106.154 37.0053 106.017C37.0197 105.877 37.0341 105.739 37.0483 105.601C37.066 105.461 37.0763 105.32 37.1001 105.184C37.1253 105.048 37.1503 104.913 37.175 104.778C37.2808 104.244 37.403 103.729 37.5259 103.232C38.0241 101.243 38.5228 99.523 38.9327 98.1041C39.346 96.6862 39.6835 95.5728 39.9165 94.8137C40.0336 94.4376 40.1239 94.1479 40.1863 93.9475C40.217 93.8525 40.2407 93.7793 40.258 93.726C40.2751 93.6768 40.2859 93.6521 40.2859 93.6521Z" fill="#263238"/>
<path d="M51.7473 77.201C51.7473 77.201 51.7708 77.2529 51.8106 77.3561C51.8512 77.4636 51.909 77.6165 51.9844 77.8159C52.1351 78.2254 52.3545 78.8223 52.6367 79.5898C53.1952 81.133 54.0047 83.3659 54.9424 86.1475C55.1754 86.8433 55.4161 87.5736 55.6523 88.3397C55.7718 88.7223 55.8851 89.1154 55.995 89.5181C56.0989 89.9263 56.1582 90.3478 56.2139 90.7764C56.4205 92.4931 56.5201 94.3354 56.6313 96.2722C56.739 98.2092 56.8331 100.244 56.9742 102.349C57.0479 103.401 57.1261 104.473 57.2733 105.55C57.3119 105.818 57.3551 106.087 57.4163 106.352C57.4461 106.484 57.4828 106.615 57.5301 106.738C57.5531 106.8 57.5824 106.859 57.6167 106.906C57.6337 106.927 57.6537 106.951 57.6695 106.955C57.6817 106.965 57.7302 106.977 57.759 106.988C58.0257 107.076 58.293 107.182 58.5234 107.353C58.6468 107.427 58.7447 107.535 58.8513 107.631C58.9417 107.743 59.0392 107.851 59.1061 107.98C59.4028 108.486 59.4609 109.091 59.3541 109.652L59.3449 109.7H59.2933C56.7647 109.703 54.3145 109.707 51.976 109.71H51.9148L51.9157 109.65C51.9265 109.021 52.0614 108.425 52.1937 107.84C52.3319 107.256 52.4901 106.687 52.6626 106.131L52.6607 106.157C52.2196 103.275 51.8013 100.609 51.4093 98.2347C51.2109 97.0479 51.0268 95.9314 50.8192 94.9049C50.7909 94.7777 50.77 94.6481 50.7361 94.5264L50.6884 94.3433C50.6737 94.2818 50.6373 94.2317 50.6133 94.1758C50.5 93.9595 50.3497 93.7606 50.2036 93.5714C49.9108 93.1903 49.606 92.8447 49.318 92.5154C48.1492 91.212 47.1736 90.2247 46.5114 89.5447C46.1805 89.2085 45.9251 88.9493 45.7492 88.7705C45.6649 88.6843 45.6001 88.6183 45.5536 88.5706C45.5099 88.5255 45.4893 88.5007 45.4893 88.5007C45.4893 88.5007 45.5145 88.5209 45.5603 88.5636C45.6085 88.6097 45.6755 88.6735 45.7626 88.7568C45.9414 88.9325 46.2011 89.1876 46.5378 89.5183C47.2086 90.1903 48.1924 91.17 49.3703 92.4686C49.6609 92.797 49.9679 93.1414 50.265 93.5239C50.4138 93.715 50.5648 93.9113 50.6862 94.14C50.7121 94.1991 50.7513 94.2552 50.7664 94.3179L50.8163 94.5058C50.8516 94.6315 50.8727 94.759 50.902 94.8876C51.1146 95.9167 51.3028 97.0318 51.5051 98.2186C51.9049 100.593 52.3295 103.258 52.7752 106.139L52.7771 106.152L52.773 106.165C52.6026 106.719 52.4454 107.287 52.3089 107.868C52.1783 108.447 52.0456 109.045 52.0365 109.649L51.9762 109.59C54.3148 109.585 56.7649 109.58 59.2936 109.575L59.2331 109.623C59.3329 109.099 59.277 108.513 58.9986 108.043C58.9362 107.922 58.8443 107.821 58.7601 107.716C58.6595 107.626 58.5685 107.525 58.4517 107.455C58.2349 107.293 57.9789 107.192 57.7225 107.108C57.687 107.094 57.6669 107.092 57.6184 107.068C57.5687 107.047 57.5445 107.013 57.5178 106.982C57.471 106.918 57.4401 106.851 57.4146 106.784C57.3633 106.65 57.3258 106.515 57.2953 106.38C57.2327 106.109 57.1893 105.838 57.1504 105.567C57.0025 104.483 56.9253 103.411 56.8523 102.357C56.7126 100.25 56.6212 98.2152 56.5165 96.2784C56.4088 94.3423 56.313 92.4999 56.1114 90.7894C56.0572 90.3629 55.9989 89.9426 55.8983 89.5433C55.7901 89.1425 55.6785 88.7503 55.5604 88.368C55.3271 87.6026 55.0893 86.8719 54.8589 86.1756C53.9325 83.3919 53.1357 81.1543 52.5911 79.6063C52.3185 78.8355 52.1063 78.2359 51.9609 77.8248C51.8905 77.6237 51.8365 77.4691 51.7986 77.3609C51.7626 77.2558 51.7473 77.201 51.7473 77.201Z" fill="#263238"/>
<path d="M45.3554 99.3154C45.3525 99.3187 45.3067 99.2834 45.222 99.2131C45.1284 99.1337 45.0062 99.03 44.8543 98.9011C44.542 98.6227 44.1016 98.2049 43.5904 97.6577C42.5589 96.5714 41.2492 94.9656 39.9256 93.1044C38.6116 91.2358 37.5304 89.4672 36.8536 88.1306C36.5109 87.4649 36.2656 86.9098 36.1099 86.5212C36.041 86.3342 35.9856 86.184 35.9431 86.0688C35.9064 85.9649 35.8891 85.9099 35.8932 85.9085C35.8972 85.907 35.9224 85.9594 35.9668 86.0602C36.0148 86.173 36.0772 86.3198 36.1548 86.5027C36.3237 86.8841 36.5803 87.4313 36.9321 88.0898C37.6267 89.4115 38.7168 91.1678 40.0279 93.0324C41.3486 94.8895 42.6439 96.4997 43.6555 97.5977C44.1568 98.1509 44.586 98.5766 44.8874 98.8654C45.0326 99.0012 45.149 99.1104 45.2385 99.1942C45.3177 99.2705 45.358 99.312 45.3554 99.3154Z" fill="#263238"/>
<path d="M41.3302 98.3873C41.7699 99.8064 42.0716 101.265 42.2077 102.745C42.2372 103.068 42.4623 103.345 42.8077 103.345C43.1094 103.345 43.4375 103.07 43.4077 102.745C43.262 101.158 42.9594 99.5909 42.4875 98.0681C42.3915 97.7587 42.069 97.5612 41.7495 97.649C41.4435 97.733 41.234 98.0765 41.3302 98.3873Z" fill="#F2D352"/>
<path d="M34.4025 73.7902C34.199 68.6566 33.8294 62.6618 34.3867 60.709C34.944 58.7563 38.8764 54.8959 41.1333 54.0007C43.3903 53.1055 47.1314 54.2998 48.2618 55.2986L55.3718 53.5795C55.3718 53.5795 56.7655 56.8116 55.0464 59.4048C53.327 61.9978 48.2606 61.9663 48.2606 61.9663C48.2606 61.9663 47.8058 64.7875 49.9725 65.0352C52.1392 65.2829 55.0243 64.9426 55.3025 67.2998L50.8493 67.6992L51.0986 71.6247L42.6281 76.1263L34.6944 73.8363" fill="#F2D352"/>
<path d="M40.4942 57.1152C40.5014 57.1145 40.517 57.1882 40.5395 57.3293C40.5633 57.4946 40.5926 57.6991 40.6281 57.948C40.6996 58.5175 40.7966 59.2887 40.9146 60.2278C41.0289 61.2007 41.1635 62.3458 41.3121 63.612C41.386 64.2478 41.465 64.9222 41.4712 65.6275C41.4714 66.3298 41.4073 67.0783 41.1133 67.7863C40.8196 68.4905 40.2661 69.0763 39.5958 69.3595C38.9286 69.654 38.2026 69.6646 37.5611 69.5395C36.9167 69.402 36.3429 69.1082 35.9042 68.7194C35.4686 68.3297 35.1515 67.8785 34.9355 67.4362C34.4968 66.5475 34.4154 65.7353 34.3986 65.1946C34.3933 64.9214 34.4068 64.7098 34.4224 64.5672C34.4392 64.4246 34.4514 64.3505 34.4589 64.3512C34.4788 64.3527 34.4485 64.6526 34.4817 65.1907C34.5229 65.7228 34.6278 66.516 35.0699 67.3675C35.2873 67.7916 35.5998 68.2195 36.0205 68.586C36.4408 68.9484 36.988 69.221 37.6002 69.3463C38.2096 69.4596 38.8946 69.444 39.5118 69.1673C40.1306 68.9021 40.6384 68.3645 40.9161 67.7028C41.1928 67.0373 41.2595 66.3151 41.2614 65.6282C41.2583 64.9373 41.1849 64.2713 41.116 63.6334C40.9842 62.3652 40.8652 61.2187 40.7642 60.2441C40.6739 59.3018 40.6 58.5281 40.5453 57.9569C40.5258 57.7063 40.5095 57.5004 40.4966 57.3338C40.4877 57.1915 40.4867 57.1162 40.4942 57.1152Z" fill="#263238"/>
<path d="M53.2518 54.1222C53.2245 54.4913 53.4009 54.8947 53.6401 55.1592C53.8794 55.4237 54.22 55.5727 54.5596 55.6824C55.0012 55.8252 55.4949 55.9118 55.9206 55.7263C55.9206 55.1551 55.8309 54.5842 55.6559 54.0408C55.6019 53.8733 55.5246 53.6914 55.3631 53.6213C55.2726 53.5822 55.1701 53.5855 55.0717 53.5927C54.4369 53.639 53.8122 53.821 53.2518 54.1222Z" fill="#263238"/>
<g opacity="0.3">
<path d="M34.4766 65.6431C34.6678 66.9125 35.0182 68.3038 35.8861 69.2498C36.7539 70.1957 38.1162 70.7539 39.3562 70.422C40.8788 70.0145 41.821 68.393 41.942 66.8215C42.063 65.25 41.539 63.7085 41.0223 62.2195C41.2702 63.636 41.5172 65.1 41.1853 66.4994C40.8534 67.8989 39.7856 69.2285 38.3578 69.4003C37.3657 69.5196 36.3546 69.0499 35.695 68.2992C35.0353 67.5485 34.5457 66.6401 34.4766 65.6431Z" fill="#1D1D20"/>
</g>
<path d="M55.944 56.2889C55.9572 56.2898 55.9637 56.4223 55.946 56.6606C55.9301 56.8992 55.8838 57.2431 55.7847 57.6602C55.6863 58.0771 55.525 58.5658 55.2723 59.0774C55.015 59.5831 54.656 60.1224 54.1277 60.5364C53.6052 60.9501 53.028 61.2144 52.4969 61.4107C51.9641 61.6078 51.4659 61.7239 51.0461 61.8034C50.6256 61.8804 50.2817 61.9174 50.0434 61.9301C49.8051 61.943 49.6728 61.9375 49.6719 61.9238C49.669 61.8886 50.1934 61.8453 51.0154 61.6555C51.4251 61.5583 51.9111 61.4289 52.4276 61.2264C52.9424 61.025 53.4994 60.7615 53.9948 60.3689C54.4911 59.9806 54.8386 59.4718 55.0973 58.987C55.351 58.4969 55.5238 58.0253 55.6385 57.6214C55.8699 56.8123 55.9064 56.285 55.944 56.2889Z" fill="#263238"/>
<path d="M45.5858 57.3631C45.1675 57.5328 45.0681 58.1895 45.4173 58.4753C45.7665 58.7611 46.3905 58.5341 46.4743 58.0906C46.5581 57.6471 46.0598 57.2081 45.6305 57.3468" fill="#263238"/>
<path d="M43.1406 58.1247C43.0607 58.1549 42.9299 58.0527 42.8303 57.8261C42.7304 57.6024 42.6793 57.2527 42.7585 56.8839C42.8382 56.5152 43.0285 56.2174 43.2116 56.0544C43.3957 55.8888 43.557 55.8495 43.6175 55.9099C43.7399 56.0439 43.4944 56.4682 43.3856 57.0187C43.2582 57.5652 43.3074 58.0529 43.1406 58.1247Z" fill="#263238"/>
<path d="M51.976 100.111C51.9758 100.125 51.7298 100.111 51.2875 100.132C51.0667 100.143 50.7962 100.165 50.4892 100.224C50.1823 100.282 49.8393 100.389 49.4971 100.582C48.8097 100.966 48.1401 101.649 47.3716 102.357C46.6142 103.074 45.9098 104.012 44.9102 104.731C44.4141 105.09 43.8439 105.333 43.2712 105.426C42.6986 105.52 42.1435 105.507 41.6241 105.55C41.1069 105.59 40.6116 105.679 40.2112 105.904C39.808 106.121 39.4927 106.427 39.2714 106.749C38.824 107.397 38.712 108.059 38.7288 108.493C38.7422 108.934 38.8353 109.168 38.8183 109.172C38.8183 109.172 38.7093 108.943 38.6803 108.495C38.6484 108.053 38.7477 107.372 39.1987 106.699C39.4219 106.364 39.7437 106.043 40.1618 105.813C40.5789 105.574 41.0906 105.479 41.6148 105.435C42.1408 105.389 42.694 105.398 43.2508 105.306C43.8057 105.213 44.3527 104.98 44.838 104.629C45.815 103.927 46.523 102.994 47.2917 102.274C48.0672 101.569 48.742 100.89 49.4548 100.504C49.8086 100.312 50.1631 100.208 50.4763 100.156C50.79 100.103 51.0633 100.087 51.2858 100.084C51.5085 100.08 51.6813 100.086 51.7982 100.095C51.9148 100.101 51.976 100.106 51.976 100.111Z" fill="#263238"/>
<path d="M43.0391 107.423C43.0388 107.416 43.1171 107.405 43.2594 107.405C43.4017 107.404 43.6086 107.421 43.8584 107.476C44.3545 107.58 45.0347 107.881 45.5634 108.471C46.0911 109.062 46.3148 109.771 46.3643 110.276C46.3911 110.53 46.3849 110.737 46.3686 110.879C46.3525 111.021 46.3335 111.097 46.3261 111.096C46.3021 111.094 46.3513 110.781 46.2769 110.287C46.2066 109.799 45.9769 109.121 45.4705 108.554C44.9631 107.989 44.3156 107.686 43.8375 107.562C43.3547 107.433 43.0379 107.447 43.0391 107.423Z" fill="#263238"/>
<path d="M45.4079 110.586C45.4207 110.589 45.3904 110.812 45.2301 111.133C45.0731 111.451 44.7628 111.863 44.2917 112.153C43.8203 112.443 43.313 112.535 42.9575 112.531C42.5985 112.53 42.3861 112.457 42.3897 112.444C42.3931 112.423 42.6086 112.464 42.9547 112.443C43.2981 112.424 43.7779 112.322 44.2259 112.047C44.6738 111.771 44.9805 111.388 45.1523 111.09C45.3271 110.791 45.3875 110.58 45.4079 110.586Z" fill="#263238"/>
<path d="M43.3367 109.037C43.3405 109.057 43.1447 109.094 42.8536 109.217C42.5634 109.338 42.1797 109.56 41.854 109.912C41.5281 110.264 41.3353 110.664 41.2372 110.962C41.1371 111.262 41.1148 111.46 41.0941 111.457C41.0802 111.457 41.0711 111.253 41.1525 110.937C41.2317 110.622 41.4201 110.196 41.7623 109.827C42.1041 109.458 42.5145 109.237 42.8219 109.135C43.1315 109.029 43.3353 109.023 43.3367 109.037Z" fill="#263238"/>
<path d="M57.0046 109.792C56.9856 109.788 57.0235 109.603 57.0552 109.304C57.085 109.008 57.1049 108.584 56.9525 108.16C56.7984 107.739 56.4758 107.448 56.2116 107.33C55.9438 107.206 55.7484 107.228 55.7491 107.204C55.7441 107.194 55.9457 107.136 56.2459 107.248C56.5406 107.355 56.9023 107.659 57.0701 108.117C57.2333 108.573 57.1954 109.017 57.1428 109.316C57.0876 109.619 57.0192 109.796 57.0046 109.792Z" fill="#263238"/>
<path d="M33.3072 107.04C33.3053 107.062 33.0845 107.035 32.7379 107.086C32.394 107.135 31.9195 107.285 31.5043 107.617C31.0894 107.95 30.8393 108.381 30.7167 108.706C30.5909 109.033 30.5693 109.254 30.5477 109.251C30.535 109.251 30.5247 109.023 30.6331 108.676C30.7383 108.333 30.9881 107.871 31.4261 107.52C31.8641 107.169 32.3688 107.026 32.7274 106.998C33.09 106.968 33.3101 107.028 33.3072 107.04Z" fill="#263238"/>
<path d="M63.1875 104.853C63.1767 104.844 63.3017 104.701 63.4844 104.414C63.6677 104.129 63.8996 103.691 64.0805 103.112C64.2565 102.533 64.3765 101.812 64.345 101.011C64.3155 100.213 64.1355 99.3338 63.7453 98.4974C63.3529 97.6618 62.768 96.9732 62.1068 96.5239C61.4518 96.0653 60.7678 95.7938 60.1753 95.682C59.5803 95.5718 59.0821 95.6189 58.7569 95.7096C58.5946 95.7576 58.4693 95.7986 58.3885 95.8373C58.3057 95.8714 58.2608 95.8874 58.2589 95.8836C58.2569 95.8798 58.2977 95.8562 58.3779 95.8145C58.4561 95.7679 58.5802 95.719 58.7434 95.6628C59.0703 95.5558 59.5803 95.4934 60.1906 95.5949C60.7988 95.6981 61.5001 95.9662 62.1725 96.4294C62.5078 96.6607 62.8364 96.9442 63.1215 97.2862C63.4069 97.6274 63.656 98.0186 63.8583 98.4439C64.2572 99.2988 64.4365 100.194 64.4602 101.007C64.4859 101.822 64.3544 102.554 64.165 103.139C63.9704 103.723 63.7229 104.161 63.5252 104.441C63.4256 104.581 63.3442 104.686 63.2828 104.753C63.2233 104.821 63.1909 104.855 63.1875 104.853Z" fill="#263238"/>
<path d="M34.1491 92.5762C34.1458 92.6131 33.5343 92.3681 32.5251 92.4852C32.0247 92.539 31.4388 92.7012 30.8431 92.9957C30.2525 93.2952 29.6513 93.7395 29.1773 94.3419C28.9356 94.638 28.7597 94.9673 28.6347 95.3059C28.513 95.6455 28.4395 95.988 28.3863 96.3166C28.2898 96.9766 28.2787 97.5816 28.2823 98.0883C28.2864 98.5954 28.3025 99.0063 28.3085 99.2904C28.3099 99.4205 28.3111 99.5285 28.3123 99.618C28.3116 99.6929 28.3095 99.7323 28.3051 99.7325C28.3008 99.7327 28.2948 99.6936 28.2874 99.6192C28.2799 99.5302 28.2711 99.4224 28.2603 99.2931C28.2396 99.0096 28.2099 98.5992 28.1945 98.0899C28.1796 97.5814 28.1813 96.9715 28.273 96.2998C28.3239 95.965 28.3963 95.6146 28.5202 95.2644C28.6464 94.9162 28.831 94.5691 29.0803 94.2641C29.5671 93.6456 30.1858 93.193 30.7927 92.8927C31.4047 92.5973 32.0057 92.4411 32.5167 92.3974C33.0279 92.3511 33.4457 92.3907 33.7243 92.4538C33.8659 92.4754 33.9703 92.5169 34.0426 92.5361C34.1136 92.5584 34.1506 92.5721 34.1491 92.5762Z" fill="#263238"/>
<path d="M24.2492 87.3816C24.2408 87.383 24.2195 87.2899 24.188 87.1195C24.1544 86.9496 24.1232 86.7005 24.1007 86.3914C24.0541 85.7736 24.0767 84.9084 24.2715 83.9794C24.4693 83.0506 24.7988 82.2502 25.0911 81.7039C25.2368 81.4303 25.3662 81.215 25.4655 81.0732C25.5632 80.9302 25.6203 80.8536 25.6275 80.8582C25.6465 80.8702 25.4387 81.1913 25.1699 81.7438C24.9003 82.295 24.5888 83.0887 24.3937 84.005C24.2015 84.9216 24.1652 85.7736 24.189 86.3866C24.2113 87.0005 24.2713 87.378 24.2492 87.3816Z" fill="#263238"/>
<path d="M23.4797 87.7553C23.4713 87.757 23.4466 87.6641 23.4089 87.4941C23.3698 87.3247 23.3273 87.0761 23.2877 86.7674C23.2078 86.1504 23.1656 85.2857 23.256 84.3377C23.3489 83.3897 23.556 82.5489 23.7528 81.9585C23.8508 81.6631 23.94 81.4274 24.0111 81.2685C24.0804 81.1089 24.1224 81.0226 24.1306 81.0259C24.1503 81.0338 24.0106 81.3914 23.8376 81.9847C23.6638 82.5773 23.4728 83.4118 23.3808 84.3497C23.2913 85.2876 23.3189 86.143 23.3758 86.7578C23.432 87.3734 23.5006 87.7514 23.4797 87.7553Z" fill="#263238"/>
<g opacity="0.3">
<path d="M39.1345 97.272C40.1303 98.3628 40.851 99.703 41.2122 101.135C41.2924 101.453 41.3533 101.799 41.2245 102.101C40.9489 102.747 40.0595 102.778 39.4509 103.128C38.9413 103.421 38.6257 103.954 38.3327 104.463C37.341 106.188 36.3491 107.913 35.3574 109.638C36.2766 109.562 36.6174 109.658 37.5366 109.582L39.015 109.615C38.9603 109.638 38.7275 108.911 38.7081 108.57C38.6483 107.529 39.3515 106.268 40.2861 105.804C41.4609 105.221 42.8116 105.708 44.0034 105.161C45.1446 104.637 45.8245 103.836 46.5664 103.099C47.4976 102.175 48.4201 100.951 49.6134 100.407C50.1527 100.161 51.4429 100.136 51.4429 100.136C50.829 99.4154 49.7058 99.4522 48.7917 99.6986C47.8775 99.9451 46.942 100.343 46.0185 100.135C45.2425 99.961 44.6272 99.389 44.0524 98.8394C42.5809 97.4326 41.0586 95.9479 40.4029 94.0205C39.9935 95.0779 39.5843 96.1354 39.1749 97.1926" fill="#1D1D20"/>
</g>
<g opacity="0.3">
<path d="M59.2937 109.637C59.7691 108.472 58.6858 107.093 58.2492 105.912C57.8066 104.716 57.9024 103.399 57.9053 102.123C57.911 99.4394 57.4747 96.7555 56.6189 94.212C56.5238 97.7088 56.923 101.424 57.1313 104.916C57.1754 105.658 57.1181 106.515 57.6624 107.021C57.9406 107.279 58.1064 107.166 58.4177 107.383C58.729 107.6 59.3426 108.093 59.2937 109.637Z" fill="#1D1D20"/>
</g>
<path d="M45.1609 75.1697C45.1537 75.199 44.5409 74.9834 43.9604 74.4514C43.3753 73.9241 43.1024 73.3346 43.1309 73.3248C43.1643 73.3039 43.4775 73.849 44.0446 74.359C44.606 74.8745 45.1784 75.1346 45.1609 75.1697Z" fill="#263238"/>
<path d="M46.062 74.677C46.0524 74.707 45.5357 74.5397 44.9947 74.1554C44.4514 73.7743 44.1209 73.3435 44.1459 73.3243C44.1735 73.2989 44.5375 73.6824 45.0667 74.0532C45.5933 74.4276 46.0767 74.6422 46.062 74.677Z" fill="#263238"/>
<path d="M47.2467 74.6347C47.2398 74.6652 46.7334 74.5371 46.208 74.1785C45.68 73.8233 45.3733 73.4006 45.399 73.3829C45.4273 73.3577 45.7669 73.7319 46.2781 74.0751C46.7859 74.4223 47.2594 74.5992 47.2467 74.6347Z" fill="#263238"/>
<path d="M39.0839 84.9413C39.0738 84.9696 38.4842 84.6888 37.967 84.0902C37.4445 83.496 37.247 82.8734 37.2762 82.8674C37.312 82.8509 37.5551 83.4336 38.061 84.0082C38.561 84.5878 39.1053 84.9082 39.0839 84.9413Z" fill="#263238"/>
<path d="M39.9696 84.9543C39.9525 84.9809 39.4989 84.6879 39.0799 84.1783C38.6577 83.6712 38.4549 83.1708 38.4842 83.1593C38.5176 83.1423 38.7653 83.6055 39.1761 84.0987C39.5837 84.5945 39.9926 84.9245 39.9696 84.9543Z" fill="#263238"/>
<path d="M41.5138 85.2547C41.4886 85.2782 41.1077 84.9103 40.663 84.4332C40.2183 83.9558 39.8785 83.55 39.9037 83.5265C39.9289 83.503 40.3097 83.8706 40.7545 84.348C41.1992 84.8254 41.539 85.2312 41.5138 85.2547Z" fill="#263238"/>
<path d="M36.751 65.281C36.7416 65.2927 36.6444 65.238 36.5201 65.1094C36.396 64.9817 36.2527 64.7731 36.163 64.5135C36.0742 64.2533 36.0593 64.0008 36.079 63.8237C36.0979 63.6459 36.1411 63.5429 36.1558 63.5465C36.1937 63.5513 36.1078 63.9826 36.2813 64.4729C36.4454 64.9661 36.7778 65.2539 36.751 65.281Z" fill="#263238"/>
<path d="M37.1727 65.0969C37.147 65.1166 36.9329 64.8526 36.8115 64.4578C36.6876 64.0637 36.7145 63.7248 36.7469 63.7265C36.7836 63.7253 36.8127 64.0466 36.9308 64.4208C37.0457 64.7954 37.2036 65.077 37.1727 65.0969Z" fill="#263238"/>
<path d="M38.1265 65.693C38.1008 65.7127 37.8059 65.352 37.5721 64.831C37.3357 64.3111 37.2603 63.851 37.292 63.845C37.3275 63.8362 37.4555 64.2725 37.6861 64.7796C37.9136 65.2879 38.1567 65.6722 38.1265 65.693Z" fill="#263238"/>
<path d="M11.8965 110.119C43.0415 109.972 77.9793 109.971 109.124 110.119C77.979 110.267 43.0413 110.266 11.8965 110.119Z" fill="#263238"/>
<path d="M75.4349 110.221C76.0114 110.407 92.443 110.198 93.0631 109.792C93.3014 109.642 93.4104 107.246 93.4591 104.347C93.4594 104.317 93.4596 104.286 93.4599 104.256C93.4711 103.659 93.479 103.044 93.4802 102.42C93.4805 102.334 93.4807 102.249 93.4834 102.163L92.688 93.6384L81.696 93.7459L82.7789 102.191L82.7914 102.525L82.8574 104.273L82.8636 104.453C82.8636 104.453 76.6099 107.346 75.9746 107.864C75.3446 108.38 74.8584 110.037 75.4349 110.221Z" fill="#AD6359"/>
<path d="M75.4349 110.221C76.0114 110.407 92.443 110.198 93.0631 109.792C93.3014 109.642 93.4104 107.246 93.4591 104.347C93.4594 104.317 93.4596 104.286 93.4599 104.256C93.4711 103.659 93.479 103.044 93.4802 102.42C93.4805 102.334 93.4807 102.249 93.4834 102.163L82.7789 102.191L82.7914 102.525L82.8574 104.273L82.8636 104.453C82.8636 104.453 76.6099 107.346 75.9746 107.864C75.3446 108.38 74.8584 110.037 75.4349 110.221Z" fill="#EBEBEB"/>
<path d="M75.1544 110.389C75.7489 110.585 92.7471 110.526 93.3941 110.114C93.6401 109.959 93.8859 107.337 93.643 104.44L82.6841 104.491C82.6841 104.491 76.3976 107.426 75.7369 107.954C75.0793 108.482 74.5599 110.192 75.1544 110.389Z" fill="#F2D352"/>
<path d="M75.3958 109.708C78.2448 109.628 89.7442 109.574 92.5666 109.712C92.5896 109.713 92.5896 109.728 92.5666 109.729C89.7442 109.87 78.245 109.831 75.3958 109.754C75.3355 109.753 75.3355 109.71 75.3958 109.708Z" fill="#263238"/>
<path d="M76.8277 107.339C77.5033 107.309 78.165 107.628 78.5349 108.029C78.8901 108.414 79.1949 108.957 79.1771 109.548C79.1766 109.565 79.1452 109.566 79.1425 109.548C78.976 108.434 77.9581 107.458 76.8277 107.375C76.8049 107.373 76.8047 107.34 76.8277 107.339Z" fill="#263238"/>
<path d="M81.7914 104.78C82.9319 104.76 84.2555 105.158 84.9676 106.088C84.9952 106.124 84.9436 106.163 84.9095 106.146C83.8766 105.618 82.8952 105.225 81.7722 104.921C81.693 104.899 81.7096 104.782 81.7914 104.78Z" fill="#263238"/>
<path d="M80.9115 105.126C82.0519 105.107 83.3756 105.504 84.0876 106.435C84.1152 106.471 84.0636 106.51 84.0295 106.492C82.9968 105.965 82.0152 105.572 80.8923 105.267C80.8131 105.245 80.8299 105.128 80.9115 105.126Z" fill="#263238"/>
<path d="M80.0326 105.473C81.1731 105.453 82.4967 105.851 83.2088 106.781C83.2364 106.817 83.1848 106.856 83.1507 106.838C82.118 106.311 81.1364 105.918 80.0134 105.613C79.9342 105.592 79.9508 105.474 80.0326 105.473Z" fill="#263238"/>
<path d="M79.1535 105.819C80.294 105.799 81.6176 106.197 82.3297 107.127C82.3573 107.163 82.3057 107.202 82.2718 107.185C81.2391 106.657 80.2575 106.264 79.1346 105.96C79.0554 105.938 79.0719 105.821 79.1535 105.819Z" fill="#263238"/>
<path d="M91.8309 107.008C93.1106 107.007 93.1139 108.996 91.8321 108.996C90.5526 108.997 90.5493 107.009 91.8309 107.008Z" fill="#263238"/>
<path d="M80.6451 103.412C81.2634 104.204 82.2027 104.701 83.0168 105.26C83.1013 105.318 83.1975 105.249 83.2215 105.167C83.2402 105.168 83.2585 105.158 83.257 105.134C83.1898 104.151 82.7898 103.024 82.2104 102.221C81.8526 101.725 81.1237 101.26 80.5482 101.741C80.0038 102.196 80.2842 102.95 80.6451 103.412ZM80.589 102.468C80.6979 101.226 81.8209 102.176 82.07 102.552C82.2301 102.793 82.364 103.059 82.4893 103.32C82.7521 103.866 82.9321 104.44 83.1378 105.007C82.7547 104.708 82.3496 104.445 81.956 104.16C81.4868 103.821 80.529 103.152 80.589 102.468Z" fill="#263238"/>
<path d="M87.3043 104.393C87.2123 103.648 86.362 103.49 85.762 103.608C84.7905 103.798 83.7285 104.348 83.008 105.02C82.9902 105.037 82.997 105.056 83.0116 105.068C82.9732 105.145 82.9965 105.261 83.0978 105.276C84.0738 105.424 85.0994 105.703 86.0918 105.547C86.6711 105.456 87.3911 105.097 87.3043 104.393ZM84.6237 105.198C84.1418 105.136 83.6658 105.052 83.1818 105.009C83.7196 104.735 84.2431 104.439 84.8083 104.22C85.078 104.115 85.3569 104.012 85.6389 103.945C86.0776 103.841 87.5462 103.914 86.7777 104.896C86.3546 105.436 85.198 105.27 84.6237 105.198Z" fill="#263238"/>
<path opacity="0.1" d="M84.0566 110.482C88.5266 110.441 93.0653 110.322 93.3934 110.114C93.6413 109.959 93.8861 107.336 93.642 104.441L90.8239 104.454L84.0566 110.482Z" fill="#1D1D20"/>
<path d="M82.2245 104.309L94.0586 104.312C94.0586 104.312 91.6819 76.6714 91.775 76.189C91.8934 75.5707 92.5927 72.7731 93.5237 69.1186C93.8155 67.975 94.1299 66.7483 94.4571 65.4766C95.3403 62.0381 96.3137 58.2804 97.1616 55.0104C98.4346 50.1115 99.4284 47.5872 99.4284 47.5872L89.399 47.5851C89.399 47.5851 81.1546 71.1903 80.8258 76.0685C80.5392 80.3225 82.2245 104.309 82.2245 104.309Z" fill="#263238"/>
<path d="M82.749 102.29C84.5562 102.253 84.0371 102.238 85.8448 102.221C86.7294 102.213 92.5422 102.163 93.3686 102.3C93.3868 102.304 93.3868 102.334 93.3686 102.337C92.542 102.474 86.7292 102.422 85.8446 102.414C84.0369 102.396 84.5562 102.381 82.7488 102.343C82.7152 102.342 82.7152 102.291 82.749 102.29Z" fill="#37474F"/>
<path d="M89.5487 74.4991C89.9373 72.7884 90.5174 71.1123 91.0223 69.4332C92.0488 66.0216 97.0446 51.1239 97.2822 50.2764C97.379 49.9318 97.4318 50.1211 97.3079 50.5589C97.0581 51.4414 92.9466 64.0819 91.9072 67.5449C91.3859 69.281 90.8613 71.0162 90.3395 72.7524C90.0902 73.5819 89.8461 74.4163 89.6992 75.2715C89.5461 76.1633 89.5379 77.0655 89.5941 77.9667C89.7071 79.7772 89.9164 81.5851 90.0832 83.3916C90.2505 85.2017 90.4175 87.012 90.5846 88.8221C90.9172 92.4245 91.2501 96.0269 91.5734 99.6302C91.6144 100.087 91.6542 100.544 91.6893 101.001C91.701 101.154 91.5954 101.142 91.5794 100.995C91.1903 97.4331 90.7667 93.8592 90.4329 90.2914C90.1007 86.7413 89.7688 83.1912 89.4378 79.6409C89.3548 78.7495 89.26 77.8567 89.2598 76.9606C89.2595 76.129 89.3646 75.3091 89.5487 74.4991Z" fill="white"/>
<path d="M90.4491 74.4991C90.8377 72.7884 91.4178 71.1123 91.9227 69.4332C92.9492 66.0216 97.945 51.1239 98.1826 50.2764C98.2794 49.9318 98.3322 50.1211 98.2083 50.5589C97.9585 51.4414 93.847 64.0819 92.8076 67.5449C92.2863 69.281 91.7617 71.0162 91.2399 72.7524C90.9906 73.5819 90.7465 74.4163 90.5996 75.2715C90.4465 76.1633 90.4383 77.0655 90.4945 77.9667C90.6075 79.7772 90.8168 81.5851 90.9836 83.3916C91.1509 85.2017 91.3179 87.012 91.485 88.8221C91.8176 92.4245 92.1505 96.0269 92.4738 99.6302C92.5148 100.087 92.5546 100.544 92.5897 101.001C92.6014 101.154 92.4958 101.142 92.4798 100.995C92.0907 97.4331 91.6671 93.8592 91.3333 90.2914C91.0011 86.7413 90.6692 83.1912 90.3382 79.6409C90.2552 78.7495 90.1604 77.8567 90.1602 76.9606C90.1602 76.129 90.2653 75.3091 90.4491 74.4991Z" fill="white"/>
<path d="M90.5381 47.5851C91.2331 52.9719 92.5582 61.7911 93.5242 69.1186C95.7883 60.241 99.4289 47.5872 99.4289 47.5872L90.5381 47.5851Z" fill="#37474F"/>
<path d="M87.6733 110.382C88.2491 110.57 104.681 110.421 105.303 110.018C105.542 109.868 105.66 107.473 105.719 104.574C105.719 104.544 105.72 104.514 105.72 104.483C105.733 103.886 105.744 103.271 105.747 102.647C105.747 102.561 105.748 102.476 105.751 102.39C105.79 98.2066 105.489 93.8654 105.489 93.8654L94.7483 93.9329L95.0464 102.378L95.0577 102.713L95.1172 104.461L95.1229 104.641C95.1229 104.641 88.8587 107.512 88.2215 108.027C87.5896 108.541 87.0973 110.196 87.6733 110.382Z" fill="#AD6359"/>
<path d="M87.6733 110.382C88.2491 110.57 104.681 110.421 105.303 110.018C105.542 109.868 105.66 107.473 105.719 104.574C105.719 104.544 105.72 104.514 105.72 104.483C105.733 103.886 105.744 103.271 105.747 102.647C105.747 102.561 105.748 102.476 105.751 102.39L95.0464 102.378L95.0577 102.713L95.1172 104.461L95.1229 104.641C95.1229 104.641 88.8587 107.512 88.2215 108.027C87.5896 108.541 87.0973 110.196 87.6733 110.382Z" fill="#EBEBEB"/>
<path d="M87.2578 110.389C87.8523 110.585 104.851 110.526 105.498 110.114C105.744 109.959 105.989 107.337 105.746 104.44L94.7876 104.491C94.7876 104.491 88.501 107.426 87.8401 107.954C87.183 108.482 86.6634 110.192 87.2578 110.389Z" fill="#F2D352"/>
<path d="M87.4992 109.708C90.3482 109.628 101.848 109.574 104.67 109.712C104.693 109.713 104.693 109.728 104.67 109.729C101.848 109.87 90.3485 109.831 87.4992 109.754C87.4392 109.753 87.439 109.71 87.4992 109.708Z" fill="#263238"/>
<path d="M88.9313 107.339C89.6069 107.309 90.2685 107.628 90.6384 108.029C90.9936 108.414 91.2984 108.957 91.2804 109.548C91.2799 109.565 91.2487 109.566 91.2461 109.548C91.0795 108.434 90.0617 107.458 88.9313 107.375C88.9085 107.373 88.9082 107.34 88.9313 107.339Z" fill="#263238"/>
<path d="M93.8949 104.78C95.0353 104.76 96.3589 105.158 97.0708 106.088C97.0984 106.124 97.0468 106.163 97.0129 106.146C95.98 105.618 94.9986 105.225 93.8757 104.921C93.7965 104.899 93.8133 104.782 93.8949 104.78Z" fill="#263238"/>
<path d="M93.0149 105.126C94.1554 105.107 95.479 105.504 96.191 106.435C96.2186 106.471 96.167 106.51 96.133 106.492C95.1 105.965 94.1186 105.572 92.9957 105.267C92.9167 105.245 92.9333 105.128 93.0149 105.126Z" fill="#263238"/>
<path d="M92.1362 105.473C93.2766 105.453 94.6002 105.851 95.3123 106.781C95.3399 106.817 95.2883 106.856 95.2542 106.838C94.2215 106.311 93.2399 105.918 92.117 105.613C92.0378 105.592 92.0543 105.474 92.1362 105.473Z" fill="#263238"/>
<path d="M91.257 105.819C92.3975 105.799 93.7211 106.197 94.4332 107.127C94.4608 107.163 94.4092 107.202 94.3754 107.185C93.3426 106.657 92.361 106.264 91.2381 105.96C91.1589 105.938 91.1754 105.821 91.257 105.819Z" fill="#263238"/>
<path d="M103.934 107.008C105.214 107.007 105.217 108.996 103.936 108.996C102.656 108.997 102.653 107.009 103.934 107.008Z" fill="#263238"/>
<path d="M92.7487 103.412C93.367 104.204 94.3063 104.701 95.1204 105.26C95.2049 105.318 95.3011 105.249 95.3251 105.167C95.3439 105.168 95.3621 105.158 95.3607 105.134C95.2935 104.151 94.8934 103.024 94.314 102.221C93.9562 101.725 93.2273 101.26 92.6518 101.741C92.1072 102.196 92.3878 102.95 92.7487 103.412ZM92.6926 102.468C92.8018 101.226 93.9245 102.176 94.1736 102.552C94.3337 102.793 94.4676 103.059 94.5929 103.32C94.8557 103.866 95.0357 104.44 95.2414 105.007C94.8583 104.708 94.4532 104.445 94.0596 104.16C93.5904 103.821 92.6323 103.152 92.6926 102.468Z" fill="#263238"/>
<path d="M99.4078 104.393C99.3156 103.648 98.4655 103.49 97.8655 103.608C96.894 103.798 95.832 104.348 95.1115 105.02C95.0938 105.037 95.1005 105.056 95.1151 105.068C95.0767 105.145 95.1 105.261 95.2013 105.276C96.1774 105.424 97.2029 105.703 98.1953 105.547C98.7746 105.456 99.4946 105.097 99.4078 104.393ZM96.7272 105.198C96.2453 105.136 95.7694 105.052 95.2853 105.009C95.8231 104.735 96.3466 104.439 96.9118 104.22C97.1815 104.115 97.4604 104.012 97.7424 103.945C98.1811 103.841 99.6497 103.914 98.8812 104.896C98.4581 105.436 97.3015 105.27 96.7272 105.198Z" fill="#263238"/>
<path d="M89.4668 47.5848C89.4668 47.5848 89.697 51.1025 90.7945 54.9034C90.8823 55.2175 90.9778 55.5266 91.0808 55.8233C91.0808 55.8233 91.9683 56.2382 93.715 57.3096C93.715 57.3096 93.8298 61.1705 93.9445 65.4766C94.0717 70.2903 94.2037 75.6593 94.1756 76.7981C94.0741 81.0586 94.7022 104.486 94.7022 104.486L106.534 104.536C106.534 104.536 104.401 78.3739 104.416 76.813C104.439 74.3042 103.846 63.2165 103.388 55.1302C103.108 50.148 102.877 47.5882 102.877 47.5882L89.4668 47.5848Z" fill="#263238"/>
<path d="M95.1076 102.381C96.915 102.352 96.3959 102.335 98.2036 102.325C99.0882 102.321 104.901 102.296 105.727 102.437C105.745 102.44 105.745 102.47 105.727 102.473C104.9 102.606 99.0875 102.53 98.2029 102.517C96.3952 102.492 96.9146 102.479 95.1076 102.433C95.0735 102.433 95.0735 102.382 95.1076 102.381Z" fill="#37474F"/>
<path d="M101.93 49.3047C102.162 56.0988 102.408 61.5749 102.722 68.3662C103.038 75.1807 103.462 81.9927 104.049 88.7907C104.377 92.5887 104.687 97.9308 105.109 101.72C105.112 101.746 105.072 101.755 105.068 101.729C104.157 94.9887 103.647 86.6551 103.197 79.8727C102.747 73.0915 102.441 66.2988 102.201 59.5078C102.066 55.6663 101.962 53.142 101.843 49.3001C101.841 49.2456 101.928 49.2507 101.93 49.3047Z" fill="white"/>
<path d="M101.103 49.3042C101.335 56.0983 101.581 61.5744 101.895 68.3657C102.211 75.1803 102.635 81.9922 103.222 88.7902C103.55 92.5882 103.86 97.9303 104.282 101.72C104.284 101.745 104.245 101.754 104.241 101.728C103.329 94.9882 102.819 86.6547 102.37 79.8723C101.92 73.0911 101.614 66.2981 101.374 59.5073C101.238 55.6659 101.135 53.1415 101.016 49.2996C101.014 49.2449 101.101 49.2499 101.103 49.3042Z" fill="white"/>
<path d="M101.427 53.5913C101.136 53.5167 100.824 53.4929 100.528 53.4459C100.288 53.4079 100.049 53.3657 99.8116 53.3134C99.3652 53.215 98.9123 53.0669 98.548 52.7815C97.9578 52.3193 97.281 49.9834 97.1982 49.8343C97.0561 49.5787 97.0137 49.8034 97.0137 49.8274C97.0125 50.0986 97.6345 52.1443 97.8745 52.5264C98.3135 53.2253 99.0983 53.5068 99.8831 53.6059C100.108 53.6343 100.335 53.6503 100.561 53.6633C100.841 53.6791 101.139 53.7043 101.418 53.6698C101.461 53.6643 101.473 53.6033 101.427 53.5913Z" fill="#37474F"/>
<path d="M91.1193 55.8797C92.2732 56.2766 93.3868 56.8406 94.4517 57.4315C94.4935 57.4548 94.4659 57.5196 94.4208 57.5002C93.2983 57.0182 92.1535 56.557 91.0588 56.0136C90.9729 55.9711 91.0308 55.8492 91.1193 55.8797Z" fill="#37474F"/>
<path d="M90.781 48.1908C90.7841 48.1519 90.852 48.1435 90.8518 48.1853C90.8427 49.518 90.9276 50.6907 91.04 51.936C91.092 52.5144 91.5574 55.7098 92.5599 55.4767C92.7276 55.4376 92.8133 55.2725 92.8397 55.0195C92.8714 54.7152 92.7569 54.342 92.7068 54.0394C92.5954 53.3705 92.5061 52.6992 92.4488 52.0236C92.3415 50.7622 92.3362 49.5007 92.4896 48.2434C92.4946 48.2021 92.5544 48.2052 92.5541 48.247C92.5527 49.9932 92.5983 51.7361 92.8594 53.4655C92.9849 54.2967 93.4035 55.548 92.5342 55.6759C91.6486 55.8063 91.076 53.7101 90.968 53.137C90.6665 51.5369 90.6545 49.8094 90.781 48.1908Z" fill="#37474F"/>
<path d="M92.5339 55.5626C92.6246 55.7772 92.6973 56.0004 92.7595 56.225C92.8075 56.3993 92.873 56.5877 92.8531 56.7694C92.8492 56.8046 92.8024 56.808 92.7837 56.7842C92.6661 56.6352 92.6164 56.4312 92.5507 56.2543C92.4746 56.0496 92.3937 55.8461 92.3234 55.6392C92.2766 55.5019 92.478 55.4304 92.5339 55.5626Z" fill="#37474F"/>
<path d="M94.1419 35.833C92.7619 40.1225 89.0863 47.4058 86.9191 45.9425C83.6777 43.7539 81.0605 38.4113 80.0172 36.2496C79.4326 35.0381 85.3421 32.2563 85.8622 33.3569C86.6016 34.9219 88.1318 38.1859 88.6939 38.6107C88.9901 38.8344 90.7634 35.6499 92.2018 34.0735C94.2751 31.8015 94.5828 34.4626 94.1419 35.833Z" fill="#AD6359"/>
<path d="M78.2632 33.4858C78.7105 34.7683 80.6509 37.0332 81.3292 37.3995C82.0074 37.7657 85.9981 34.7167 85.9849 33.9257C85.9717 33.1349 84.1009 28.8115 82.9269 28.0755C81.7525 27.3394 77.7997 32.1571 78.2632 33.4858Z" fill="#AD6359"/>
<path d="M85.7665 33.0329C85.7665 33.0329 85.8238 31.2672 86.3907 29.8176C86.8674 28.5989 87.7129 26.8431 87.067 26.562C85.7413 25.9853 83.6343 30.3651 83.6343 30.3651C83.6343 30.3651 83.0149 32.4466 84.2778 33.1342C85.07 33.5657 85.7665 33.0329 85.7665 33.0329Z" fill="#AD6359"/>
<path d="M84.5052 29.5706C84.3564 30.2748 83.6119 29.6962 83.6119 29.6962C83.6119 29.6962 84.4829 30.787 84.0487 31.4534C83.6285 32.0947 82.7539 31.3642 82.6906 31.3128C82.7362 31.3709 83.5104 32.3942 83.0052 33.019C82.4796 33.6679 81.7272 32.784 81.679 32.7266C81.7046 32.795 82.0308 33.7049 81.539 34.0922C80.6938 34.7575 79.7962 32.454 78.9845 32.1374C78.9845 32.1374 78.2911 33.4514 78.263 33.4855C78.263 33.4855 77.3642 31.3114 77.8522 30.2407C78.1094 29.6762 78.6862 29.8046 78.6862 29.8046C78.6862 29.8046 78.319 29.1358 78.701 28.6313C78.8978 28.3728 79.4866 28.458 79.4866 28.458C79.4866 28.458 79.2149 27.9101 79.5828 27.4826C79.8754 27.1404 80.4204 27.2791 80.4204 27.2791C80.4204 27.2791 80.4036 26.6318 80.8162 26.3796C81.6468 25.8684 84.8225 28.0627 84.5052 29.5706Z" fill="#AD6359"/>
<path d="M80.5105 27.2875C80.4994 27.281 80.5061 27.2642 80.5186 27.269C81.739 27.7358 82.9371 28.6229 83.6559 29.7233C83.6794 29.7593 83.6312 29.8133 83.5976 29.7785C82.6397 28.7858 81.7105 27.9814 80.5105 27.2875Z" fill="#263238"/>
<path d="M79.4752 28.4405C79.4622 28.433 79.4745 28.4112 79.4894 28.4172C80.7443 28.9049 82.066 29.9412 82.7454 31.3073C82.7687 31.3541 82.7428 31.4196 82.7118 31.3678C82.1913 30.4934 80.5586 29.0597 79.4752 28.4405Z" fill="#263238"/>
<path d="M81.6936 32.8385C80.9916 31.5538 79.9486 30.6233 78.7397 29.8217C78.7241 29.8114 78.7404 29.79 78.756 29.7953C79.4542 30.0264 80.1716 30.6175 80.6907 31.1249C81.188 31.6109 81.5391 32.1492 81.7388 32.814C81.7462 32.8397 81.7085 32.8658 81.6936 32.8385Z" fill="#263238"/>
<path d="M83.6363 29.6974C83.6646 29.7408 83.5701 29.7343 83.5969 29.7785C83.71 29.9645 84.2944 31.1429 83.9548 31.4666C83.6819 31.7254 83.145 31.5384 82.9669 31.3858L82.5191 31.0018L82.8061 31.5182C82.9314 31.7436 83.032 31.9994 83.0769 32.2519C83.1222 32.5037 83.1004 32.7667 82.9542 32.9472C82.8054 33.1387 82.5786 33.2143 82.3583 33.1212C82.137 33.0384 81.9299 32.8512 81.7722 32.657L81.3318 32.1142L81.5694 32.7684C81.6337 32.9455 81.6801 33.1433 81.6969 33.3331C81.7122 33.5227 81.6964 33.7174 81.6112 33.8657C81.5284 34.0116 81.3645 34.1134 81.2049 34.0982C81.0366 34.0848 80.8653 33.9727 80.7138 33.851C80.4073 33.5986 80.151 33.2767 79.8813 32.9705C79.7471 32.8159 79.6127 32.6604 79.4709 32.5116C79.3278 32.3666 79.1783 32.2123 78.9844 32.1379C79.1682 32.2313 79.2964 32.3969 79.4286 32.5493C79.5575 32.707 79.6787 32.8709 79.8006 33.0353C80.0445 33.3641 80.2936 33.6922 80.6044 33.9792C80.763 34.1158 80.9399 34.2583 81.1837 34.2943C81.4357 34.3296 81.6777 34.1798 81.7965 33.9742C81.9186 33.7646 81.9333 33.5309 81.9205 33.3163C81.904 33.0984 81.8598 32.8937 81.7881 32.6854L81.5853 32.7967C81.7696 33.0278 81.9791 33.2316 82.2721 33.3521C82.4166 33.4104 82.5947 33.4274 82.7555 33.3742C82.9173 33.3214 83.0442 33.2177 83.1417 33.0924C83.3428 32.8313 83.3521 32.4924 83.2972 32.2121C83.2398 31.9238 83.1318 31.6622 82.9869 31.4098L82.8263 31.5422C83.0593 31.7287 83.6368 32.0033 84.1103 31.655C84.6594 31.1086 83.8077 29.9062 83.6363 29.6974Z" fill="#263238"/>
<path d="M83.6123 29.6962C83.7541 29.7631 83.8986 29.8152 84.0323 29.8323C84.1662 29.8503 84.2831 29.8059 84.3508 29.7175C84.4209 29.6302 84.4437 29.4876 84.4521 29.3446C84.4562 29.1996 84.453 29.0472 84.4437 28.8898C84.5279 29.0242 84.5858 29.1749 84.6093 29.3362C84.6311 29.4948 84.6275 29.6796 84.5097 29.8416C84.4456 29.9175 84.3635 29.9729 84.2699 29.9981C84.1756 30.0204 84.0808 30.013 83.9987 29.9856C83.8329 29.9328 83.7059 29.8234 83.6123 29.6962Z" fill="#263238"/>
<path d="M86.3889 33.3461L80.8389 38.3146C80.8389 38.3146 81.1602 38.8279 81.604 39.6379C81.7223 39.8542 81.567 41.1365 81.8761 41.6179C83.4601 44.0846 86.1959 46.7861 87.7986 46.5941C90.3522 46.2883 93.3352 39.461 94.3074 36.5455C95.2797 33.63 94.2544 31.363 91.9581 34.1784C89.6478 37.0111 88.8537 38.1338 88.7663 38.1089C88.6801 38.0844 88.4509 36.9007 87.9117 35.6614C87.7797 35.358 87.1468 34.9049 87.0201 34.6258C86.9209 34.4071 86.3889 33.3461 86.3889 33.3461Z" fill="#F2D352"/>
<path d="M88.6897 37.9586C89.0447 38.6364 89.3195 39.355 89.582 40.0726C89.7123 40.4287 89.8247 40.7914 89.9355 41.1538C90.0445 41.5099 90.146 41.8805 90.2055 42.2484C90.2077 42.2621 90.188 42.265 90.1827 42.2534C90.0294 41.9095 89.9034 41.5474 89.7803 41.1917C89.6562 40.8336 89.5249 40.4782 89.4015 40.1198C89.1551 39.4032 88.8807 38.6952 88.6554 37.9714C88.6482 37.9483 88.6791 37.9382 88.6897 37.9586Z" fill="#263238"/>
<path d="M86.6033 35.2207C86.3201 35.4458 86.0541 35.6959 85.7846 35.9371C85.5146 36.1788 85.247 36.4229 84.9828 36.6708C84.4543 37.1662 83.9285 37.6642 83.4089 38.1691C83.2668 38.3074 83.1249 38.4456 82.9855 38.5862C82.836 38.737 82.7052 38.9062 82.5547 39.055C82.5429 39.0667 82.5602 39.0845 82.5725 39.0734C82.7045 38.9544 82.8535 38.8534 82.9881 38.7367C83.1276 38.6158 83.2646 38.4917 83.4005 38.3669C83.6671 38.1218 83.933 37.8758 84.198 37.6286C84.7269 37.1342 85.2542 36.6367 85.7669 36.1253C86.0565 35.8363 86.357 35.5534 86.6292 35.2476C86.6453 35.2294 86.622 35.2058 86.6033 35.2207Z" fill="#263238"/>
<path opacity="0.1" d="M84.3799 44.6837C85.6058 45.8738 86.8855 46.7033 87.7992 46.5943C90.3516 46.2878 93.3352 39.4601 94.3077 36.5453C94.8672 34.8658 94.7647 33.401 94.1373 33L84.3799 44.6837Z" fill="#1D1D20"/>
<path d="M88.3192 50.7372L103.275 51.2011C103.31 51.1644 103.252 50.5709 103.225 50.3347C103.22 50.2899 104.006 49.6311 103.88 48.9459C103.147 44.9379 100.358 36.2964 98.1844 33.4099C97.0939 31.9615 94.1587 32.0674 93.0587 33.9348C91.5393 36.5148 88.9552 44.5349 88.077 48.5964C87.9748 49.0697 88.4839 49.921 88.4834 50.07L88.3192 50.7372Z" fill="#F2D352"/>
<path opacity="0.1" d="M98.9716 49.1448L97.9247 46.7803L97.966 46.8017C97.5695 46.8655 97.1653 46.7753 96.8185 46.5835C96.4696 46.3908 96.1953 46.0862 95.9917 45.7519L95.9121 45.6276C95.8888 45.5847 95.8686 45.5395 95.847 45.4956L95.7188 45.2304C95.6536 45.0463 95.5806 44.8637 95.5273 44.6758C95.4827 44.4859 95.426 44.298 95.3912 44.1062L95.2974 43.529L95.3711 43.5967L91.6871 43.4926L91.7773 43.41C91.7545 43.7184 91.7058 44.017 91.6405 44.3158C91.575 44.6136 91.4886 44.9081 91.3693 45.1918C91.2493 45.4738 91.1092 45.7538 90.9035 45.9922C90.7024 46.2314 90.4477 46.4338 90.1496 46.5521L90.2058 46.4875L89.6565 48.8688L89.5772 48.7661C91.1312 48.8153 92.6843 48.8803 94.2474 48.9461L98.9716 49.1448ZM98.9716 49.1448L94.2988 49.0488C92.7294 49.0164 91.15 48.9835 89.5715 48.9348L89.4697 48.9317L89.4921 48.8321L90.0292 46.4479L90.0395 46.4021L90.0856 46.3834C90.3486 46.2763 90.5761 46.0956 90.7604 45.8743C90.9476 45.6542 91.082 45.3898 91.1984 45.121C91.3139 44.8505 91.3993 44.5659 91.4646 44.2767C91.5296 43.9882 91.5791 43.6915 91.6021 43.4002L91.6088 43.3147L91.6924 43.3176L95.3759 43.4439L95.44 43.446L95.4496 43.5115L95.5328 44.0798C95.564 44.2685 95.6166 44.4526 95.6574 44.6393C95.7066 44.8236 95.775 45.0017 95.8355 45.1824L95.9555 45.4409C95.9759 45.4839 95.9946 45.5278 96.0164 45.5698L96.0913 45.6905C96.2824 46.0159 96.5396 46.3099 96.8677 46.4976C97.192 46.6829 97.58 46.7806 97.9504 46.7302L97.9813 46.7259L97.9919 46.7515L98.9716 49.1448Z" fill="#1D1D20"/>
<g opacity="0.1">
<path d="M88.9922 49.945C93.5356 49.9303 98.1057 50.0779 102.64 50.3856C98.0949 50.4002 93.5255 50.2526 88.9922 49.945Z" fill="#1D1D20"/>
</g>
<g opacity="0.1">
<path d="M95.4165 38.2282C96.244 38.1859 97.0718 38.1634 97.8998 38.1456C97.9485 38.7617 97.991 39.3775 98.0174 39.9955C98.0167 40.0692 98.0318 40.259 98.0303 40.3306C98.0277 40.3716 98.0409 40.3939 98.0198 40.476C97.9931 40.5374 97.9744 40.5446 97.9598 40.5624C97.6257 40.8509 97.2511 41.069 96.8572 41.2728C96.778 41.3076 96.6287 41.3918 96.5047 41.3419C96.173 41.1828 95.8963 40.9411 95.6155 40.7102C95.5108 40.6111 95.3879 40.5269 95.3174 40.3939C95.2559 40.0584 95.2929 39.7334 95.2967 39.4104L95.3419 38.5229L95.3455 38.4499L95.416 38.4509C96.1307 38.4602 96.845 38.4799 97.5595 38.5102C96.8457 38.551 96.1317 38.581 95.4172 38.6006L95.4914 38.5286C95.4959 39.0367 95.4686 39.7932 95.5089 40.284C95.5137 40.3159 95.5103 40.3097 95.5276 40.331C95.6973 40.5108 95.9027 40.6642 96.1003 40.8139C96.2599 40.9255 96.4228 41.0575 96.5954 41.1242C96.9957 40.9699 97.5151 40.6291 97.8088 40.4074C97.8019 39.696 97.757 38.9527 97.745 38.2325L97.8254 38.3088C97.0223 38.2927 96.2193 38.2687 95.4165 38.2282Z" fill="#1D1D20"/>
</g>
<path d="M98.4132 33.2515C103.635 36.6713 108.708 42.4541 109.065 46.1631C109.416 49.826 108.109 49.5804 107.744 49.5881C105.517 49.6344 99.7428 40.3179 97.7818 36.3039C95.9921 32.6408 97.1218 32.4058 98.4132 33.2515Z" fill="#F2D352"/>
<path d="M104.554 46.9791C104.258 46.5389 103.954 46.1055 103.665 45.6615L102.782 44.3408C102.199 43.4573 101.608 42.5789 101.039 41.6864C100.452 40.8053 99.8861 39.9111 99.3221 39.0156C99.0389 38.5685 98.7605 38.1188 98.4896 37.6642C98.21 37.2144 97.951 36.7534 97.6875 36.2926C98.1111 37.266 98.624 38.1982 99.1527 39.1179C99.6831 40.0373 100.252 40.9328 100.823 41.8268C101.412 42.7092 102.001 43.5915 102.62 44.4526C103.24 45.313 103.872 46.1662 104.554 46.9791Z" fill="#263238"/>
<path d="M98.3114 37.4765C98.2068 37.3114 98.0875 37.1681 97.9685 37.0236C97.9066 36.9536 97.848 36.8811 97.783 36.8129C97.7189 36.7438 97.6574 36.6728 97.585 36.606C97.6406 36.7944 97.7482 36.9591 97.8703 37.1067C97.9963 37.2514 98.1379 37.3841 98.3114 37.4765Z" fill="#263238"/>
<g opacity="0.1">
<path d="M92.9273 33.7378C93.1239 36.1438 94.8794 35.948 96.2825 34.5125C96.6778 34.1213 97.0404 33.6833 97.2653 33.168C97.1297 33.7236 96.7932 34.2128 96.4162 34.64C95.8457 35.2575 95.0537 35.9021 94.1465 35.8044C93.1827 35.6811 92.8203 34.5579 92.9273 33.7378Z" fill="#1D1D20"/>
</g>
<path d="M93.0604 41.4396C94.1083 39.8726 95.0755 38.2435 95.8663 36.5318C96.2503 35.6741 96.5985 34.7887 96.7533 33.8638C97.0958 32.0844 96.0367 31.1244 94.3924 32.0666C93.0071 32.8546 93.01 34.3682 92.9565 35.7811C92.9061 37.6666 92.9716 39.5554 93.0604 41.4396ZM93.0604 41.4396C92.9212 39.557 92.8317 37.6687 92.8737 35.7787C92.9152 34.325 92.9119 32.7958 94.3336 31.9697C96.0479 30.9658 97.229 32.0107 96.85 33.8796C96.2483 36.6653 94.6324 39.1116 93.0604 41.4396Z" fill="#263238"/>
<path d="M92.946 41.5274C92.9565 41.5942 93.0197 41.6402 93.0864 41.6299C93.1531 41.6194 93.1992 41.5562 93.1889 41.4893C93.1778 41.4194 93.1147 41.3734 93.048 41.3839C92.981 41.3945 92.9349 41.4576 92.946 41.5274ZM93.0067 41.5178C93.0014 41.4845 93.0245 41.4528 93.0578 41.4475C93.0912 41.4422 93.1229 41.4653 93.1281 41.4986C93.1334 41.532 93.1104 41.5637 93.077 41.569C93.0434 41.5745 93.012 41.5514 93.0067 41.5178Z" fill="#37474F"/>
<path d="M92.937 42.4944C92.937 42.4944 93.4823 42.2882 93.4163 41.8675C93.3882 41.6887 93.4141 41.5205 93.2893 41.478C93.2329 41.4588 93.0112 41.5087 92.949 41.5185C92.8101 41.5404 92.7294 41.591 92.6296 41.6892C92.368 41.9457 92.5708 42.8537 92.6277 43.2154L93.0381 43.151L92.937 42.4944Z" fill="#37474F"/>
<path d="M93.2798 42.4404C93.2798 42.4404 93.8251 42.2342 93.7591 41.8135C93.6931 41.3928 93.234 41.3786 92.9724 41.6352C92.7108 41.8918 92.9136 42.7997 92.9704 43.1614L93.2313 43.1206L93.2798 42.4404Z" fill="#455A64"/>
<path d="M92.5635 42.0142L92.778 41.9806L92.7939 41.8658L92.5793 41.8997L92.5635 42.0142Z" fill="#263238"/>
<path d="M93.9213 34.9709C94.8081 35.3064 96.2699 33.955 96.7581 32.7888C96.791 32.7087 96.3659 29.7221 96.3023 29.1163C96.2898 28.9918 92.5996 30.438 92.5996 30.438C92.5996 30.438 93.1062 31.6687 93.2106 32.7257C93.2183 32.8143 93.2183 32.8971 93.2106 32.977C93.2106 32.9885 93.2087 33.0027 93.2094 33.0187C93.1818 33.499 93.467 34.7991 93.9213 34.9709Z" fill="#AD6359"/>
<path d="M93.2097 33.0187C93.3314 33.0219 93.4619 33.0171 93.6021 32.9979C95.591 32.7451 96.0501 30.2307 96.1576 29.1346C95.4719 29.3127 92.5986 30.4368 92.5986 30.4368C92.5986 30.4368 93.1067 31.6675 93.2102 32.7267C93.2193 32.8138 93.219 32.8983 93.2111 32.9763C93.2116 32.9873 93.2078 33.0027 93.2097 33.0187Z" fill="#263238"/>
<path d="M96.1507 24.367C96.7936 25.6289 96.7708 29.6072 95.9738 30.6341C94.8187 32.1228 92.5879 32.6403 91.2372 31.1741C89.9277 29.7528 90.0494 24.5691 90.9712 23.6007C92.3289 22.1746 95.201 22.5029 96.1507 24.367Z" fill="#AD6359"/>
<path d="M92.9062 27.3574C92.9083 27.3473 92.927 27.3701 92.9268 27.3811C92.9182 27.649 92.9532 27.9574 93.1956 28.0464C93.203 28.049 93.2023 28.0627 93.1934 28.0613C92.8975 28.0198 92.8551 27.6098 92.9062 27.3574Z" fill="#263238"/>
<path d="M93.1463 27.0778C93.5773 27.0454 93.6102 27.9098 93.2109 27.9398C92.818 27.9694 92.7849 27.1049 93.1463 27.0778Z" fill="#263238"/>
<path d="M91.3277 27.419C91.3253 27.4087 91.3073 27.4325 91.3081 27.4435C91.3268 27.7109 91.303 28.0205 91.0645 28.1186C91.057 28.1218 91.0582 28.1352 91.0671 28.1335C91.3611 28.0805 91.3882 27.6694 91.3277 27.419Z" fill="#263238"/>
<path d="M91.0774 27.1486C90.6457 27.1323 90.6447 27.9975 91.0448 28.0123C91.4386 28.0272 91.4393 27.162 91.0774 27.1486Z" fill="#263238"/>
<path d="M93.3723 26.5505C93.2506 26.5517 93.1385 26.5323 93.0183 26.521C92.8827 26.5083 92.7732 26.5118 92.6631 26.4221C92.604 26.3738 92.5942 26.2622 92.6355 26.2003C92.732 26.0563 92.9021 26.0306 93.066 26.0395C93.2439 26.0491 93.3785 26.1019 93.5103 26.2215C93.638 26.3371 93.5324 26.5491 93.3723 26.5505Z" fill="#263238"/>
<path d="M90.7485 26.9667C90.87 26.9626 90.9813 26.9386 91.1008 26.9223C91.236 26.9038 91.3454 26.9028 91.4515 26.8083C91.5086 26.7576 91.5136 26.6458 91.4695 26.5855C91.367 26.4459 91.1961 26.4274 91.0327 26.4432C90.8553 26.4603 90.7228 26.5186 90.5964 26.6436C90.474 26.7648 90.5882 26.9717 90.7485 26.9667Z" fill="#263238"/>
<path d="M93.3345 29.8783C93.275 29.9455 93.2174 30.0362 93.1211 30.0516C93.0287 30.0662 92.9167 30.0322 92.8291 30.0053C92.8204 30.0026 92.8125 30.0122 92.8185 30.0199C92.8953 30.1176 93.046 30.1711 93.1682 30.1404C93.2877 30.1104 93.34 30.0017 93.3614 29.8886C93.364 29.8728 93.3431 29.8685 93.3345 29.8783Z" fill="#263238"/>
<path d="M93.047 29.0107C92.9143 29.2536 92.7036 29.3962 92.4691 29.4598C92.3645 29.4888 92.2531 29.5006 92.1427 29.4984C92.1211 29.4996 92.0995 29.4986 92.0796 29.4958C92.0599 29.4948 92.0422 29.4938 92.0203 29.491C91.9889 29.4886 91.9697 29.4641 91.9622 29.435V29.4331C91.9618 29.4233 91.9613 29.4154 91.9627 29.4055C91.9627 29.4055 91.9627 29.4055 91.9625 29.4036L91.9613 29.3801C91.9406 29.1749 91.938 28.8605 91.938 28.8605C91.8655 28.9034 91.4947 29.1038 91.493 28.9958C91.4818 28.1021 91.469 27.108 91.6464 26.2164C91.6507 26.1866 91.6961 26.1902 91.6958 26.2198C91.7407 27.0785 91.6344 27.9391 91.6658 28.8022C91.7849 28.7467 91.9781 28.6464 92.0858 28.6406C92.1156 28.6469 92.0803 29.2483 92.0969 29.3398C92.0969 29.3398 92.0971 29.3438 92.0993 29.3494C92.4482 29.3686 92.7012 29.2452 93.0199 28.9886C93.0391 28.9721 93.0614 28.9884 93.047 29.0107Z" fill="#263238"/>
<path d="M92.2842 29.4336C92.2842 29.4336 92.4783 29.6431 92.7188 29.7002C92.8074 29.7216 92.9007 29.7235 92.9941 29.6873C93.1863 29.6136 93.1712 29.4314 93.1179 29.2802C93.0745 29.1557 93.0032 29.052 93.0032 29.052C93.0032 29.052 92.744 29.3544 92.2842 29.4336Z" fill="#263238"/>
<path d="M92.7188 29.7002C92.8074 29.7216 92.9007 29.7235 92.9941 29.6873C93.1863 29.6136 93.1712 29.4314 93.118 29.2802C92.9084 29.3254 92.7143 29.4924 92.7188 29.7002Z" fill="#FF9BBC"/>
<path opacity="0.3" d="M96.5813 28.1287C96.5162 29.2092 96.3166 30.192 95.9741 30.6334C94.8194 32.1223 92.5882 32.6405 91.2382 31.1739C90.786 30.6833 90.5045 29.7466 90.3682 28.6889C90.8969 29.5445 91.71 28.7395 91.71 28.7395L92.177 28.6822C92.7802 29.3717 94.1266 28.9896 94.759 28.4117C95.2195 27.9907 95.3916 26.7211 95.3916 26.7211L96.5813 28.1287Z" fill="#263238"/>
<path d="M96.6559 27.6026C96.1025 27.835 95.5615 27.21 95.3691 26.8709C95.1766 26.5315 95.1831 24.5093 94.836 24.0082C94.489 23.507 93.8542 23.285 93.3996 23.4845C92.9451 23.6839 92.4132 24.3823 92.0607 24.3946C91.7081 24.4068 91.5288 23.6628 91.2859 23.6935C90.7517 23.7612 90.355 25.1503 90.3329 25.7479C90.3329 25.7479 89.9993 23.2423 92.5284 22.6886C94.9954 22.1486 96.0163 23.7602 96.3293 24.4848C96.9288 25.8732 96.6559 27.6026 96.6559 27.6026Z" fill="#263238"/>
<path d="M90.7568 23.478C91.1526 23.4351 93.2855 23.7739 94.1936 24.3113C95.1018 24.8489 96.6316 26.4516 96.7103 26.5356C96.789 26.6196 97.6823 23.1478 94.9045 22.1362C91.8779 21.0341 90.7568 23.478 90.7568 23.478Z" fill="#F2D352"/>
<path d="M96.5643 26.3702C96.5643 26.3702 94.994 23.6318 94.016 22.9272C93.0383 22.2226 90.7261 21.5976 89.1887 22.051C87.9896 22.4045 90.5723 24.221 90.5723 24.221C90.5723 24.221 90.7011 23.827 91.0847 23.7293C91.8296 23.5397 93.1472 23.929 93.8809 24.2854C94.8044 24.7342 96.5643 26.3702 96.5643 26.3702Z" fill="#F2D352"/>
<path opacity="0.2" d="M96.5643 26.3702C96.5643 26.3702 94.994 23.6318 94.016 22.9272C93.0383 22.2226 90.7261 21.5976 89.1887 22.051C87.9896 22.4045 90.5723 24.221 90.5723 24.221C90.5723 24.221 90.7011 23.827 91.0847 23.7293C91.8296 23.5397 93.1472 23.929 93.8809 24.2854C94.8044 24.7342 96.5643 26.3702 96.5643 26.3702Z" fill="#1D1D20"/>
<path d="M95.5707 27.5527C95.5707 27.5527 96.2223 26.1528 96.8427 26.3638C97.4631 26.575 97.1261 28.4969 96.5057 28.861C95.8853 29.2253 95.5371 28.6575 95.5371 28.6575L95.5707 27.5527Z" fill="#AD6359"/>
<path d="M96.7319 26.9124C96.7425 26.9095 96.7471 26.9242 96.7384 26.9295C96.3062 27.1999 96.1372 27.6749 96.0444 28.1527C96.1526 27.9562 96.3244 27.8285 96.5841 27.9526C96.5978 27.9591 96.5894 27.9802 96.576 27.9797C96.378 27.9725 96.2462 28.0299 96.1444 28.2053C96.0722 28.3296 96.034 28.4772 95.9908 28.6135C95.9764 28.6589 95.8972 28.65 95.9047 28.5991C95.9052 28.5955 95.9061 28.5915 95.9066 28.5876C95.7904 27.9963 96.1053 27.0843 96.7319 26.9124Z" fill="#263238"/>
<path d="M95.3483 36.7359L85.7441 39.4841L89.3217 51.9866L98.9258 49.2384L95.3483 36.7359Z" fill="#F2D352"/>
<path opacity="0.4" d="M95.3483 36.7359L85.7441 39.4841L89.3217 51.9866L98.9258 49.2384L95.3483 36.7359Z" fill="#1D1D20"/>
<path d="M92.6794 36.8075L88.126 38.1048L88.5191 39.4846L93.0725 38.1873L92.6794 36.8075Z" fill="#C7C7C7"/>
<path d="M91.6482 37.1009L91.0873 37.2607L90.9061 36.6245L89.5437 37.0126L89.7249 37.6488L89.1642 37.8087L88.834 36.6495L91.3259 35.9395L91.6482 37.1009Z" fill="#C7C7C7"/>
<path d="M108.401 49.4074C106.898 50.1116 104.561 49.5 98.3325 47.3724C97.4707 47.078 97.912 40.4364 98.8485 40.7036C100.028 41.04 104.533 42.601 104.849 42.757C107.506 44.0705 109.421 48.9298 108.401 49.4074Z" fill="#AD6359"/>
<path d="M101.219 41.9338C101.219 41.9338 99.1423 40.3546 97.7945 39.8626C95.9897 39.2038 94.1604 39.378 93.3982 39.4973C91.807 39.7464 88.1323 41.4485 88.4379 42.5924C88.7146 43.628 92.383 41.6981 92.383 41.6981C92.383 41.6981 88.3181 43.0484 88.8804 44.234C89.4427 45.4196 93.5736 42.9372 93.5736 42.9372C93.5736 42.9372 89.4283 44.4183 90.2016 45.5492C90.786 46.4038 94.6541 44.3662 94.6541 44.3662C94.6541 44.3662 91.0997 45.6639 91.663 46.5687C92.2853 47.5685 95.9739 45.9118 95.9739 45.9118C97.7923 47.9708 99.5427 48.1659 100.778 48.1894C101.077 48.1954 101.219 41.9338 101.219 41.9338Z" fill="#AD6359"/>
<path d="M93.7587 41.1413C93.2756 41.2827 92.7855 41.4224 92.3165 41.6062C91.8476 41.79 91.3846 41.9904 90.9349 42.217C89.8316 42.7728 89.2277 43.2934 89.2685 43.2653C90.2336 42.6008 91.9023 41.9168 92.3715 41.7329C92.8395 41.5496 93.2984 41.3424 93.7666 41.1586C93.7781 41.1543 93.7702 41.1377 93.7587 41.1413Z" fill="#263238"/>
<path d="M94.4532 42.8228C93.8438 43.0301 93.2316 43.2132 92.6313 43.4475C92.034 43.6805 91.4877 43.9539 90.9079 44.2272C90.8633 44.2484 90.8892 44.2654 90.935 44.246C91.5252 43.9959 92.0901 43.8101 92.6829 43.567C93.2741 43.3246 93.8599 43.0575 94.4592 42.8369C94.4685 42.8333 94.4623 42.8196 94.4532 42.8228Z" fill="#263238"/>
<path d="M95.3093 44.1586C94.362 44.4276 93.4656 44.8709 92.5966 45.3269C92.5534 45.3497 92.5894 45.368 92.6347 45.3473C93.5292 44.942 94.2279 44.6177 95.3187 44.1915C95.3357 44.185 95.3292 44.1531 95.3093 44.1586Z" fill="#263238"/>
<path d="M100.969 41.1272L101.235 49.0385C101.235 49.0385 101.791 49.1741 102.774 49.3515C102.774 49.3515 103.894 50.1 104.435 50.1718C106.155 50.4003 108.042 49.9349 108.51 49.3256C109.436 48.1212 107.352 44.1528 105.511 42.9651C104.743 42.47 100.969 41.1272 100.969 41.1272Z" fill="#F2D352"/>
<path d="M100.978 41.3909L100.982 41.1269L100.964 41.1399C101.6 41.3964 102.236 41.6484 102.868 41.911C103.501 42.1683 104.132 42.4328 104.747 42.7256C105.052 42.8722 105.362 43.0181 105.642 43.2008C105.923 43.3851 106.184 43.6008 106.431 43.8312C106.921 44.298 107.322 44.856 107.647 45.4596C107.392 44.8227 107.015 44.2292 106.533 43.7285C106.295 43.4756 106.026 43.2526 105.738 43.0563C105.447 42.8588 105.137 42.7076 104.829 42.5532C104.204 42.2621 103.567 42.0068 102.925 41.7651C102.28 41.532 101.631 41.3091 100.973 41.1152L100.954 41.1094L100.956 41.1281L100.978 41.3909Z" fill="#263238"/>
<path d="M102.707 42.5708C102.696 42.9668 102.718 43.3657 102.73 43.7614C102.743 44.1579 102.759 44.5541 102.78 44.9504C102.822 45.7424 102.869 46.5339 102.926 47.3249C102.941 47.5414 102.958 47.7577 102.977 47.9739C102.998 48.2053 103.048 48.4344 103.066 48.6651C103.068 48.6831 103.095 48.6812 103.094 48.6632C103.088 48.4688 103.108 48.2727 103.105 48.0776C103.102 47.8755 103.095 47.6734 103.086 47.4716C103.069 47.0753 103.05 46.6793 103.03 46.2831C102.988 45.4913 102.943 44.6989 102.876 43.909C102.838 43.4626 102.812 43.0114 102.748 42.5679C102.744 42.5417 102.708 42.5446 102.707 42.5708Z" fill="#263238"/>
<path d="M101.211 48.3348C101.246 48.5686 101.273 48.8024 101.292 49.0366L101.246 48.9819C101.775 49.0618 102.31 49.1475 102.824 49.2833C103.181 49.548 103.542 49.8142 103.944 50.0127C103.5 49.9097 103.1 49.6714 102.723 49.4201C102.393 49.3872 101.675 49.212 101.223 49.0956L101.176 49.0829C101.178 48.8336 101.19 48.5844 101.211 48.3348Z" fill="#263238"/>
<path d="M75.0279 19.6543C75.3291 22.5336 77.9086 24.6245 80.7879 24.3235C81.9516 24.2018 82.9858 23.7079 83.7869 22.9702L86.4096 23.3551L85.0973 21.0878C85.4158 20.3131 85.55 19.451 85.4571 18.5635C85.1559 15.6842 82.5764 13.5934 79.6971 13.8943C76.8178 14.1955 74.7267 16.775 75.0279 19.6543Z" fill="white"/>
<path d="M76.5975 15.325C77.1667 14.7694 77.8615 14.3405 78.6192 14.0854C79.3779 13.8331 80.1953 13.7609 80.9899 13.8662C81.7836 13.9738 82.5588 14.2558 83.2272 14.7058C83.8961 15.1543 84.4627 15.756 84.8691 16.4542C85.6841 17.8483 85.8274 19.6303 85.1919 21.1267L85.1859 21.037L86.4903 23.3088L86.5865 23.4766L86.3964 23.4473L83.7763 23.045L83.8383 23.0258C83.1125 23.6837 82.2039 24.1327 81.2446 24.3065C81.0048 24.3504 80.7624 24.3766 80.5191 24.3821C80.2759 24.4034 80.0333 24.3814 79.7906 24.3682C79.3097 24.3103 78.8275 24.2203 78.3792 24.0317C77.929 23.8546 77.4979 23.623 77.1147 23.3275C76.9135 23.1919 76.7436 23.0179 76.5615 22.859C76.4009 22.6786 76.2238 22.5118 76.0863 22.3121C75.4877 21.5498 75.1378 20.6117 75.0281 19.6546C74.8582 18.0758 75.4399 16.4251 76.5975 15.325ZM76.1021 22.2996C76.2403 22.4976 76.4179 22.6625 76.579 22.841C76.7616 22.9978 76.9315 23.1696 77.1327 23.3033C77.5147 23.5963 77.9486 23.8169 78.3972 23.9849C78.8441 24.1639 79.3227 24.2443 79.7974 24.2933C80.0369 24.3019 80.2759 24.3197 80.5147 24.2945C80.754 24.2849 80.9916 24.2554 81.2259 24.2081C82.164 24.0211 83.0422 23.5663 83.7362 22.915L83.7622 22.8907L83.7984 22.8958L86.4235 23.2634L86.3297 23.4019L85.0097 21.1392L84.9847 21.0962L85.0037 21.0494C85.2951 20.3282 85.4218 19.5422 85.3726 18.7656C85.3102 17.9916 85.1045 17.2205 84.7073 16.5473C84.3175 15.8729 83.7783 15.2854 83.1387 14.8363C82.4976 14.3882 81.7479 14.0998 80.9736 13.981C80.1987 13.8643 79.3942 13.9202 78.642 14.1557C77.8911 14.3942 77.1953 14.8056 76.6203 15.3485C75.4625 16.434 74.8692 18.0744 75.0283 19.6543C75.1445 20.6107 75.5004 21.5443 76.1021 22.2996Z" fill="#263238"/>
<path d="M79.4811 22.0987L77.2422 19.8322L77.9943 19.0889L79.3024 20.4129L82.0199 16.1527L82.9115 16.7213L79.4811 22.0987Z" fill="#F2D352"/>
</svg>
