<svg width="121" height="121" viewBox="0 0 121 121" fill="none" xmlns="http://www.w3.org/2000/svg">
<path d="M60.5867 14.3316H7.28027V49.4393H60.5867V14.3316Z" fill="#F5F5F5"/>
<path d="M15.6295 22.7191C15.6295 22.7191 14.8833 22.3068 14.4086 22.8132C14.2401 22.9932 14.1957 23.5834 14.8538 23.7012C14.8538 23.7012 16.2775 23.6227 16.9257 23.5049C17.5737 23.387 19.0466 22.739 19.0466 22.739L19.8124 21.0305C19.8124 21.0305 19.9106 20.2253 20.0087 20.2056C20.1069 20.1859 20.4016 21.0305 20.4016 21.0305L22.0511 21.5018L22.2278 21.8357L20.8924 22.3855C20.8924 22.3855 21.0887 24.5064 20.9121 24.8796C20.7355 25.2528 20.2247 25.7045 20.2247 25.7045L20.3032 28.7878C20.3032 28.7878 20.5977 28.6699 20.6174 28.8859H19.8321C19.8321 28.8859 19.5179 26.9614 19.0663 26.8238L19.1841 26.0186L16.1008 25.7633C16.1008 25.7633 16.3168 26.49 15.4331 27.079C14.5495 27.6682 14.1566 28.1395 14.1566 28.1395V28.7287C14.1566 28.7287 14.4119 28.8269 14.4316 29.0429H13.4889C13.4889 29.0429 13.6067 27.4128 13.4889 27.138C13.4889 27.138 14.6459 25.9555 14.4904 24.5064C14.4904 24.5064 13.1747 24.1726 13.4889 22.896C13.8033 21.6194 15.2762 21.5998 15.6295 22.7191Z" fill="#EFDBBB"/>
<path d="M15.8253 32.5496C15.8253 32.5496 15.3616 32.2932 15.0667 32.6079C14.9618 32.7197 14.9344 33.0864 15.3432 33.1596C15.3432 33.1596 16.228 33.1109 16.6308 33.0377C17.0335 32.9645 17.9488 32.5618 17.9488 32.5618L18.4248 31.5C18.4248 31.5 18.4857 30.9996 18.5467 30.9874C18.6076 30.9752 18.7908 31.5 18.7908 31.5L19.8158 31.7928L19.9257 32.0002L19.0958 32.342C19.0958 32.342 19.218 33.66 19.108 33.8919C18.9981 34.1237 18.6808 34.4045 18.6808 34.4045L18.7298 36.3207C18.7298 36.3207 18.9129 36.2475 18.9252 36.3816H18.437C18.437 36.3816 18.2416 35.1857 17.9611 35.1003L18.0343 34.5999L16.1181 34.4412C16.1181 34.4412 16.2523 34.8927 15.7032 35.2589C15.154 35.6249 14.91 35.918 14.91 35.918V36.284C14.91 36.284 15.0686 36.3449 15.0808 36.4793H14.495C14.495 36.4793 14.5682 35.4665 14.495 35.2956C14.495 35.2956 15.214 34.5608 15.1173 33.6603C15.1173 33.6603 14.2996 33.4527 14.495 32.6595C14.6904 31.866 15.6055 31.854 15.8253 32.5496Z" fill="#EFDBBB"/>
<path d="M15.4898 40.7093C15.4898 40.7093 15.1403 40.5163 14.9183 40.7532C14.8394 40.8374 14.8187 41.1137 15.1267 41.1689C15.1267 41.1689 15.7931 41.1322 16.0965 41.077C16.3999 41.0218 17.0894 40.7184 17.0894 40.7184L17.4479 39.9185C17.4479 39.9185 17.4938 39.5414 17.5399 39.5323C17.5857 39.5232 17.7237 39.9185 17.7237 39.9185L18.496 40.139L18.5788 40.2953L17.9536 40.5528C17.9536 40.5528 18.0455 41.5457 17.9627 41.7204C17.8799 41.8951 17.6409 42.1066 17.6409 42.1066L17.6776 43.5499C17.6776 43.5499 17.8156 43.4947 17.8247 43.596H17.4571C17.4571 43.596 17.3099 42.695 17.0985 42.6307L17.1537 42.2537L15.7103 42.1342C15.7103 42.1342 15.8114 42.4742 15.3979 42.75C14.9841 43.0258 14.8003 43.2466 14.8003 43.2466V43.5223C14.8003 43.5223 14.9198 43.5684 14.9289 43.6694H14.4875C14.4875 43.6694 14.5427 42.9065 14.4875 42.7776C14.4875 42.7776 15.0292 42.2239 14.9565 41.5457C14.9565 41.5457 14.3404 41.3894 14.4875 40.7918C14.6349 40.1945 15.3244 40.1854 15.4898 40.7093Z" fill="#EFDBBB"/>
<path d="M52.5306 24.0979C52.5306 24.1325 46.9876 24.1603 40.1516 24.1603C33.3133 24.1603 27.7715 24.1322 27.7715 24.0979C27.7715 24.0634 33.3133 24.0355 40.1516 24.0355C46.9876 24.0353 52.5306 24.0634 52.5306 24.0979Z" fill="#EFDBBB"/>
<path d="M52.5306 25.0526C52.5306 25.0872 46.9876 25.115 40.1516 25.115C33.3133 25.115 27.7715 25.087 27.7715 25.0526C27.7715 25.0181 33.3133 24.9902 40.1516 24.9902C46.9876 24.99 52.5306 25.0181 52.5306 25.0526Z" fill="#EFDBBB"/>
<path d="M52.5306 26.0073C52.5306 26.0419 46.9876 26.0697 40.1516 26.0697C33.3133 26.0697 27.7715 26.0417 27.7715 26.0073C27.7715 25.973 33.3133 25.9449 40.1516 25.9449C46.9876 25.9447 52.5306 25.9728 52.5306 26.0073Z" fill="#EFDBBB"/>
<path d="M52.5306 26.9621C52.5306 26.9966 46.9876 27.0245 40.1516 27.0245C33.3133 27.0245 27.7715 26.9964 27.7715 26.9621C27.7715 26.9275 33.3133 26.8997 40.1516 26.8997C46.9876 26.8994 52.5306 26.9275 52.5306 26.9621Z" fill="#EFDBBB"/>
<path d="M52.5306 32.3722C52.5306 32.4067 46.9876 32.4346 40.1516 32.4346C33.3133 32.4346 27.7715 32.4065 27.7715 32.3722C27.7715 32.3376 33.3133 32.3098 40.1516 32.3098C46.9876 32.3095 52.5306 32.3376 52.5306 32.3722Z" fill="#EFDBBB"/>
<path d="M52.5306 33.3269C52.5306 33.3614 46.9876 33.3893 40.1516 33.3893C33.3133 33.3893 27.7715 33.3612 27.7715 33.3269C27.7715 33.2923 33.3133 33.2645 40.1516 33.2645C46.9876 33.2642 52.5306 33.2923 52.5306 33.3269Z" fill="#EFDBBB"/>
<path d="M52.5306 34.2816C52.5306 34.3161 46.9876 34.344 40.1516 34.344C33.3133 34.344 27.7715 34.3159 27.7715 34.2816C27.7715 34.247 33.3133 34.2192 40.1516 34.2192C46.9876 34.2189 52.5306 34.247 52.5306 34.2816Z" fill="#EFDBBB"/>
<path d="M52.5306 35.2364C52.5306 35.2709 46.9876 35.299 40.1516 35.299C33.3133 35.299 27.7715 35.2709 27.7715 35.2364C27.7715 35.2018 33.3133 35.174 40.1516 35.174C46.9876 35.1737 52.5306 35.2018 52.5306 35.2364Z" fill="#EFDBBB"/>
<path d="M52.5306 40.6464C52.5306 40.6809 46.9876 40.7088 40.1516 40.7088C33.3133 40.7088 27.7715 40.6807 27.7715 40.6464C27.7715 40.6118 33.3133 40.584 40.1516 40.584C46.9876 40.5837 52.5306 40.6118 52.5306 40.6464Z" fill="#EFDBBB"/>
<path d="M52.5306 41.6011C52.5306 41.6357 46.9876 41.6635 40.1516 41.6635C33.3133 41.6635 27.7715 41.6354 27.7715 41.6011C27.7715 41.5668 33.3133 41.5387 40.1516 41.5387C46.9876 41.5385 52.5306 41.5665 52.5306 41.6011Z" fill="#EFDBBB"/>
<path d="M52.5306 42.5559C52.5306 42.5904 46.9876 42.6183 40.1516 42.6183C33.3133 42.6183 27.7715 42.5902 27.7715 42.5559C27.7715 42.5216 33.3133 42.4935 40.1516 42.4935C46.9876 42.4932 52.5306 42.5213 52.5306 42.5559Z" fill="#EFDBBB"/>
<path d="M52.5306 43.5106C52.5306 43.5451 46.9876 43.573 40.1516 43.573C33.3133 43.573 27.7715 43.5449 27.7715 43.5106C27.7715 43.476 33.3133 43.4482 40.1516 43.4482C46.9876 43.4479 52.5306 43.476 52.5306 43.5106Z" fill="#EFDBBB"/>
<path d="M50.3352 19.3322C50.3352 19.6774 44.8351 19.9572 38.052 19.9572C31.2665 19.9572 25.7676 19.6774 25.7676 19.3322C25.7676 18.9871 31.2665 18.7073 38.052 18.7073C44.8349 18.7075 50.3352 18.9874 50.3352 19.3322Z" fill="#EFDBBB"/>
<path d="M90.8571 13.5394H90.1825V12.2623C90.1825 11.8483 89.8837 11.5116 89.5167 11.5116H84.3834C84.0162 11.5116 83.7176 11.8483 83.7176 12.2623V13.5394H83.043V12.2623C83.043 11.4763 83.6444 10.8367 84.3836 10.8367H89.517C90.2562 10.8367 90.8576 11.4761 90.8576 12.2623V13.5394H90.8571Z" fill="#FDF0CD"/>
<path d="M97.9901 31.3018H75.8047C74.5949 31.3018 73.6143 30.3211 73.6143 29.1113V15.7298C73.6143 14.52 74.5949 13.5394 75.8047 13.5394H97.9901C99.1997 13.5394 100.181 14.52 100.181 15.7298V29.1113C100.181 30.3211 99.1997 31.3018 97.9901 31.3018Z" fill="#EFDBBB"/>
<path d="M87.7464 18.8335H86.1533V25.9733H87.7464V18.8335Z" fill="#F5F5F5"/>
<path d="M83.3799 21.607V23.2001H90.5196V21.607H83.3799Z" fill="#F5F5F5"/>
<path d="M92.8795 22.4206C92.8773 22.4206 92.8735 22.3879 92.8682 22.3243C92.8632 22.2547 92.8565 22.1614 92.8478 22.0421C92.8437 21.9794 92.8392 21.9103 92.8344 21.8342C92.826 21.7582 92.8094 21.6758 92.7955 21.5861C92.7665 21.4068 92.7389 21.1992 92.6697 20.9734C92.5637 20.5147 92.3477 19.9733 92.0083 19.3994C91.6661 18.828 91.1729 18.2314 90.5023 17.7254C89.8337 17.2241 88.9905 16.7978 88.0173 16.626C87.0509 16.4604 85.9598 16.4906 84.9211 16.8854C84.6569 16.9702 84.4082 17.101 84.1529 17.2236C83.9109 17.37 83.6558 17.5049 83.4307 17.688C83.1912 17.8524 82.9819 18.0583 82.7625 18.2563C82.5645 18.4757 82.3562 18.6902 82.1856 18.9391C81.8352 19.4258 81.5292 19.9668 81.3439 20.5615C81.1519 21.1526 81.0487 21.7805 81.0401 22.4194C81.0485 23.0585 81.1517 23.6866 81.3434 24.2779C81.5285 24.8729 81.8347 25.4141 82.1851 25.901C82.356 26.1499 82.5641 26.3647 82.7623 26.5841C82.9817 26.7823 83.1909 26.988 83.4305 27.1524C83.6558 27.3358 83.9107 27.4706 84.1529 27.617C84.4085 27.7397 84.6569 27.8705 84.9213 27.9552C85.9603 28.3502 87.0513 28.3805 88.0178 28.2146C88.991 28.0426 89.8344 27.6163 90.5028 27.115C91.1733 26.6088 91.6665 26.0122 92.0088 25.4407C92.3481 24.8669 92.5641 24.3254 92.6702 23.8668C92.7393 23.641 92.7669 23.4331 92.796 23.2541C92.8097 23.1646 92.8265 23.082 92.8346 23.0059C92.8397 22.9301 92.844 22.861 92.8481 22.7983C92.8567 22.6793 92.8634 22.5857 92.8685 22.5161C92.8735 22.4532 92.8773 22.4206 92.8795 22.4206C92.8817 22.4206 92.8821 22.4532 92.8809 22.517C92.879 22.5869 92.8761 22.6807 92.8728 22.8005C92.8704 22.8636 92.868 22.9332 92.8653 23.0095C92.8589 23.0861 92.8442 23.1694 92.8322 23.2598C92.807 23.4408 92.783 23.6506 92.717 23.8793C92.6174 24.3434 92.4062 24.893 92.0685 25.4772C91.728 26.0587 91.2333 26.6678 90.5561 27.186C89.8809 27.6996 89.0258 28.1378 88.0363 28.3174C87.0535 28.4906 85.9421 28.4638 84.881 28.0644C84.6113 27.9785 84.3573 27.846 84.0965 27.7214C83.849 27.5729 83.5889 27.4356 83.3585 27.2491C83.1139 27.0816 82.8996 26.8723 82.6757 26.6705C82.4729 26.447 82.2605 26.2282 82.0855 25.9742C81.7269 25.4777 81.414 24.9252 81.2244 24.3178C81.0278 23.7139 80.9225 23.0724 80.9141 22.4198C80.9227 21.7675 81.0283 21.1262 81.2249 20.5224C81.4147 19.915 81.7274 19.3627 82.086 18.8664C82.2607 18.6127 82.4733 18.3936 82.6761 18.1704C82.9001 17.9686 83.1144 17.7593 83.3589 17.5918C83.5893 17.4055 83.8495 17.268 84.0967 17.1197C84.3576 16.9949 84.6115 16.8626 84.8813 16.7767C85.9421 16.3774 87.0533 16.3502 88.0361 16.5235C89.0258 16.703 89.8807 17.1413 90.5558 17.6546C91.2331 18.1728 91.7277 18.7819 92.0683 19.3634C92.4062 19.9476 92.6172 20.4972 92.717 20.9614C92.783 21.1901 92.807 21.3998 92.8322 21.5808C92.8442 21.6713 92.8589 21.7543 92.8653 21.8311C92.868 21.9074 92.8706 21.9773 92.8728 22.0404C92.8761 22.1602 92.8788 22.254 92.8809 22.3241C92.8821 22.3879 92.8817 22.4206 92.8795 22.4206Z" fill="#F5F5F5"/>
<path d="M108.131 14.8467V12.1611H106.24C106.24 12.2662 106.24 14.8467 106.24 14.8467H104.341V30.2093H109.896V14.8467H108.131Z" fill="#EFDBBB"/>
<path d="M116.385 30.2093H70.5547V32.5476H116.385V30.2093Z" fill="#E0E0E0"/>
<path d="M80.8459 32.5476H79.5117V38.0755H80.8459V32.5476Z" fill="#E0E0E0"/>
<path d="M107.531 32.5476H106.197V38.0755H107.531V32.5476Z" fill="#E0E0E0"/>
<path d="M97.7952 18.9793V17.0161H96.4128C96.4128 17.0929 96.4128 18.9793 96.4128 18.9793H95.0244V30.2096H99.0857V18.9793H97.7952Z" fill="#FAFAFA"/>
<path d="M102.406 18.9793V17.0161H101.023C101.023 17.0929 101.023 18.9793 101.023 18.9793H99.6348V30.2096H103.696V18.9793H102.406Z" fill="#F5F5F5"/>
<path d="M79.5118 22.9133H72.2158V30.2096H79.5118V22.9133Z" fill="#E0E0E0"/>
<path d="M79.476 24.788C79.476 24.835 77.8653 24.8732 75.8788 24.8732C73.8916 24.8732 72.2812 24.835 72.2812 24.788C72.2812 24.7409 73.8916 24.7028 75.8788 24.7028C77.8653 24.7028 79.476 24.7409 79.476 24.788Z" fill="#EBEBEB"/>
<path d="M76.1412 25.7506C76.1429 25.7451 76.1679 25.7487 76.2154 25.7614C76.2636 25.7715 76.3306 25.8018 76.4095 25.8531C76.5682 25.9558 76.7455 26.1925 76.8091 26.5246C76.8694 26.8458 76.8814 27.2826 76.6215 27.6714C76.4955 27.8595 76.2989 28.0282 76.0541 28.101C75.8112 28.1756 75.5458 28.1617 75.2962 28.094C74.7977 27.967 74.3657 27.5823 74.2822 27.1184C74.1859 26.6662 74.3657 26.2374 74.6249 26.0151C74.8834 25.7864 75.168 25.7264 75.3514 25.7218C75.5391 25.7168 75.6363 25.7607 75.6339 25.7682C75.6317 25.7833 75.5314 25.7631 75.3567 25.7878C75.1855 25.8114 74.9285 25.8867 74.7075 26.103C74.4869 26.3108 74.3439 26.6912 74.4353 27.0846C74.5143 27.4801 74.8865 27.8113 75.3408 27.9296C75.5662 27.9908 75.8009 28.0023 76.0056 27.9411C76.2106 27.8826 76.3776 27.745 76.4921 27.5818C76.7254 27.2528 76.7328 26.8486 76.6901 26.5465C76.645 26.2359 76.5017 26.0158 76.3685 25.9057C76.2353 25.7943 76.135 25.767 76.1412 25.7506Z" fill="#EBEBEB"/>
<path d="M11.5501 83.6666C10.0218 82.878 8.22205 82.7755 6.52549 83.0561C5.61397 83.2068 4.66357 83.4794 4.04317 84.1642C3.42301 84.8489 3.30541 86.0539 4.01749 86.6422C4.44157 86.9923 5.03269 87.0456 5.58253 87.0391C6.91069 87.0238 8.38453 86.7897 9.44581 87.5889C10.0511 88.0449 10.4543 88.8029 11.1781 89.027C11.8864 89.2464 12.6853 88.8286 13.0609 88.1894C13.4365 87.5503 13.449 86.7514 13.2738 86.0311C13.2738 86.0311 13.0897 84.461 11.5501 83.6666Z" fill="#EFDBBB"/>
<path d="M15.0512 76.9073C14.1167 78.2419 12.3004 77.8001 11.4582 76.9855C10.616 76.1707 10.2601 74.9899 9.93612 73.8638C9.19572 71.291 8.44932 68.592 8.99988 65.9719C9.16452 65.1886 9.45732 64.4076 10.0079 63.8263C10.5582 63.2453 11.4047 62.8994 12.1784 63.1039C13.0943 63.3458 13.6636 64.2427 14.0749 65.0962C15.2843 67.6044 15.9246 70.3848 15.934 73.1693C15.9383 74.4698 15.7849 75.8338 15.0512 76.9073Z" fill="#EFDBBB"/>
<path d="M17.6178 78.8225C16.6031 77.6182 16.4106 75.8618 16.862 74.3532C17.3137 72.8445 18.3337 71.561 19.5092 70.5132C20.8876 69.2846 22.5078 68.3287 24.2495 67.7162C24.9349 67.4753 25.658 67.285 26.3814 67.3541C27.1048 67.4232 27.8332 67.7928 28.1704 68.4365C28.6693 69.3881 28.191 70.542 27.6736 71.4835C26.762 73.1421 25.72 74.729 24.56 76.2247C23.6269 77.4278 22.558 78.6146 21.1357 79.1585C19.7135 79.7021 18.2363 79.6382 17.4822 78.6518" fill="#EFDBBB"/>
<path d="M15.115 97.0421C15.0975 97.043 15.0692 96.8268 15.0305 96.4356C14.9876 95.9942 14.9336 95.4398 14.8695 94.7803C14.7924 94.0838 14.6907 93.2551 14.497 92.3525C14.304 91.4522 14.0024 90.4764 13.6145 89.4869C13.213 88.5031 12.7234 87.6091 12.1512 86.8942C11.5832 86.1758 10.9224 85.656 10.3013 85.3562C9.68237 85.0505 9.12725 84.9264 8.74349 84.8712C8.35637 84.8316 8.13989 84.8009 8.13965 84.7838C8.13941 84.7666 8.35661 84.7637 8.75429 84.7745C9.14813 84.8006 9.72629 84.9005 10.3788 85.1971C11.0333 85.4875 11.7344 86.0153 12.3303 86.7485C12.931 87.4786 13.4386 88.3922 13.8471 89.3935C14.2416 90.4003 14.539 91.3862 14.7233 92.3059C14.9072 93.2242 14.9912 94.0622 15.0461 94.7645C15.0987 95.4674 15.1186 96.0365 15.1282 96.4298C15.1366 96.823 15.132 97.0411 15.115 97.0421Z" fill="#E3CEAD"/>
<path d="M15.0009 95.7684C14.9922 95.768 14.9869 95.671 14.9845 95.4869C14.985 95.2755 14.9857 95.0091 14.9867 94.6822C14.9886 93.9838 14.9884 92.9729 14.9509 91.7249C14.8893 89.2287 14.6742 86.5424 14.259 82.7549C13.8659 79.1936 13.3384 75.049 12.7816 72.3543C12.6621 71.7416 12.5418 71.1898 12.4288 70.7072C12.3208 70.2231 12.2286 69.8057 12.1398 69.4683C12.0635 69.1505 12.0013 68.8916 11.9517 68.6861C11.9113 68.5064 11.8941 68.4108 11.9025 68.4084C11.9109 68.406 11.9442 68.497 12.0004 68.6722C12.0618 68.8748 12.1391 69.1299 12.2339 69.4433C12.3376 69.7779 12.4437 70.1924 12.5651 70.6745C12.6916 71.1555 12.8241 71.7056 12.9549 72.3176C13.5059 74.7593 14.0891 78.1719 14.5081 81.9684C14.9241 85.7638 15.1115 89.2196 15.1281 91.722C15.1429 92.9732 15.1163 93.986 15.0844 94.6848C15.0645 95.0117 15.0481 95.2779 15.0352 95.4891C15.021 95.6727 15.0095 95.7689 15.0009 95.7684Z" fill="#E3CEAD"/>
<path d="M14.984 89.1034C14.9667 89.1029 14.9696 88.8041 14.99 88.2626C15.0209 87.7224 15.0951 86.9414 15.2473 85.985C15.4085 85.0308 15.6339 83.8978 15.9881 82.6666C16.1415 82.1038 16.5022 80.7552 17.3758 78.7399C18.5269 76.0094 20.0907 73.777 21.451 72.3943C21.77 72.0274 22.1254 71.7626 22.4098 71.5032C22.5569 71.3789 22.687 71.2548 22.8193 71.1566C22.9525 71.0647 23.0763 70.9795 23.1913 70.9003C23.6391 70.5941 23.8897 70.4326 23.899 70.4472C23.9393 70.5017 22.8963 71.1156 21.5792 72.517C20.2676 73.9152 18.7474 76.1321 17.6057 78.8395C16.969 80.3081 16.525 81.618 16.2101 82.7302C15.8463 83.9494 15.6046 85.0709 15.422 86.0158C15.2485 86.9626 15.1479 87.7356 15.0872 88.271C15.037 88.8067 15.0013 89.1038 14.984 89.1034Z" fill="#E3CEAD"/>
<path d="M21.4263 100.86L20.7583 110.01H9.00386L8.33594 100.86H21.4263Z" fill="#FDF0CD"/>
<path d="M22.5617 97.254H6.93359V100.861H22.5617V97.254Z" fill="#E3CEAD"/>
<path d="M22.5612 109.66V110.66H21.8271H7.19141V109.66H22.5612Z" fill="#E3CEAD"/>
<path d="M21.108 112.419L21.8277 110.66H7.75195L8.59171 112.419H21.108Z" fill="#E3CEAD"/>
<path d="M8.55396 103.851C8.55132 103.853 8.57004 103.882 8.60868 103.935C8.65524 103.997 8.71308 104.073 8.78436 104.168C8.95116 104.382 9.1806 104.675 9.46908 105.044L9.49956 105.083L9.52908 105.042C9.9594 104.447 10.5344 103.652 11.2115 102.715H11.1148C11.6152 103.424 12.1724 104.213 12.771 105.061L12.8228 105.134L12.8809 105.065C13.4922 104.338 14.156 103.548 14.8453 102.728L14.732 102.726C14.7661 102.769 14.8031 102.816 14.84 102.862C15.4492 103.626 16.0388 104.365 16.5964 105.064L16.6549 105.138L16.7089 105.061C17.3051 104.217 17.8624 103.429 18.3661 102.717L18.2696 102.721C19.0864 103.652 19.7788 104.441 20.3104 105.046L20.3466 105.088L20.3742 105.041C20.6432 104.589 20.8578 104.229 21.0133 103.968C21.08 103.851 21.1343 103.757 21.1772 103.682C21.2132 103.616 21.2305 103.582 21.2274 103.58C21.2243 103.578 21.201 103.609 21.159 103.67C21.1112 103.743 21.0515 103.833 20.9776 103.945C20.8144 104.202 20.5892 104.556 20.3068 105L20.3706 104.994C19.8476 104.382 19.166 103.583 18.3625 102.641L18.3119 102.582L18.266 102.646C17.7577 103.355 17.1956 104.14 16.5942 104.98L16.7068 104.976C16.1504 104.276 15.5622 103.536 14.9545 102.771C14.9176 102.725 14.8806 102.678 14.8465 102.636L14.7906 102.565L14.7332 102.634C14.0459 103.456 13.384 104.247 12.7744 104.976L12.8843 104.98C12.28 104.137 11.7169 103.352 11.2115 102.647L11.1625 102.578L11.1148 102.647C10.4521 103.593 9.88932 104.397 9.46812 104.999L9.52788 104.997C9.22788 104.637 8.98932 104.351 8.81556 104.143C8.73828 104.053 8.6754 103.981 8.62476 103.922C8.5806 103.873 8.5566 103.849 8.55396 103.851Z" fill="#F5F5F5"/>
<path d="M8.17285 100.8C8.17285 100.841 11.1181 100.873 14.7505 100.873C18.3841 100.873 21.3289 100.841 21.3289 100.8C21.3289 100.76 18.3841 100.727 14.7505 100.727C11.1184 100.727 8.17285 100.76 8.17285 100.8Z" fill="#F5F5F5"/>
<path d="M7.57812 110.759C7.57812 110.799 10.779 110.832 14.7268 110.832C18.676 110.832 21.8761 110.799 21.8761 110.759C21.8761 110.718 18.676 110.685 14.7268 110.685C10.779 110.685 7.57812 110.718 7.57812 110.759Z" fill="#F5F5F5"/>
<path d="M110.918 41.1305H88.7529V64.2355H110.918V41.1305Z" fill="#EFDBBB"/>
<path d="M109.417 41.1305H87.252V64.2355H109.417V41.1305Z" fill="#E3CEAD"/>
<path d="M106.437 44.2363H90.2314V61.1294H106.437V44.2363Z" fill="#FAFAFA"/>
<path d="M90.2311 61.2418C90.2419 61.2547 90.0864 61.4292 89.8262 61.7009C89.5661 61.9726 89.2015 62.3415 88.7937 62.743C88.386 63.1447 88.0121 63.5035 87.737 63.7589C87.462 64.0143 87.2858 64.1664 87.2741 64.1544C87.2623 64.1424 87.4171 63.9687 87.6773 63.697C87.9374 63.4253 88.3029 63.0557 88.7117 62.653C89.1204 62.2505 89.495 61.891 89.7701 61.6356C90.0449 61.3805 90.2203 61.2291 90.2311 61.2418Z" fill="#E0E0E0"/>
<path d="M106.437 61.2005C106.45 61.1897 106.625 61.3452 106.896 61.6054C107.168 61.8655 107.537 62.2301 107.938 62.6378C108.34 63.0456 108.699 63.4195 108.954 63.6946C109.21 63.9696 109.362 64.1458 109.35 64.1575C109.338 64.1693 109.164 64.0145 108.892 63.7543C108.621 63.4942 108.251 63.1286 107.848 62.7199C107.446 62.3112 107.086 61.9366 106.831 61.6615C106.576 61.3867 106.424 61.2113 106.437 61.2005Z" fill="#E0E0E0"/>
<path d="M106.393 44.2815C106.382 44.2685 106.538 44.094 106.798 43.8223C107.058 43.5507 107.423 43.1818 107.83 42.7803C108.238 42.3785 108.612 42.0197 108.887 41.7643C109.162 41.509 109.338 41.3568 109.35 41.3688C109.362 41.3808 109.207 41.5546 108.947 41.8263C108.687 42.0979 108.321 42.4675 107.913 42.8703C107.504 43.2727 107.129 43.6323 106.854 43.8876C106.579 44.143 106.404 44.2944 106.393 44.2815Z" fill="#E0E0E0"/>
<path d="M90.187 44.323C90.174 44.3338 89.9995 44.1782 89.7278 43.9181C89.4562 43.6579 89.0875 43.2934 88.6858 42.8856C88.284 42.4776 87.9252 42.1039 87.6698 41.8289C87.4145 41.5538 87.2623 41.3777 87.2741 41.3659C87.2861 41.3542 87.4598 41.509 87.7315 41.7691C88.0032 42.0293 88.3728 42.3948 88.7755 42.8035C89.178 43.2122 89.5375 43.5869 89.7929 43.8619C90.0482 44.1367 90.1997 44.3122 90.187 44.323Z" fill="#E0E0E0"/>
<path d="M106.393 61.1297C106.393 61.1297 106.391 61.1011 106.39 61.0481C106.39 60.9917 106.389 60.9139 106.387 60.8129C106.386 60.6026 106.384 60.2981 106.381 59.9018C106.378 59.1031 106.373 57.9394 106.367 56.46C106.361 53.502 106.351 49.2854 106.34 44.2366L106.393 44.2896C101.676 44.292 96.1354 44.2946 90.2335 44.2975H90.2319L90.2926 44.2366C90.2895 50.4372 90.2866 56.238 90.2839 61.1297L90.2316 61.0773C95.0767 61.0884 99.1102 61.0978 101.937 61.104C103.35 61.1098 104.461 61.1145 105.222 61.1177C105.6 61.1203 105.891 61.1225 106.091 61.1237C106.188 61.1249 106.262 61.1258 106.315 61.1266C106.366 61.1275 106.393 61.1297 106.393 61.1297C106.393 61.1297 106.37 61.1316 106.321 61.1326C106.269 61.1333 106.197 61.1342 106.103 61.1354C105.905 61.1369 105.618 61.1388 105.244 61.1414C104.485 61.1445 103.378 61.1491 101.97 61.1551C99.1356 61.1616 95.0907 61.1707 90.2319 61.1817H90.1795V61.1294C90.1771 56.2378 90.174 50.437 90.1709 44.2363V44.1754H90.2319H90.2335C96.1354 44.1782 101.676 44.1809 106.393 44.1833H106.446V44.2363C106.435 49.2994 106.426 53.5274 106.42 56.4938C106.414 57.9679 106.409 59.1278 106.406 59.9237C106.403 60.3154 106.401 60.6168 106.399 60.8244C106.398 60.923 106.397 60.9989 106.396 61.0538C106.395 61.1052 106.393 61.1297 106.393 61.1297Z" fill="#E0E0E0"/>
<path d="M94.5091 51.2938C94.5091 51.2938 94.162 55.4765 98.6918 55.4765C98.6918 53.2445 96.8503 51.4824 94.5091 51.2938Z" fill="#EFDBBB"/>
<path d="M102.798 51.2969C102.798 51.2969 98.6152 50.9499 98.6152 55.4796C100.847 55.4796 102.609 53.6381 102.798 51.2969Z" fill="#EFDBBB"/>
<path d="M98.4911 49.0078C98.4911 49.0078 95.0742 52.0752 98.678 55.4765C100.354 53.7005 100.212 50.9158 98.4911 49.0078Z" fill="#E3CEAD"/>
<path d="M111.164 112.448C111.164 112.482 88.4041 112.51 60.3357 112.51C32.2573 112.51 9.50293 112.482 9.50293 112.448C9.50293 112.413 32.2573 112.385 60.3357 112.385C88.4044 112.385 111.164 112.414 111.164 112.448Z" fill="#263238"/>
<path d="M50.8337 71.6273C50.8337 71.6273 45.9986 70.8701 45.5949 70.8852C45.1913 70.9004 41.3568 71.6504 41.3568 71.6504C41.3568 71.6504 35.9304 72.6132 35.3837 73.0037C34.8369 73.3944 35.2394 74.6338 35.2394 74.6338C35.8406 74.8666 37.7393 74.496 37.7393 74.496C37.7393 74.496 37.7309 75.0039 38.0721 75.6927C38.4132 76.3815 39.3439 76.2077 39.3439 76.2077L38.6157 76.5824C38.6157 76.5824 38.6765 77.1365 38.9421 77.8551C39.2078 78.5736 40.9363 78.4707 40.9363 78.4707C40.9363 78.4707 41.394 79.4988 42.1104 79.6721C42.8268 79.8452 46.5626 78.9687 47.6707 78.8472C48.779 78.7258 50.9071 77.4142 50.9071 77.4142C50.9071 77.4142 52.5439 77.9936 53.5142 78.1892L54.0593 71.1447C53.6597 71.1092 50.8337 71.6273 50.8337 71.6273Z" fill="#263238"/>
<path d="M31.46 93.9781C29.3979 93.4597 27.8365 91.6554 27.128 89.6506C26.4195 87.6457 26.4459 85.4574 26.6573 83.3415C26.6967 82.9472 26.7382 82.5287 26.5635 82.1727C26.2861 81.6075 25.5284 81.4117 24.9269 81.5979C24.3255 81.7842 23.8594 82.2594 23.474 82.7574C21.3593 85.4891 21.0313 89.4827 22.6714 92.523C24.3116 95.5633 27.8293 97.4821 31.2735 97.215" fill="#F2D352"/>
<path d="M47.0777 74.0801C47.0777 74.0801 51.9089 82.4492 53.1303 85.8145C54.3517 89.1797 55.9073 98.4305 55.9073 98.4305C55.9073 98.4305 63.1621 100.299 58.6676 108.097C57.0061 110.98 57.1551 112.318 55.2927 112.403C53.8414 112.469 42.1609 112.381 42.1609 112.381L42.3709 113.525C42.3709 113.525 41.3936 116.832 39.4143 115.899C37.435 114.966 35.1056 112.381 35.1056 112.381L31.705 112.334L23.5995 112.381L21.2295 112.334C21.2319 112.313 21.2343 112.291 21.2369 112.27C21.3985 110.954 22.3232 109.858 23.5913 109.473L25.3294 108.945C25.3294 108.945 23.072 99.4597 25.0275 97.1917C26.983 94.9237 30.1649 95.0725 30.1649 95.0725L28.7036 85.3138C28.4134 83.0249 28.6445 80.7001 29.3794 78.5132L30.4753 75.2525L47.0777 74.0801Z" fill="#F2D352"/>
<path d="M30.292 95.4039C33.6405 97.3069 35.9025 100.498 37.0269 104.142C37.0381 104.178 37.0962 104.163 37.0847 104.126C36.213 101.301 34.6669 98.6847 32.3829 96.7755C31.7409 96.2389 31.0497 95.7653 30.3225 95.3521C30.2886 95.3331 30.2584 95.3849 30.292 95.4039Z" fill="#263238"/>
<path d="M30.3618 75.5914C30.3618 75.5914 28.7867 79.8015 28.6544 81.9068C28.4353 85.4002 30.1652 95.0725 30.1652 95.0725C30.1652 95.0725 29.5729 104.557 29.0584 105.962C28.544 107.367 28.7603 108.664 26.42 109.144C25.7874 109.273 24.6865 111.319 24.6865 112.334H31.2313C31.2313 112.334 33.002 110.333 33.0877 108.46C33.1734 106.586 36.2852 96.4181 36.2852 96.4181" fill="#F2D352"/>
<path d="M36.2849 96.4181C36.2849 96.4181 36.2801 96.4443 36.2662 96.4947C36.2508 96.5487 36.2299 96.6226 36.2026 96.7189C36.144 96.9202 36.059 97.2116 35.9489 97.5898C35.7271 98.3566 35.4043 99.4729 34.9951 100.888C34.5943 102.309 34.104 104.032 33.6139 106.02C33.493 106.517 33.3727 107.031 33.2693 107.563C33.245 107.696 33.2208 107.83 33.1963 107.966C33.1733 108.101 33.1639 108.237 33.1469 108.374C33.1327 108.514 33.1186 108.655 33.1042 108.797C33.0792 108.938 33.0538 109.081 33.0194 109.221C32.7194 110.345 32.0777 111.402 31.2722 112.371L31.2566 112.389H31.2307C29.2102 112.391 27.0005 112.393 24.6862 112.394H24.623L24.6257 112.334C24.6528 111.692 24.9041 111.098 25.1863 110.524C25.3327 110.239 25.4966 109.958 25.6915 109.695C25.7916 109.565 25.8953 109.437 26.0186 109.322C26.1322 109.206 26.2982 109.104 26.466 109.069C27.09 108.931 27.7394 108.698 28.153 108.189C28.5698 107.681 28.674 106.991 28.8694 106.342C28.9032 106.22 28.9452 106.1 28.986 105.98C29.0237 105.86 29.052 105.743 29.0858 105.625C29.1338 105.382 29.1864 105.14 29.2195 104.894C29.2963 104.405 29.3558 103.915 29.412 103.428C29.5238 102.454 29.6122 101.49 29.6952 100.543C29.8594 98.6482 29.9923 96.8158 30.1068 95.0689L30.1075 95.0826C29.6112 92.2182 29.2142 89.5541 28.9349 87.1652C28.7954 85.9709 28.685 84.8451 28.6325 83.7965C28.5823 82.7511 28.5682 81.7702 28.7534 80.9072C28.9202 80.0446 29.1326 79.2869 29.3266 78.6293C29.5224 77.9722 29.706 77.4164 29.8591 76.9661C30.0127 76.5159 30.1382 76.172 30.2242 75.9404C30.2671 75.8276 30.3002 75.7409 30.3242 75.6785C30.3473 75.62 30.3617 75.5912 30.3617 75.5912C30.3617 75.5912 30.3535 75.6224 30.3334 75.6819C30.3118 75.7453 30.2815 75.8329 30.2424 75.9471C30.1622 76.1854 30.0458 76.5308 29.8951 76.9784C29.7478 77.4303 29.5699 77.9873 29.3796 78.6449C29.1912 79.3028 28.9843 80.0609 28.8233 80.9201C28.6445 81.7779 28.6634 82.7477 28.7177 83.792C28.7746 84.8374 28.889 85.9613 29.0321 87.1537C29.3186 89.5388 29.7216 92.2013 30.222 95.0619L30.2232 95.0689L30.2227 95.0758C30.1109 96.8242 29.9801 98.6571 29.8174 100.553C29.735 101.501 29.6472 102.465 29.5356 103.441C29.4794 103.929 29.4199 104.42 29.3429 104.913C29.3098 105.16 29.2565 105.406 29.2075 105.653C29.173 105.776 29.1415 105.902 29.1036 106.022C29.0638 106.139 29.0227 106.256 28.9891 106.377C28.8929 106.7 28.8175 107.031 28.7134 107.355C28.6099 107.679 28.469 108 28.2494 108.267C28.0322 108.536 27.7442 108.735 27.4411 108.881C27.1378 109.032 26.8126 109.113 26.4919 109.19C26.3388 109.224 26.2188 109.299 26.1026 109.412C25.9877 109.519 25.8871 109.643 25.7904 109.769C25.6008 110.024 25.4393 110.299 25.2955 110.58C25.0171 111.14 24.7714 111.736 24.7466 112.334L24.6862 112.273C27.0007 112.275 29.2102 112.277 31.2307 112.278L31.1892 112.297C31.985 111.345 32.6254 110.293 32.9206 109.196C32.9544 109.059 32.9796 108.92 33.0043 108.783C33.0187 108.643 33.0331 108.505 33.0473 108.367C33.065 108.227 33.0754 108.086 33.0991 107.95C33.1243 107.814 33.1493 107.679 33.174 107.545C33.2798 107.01 33.402 106.495 33.5249 105.998C34.0231 104.009 34.5218 102.289 34.9318 100.87C35.345 99.4522 35.6825 98.3389 35.9155 97.5798C36.0326 97.2037 36.1229 96.914 36.1853 96.7136C36.216 96.6185 36.2398 96.5453 36.257 96.4921C36.2741 96.4429 36.2849 96.4181 36.2849 96.4181Z" fill="#263238"/>
<path d="M47.7463 79.9671C47.7463 79.9671 47.7698 80.0189 47.8096 80.1221C47.8502 80.2297 47.908 80.3825 47.9834 80.582C48.1341 80.9914 48.3535 81.5883 48.6357 82.3558C49.1942 83.899 50.0037 86.132 50.9414 88.9136C51.1744 89.6093 51.4152 90.3397 51.6513 91.1057C51.7708 91.4883 51.8841 91.8814 51.994 92.2841C52.098 92.6924 52.1572 93.1138 52.2129 93.5425C52.4196 95.2592 52.5192 97.1014 52.6303 99.0382C52.738 100.975 52.8321 103.01 52.9732 105.115C53.0469 106.167 53.1252 107.239 53.2723 108.316C53.3109 108.584 53.3541 108.854 53.4153 109.118C53.4451 109.25 53.4818 109.381 53.5291 109.504C53.5521 109.566 53.5814 109.625 53.6157 109.672C53.6328 109.693 53.6527 109.717 53.6685 109.721C53.6808 109.731 53.7292 109.743 53.758 109.754C54.0247 109.842 54.292 109.948 54.5224 110.119C54.6458 110.193 54.7437 110.301 54.8503 110.397C54.9408 110.509 55.0382 110.617 55.1052 110.746C55.4018 111.253 55.4599 111.857 55.3531 112.418L55.344 112.466H55.2924C52.7637 112.469 50.3136 112.473 47.975 112.476H47.9138L47.9148 112.416C47.9256 111.788 48.0604 111.191 48.1927 110.606C48.3309 110.022 48.4891 109.454 48.6616 108.897L48.6597 108.923C48.2186 106.041 47.8003 103.376 47.4084 101.001C47.2099 99.8139 47.0258 98.6974 46.8182 97.6709C46.7899 97.5437 46.769 97.4141 46.7352 97.2925L46.6874 97.1093C46.6728 97.0479 46.6363 96.9977 46.6123 96.9418C46.499 96.7256 46.3488 96.5266 46.2026 96.3375C45.9098 95.9564 45.605 95.6108 45.317 95.2815C44.1482 93.9781 43.1726 92.9907 42.5104 92.3108C42.1795 91.9745 41.9241 91.7153 41.7482 91.5365C41.664 91.4504 41.5992 91.3844 41.5526 91.3366C41.5089 91.2915 41.4883 91.2668 41.4883 91.2668C41.4883 91.2668 41.5135 91.2869 41.5593 91.3297C41.6076 91.3757 41.6745 91.4396 41.7616 91.5229C41.9404 91.6985 42.2001 91.9537 42.5368 92.2844C43.2076 92.9564 44.1914 93.9361 45.3693 95.2347C45.66 95.563 45.9669 95.9074 46.264 96.29C46.4128 96.481 46.5638 96.6773 46.6852 96.9061C46.7112 96.9651 46.7503 97.0213 46.7654 97.0839L46.8153 97.2718C46.8506 97.3976 46.8717 97.525 46.901 97.6537C47.1136 98.6828 47.3018 99.7978 47.5041 100.985C47.904 103.359 48.3285 106.024 48.7742 108.905L48.7761 108.918L48.772 108.932C48.6016 109.485 48.4444 110.053 48.3079 110.634C48.1773 111.213 48.0446 111.811 48.0355 112.415L47.9752 112.356C50.3138 112.351 52.764 112.346 55.2926 112.341L55.2321 112.389C55.332 111.865 55.276 111.279 54.9976 110.809C54.9352 110.688 54.8433 110.587 54.7591 110.482C54.6585 110.392 54.5676 110.291 54.4507 110.222C54.234 110.059 53.9779 109.958 53.7216 109.874C53.686 109.86 53.6659 109.858 53.6174 109.834C53.5677 109.813 53.5435 109.779 53.5168 109.748C53.47 109.684 53.4391 109.617 53.4136 109.55C53.3623 109.417 53.3248 109.281 53.2944 109.146C53.2317 108.875 53.1883 108.604 53.1494 108.333C53.0016 107.249 52.9243 106.177 52.8513 105.123C52.7116 103.016 52.6202 100.981 52.5156 99.0445C52.4078 97.1084 52.312 95.2659 52.1104 93.5554C52.0562 93.1289 51.9979 92.7087 51.8973 92.3093C51.7891 91.9085 51.6775 91.5164 51.5594 91.1341C51.3261 90.3687 51.0883 89.6379 50.8579 88.9417C49.9315 86.1579 49.1347 83.9204 48.5901 82.3724C48.3175 81.6015 48.1053 81.002 47.9599 80.5909C47.8896 80.3897 47.8356 80.2352 47.7976 80.1269C47.7616 80.0218 47.7463 79.9671 47.7463 79.9671Z" fill="#263238"/>
<path d="M41.3544 102.081C41.3516 102.085 41.3057 102.049 41.221 101.979C41.1274 101.9 41.0052 101.796 40.8533 101.667C40.5411 101.389 40.1007 100.971 39.5895 100.424C38.5579 99.3375 37.2483 97.7316 35.9247 95.8704C34.6107 94.0018 33.5295 92.2332 32.8527 90.8967C32.5099 90.2309 32.2647 89.6758 32.1089 89.2873C32.04 89.1003 31.9846 88.95 31.9421 88.8348C31.9054 88.7309 31.8881 88.676 31.8922 88.6745C31.8963 88.6731 31.9215 88.7254 31.9659 88.8262C32.0139 88.939 32.0763 89.0859 32.1538 89.2688C32.3228 89.6501 32.5793 90.1973 32.9312 90.8559C33.6257 92.1776 34.7158 93.9339 36.0269 95.7984C37.3476 97.6556 38.6429 99.2657 39.6545 100.364C40.1559 100.917 40.585 101.343 40.8864 101.631C41.0316 101.767 41.148 101.876 41.2375 101.96C41.3167 102.037 41.3571 102.078 41.3544 102.081Z" fill="#263238"/>
<path d="M37.3293 101.153C37.769 102.572 38.0706 104.031 38.2067 105.511C38.2362 105.834 38.4614 106.111 38.8067 106.111C39.1084 106.111 39.4365 105.836 39.4067 105.511C39.261 103.924 38.9584 102.357 38.4866 100.834C38.3906 100.525 38.068 100.327 37.7486 100.415C37.4426 100.499 37.233 100.843 37.3293 101.153Z" fill="#F2D352"/>
<path d="M30.4016 76.5562C30.198 71.4226 29.8284 65.4279 30.3857 63.475C30.943 61.5224 34.8754 57.662 37.1324 56.7668C39.3893 55.8716 43.1304 57.0658 44.2608 58.0647L51.3708 56.3456C51.3708 56.3456 52.7645 59.5777 51.0454 62.1709C49.326 64.7638 44.2596 64.7324 44.2596 64.7324C44.2596 64.7324 43.8048 67.5536 45.9716 67.8013C48.1383 68.0489 51.0233 67.7086 51.3015 70.0659L46.8483 70.4653L47.0976 74.3907L38.6271 78.8924L30.6934 76.6023" fill="#F2D352"/>
<path d="M36.4932 59.8812C36.5004 59.8805 36.516 59.9542 36.5385 60.0953C36.5623 60.2607 36.5916 60.4652 36.6271 60.714C36.6986 61.2836 36.7956 62.0547 36.9137 62.9938C37.0279 63.9668 37.1625 65.1118 37.3111 66.378C37.385 67.0138 37.464 67.6882 37.4702 68.3936C37.4705 69.0958 37.4064 69.8443 37.1124 70.5524C36.8186 71.2565 36.2652 71.8423 35.5949 72.1255C34.9277 72.42 34.2017 72.4306 33.5601 72.3055C32.9157 72.168 32.3419 71.8743 31.9032 71.4855C31.4676 71.0957 31.1505 70.6445 30.9345 70.2022C30.4958 69.3135 30.4145 68.5013 30.3977 67.9606C30.3924 67.6875 30.4058 67.4758 30.4214 67.3332C30.4382 67.1907 30.4505 67.1165 30.4579 67.1172C30.4778 67.1187 30.4476 67.4187 30.4807 67.9567C30.522 68.4888 30.6269 69.282 31.0689 70.1336C31.2864 70.5576 31.5989 70.9855 32.0196 71.352C32.4398 71.7144 32.987 71.9871 33.5993 72.1124C34.2086 72.2256 34.8936 72.21 35.5109 71.9333C36.1296 71.6681 36.6374 71.1305 36.9151 70.4688C37.1918 69.8033 37.2585 69.0811 37.2605 68.3943C37.2573 67.7033 37.1839 67.0373 37.115 66.3994C36.9833 65.1312 36.8642 63.9848 36.7632 63.0101C36.6729 62.0679 36.599 61.2941 36.5443 60.7229C36.5249 60.4724 36.5085 60.2664 36.4956 60.0999C36.4867 59.9575 36.4857 59.8822 36.4932 59.8812Z" fill="#263238"/>
<path d="M49.2508 56.8882C49.2235 57.2574 49.3999 57.6608 49.6392 57.9253C49.8784 58.1898 50.219 58.3388 50.5586 58.4485C51.0002 58.5913 51.4939 58.6779 51.9196 58.4924C51.9196 57.9212 51.8299 57.3502 51.6549 56.8069C51.6009 56.6394 51.5236 56.4574 51.3621 56.3874C51.2716 56.3482 51.1692 56.3516 51.0708 56.3588C50.436 56.4051 49.8112 56.587 49.2508 56.8882Z" fill="#263238"/>
<g opacity="0.3">
<path d="M30.4756 68.4092C30.6669 69.6786 31.0173 71.0698 31.8851 72.0159C32.7529 72.9618 34.1152 73.52 35.3553 73.1881C36.8778 72.7806 37.8201 71.1591 37.941 69.5876C38.062 68.0161 37.5381 66.4746 37.0213 64.9856C37.2693 66.4021 37.5162 67.8661 37.1843 69.2655C36.8524 70.665 35.7846 71.9946 34.3569 72.1664C33.3647 72.2857 32.3536 71.816 31.6941 71.0653C31.0343 70.3146 30.5447 69.4062 30.4756 68.4092Z" fill="#1D1D20"/>
</g>
<path d="M51.9431 59.055C51.9563 59.0559 51.9627 59.1884 51.945 59.4267C51.9292 59.6653 51.8828 60.0092 51.7837 60.4263C51.6853 60.8432 51.524 61.3318 51.2713 61.8435C51.014 62.3492 50.655 62.8885 50.1267 63.3025C49.6043 63.7162 49.0271 63.9805 48.4959 64.1768C47.9631 64.3738 47.4649 64.49 47.0451 64.5694C46.6247 64.6465 46.2807 64.6834 46.0424 64.6962C45.8041 64.7091 45.6719 64.7036 45.6709 64.6899C45.668 64.6546 46.1924 64.6114 47.0144 64.4216C47.4241 64.3244 47.9101 64.195 48.4266 63.9925C48.9414 63.7911 49.4984 63.5276 49.9938 63.135C50.4901 62.7466 50.8376 62.2378 51.0963 61.753C51.35 61.263 51.5228 60.7914 51.6375 60.3874C51.8689 59.5784 51.9054 59.0511 51.9431 59.055Z" fill="#263238"/>
<path d="M41.5848 60.1292C41.1665 60.2989 41.0672 60.9555 41.4164 61.2413C41.7656 61.5272 42.3896 61.3001 42.4733 60.8566C42.5571 60.4131 42.0588 59.9741 41.6295 60.1129" fill="#263238"/>
<path d="M39.1396 60.8907C39.0597 60.9209 38.9289 60.8187 38.8293 60.5921C38.7295 60.3684 38.6783 60.0188 38.7575 59.6499C38.8372 59.2812 39.0275 58.9834 39.2107 58.8204C39.3947 58.6548 39.556 58.6155 39.6165 58.676C39.7389 58.8099 39.4934 59.2342 39.3847 59.7848C39.2572 60.3312 39.3064 60.8189 39.1396 60.8907Z" fill="#263238"/>
<path d="M47.9751 102.877C47.9748 102.891 47.7288 102.877 47.2865 102.898C47.0657 102.909 46.7952 102.931 46.4883 102.991C46.1813 103.048 45.8383 103.155 45.4961 103.348C44.8087 103.732 44.1391 104.415 43.3707 105.123C42.6132 105.84 41.9088 106.778 40.9092 107.497C40.4131 107.856 39.8429 108.099 39.2703 108.192C38.6976 108.286 38.1425 108.273 37.6231 108.316C37.1059 108.356 36.6106 108.445 36.2103 108.67C35.8071 108.887 35.4917 109.193 35.2704 109.515C34.8231 110.163 34.711 110.825 34.7278 111.259C34.7412 111.7 34.8343 111.934 34.8173 111.938C34.8173 111.938 34.7083 111.709 34.6793 111.261C34.6474 110.819 34.7467 110.138 35.1977 109.465C35.4209 109.13 35.7427 108.809 36.1608 108.579C36.5779 108.34 37.0896 108.245 37.6138 108.201C38.1399 108.155 38.6931 108.164 39.2499 108.072C39.8047 107.979 40.3517 107.746 40.837 107.395C41.814 106.693 42.522 105.76 43.2907 105.04C44.0662 104.335 44.7411 103.656 45.4539 103.27C45.8076 103.078 46.1621 102.974 46.4753 102.922C46.789 102.869 47.0623 102.853 47.2848 102.85C47.5075 102.847 47.6803 102.853 47.7972 102.861C47.9139 102.867 47.9751 102.872 47.9751 102.877Z" fill="#263238"/>
<path d="M39.0381 110.189C39.0378 110.182 39.1161 110.171 39.2584 110.171C39.4007 110.17 39.6076 110.187 39.8574 110.242C40.3535 110.347 41.0337 110.647 41.5624 111.237C42.0902 111.828 42.3138 112.537 42.3633 113.042C42.3902 113.296 42.3839 113.504 42.3676 113.645C42.3515 113.787 42.3326 113.863 42.3251 113.862C42.3011 113.86 42.3503 113.547 42.2759 113.054C42.2056 112.565 41.9759 111.887 41.4695 111.32C40.9622 110.755 40.3146 110.452 39.8366 110.328C39.3537 110.199 39.0369 110.213 39.0381 110.189Z" fill="#263238"/>
<path d="M41.407 113.353C41.4197 113.355 41.3894 113.578 41.2291 113.899C41.0722 114.218 40.7618 114.629 40.2907 114.919C39.8194 115.209 39.312 115.301 38.9566 115.298C38.5975 115.296 38.3851 115.223 38.3887 115.21C38.3921 115.189 38.6076 115.23 38.9537 115.209C39.2971 115.19 39.7769 115.088 40.225 114.813C40.6728 114.537 40.9795 114.154 41.1514 113.856C41.3261 113.557 41.3866 113.346 41.407 113.353Z" fill="#263238"/>
<path d="M39.3357 111.803C39.3396 111.823 39.1437 111.86 38.8526 111.983C38.5624 112.104 38.1787 112.326 37.853 112.678C37.5271 113.03 37.3344 113.43 37.2362 113.728C37.1361 114.028 37.1138 114.226 37.0932 114.224C37.0792 114.223 37.0701 114.019 37.1515 113.703C37.2307 113.388 37.4191 112.962 37.7613 112.593C38.1031 112.224 38.5135 112.004 38.8209 111.901C39.1305 111.795 39.3343 111.789 39.3357 111.803Z" fill="#263238"/>
<path d="M53.0036 112.558C52.9846 112.554 53.0225 112.369 53.0542 112.07C53.084 111.774 53.1039 111.35 52.9515 110.926C52.7974 110.505 52.4749 110.215 52.2106 110.096C51.9428 109.972 51.7474 109.994 51.7481 109.97C51.7431 109.96 51.9447 109.903 52.2449 110.014C52.5397 110.121 52.9013 110.425 53.0691 110.883C53.2323 111.339 53.1944 111.783 53.1418 112.082C53.0866 112.385 53.0182 112.562 53.0036 112.558Z" fill="#263238"/>
<path d="M29.3063 109.806C29.3043 109.828 29.0835 109.801 28.737 109.852C28.3931 109.901 27.9186 110.051 27.5034 110.384C27.0884 110.716 26.8383 111.147 26.7157 111.472C26.5899 111.799 26.5683 112.02 26.5467 112.017C26.534 112.017 26.5237 111.789 26.6322 111.442C26.7373 111.099 26.9871 110.637 27.4251 110.286C27.8631 109.935 28.3679 109.792 28.7264 109.764C29.0891 109.734 29.3091 109.794 29.3063 109.806Z" fill="#263238"/>
<path d="M59.1865 107.619C59.1757 107.61 59.3008 107.467 59.4834 107.18C59.6668 106.895 59.8986 106.457 60.0796 105.878C60.2555 105.299 60.3755 104.578 60.344 103.777C60.3145 102.979 60.1345 102.1 59.7443 101.263C59.3519 100.428 58.767 99.7392 58.1058 99.29C57.4508 98.8313 56.7668 98.5599 56.1743 98.448C55.5793 98.3379 55.0811 98.3849 54.7559 98.4757C54.5936 98.5237 54.4684 98.5647 54.3875 98.6033C54.3047 98.6374 54.2598 98.6535 54.2579 98.6496C54.256 98.6458 54.2968 98.6223 54.3769 98.5805C54.4552 98.534 54.5792 98.485 54.7424 98.4289C55.0693 98.3218 55.5793 98.2594 56.1896 98.3609C56.7978 98.4641 57.4991 98.7322 58.1716 99.1954C58.5068 99.4268 58.8354 99.7102 59.1205 100.052C59.4059 100.393 59.655 100.785 59.8573 101.21C60.2562 102.065 60.4355 102.961 60.4592 103.773C60.4849 104.588 60.3534 105.32 60.164 105.905C59.9694 106.489 59.722 106.927 59.5242 107.207C59.4246 107.347 59.3432 107.452 59.2818 107.519C59.2223 107.587 59.1899 107.621 59.1865 107.619Z" fill="#263238"/>
<path d="M30.1482 95.3422C30.1448 95.3792 29.5333 95.1341 28.5241 95.2513C28.0237 95.305 27.4378 95.4673 26.8422 95.7617C26.2515 96.0613 25.6503 96.5055 25.1763 97.1079C24.9346 97.4041 24.7587 97.7333 24.6337 98.072C24.512 98.4116 24.4386 98.7541 24.3853 99.0826C24.2888 99.7426 24.2778 100.348 24.2814 100.854C24.2854 101.361 24.3015 101.772 24.3075 102.056C24.309 102.187 24.3102 102.295 24.3114 102.384C24.3106 102.459 24.3085 102.498 24.3042 102.499C24.2998 102.499 24.2938 102.46 24.2864 102.385C24.279 102.296 24.2701 102.188 24.2593 102.059C24.2386 101.776 24.2089 101.365 24.1935 100.856C24.1786 100.347 24.1803 99.7376 24.272 99.0658C24.3229 98.731 24.3954 98.3806 24.5192 98.0305C24.6454 97.6822 24.83 97.3352 25.0794 97.0301C25.5661 96.4117 26.1848 95.959 26.7918 95.6588C27.4038 95.3634 28.0047 95.2071 28.5157 95.1634C29.0269 95.1171 29.4447 95.1567 29.7234 95.2198C29.865 95.2414 29.9694 95.2829 30.0416 95.3021C30.1126 95.3245 30.1496 95.3382 30.1482 95.3422Z" fill="#263238"/>
<path d="M20.2483 90.1477C20.2399 90.1491 20.2185 90.056 20.187 89.8856C20.1534 89.7157 20.1223 89.4665 20.0997 89.1574C20.0531 88.5397 20.0757 87.6745 20.2706 86.7454C20.4683 85.8166 20.7978 85.0162 21.0902 84.47C21.2358 84.1964 21.3652 83.9811 21.4646 83.8393C21.5623 83.6962 21.6194 83.6197 21.6266 83.6242C21.6455 83.6362 21.4377 83.9573 21.1689 84.5098C20.8994 85.0611 20.5879 85.8548 20.3927 86.7711C20.2005 87.6877 20.1643 88.5397 20.188 89.1526C20.2103 89.7665 20.2703 90.1441 20.2483 90.1477Z" fill="#263238"/>
<path d="M19.4787 90.5213C19.4703 90.523 19.4456 90.4301 19.4079 90.2602C19.3688 90.0908 19.3263 89.8421 19.2867 89.5335C19.2068 88.9164 19.1646 88.0517 19.2551 87.1037C19.3479 86.1557 19.5551 85.315 19.7519 84.7246C19.8498 84.4292 19.9391 84.1935 20.0101 84.0346C20.0795 83.875 20.1215 83.7886 20.1296 83.792C20.1493 83.7999 20.0096 84.1575 19.8366 84.7508C19.6628 85.3433 19.4718 86.1778 19.3799 87.1157C19.2903 88.0536 19.3179 88.909 19.3748 89.5239C19.431 90.1395 19.4996 90.5175 19.4787 90.5213Z" fill="#263238"/>
<g opacity="0.3">
<path d="M35.1336 100.038C36.1293 101.129 36.85 102.469 37.2112 103.901C37.2914 104.219 37.3524 104.565 37.2235 104.867C36.948 105.513 36.0585 105.544 35.4499 105.894C34.9404 106.187 34.6248 106.72 34.3317 107.229C33.34 108.954 32.3481 110.679 31.3564 112.404C32.2756 112.328 32.6164 112.424 33.5356 112.348L35.014 112.381C34.9593 112.404 34.7265 111.677 34.7071 111.336C34.6473 110.295 35.3505 109.034 36.2851 108.571C37.4599 107.987 38.8106 108.475 40.0024 107.927C41.1436 107.403 41.8236 106.602 42.5654 105.866C43.4966 104.942 44.4192 103.717 45.6124 103.173C46.1517 102.927 47.442 102.902 47.442 102.902C46.828 102.182 45.7048 102.218 44.7907 102.465C43.8765 102.711 42.941 103.109 42.0175 102.901C41.2416 102.727 40.6262 102.155 40.0514 101.606C38.58 100.199 37.0576 98.714 36.402 96.7866C35.9925 97.844 35.5833 98.9014 35.1739 99.9586" fill="#1D1D20"/>
</g>
<g opacity="0.3">
<path d="M55.2927 112.403C55.7681 111.238 54.6848 109.859 54.2482 108.679C53.8057 107.482 53.9014 106.165 53.9043 104.889C53.9101 102.205 53.4737 99.5215 52.6179 96.978C52.5229 100.475 52.922 104.19 53.1303 107.682C53.1745 108.424 53.1171 109.281 53.6614 109.787C53.9396 110.045 54.1054 109.932 54.4167 110.149C54.728 110.366 55.3417 110.859 55.2927 112.403Z" fill="#1D1D20"/>
</g>
<path d="M41.1599 77.9357C41.1527 77.965 40.54 77.7495 39.9594 77.2174C39.3743 76.6901 39.1014 76.1007 39.13 76.0909C39.1633 76.07 39.4765 76.615 40.0436 77.125C40.605 77.6405 41.1774 77.9007 41.1599 77.9357Z" fill="#263238"/>
<path d="M42.061 77.443C42.0514 77.473 41.5347 77.3057 40.9938 76.9215C40.4504 76.5404 40.1199 76.1096 40.1449 76.0904C40.1725 76.0649 40.5366 76.4484 41.0658 76.8192C41.5923 77.1936 42.0757 77.4082 42.061 77.443Z" fill="#263238"/>
<path d="M43.2457 77.4008C43.2388 77.4312 42.7324 77.3031 42.207 76.9445C41.679 76.5893 41.3723 76.1667 41.398 76.1489C41.4263 76.1237 41.7659 76.4979 42.2771 76.8411C42.7849 77.1884 43.2585 77.3652 43.2457 77.4008Z" fill="#263238"/>
<path d="M35.0829 87.7074C35.0729 87.7357 34.4832 87.4549 33.966 86.8563C33.4435 86.2621 33.246 85.6395 33.2753 85.6335C33.311 85.617 33.5542 86.1997 34.0601 86.7742C34.56 87.3538 35.1043 87.6742 35.0829 87.7074Z" fill="#263238"/>
<path d="M35.9686 87.7203C35.9516 87.7469 35.498 87.4539 35.0789 86.9444C34.6568 86.4372 34.454 85.9368 34.4832 85.9253C34.5166 85.9083 34.7643 86.3715 35.1752 86.8647C35.5827 87.3605 35.9916 87.6905 35.9686 87.7203Z" fill="#263238"/>
<path d="M37.5128 88.0208C37.4876 88.0443 37.1068 87.6764 36.662 87.1993C36.2173 86.7219 35.8775 86.3161 35.9027 86.2926C35.9279 86.2691 36.3088 86.6367 36.7535 87.1141C37.1982 87.5914 37.538 87.9973 37.5128 88.0208Z" fill="#263238"/>
<path d="M32.75 68.047C32.7406 68.0588 32.6434 68.004 32.5191 67.8754C32.395 67.7477 32.2517 67.5392 32.162 67.2795C32.0732 67.0193 32.0583 66.7669 32.078 66.5897C32.0969 66.4119 32.1401 66.3089 32.1548 66.3125C32.1927 66.3173 32.1068 66.7486 32.2803 67.2389C32.4445 67.7321 32.7769 68.0199 32.75 68.047Z" fill="#263238"/>
<path d="M33.1717 67.863C33.146 67.8826 32.9319 67.6186 32.8105 67.2238C32.6867 66.8298 32.7135 66.4909 32.7459 66.4926C32.7827 66.4914 32.8117 66.8127 32.9298 67.1869C33.0447 67.5615 33.2027 67.843 33.1717 67.863Z" fill="#263238"/>
<path d="M34.1255 68.4591C34.0998 68.4788 33.8049 68.1181 33.5711 67.597C33.3347 67.0772 33.2594 66.6171 33.291 66.6111C33.3266 66.6022 33.4545 67.0385 33.6851 67.5457C33.9126 68.054 34.1558 68.4382 34.1255 68.4591Z" fill="#263238"/>
<path d="M62.3895 24.1567C60.5293 25.297 59.8993 28.0481 59.8189 30.2285C59.7385 32.4089 60.3337 34.549 60.8158 36.6768C61.298 38.8049 61.6695 41.0345 61.147 43.153C60.6632 45.1152 59.4385 47.1833 60.3188 49.0023C60.9836 50.3758 62.6857 51.0886 63.1554 52.5406C63.7035 54.2355 62.318 55.8907 61.045 57.1368C61.6225 58.0805 62.9886 58.4343 63.9512 57.889C63.9231 58.4035 63.6675 58.9015 63.266 59.2246C64.7089 59.5961 66.349 59.0237 67.2476 57.8352C67.0714 58.4403 66.895 59.0453 66.7189 59.6503C68.1639 59.3158 69.4638 58.3935 70.2567 57.1402C70.4607 57.522 70.6645 57.9039 70.8685 58.2857C73.2102 56.6784 74.8366 54.1493 75.6344 51.4236C76.4322 48.6979 76.4427 45.7843 75.9843 42.9814C74.6893 35.0623 69.4995 27.8763 62.3895 24.1567Z" fill="#263238"/>
<path d="M89.6112 44.1442C88.7775 43.1434 87.75 42.1491 87.6348 40.8516C87.5839 40.2783 87.7222 39.6908 87.5921 39.1301C87.2566 37.6832 85.3747 37.1112 84.8076 35.7382C84.0958 34.0152 85.7158 31.7345 84.516 30.3075C83.9403 29.6225 82.9476 29.4886 82.1914 29.0105C80.2663 27.794 80.7375 24.4385 76.1328 22.0176L76.4758 29.3652C78.0262 35.5791 79.2576 41.8724 80.1634 48.2122C83.6287 48.0416 87.0941 47.8709 90.5595 47.7003C91.1575 46.5432 90.4452 45.145 89.6112 44.1442Z" fill="#263238"/>
<path d="M60.1885 26.8342C60.2895 25.0047 61.1619 23.2304 62.5494 22.0332C64.0736 20.7183 66.1306 20.1339 68.1435 20.1053C70.1564 20.0768 72.1426 20.5637 74.0581 21.1832C75.1328 21.5307 76.2164 21.9336 77.0893 22.6503C78.6824 23.9585 79.3172 26.0734 79.8706 28.0589C80.318 29.6645 80.7685 31.3515 80.3984 32.9768C80.059 34.4684 79.0018 35.7792 77.6163 36.4272" fill="#263238"/>
<path d="M60.7457 25.453C59.6638 27.288 59.226 29.4943 59.5258 31.6035C59.8255 33.7123 60.8606 35.7096 62.4113 37.1703C62.4648 32.5404 62.9227 27.9151 63.7778 23.3645" fill="#263238"/>
<path d="M60.3246 31.8255C59.8451 28.578 61.132 24.1947 64.397 23.8534L72.1852 24.1498C74.6838 24.2448 76.6922 25.9054 77.3889 28.3068C77.4237 28.4266 77.404 28.2759 77.4218 28.3676L81.0465 47.8234C81.6342 51.014 79.539 54.0814 76.353 54.6941C73.2023 55.3001 70.144 53.2798 69.4641 50.1442C69.1262 48.5854 68.7299 46.748 68.7311 46.7561C68.7311 46.7561 64.4925 46.9469 62.5082 41.7857C61.5218 39.2189 60.8577 35.4334 60.3246 31.8255Z" fill="#9D6054"/>
<path d="M67.3032 28.578C67.319 28.6088 66.6768 28.9548 65.8234 29.2294C64.9704 29.5071 64.2475 29.6028 64.2422 29.5685C64.2348 29.5296 64.9392 29.376 65.7821 29.1015C66.6254 28.8303 67.2862 28.5423 67.3032 28.578Z" fill="#724A44"/>
<path d="M66.0696 28.6438C66.0842 28.6762 65.6822 28.8833 65.1463 29.0283C64.6106 29.1749 64.1592 29.1999 64.1553 29.1646C64.1503 29.1262 64.5859 29.0427 65.111 28.8987C65.6366 28.7569 66.0547 28.6083 66.0696 28.6438Z" fill="#724A44"/>
<path d="M70.5649 38.7367C70.5299 38.749 70.4373 38.5407 70.1922 38.4497C69.951 38.3487 69.741 38.4375 69.7238 38.4048C69.7151 38.3909 69.7576 38.3419 69.8536 38.3081C69.9484 38.2738 70.0965 38.2675 70.2414 38.3247C70.3861 38.382 70.4903 38.4876 70.5359 38.5774C70.5832 38.6679 70.5808 38.7324 70.5649 38.7367Z" fill="#724A44"/>
<path d="M62.4004 35.7545C62.4645 36.1191 62.8262 36.3653 63.208 36.3053C63.5891 36.2453 63.8469 35.9021 63.7828 35.5376C63.7185 35.173 63.357 34.9265 62.9759 34.9865C62.5941 35.0461 62.3363 35.39 62.4004 35.7545Z" fill="#263238"/>
<path d="M61.752 33.8904C61.8559 33.9617 62.2932 33.4673 63.0307 33.3123C63.7653 33.1471 64.3869 33.4114 64.4476 33.3041C64.4784 33.2559 64.3574 33.1131 64.0855 32.9916C63.8174 32.8702 63.3864 32.7881 62.9277 32.8877C62.4691 32.9878 62.1187 33.2391 61.9336 33.4594C61.744 33.6814 61.7016 33.8592 61.752 33.8904Z" fill="#263238"/>
<path d="M69.0313 34.3088C69.0953 34.6733 69.457 34.9193 69.8389 34.8593C70.2197 34.7993 70.4777 34.4561 70.4137 34.0916C70.3496 33.7273 69.9879 33.4805 69.6068 33.5403C69.2247 33.6005 68.9672 33.9445 69.0313 34.3088Z" fill="#263238"/>
<path d="M69.027 32.4869C69.1312 32.5582 69.5692 32.0635 70.3062 31.9087C71.0406 31.7434 71.6625 32.0076 71.7232 31.9003C71.7539 31.8521 71.6339 31.7091 71.361 31.5879C71.0927 31.4662 70.6619 31.3843 70.2032 31.4837C69.7446 31.584 69.3944 31.8353 69.2089 32.0554C69.02 32.2776 68.9771 32.4557 69.027 32.4869Z" fill="#263238"/>
<path d="M67.5143 38.5227C67.5088 38.4802 67.0338 38.4984 66.2708 38.5613C66.0786 38.582 65.8924 38.5825 65.8333 38.4608C65.7599 38.3341 65.7957 38.1147 65.8403 37.8761C65.9205 37.3829 66.004 36.8662 66.092 36.3243C66.4309 34.1192 66.6337 32.3221 66.5449 32.3091C66.4561 32.2961 66.1089 34.0731 65.77 36.2785C65.691 36.8211 65.6149 37.3388 65.5434 37.8337C65.5177 38.0626 65.4467 38.3314 65.6029 38.5933C65.6836 38.7231 65.8434 38.7958 65.9711 38.8028C66.0995 38.8138 66.2058 38.7934 66.3001 38.779C67.0561 38.6605 67.5205 38.5654 67.5143 38.5227Z" fill="#263238"/>
<path d="M75.4046 43.3337C75.4046 43.3337 74.4554 47.3746 69.0031 48.0116L68.7314 46.7559C68.7314 46.7559 72.2995 46.2308 75.4046 43.3337Z" fill="#724A44"/>
<path d="M68.2042 40.2331C68.3947 39.8263 68.8183 39.535 69.2902 39.4865C69.6173 39.4529 69.9735 39.5383 70.2231 39.7577C70.4727 39.9768 70.5922 40.338 70.4683 40.6239C70.3289 40.9459 69.9269 41.0991 69.5539 41.0739C69.1807 41.0487 68.8289 40.8816 68.4922 40.7119C68.399 40.6651 68.3035 40.6157 68.2354 40.5387C68.167 40.4619 68.1322 40.3495 68.178 40.2641" fill="#724A44"/>
<path d="M69.7916 38.5712C69.6702 38.5897 69.8389 39.3903 69.2746 40.1038C68.7123 40.819 67.8402 40.9107 67.8577 41.0237C67.8572 41.0763 68.0806 41.1389 68.4426 41.072C68.7982 41.0091 69.29 40.7859 69.6351 40.3493C69.9788 39.9123 70.0599 39.4093 70.0172 39.0752C69.9769 38.7344 69.8454 38.5551 69.7916 38.5712Z" fill="#263238"/>
<path d="M68.3853 30.3675C68.5005 30.5523 69.2164 30.301 70.1035 30.2211C70.9891 30.1236 71.7403 30.2285 71.8168 30.0243C71.8497 29.9275 71.6882 29.7646 71.3649 29.6307C71.0443 29.4963 70.559 29.4072 70.0274 29.4595C69.496 29.5133 69.0383 29.6967 68.7506 29.8918C68.4599 30.0876 68.3337 30.2789 68.3853 30.3675Z" fill="#263238"/>
<path d="M61.5693 31.6993C61.7346 31.8389 62.2055 31.5572 62.8144 31.4192C63.4185 31.2598 63.9662 31.2917 64.048 31.0913C64.0821 30.9951 63.965 30.8449 63.7053 30.7345C63.449 30.6238 63.0491 30.5739 62.6322 30.6759C62.2156 30.7786 61.8842 31.0076 61.7085 31.2243C61.5287 31.4422 61.4946 31.6297 61.5693 31.6993Z" fill="#263238"/>
<path d="M60.7274 26.6374C60.8812 25.7638 61.659 25.0918 62.5158 24.8619C63.3724 24.6317 64.289 24.7779 65.133 25.0503C68.7078 26.2047 71.2804 29.4709 74.8312 30.697C75.7046 30.9987 76.6343 31.1756 77.4249 31.6539C78.2154 32.1322 78.8546 33.0305 78.6688 33.9356C78.9664 33.2657 79.2676 32.5841 79.3624 31.8574C79.4572 31.1307 79.3185 30.3389 78.827 29.7953C78.4538 29.3828 77.8965 29.1265 77.6512 28.6273C77.4355 28.1881 77.5142 27.6632 77.3915 27.1894C77.2665 26.707 76.9403 26.305 76.6096 25.9325C74.9111 24.0205 72.7948 22.4158 70.3514 21.6603C68.7551 21.1666 67.0257 21.0493 65.405 21.4558C63.7843 21.8624 62.2828 22.813 61.3274 24.1839C60.7646 24.9901 60.1718 25.8267 60.7274 26.6374Z" fill="#263238"/>
<path d="M80.7009 34.7458C80.5602 34.7095 80.547 34.3435 80.441 33.7671C80.3848 33.4848 80.3018 33.1399 80.127 32.8546C80.0838 32.784 80.0358 32.718 79.983 32.6597C79.9595 32.6273 79.9264 32.6062 79.9005 32.5779C79.8755 32.5527 79.8242 32.5073 79.7858 32.4727C79.6175 32.3261 79.4303 32.1761 79.235 32.0551C79.0449 31.9325 78.8272 31.8372 78.7055 31.8303C78.6434 31.8233 78.6326 31.8444 78.6614 31.8478C78.6021 31.873 78.5421 31.8987 78.4818 31.9246C78.4187 31.9543 78.3549 31.9843 78.2906 32.0146C78.041 32.1387 77.8168 32.2817 77.5934 32.4646C77.4818 32.5558 77.3706 32.6563 77.259 32.7653L77.1753 32.8488L77.0306 32.9823C76.9319 33.0665 76.8302 33.1445 76.7258 33.2163C76.3055 33.4971 75.8452 33.7049 75.2781 33.7927C74.9946 33.8331 74.6776 33.8403 74.3306 33.7594L74.2019 33.7265L74.0982 33.6915C74.0298 33.6665 73.9586 33.6456 73.8928 33.6151C73.7584 33.5583 73.6278 33.4944 73.5047 33.4215C73.0067 33.1306 72.6309 32.7454 72.3215 32.371C72.0143 31.9944 71.7633 31.6155 71.5269 31.272C70.6223 29.9424 69.5306 28.8545 68.4232 27.9991C67.3161 27.1419 66.195 26.5279 65.2125 26.0933C64.2266 25.6411 63.4271 25.4196 62.8492 25.338C62.2742 25.2538 61.9158 25.2763 61.8647 25.1379C61.8153 25.0203 62.1078 24.7243 62.8017 24.5551C63.4881 24.3828 64.5357 24.4284 65.6795 24.7469C66.8344 25.0481 68.176 25.5991 69.5034 26.4886C70.8278 27.3715 72.1461 28.5989 73.1872 30.1299C73.4392 30.498 73.6598 30.8314 73.8801 31.11C74.0994 31.3865 74.3154 31.6003 74.519 31.7278C74.5696 31.7614 74.6205 31.7878 74.6709 31.8125C74.6956 31.8271 74.722 31.8327 74.7472 31.8444L74.7849 31.8607L74.8014 31.8653C74.8427 31.8807 74.9284 31.8927 75.0328 31.8838C75.2435 31.8684 75.5099 31.7775 75.719 31.656C75.771 31.6255 75.8198 31.5939 75.8649 31.5622L75.928 31.5137L76.0468 31.4122C76.2071 31.2785 76.3742 31.1508 76.5489 31.0327C76.8969 30.7959 77.2799 30.6046 77.6445 30.4731C77.7357 30.4397 77.8254 30.4097 77.9135 30.3821L78.0443 30.3427L78.1936 30.3017C78.5306 30.2088 78.8476 30.2489 79.0823 30.3209C79.5606 30.4721 79.852 30.7075 80.1081 30.9281C80.3613 31.1525 80.5595 31.3827 80.7357 31.6111C80.781 31.6726 80.817 31.7182 80.866 31.7923C80.9116 31.8648 80.9632 31.9337 80.9973 32.0069C81.0743 32.1507 81.13 32.2937 81.1715 32.4312C81.3318 32.9851 81.2855 33.4342 81.225 33.78C81.0842 34.4736 80.8259 34.782 80.7009 34.7458Z" fill="#263238"/>
<path d="M77.71 32.468C77.7332 32.3026 80.3024 30.6989 80.9756 33.6512C81.6296 36.5194 78.6061 36.577 78.5826 36.4959C78.5593 36.4148 77.71 32.468 77.71 32.468Z" fill="#9D6054"/>
<path d="M79.2239 35.2095C79.2344 35.1975 79.2817 35.2333 79.3751 35.2529C79.4658 35.2721 79.6134 35.2664 79.7507 35.1766C80.0288 34.9971 80.176 34.4583 80.0735 33.938C80.0221 33.6752 79.9115 33.4388 79.7725 33.2537C79.6376 33.0634 79.4689 32.9473 79.3103 32.9545C79.1504 32.9535 79.0628 33.0692 79.046 33.1577C79.0256 33.2465 79.0566 33.2998 79.0427 33.3082C79.0362 33.3173 78.9702 33.2739 78.9668 33.1503C78.9659 33.0905 78.9844 33.0154 79.0393 32.9451C79.0955 32.8736 79.1905 32.8222 79.2992 32.81C79.5239 32.7754 79.7689 32.9343 79.9216 33.1376C80.0864 33.3389 80.217 33.6034 80.2746 33.8986C80.3862 34.4811 80.2117 35.0888 79.8239 35.3019C79.6338 35.4001 79.4516 35.377 79.3494 35.3288C79.2448 35.2777 79.2152 35.2169 79.2239 35.2095Z" fill="#724A44"/>
<path d="M68.051 53.3336C68.051 53.3336 66.3006 53.9571 65.5067 55.968C64.7128 57.9792 61.2609 70.2207 61.2609 70.2207L54.0587 71.1442L53.5137 77.798C53.5137 77.798 56.2682 78.5748 59.8655 78.8919C62.5197 79.1259 66.8097 78.7354 67.9283 78.1097C69.047 77.484 67.8184 53.6136 67.8184 53.6136L68.051 53.3336Z" fill="#E0E0E0"/>
<path d="M69.5107 51.5156C71.7917 54.1059 77.7809 48.8532 80.4475 44.6801L71.8699 84.9651L70.4062 84.6075L69.5107 51.5156Z" fill="#263238"/>
<path d="M69.3325 49.7465L68.781 52.3623L66.7386 54.2247C66.7119 57.6435 68.5602 64.4679 68.1006 65.8378C67.4451 67.7921 67.1843 69.8196 67.9674 72.6699C68.3684 74.1296 70.7941 84.6077 70.7941 84.6077C70.7941 84.6077 70.0943 112.028 70.1675 112.381H75.7446L70.2985 75.9137L70.0777 53.0624L69.3325 49.7465Z" fill="#E0E0E0"/>
<path d="M105.115 95.006C103.387 90.6874 96.996 79.632 96.996 79.632C96.996 79.632 96.4778 75.7455 96.0458 67.1948C95.614 58.644 91.9 49.057 91.1227 47.5887C90.3453 46.1204 81.7048 44.6799 81.7048 44.6799L80.1945 42.4803C80.1945 42.4803 76.9723 50.9432 76.7995 51.2021C76.6267 51.4613 73.1779 61.6085 72.8323 64.4588C72.4867 67.309 71.5166 82.6548 71.5166 82.6548L75.7442 112.38H107.165C107.165 112.38 106.842 99.3245 105.115 95.006Z" fill="#E0E0E0"/>
<path d="M76.01 93.9308C76.4595 93.8801 82.2963 93.2213 91.64 92.1668L91.6942 92.1608L91.6993 92.2152C92.1437 96.9987 92.671 102.676 93.235 108.746C93.2967 109.415 93.3581 110.079 93.4189 110.738L93.4251 110.804L93.3584 110.806C88.8313 110.91 84.5641 111.008 80.7929 111.094L80.7493 111.095L80.7377 111.053C79.3465 105.955 78.1777 101.672 77.3552 98.6592C76.9371 97.1595 76.6073 95.9768 76.3808 95.1641C76.2644 94.764 76.1749 94.4559 76.1129 94.2432C76.0813 94.1422 76.057 94.0647 76.0395 94.0083C76.0193 93.9555 76.0081 93.93 76.01 93.9308C76.01 93.9308 76.0261 93.9562 76.0477 94.0054C76.0666 94.0572 76.0966 94.1345 76.1297 94.238C76.1991 94.4441 76.2932 94.7523 76.4141 95.1543C76.6544 95.9588 76.9947 97.1403 77.4188 98.6412C78.2667 101.644 79.4516 105.924 80.845 111.024L80.7901 110.983C84.5609 110.892 88.8284 110.79 93.3552 110.681L93.2945 110.749C93.2336 110.091 93.1724 109.426 93.1105 108.757C92.5532 102.687 92.0317 97.0088 91.5925 92.2248L91.6515 92.2731C82.3009 93.264 76.4593 93.883 76.01 93.9308Z" fill="#263238"/>
<path d="M92.0067 96.1311C92.0091 96.1656 88.6539 96.4387 84.5136 96.7416C80.3717 97.0445 77.0131 97.2619 77.0107 97.2274C77.0083 97.1931 80.3628 96.9197 84.5045 96.6168C88.645 96.3142 92.0043 96.0967 92.0067 96.1311Z" fill="#263238"/>
<path d="M96.8808 79.5857C96.8849 79.5934 96.8187 79.6356 96.6951 79.7055C96.5724 79.777 96.3888 79.8694 96.1582 79.9755C95.6967 80.1862 95.0316 80.4293 94.2675 80.5745C93.5028 80.7183 92.7977 80.744 92.2913 80.7389C92.0376 80.7353 91.8329 80.7269 91.6915 80.7149C91.5502 80.7039 91.4724 80.6938 91.4727 80.6852C91.4734 80.666 91.7863 80.6662 92.2903 80.6506C92.7939 80.6331 93.4903 80.5935 94.2442 80.4516C94.9975 80.3084 95.6568 80.082 96.1236 79.8941C96.5904 79.7052 96.8715 79.5675 96.8808 79.5857Z" fill="#263238"/>
<path d="M96.9959 79.6323C97.0074 79.6443 96.8068 79.8584 96.4629 80.1843C96.1197 80.5107 95.632 80.9465 95.0865 81.4188C94.5544 81.8772 94.0734 82.2917 93.6873 82.6248C93.3292 82.9332 93.1074 83.1243 93.0952 83.1111C93.0837 83.0991 93.2843 82.885 93.628 82.5593C93.9712 82.2329 94.4591 81.7971 95.0046 81.3245C95.5365 80.8661 96.0174 80.4516 96.4038 80.1188C96.7619 79.8101 96.9834 79.6193 96.9959 79.6323Z" fill="#263238"/>
<path d="M86.3162 102.874C85.7141 102.655 85.0565 102.568 84.5011 102.888C84.0533 103.145 83.8373 103.707 83.8949 104.22C83.9525 104.734 84.2446 105.197 84.6103 105.562C84.8594 105.81 85.1683 106.031 85.5197 106.05C85.9128 106.07 86.2738 105.836 86.5649 105.571C86.861 105.302 87.1238 104.982 87.2556 104.604C87.3874 104.226 87.3725 103.783 87.1488 103.45C86.8886 103.064 86.413 102.897 85.9704 102.754" fill="#FF725E"/>
<path d="M84.2664 102.544C84.3113 102.29 84.2952 102.02 84.1865 101.786C84.078 101.552 83.8701 101.358 83.6191 101.298C83.3681 101.238 83.0791 101.329 82.9315 101.54C82.8252 101.693 82.7988 101.89 82.8225 102.075C82.8645 102.402 83.0748 102.716 83.3841 102.831C83.6933 102.946 84.1205 102.84 84.2664 102.544Z" fill="#FF725E"/>
<path d="M86.9484 102.678C87.2064 102.671 87.4675 102.601 87.6751 102.447C87.8827 102.294 88.0308 102.051 88.0387 101.793C88.0469 101.535 87.9 101.27 87.6626 101.169C87.4917 101.095 87.2933 101.109 87.1173 101.169C86.8051 101.276 86.5401 101.545 86.4895 101.872C86.4391 102.198 86.6292 102.595 86.9484 102.678Z" fill="#FF725E"/>
<path d="M88.2585 103.52C88.4366 103.515 88.6168 103.466 88.7601 103.36C88.9034 103.254 89.0056 103.087 89.0111 102.909C89.0166 102.731 88.9154 102.548 88.7517 102.478C88.6338 102.427 88.4968 102.437 88.3754 102.478C88.1598 102.552 87.977 102.738 87.9422 102.963C87.9071 103.188 88.0382 103.462 88.2585 103.52Z" fill="#FF725E"/>
<path d="M85.4779 102.237C85.7575 102.116 86.0131 101.925 86.1735 101.666C86.334 101.408 86.3902 101.077 86.2865 100.791C86.1826 100.505 85.9061 100.279 85.6018 100.271C85.3824 100.265 85.171 100.367 85.0044 100.51C84.7092 100.763 84.5362 101.174 84.6231 101.553C84.7099 101.933 85.0915 102.285 85.4779 102.237Z" fill="#FF725E"/>
<path d="M72.8324 72.3032C72.8305 72.3024 72.8362 72.2784 72.8492 72.2319C72.8648 72.1793 72.885 72.1116 72.9102 72.0267C72.969 71.839 73.0515 71.576 73.1566 71.2404C73.3784 70.5507 73.6954 69.5657 74.0866 68.3492C74.8866 65.9009 75.9903 62.5227 77.2179 58.7655L77.2155 58.7763C77.2393 58.6083 77.2647 58.4271 77.2902 58.2452C77.5198 56.6208 77.7409 55.0587 77.9466 53.6052L77.9492 53.5875L77.9612 53.5743C79.01 52.4007 79.9753 51.3209 80.822 50.3736L80.81 50.3993C81.0764 48.6574 81.2948 47.2292 81.4479 46.2274C81.5262 45.7376 81.5876 45.3524 81.6308 45.0807C81.6524 44.9552 81.6694 44.8563 81.6822 44.7814C81.6946 44.714 81.7021 44.6796 81.7047 44.6799C81.7071 44.6804 81.7045 44.7154 81.697 44.7836C81.6877 44.8589 81.6754 44.9585 81.6598 45.0848C81.6229 45.3572 81.5703 45.7438 81.5034 46.2353C81.3603 47.2388 81.1566 48.6692 80.9079 50.4135L80.9058 50.4279L80.8959 50.4392C80.0535 51.3905 79.0933 52.4746 78.0498 53.6528L78.0642 53.6216C77.8606 55.0752 77.6418 56.6379 77.4142 58.2624C77.3886 58.4444 77.3631 58.6256 77.3394 58.7936L77.3386 58.7991L77.337 58.8044C76.0952 62.5568 74.9787 65.9307 74.1694 68.376C73.7624 69.5873 73.4329 70.5682 73.2022 71.2548C73.0878 71.5872 72.998 71.8479 72.9339 72.0339C72.9039 72.1172 72.8799 72.1836 72.8612 72.2352C72.8439 72.2811 72.8343 72.3039 72.8324 72.3032Z" fill="#263238"/>
<path d="M70.1536 75.2895C70.1517 75.2898 70.1476 75.2737 70.1411 75.242C70.1342 75.2036 70.1258 75.1573 70.1157 75.1009C70.0941 74.9667 70.0648 74.7845 70.0279 74.5539C69.9547 74.0665 69.8507 73.3757 69.7219 72.518C69.4706 70.7761 69.1219 68.3583 68.7251 65.6077L68.7239 65.5995L68.7249 65.5914C68.8118 64.9033 68.902 64.1876 68.9944 63.4563C69.1538 62.2066 69.3074 61.0023 69.4509 59.8777L69.467 59.9264C68.8334 59.2652 68.2363 58.6424 67.685 58.0673L67.666 58.0474L67.6708 58.0208C67.9814 56.3257 68.2401 54.913 68.4235 53.9129C68.5163 53.4262 68.5898 53.0405 68.6423 52.7657C68.668 52.6407 68.6884 52.5411 68.704 52.4645C68.7189 52.3966 68.7278 52.3618 68.7307 52.3623C68.7335 52.3628 68.7299 52.3985 68.7203 52.4674C68.7088 52.5447 68.6935 52.6453 68.6745 52.7715C68.6291 53.0475 68.5653 53.4349 68.4847 53.9237C68.3121 54.9257 68.0685 56.3413 67.7759 58.0395L67.7618 57.9932C68.3157 58.5656 68.9157 59.1855 69.5527 59.8436L69.5723 59.864L69.5687 59.8923C69.4271 61.0174 69.2755 62.2218 69.118 63.4717C69.0249 64.203 68.9339 64.9186 68.8463 65.6065V65.5901C69.2263 68.3429 69.5603 70.7629 69.8011 72.5065C69.9146 73.3664 70.006 74.059 70.0706 74.5477C70.0989 74.7795 70.121 74.9626 70.1375 75.0975C70.1433 75.1546 70.1481 75.2014 70.1522 75.2403C70.1551 75.2727 70.1555 75.2893 70.1536 75.2895Z" fill="#263238"/>
<path d="M75.7387 112.355C75.7046 112.359 74.8546 106.576 73.8403 99.4388C72.8258 92.299 72.0312 86.509 72.0655 86.5042C72.0996 86.4994 72.9494 92.2815 73.9642 99.4213C74.9784 106.559 75.773 112.35 75.7387 112.355Z" fill="#263238"/>
<path d="M55.9277 80.8733L60.7849 79.477L63.8026 86.5042L57.0411 86.2925L55.9277 81.1589" fill="#9D6054"/>
<path d="M60.7852 79.477L64.7327 88.6692C64.7327 88.6692 84.4705 83.0359 85.8803 81.4539C87.29 79.8718 90.279 65.6043 90.7866 62.8409C91.2942 60.0775 91.8582 48.8412 89.4896 47.0436C87.1211 45.246 84.8089 45.6408 82.5532 48.1219C80.7258 50.1319 77.7496 61.6323 76.6849 65.9283C76.4228 66.9857 76.353 68.0811 76.479 69.1632L76.6883 70.9613C76.6883 70.9613 74.8273 72.6531 74.7145 74.232L60.7852 79.477Z" fill="#E0E0E0"/>
<path d="M79.9286 54.2554C79.9286 54.2554 79.9053 54.3562 79.8535 54.5508C79.8002 54.7478 79.7224 55.0363 79.6207 55.4134C79.4126 56.1732 79.1071 57.288 78.7144 58.7206C78.3189 60.155 77.836 61.907 77.2761 63.9372C77.136 64.4448 76.9908 64.9699 76.8412 65.5116C76.6778 66.0509 76.5643 66.6156 76.5055 67.2074C76.4472 67.7981 76.4438 68.4113 76.5093 69.0341C76.5823 69.6588 76.6572 70.2996 76.734 70.9558L76.7366 70.9788L76.7188 70.9956C76.2804 71.4149 75.8587 71.892 75.4982 72.4277C75.1401 72.96 74.8272 73.5686 74.764 74.2356L74.7609 74.268L74.7314 74.279C70.5715 75.8482 65.8704 77.6215 60.8054 79.5322L60.8392 79.453C62.0997 82.386 63.424 85.4678 64.7892 88.644L64.715 88.6087C66.342 88.1414 68.0644 87.635 69.8052 87.1128C73.1954 86.094 76.4976 85.0716 79.6579 84C81.2356 83.459 82.7851 82.9183 84.2575 82.2866C84.6259 82.1299 84.9859 81.959 85.3308 81.7699C85.4983 81.6703 85.6699 81.5702 85.8033 81.4416C85.8722 81.3785 85.9212 81.2947 85.9771 81.2186C86.0244 81.1342 86.0743 81.0518 86.1192 80.9662C86.4612 80.2673 86.7081 79.5283 86.9431 78.8006C87.4041 77.34 87.7884 75.8942 88.1467 74.4869C88.5045 73.079 88.8297 71.7065 89.1357 70.3776C89.7429 67.7189 90.2788 65.2344 90.7188 62.958C91.1323 60.6778 91.3701 58.59 91.5105 56.7545C91.6464 54.9182 91.6665 53.3282 91.5655 52.0363C91.4649 50.7463 91.2398 49.7503 90.9352 49.1393C90.6496 48.511 90.3019 48.3252 90.3223 48.3115C90.3223 48.3115 90.3912 48.3684 90.5227 48.4853C90.5829 48.5486 90.6489 48.6362 90.732 48.7366C90.7953 48.8498 90.8911 48.9698 90.9578 49.1282C91.272 49.7405 91.5055 50.7396 91.614 52.0325C91.7229 53.3275 91.7095 54.9204 91.5801 56.7598C91.446 58.5989 91.2144 60.6881 90.8054 62.9743C90.3705 65.2543 89.8396 67.7395 89.2365 70.4009C88.9324 71.731 88.6092 73.1045 88.253 74.514C87.8961 75.923 87.5133 77.3705 87.0528 78.8357C86.8176 79.5665 86.5718 80.3062 86.2236 81.0197C86.1772 81.1078 86.1254 81.1939 86.0764 81.2813C86.0172 81.3629 85.9636 81.4531 85.888 81.5232C85.7359 81.6701 85.5616 81.7692 85.3891 81.8729C85.0377 82.0661 84.6753 82.2382 84.3052 82.3961C82.8261 83.0318 81.2764 83.5735 79.6975 84.1159C76.535 85.1899 73.2321 86.2135 69.8412 87.2326C68.1 87.7548 66.377 88.2612 64.7491 88.7282L64.6965 88.7434L64.6749 88.693C63.3115 85.5161 61.9886 82.4335 60.7298 79.4998L60.7051 79.4424L60.7634 79.4203C65.8308 77.5159 70.534 75.7483 74.6959 74.1842L74.6635 74.2279C74.7309 73.5302 75.0542 72.9122 75.4176 72.373C75.785 71.8298 76.2088 71.352 76.6562 70.9262L76.6413 70.9661C76.5662 70.3094 76.4925 69.6679 76.421 69.0427C76.3562 68.4137 76.3612 67.7945 76.4217 67.1986C76.482 66.6038 76.6 66.0271 76.7644 65.491C76.9159 64.9495 77.0625 64.4249 77.2044 63.9178C77.7724 61.8898 78.2628 60.1394 78.6643 58.7064C79.0672 57.2767 79.3809 56.1638 79.5945 55.4057C79.7018 55.0301 79.7841 54.7428 79.84 54.5465C79.8964 54.3535 79.9286 54.2554 79.9286 54.2554Z" fill="#263238"/>
<path d="M77.277 76.3376C77.2422 76.3606 76.9143 75.6349 76.1681 75.0447C75.4304 74.4435 74.6513 74.2803 74.6662 74.2414C74.6689 74.2277 74.8649 74.2481 75.1659 74.3489C75.4661 74.4488 75.8667 74.6434 76.2466 74.9473C76.6254 75.2523 76.9018 75.6013 77.0641 75.8729C77.2275 76.1451 77.2897 76.3321 77.277 76.3376Z" fill="#263238"/>
<path d="M81.7045 72.6082C81.6857 72.6219 81.5062 72.3403 81.1217 71.9753C80.7418 71.6112 80.1301 71.1787 79.357 70.9481C78.5835 70.7175 77.8349 70.7446 77.3175 70.8413C76.796 70.9361 76.4919 71.0734 76.4835 71.0518C76.4804 71.0448 76.5529 71.0035 76.6913 70.9447C76.8296 70.8855 77.0365 70.8142 77.3 70.7547C77.8232 70.6335 78.5948 70.5905 79.3925 70.8283C80.1901 71.0662 80.8121 71.5246 81.1837 71.9122C81.3716 72.1061 81.5055 72.2794 81.589 72.4047C81.6728 72.5297 81.7109 72.6039 81.7045 72.6082Z" fill="#263238"/>
<path d="M60.4051 89.4504C57.7224 89.4504 54.0033 88.5209 49.3514 86.6876C45.9067 85.3301 43.2007 83.9528 43.1738 83.9391L43.6104 83.084C43.7162 83.1382 54.2709 88.4902 60.4051 88.4902C62.8301 88.4902 64.7062 87.3192 65.9813 85.0102C66.9622 83.2344 67.205 81.4215 67.2072 81.4035C67.2713 81.0188 68.7185 72.3864 69.2155 70.082C69.4747 68.8805 70.1678 66.9094 70.8384 65.0031C71.4516 63.2597 72.0854 61.4573 72.2136 60.6876C72.4747 59.1219 72.2858 55.6971 72.2837 55.6625L73.2422 55.6083C73.2504 55.7532 73.439 59.1742 73.1604 60.8453C73.0183 61.6968 72.3993 63.4575 71.7439 65.3211C71.0834 67.1993 70.4001 69.1416 70.1539 70.284C69.6614 72.5664 68.1715 81.4536 68.1566 81.5432C68.1497 81.6046 67.0737 89.4504 60.4051 89.4504Z" fill="#FF725E"/>
<g opacity="0.4">
<path d="M60.4051 89.4504C57.7224 89.4504 54.0033 88.5209 49.3514 86.6876C45.9067 85.3301 43.2007 83.9528 43.1738 83.9391L43.6104 83.084C43.7162 83.1382 54.2709 88.4902 60.4051 88.4902C62.8301 88.4902 64.7062 87.3192 65.9813 85.0102C66.9622 83.2344 67.205 81.4215 67.2072 81.4035C67.2713 81.0188 68.7185 72.3864 69.2155 70.082C69.4747 68.8805 70.1678 66.9094 70.8384 65.0031C71.4516 63.2597 72.0854 61.4573 72.2136 60.6876C72.4747 59.1219 72.2858 55.6971 72.2837 55.6625L73.2422 55.6083C73.2504 55.7532 73.439 59.1742 73.1604 60.8453C73.0183 61.6968 72.3993 63.4575 71.7439 65.3211C71.0834 67.1993 70.4001 69.1416 70.1539 70.284C69.6614 72.5664 68.1715 81.4536 68.1566 81.5432C68.1497 81.6046 67.0737 89.4504 60.4051 89.4504Z" fill="#1D1D20"/>
</g>
<path d="M72.1247 55.9654C71.5105 55.9654 70.9292 55.7405 70.5172 55.3318C68.8633 53.6918 67.0998 46.8847 67.0254 46.5958L67.4905 46.4762C67.5083 46.5456 69.2948 53.4434 70.8553 54.991C71.247 55.3795 71.842 55.5554 72.4451 55.4604C73.2272 55.338 73.9261 54.7855 74.3624 53.9448C75.6392 51.485 79.119 34.6867 79.154 34.5175L79.6242 34.6145C79.4807 35.3088 76.0957 51.6478 74.7887 54.1661C74.2811 55.1438 73.454 55.7885 72.5195 55.9349C72.3872 55.955 72.2552 55.9654 72.1247 55.9654Z" fill="#E0E0E0"/>
<path d="M78.9712 35.8995C79.0046 35.2253 78.8402 34.6781 78.7264 34.0126C78.6784 33.7325 78.7675 33.2532 79.0015 33.0919C79.2432 32.9256 79.5981 33.1265 79.6968 33.4027C79.7954 33.679 79.7822 34.1002 79.7431 34.3911C79.6363 35.19 79.4102 35.4219 79.2792 35.8995" fill="#E0E0E0"/>
<path d="M72.3612 56.0995C72.3117 56.0995 72.2623 56.0984 72.2124 56.096C71.1247 56.0436 70.182 55.4335 69.6909 54.4635C69.0835 53.2635 68.2908 51.6468 67.9658 50.7608L68.8673 50.4303C69.1082 51.0874 69.7049 52.3656 70.5473 54.0298C70.8804 54.6876 71.52 55.1016 72.2582 55.1369C72.9895 55.1724 73.6524 54.8271 74.04 54.2151L74.0657 54.1738C74.0837 54.1366 74.1674 53.9307 74.4626 53.0883L74.4965 52.9928C74.6702 52.5065 75.0333 51.4224 75.5169 49.6219L76.4441 49.8711C75.9516 51.704 75.5791 52.8156 75.4005 53.3153L75.3686 53.406C75.0045 54.4433 74.9383 54.5871 74.8893 54.667L74.85 54.7299C74.3025 55.5948 73.38 56.0995 72.3612 56.0995Z" fill="#FF725E"/>
<g opacity="0.4">
<path d="M72.3612 56.0995C72.3117 56.0995 72.2623 56.0984 72.2124 56.096C71.1247 56.0436 70.182 55.4335 69.6909 54.4635C69.0835 53.2635 68.2908 51.6468 67.9658 50.7608L68.8673 50.4303C69.1082 51.0874 69.7049 52.3656 70.5473 54.0298C70.8804 54.6876 71.52 55.1016 72.2582 55.1369C72.9895 55.1724 73.6524 54.8271 74.04 54.2151L74.0657 54.1738C74.0837 54.1366 74.1674 53.9307 74.4626 53.0883L74.4965 52.9928C74.6702 52.5065 75.0333 51.4224 75.5169 49.6219L76.4441 49.8711C75.9516 51.704 75.5791 52.8156 75.4005 53.3153L75.3686 53.406C75.0045 54.4433 74.9383 54.5871 74.8893 54.667L74.85 54.7299C74.3025 55.5948 73.38 56.0995 72.3612 56.0995Z" fill="#1D1D20"/>
</g>
<path d="M41.6633 84.9651C42.9465 84.9651 43.9867 83.9248 43.9867 82.6416C43.9867 81.3584 42.9465 80.3182 41.6633 80.3182C40.3801 80.3182 39.3398 81.3584 39.3398 82.6416C39.3398 83.9248 40.3801 84.9651 41.6633 84.9651Z" fill="#E0E0E0"/>
<path d="M41.7919 84.1001C42.5226 84.1001 43.115 83.5077 43.115 82.777C43.115 82.0462 42.5226 81.4539 41.7919 81.4539C41.0611 81.4539 40.4688 82.0462 40.4688 82.777C40.4688 83.5077 41.0611 84.1001 41.7919 84.1001Z" fill="#263238"/>
<path d="M40.2004 84.9651C40.2004 84.9651 39.6902 83.7658 40.2004 83.3285C40.7106 82.8912 46.0307 81.4539 46.0307 81.4539C46.0307 81.4539 49.7841 80.3688 50.1849 80.3182C50.5857 80.2675 55.4687 80.5954 55.4687 80.5954C55.4687 80.5954 58.2381 79.83 58.6391 79.83C59.0399 79.83 58.457 82.3807 58.384 83.2191C58.311 84.0571 57.7646 84.5609 58.2746 84.9648C58.7848 85.369 60.1358 86.5039 60.1358 86.5039C60.1358 86.5039 58.7118 86.8992 57.7281 86.79C56.7441 86.6806 56.0519 86.3527 56.0519 86.3527C56.0519 86.3527 54.0477 87.8467 52.9545 88.0654C51.8613 88.284 48.2174 89.4867 47.4885 89.3772C46.7596 89.2678 46.2131 88.284 46.2131 88.284C46.2131 88.284 44.5005 88.5391 44.1724 87.8467C43.8443 87.1543 43.7351 86.6079 43.7351 86.6079L44.4275 86.1706C44.4275 86.1706 43.516 86.4257 43.1154 85.7698C42.7149 85.1139 42.6784 84.6072 42.6784 84.6072C42.6784 84.6072 40.8198 85.1439 40.2004 84.9651Z" fill="#263238"/>
<path d="M67.5529 63.0449C67.557 63.0461 67.5495 63.0944 67.5313 63.1851C67.5087 63.2888 67.4804 63.4196 67.4454 63.5801C67.405 63.7508 67.3582 63.9603 67.3155 64.2058C67.2714 64.4509 67.2102 64.7281 67.1698 65.0389C67.1221 65.3485 67.0712 65.6878 67.0376 66.0548C66.9913 66.4203 66.9711 66.8134 66.9433 67.2265C66.9063 68.0535 66.9073 68.9648 66.9766 69.9181C67.0534 70.8709 67.1917 71.7718 67.3542 72.5837C67.4449 72.9877 67.5248 73.3733 67.6263 73.7276C67.7156 74.0852 67.8176 74.4128 67.9119 74.7116C67.999 75.0128 68.1018 75.2773 68.1829 75.5127C68.2623 75.7489 68.3406 75.9485 68.4066 76.111C68.4656 76.2644 68.5136 76.3894 68.5515 76.4883C68.5834 76.5752 68.5983 76.6217 68.5942 76.6234C68.5904 76.6251 68.5678 76.5821 68.5282 76.4984C68.4846 76.4017 68.4291 76.2795 68.3612 76.1295C68.2882 75.9694 68.203 75.7717 68.1171 75.5369C68.0295 75.3029 67.9206 75.0394 67.8277 74.7387C67.7274 74.4404 67.6201 74.1125 67.526 73.7545C67.4197 73.3995 67.3357 73.0129 67.2411 72.6073C67.0714 71.792 66.9289 70.886 66.8516 69.9274C66.7818 68.9686 66.7844 68.0516 66.8278 67.2202C66.8593 66.805 66.8833 66.41 66.9342 66.043C66.9723 65.6746 67.0285 65.3345 67.082 65.0242C67.1281 64.7127 67.1955 64.4357 67.2464 64.1912C67.2956 63.9461 67.3496 63.7378 67.3974 63.5684C67.4415 63.4097 67.4775 63.2806 67.5061 63.1784C67.533 63.0898 67.5488 63.044 67.5529 63.0449Z" fill="#263238"/>
</svg>
