<svg width="121" height="121" viewBox="0 0 121 121" fill="none" xmlns="http://www.w3.org/2000/svg">
<g clip-path="url(#clip0_404_24422)">
<path d="M106.886 79.5595H63.5065C62.7308 79.5595 62.0996 78.9283 62.0996 78.1526V14.9669C62.0996 14.1912 62.7308 13.56 63.5065 13.56H106.886C107.661 13.56 108.292 14.191 108.292 14.9669V78.1524C108.292 78.9283 107.661 79.5595 106.886 79.5595ZM63.5065 13.62C62.7637 13.62 62.1596 14.2243 62.1596 14.9669V78.1524C62.1596 78.8952 62.7639 79.4993 63.5065 79.4993H106.886C107.628 79.4993 108.232 78.895 108.232 78.1524V14.9669C108.232 14.2243 107.628 13.62 106.886 13.62H63.5065Z" fill="#E0E0E0"/>
<path d="M56.8631 79.5595H13.484C12.7083 79.5595 12.0771 78.9283 12.0771 78.1526V14.9669C12.0771 14.1912 12.7081 13.56 13.484 13.56H56.8633C57.639 13.56 58.2702 14.191 58.2702 14.9669V78.1524C58.2702 78.9283 57.639 79.5595 56.8631 79.5595ZM13.484 13.62C12.7415 13.62 12.1371 14.2243 12.1371 15.6226V78.8081C12.1371 78.8952 12.7415 79.4993 13.484 79.4993H56.8633C57.6061 79.4993 58.2102 78.895 58.2102 78.1524V14.9669C58.2102 14.2243 57.6059 13.62 56.8633 13.62H13.484Z" fill="#E0E0E0"/>
<path d="M120.345 94.2161H0.344727V94.2761H120.345V94.2161Z" fill="#E0E0E0"/>
<path d="M16.6005 97.6394H12.7461V97.6994H16.6005V97.6394Z" fill="#E0E0E0"/>
<path d="M54.0767 96.989H41.2295V97.049H54.0767V96.989Z" fill="#E0E0E0"/>
<path d="M25.5408 99.869H16.8408V99.929H25.5408V99.869Z" fill="#E0E0E0"/>
<path d="M101.515 96.9578H91.1494V97.0178H101.515V96.9578Z" fill="#E0E0E0"/>
<path d="M105.173 96.9578H103.653V97.0178H105.173V96.9578Z" fill="#E0E0E0"/>
<path d="M89.169 98.453H76.2354V98.513H89.169V98.453Z" fill="#E0E0E0"/>
<path d="M110.475 106.319C110.475 107.132 88.0308 107.791 60.3448 107.791C32.6589 107.791 10.2148 107.132 10.2148 106.319C10.2148 105.506 32.6587 104.847 60.3448 104.847C88.031 104.847 110.475 105.506 110.475 106.319Z" fill="#F5F5F5"/>
<path d="M92.9558 45.498C92.2027 45.3626 91.384 45.7814 91.0531 46.4712C90.7221 47.1612 90.9076 48.0617 91.4846 48.5642C91.8602 48.8916 92.3803 49.0303 92.8735 48.9713L97.0636 56.0354C96.5635 56.4432 96.5061 57.0482 96.7065 57.5988C96.9309 58.2156 97.5002 58.6774 98.2226 58.6985C98.8788 58.7177 99.5104 58.2389 99.708 57.613C100.461 57.7483 101.28 57.3298 101.611 56.6398C101.942 55.9498 101.756 55.0493 101.179 54.5467C100.762 54.1831 100.167 54.0521 99.6283 54.1663L95.5713 47.3369C96.0676 46.9502 96.1737 46.1066 95.9572 45.5119C95.7328 44.8951 95.1638 44.4334 94.4412 44.4122C93.785 44.393 93.1533 44.8721 92.9558 45.498Z" fill="#F2D352"/>
<path d="M17.7363 105.708L18.601 86.2344L20.9106 84.6895H26.239L28.6513 86.2913L29.3403 105.869L17.7363 105.708Z" fill="#F2D352"/>
<path d="M26.0926 94.9774C27.4298 93.6402 27.4298 91.4722 26.0926 90.135C24.7554 88.7979 22.5874 88.7979 21.2503 90.135C19.9131 91.4722 19.9131 93.6402 21.2503 94.9774C22.5874 96.3146 24.7554 96.3146 26.0926 94.9774Z" fill="white"/>
<path d="M26.2401 84.6895H20.9102L21.1089 81.3087C21.1259 81.0166 21.3678 80.7886 21.6604 80.7886H25.4402C25.7296 80.7886 25.9698 81.012 25.9912 81.3005L26.2401 84.6895Z" fill="#F2D352"/>
<path d="M21.0439 82.4167H26.0731" stroke="#263238" stroke-miterlimit="10"/>
<path d="M22.6396 82.4743C22.6828 82.8053 22.8981 83.1087 23.196 83.2591C23.4938 83.4094 23.8658 83.4024 24.1576 83.2407C24.4495 83.0789 24.6528 82.7674 24.6835 82.4352L22.6396 82.4743Z" fill="#263238"/>
<path opacity="0.3" d="M18.6006 86.2344L28.6508 86.2913L26.24 84.6895H20.9101L18.6006 86.2344Z" fill="#1D1D20"/>
<path d="M24.2486 92.4391C23.9531 92.2817 23.7796 92.2418 23.5564 92.3386C23.3332 92.4353 23.1657 92.6244 23.0059 92.8078C22.8213 93.0197 22.6365 93.2318 22.4519 93.4438C22.2813 93.6396 22.1013 93.8592 22.0977 94.1189C22.0943 94.3745 22.2739 94.6075 22.5002 94.7261C22.7267 94.8446 22.9919 94.8655 23.2473 94.8509C23.5024 94.8365 23.7554 94.7892 24.0107 94.7808C24.2975 94.7714 24.5872 94.8113 24.8707 94.7671C25.1541 94.723 25.4457 94.5698 25.5472 94.3013C25.6773 93.9566 25.4534 93.5854 25.2182 93.3019C24.9019 92.9203 24.6823 92.7132 24.2486 92.4391Z" fill="#F2D352"/>
<path d="M26.0563 92.1077C26.0035 91.8631 25.8586 91.4455 25.6452 91.423C25.4947 91.4369 25.3567 91.5221 25.2569 91.6354C25.1571 91.7489 25.092 91.8888 25.0438 92.0321C24.991 92.1893 24.9569 92.3566 24.978 92.521C24.9991 92.6854 25.0817 92.8476 25.2219 92.9364C25.4331 93.0706 25.7343 93.0003 25.9006 92.8133C26.0669 92.6268 26.1094 92.3523 26.0563 92.1077Z" fill="#F2D352"/>
<path d="M22.5087 92.7667C22.4857 92.5711 22.3839 92.3916 22.2534 92.244C22.1595 92.1379 22.0112 92.0066 21.8768 91.8972C21.7551 91.7981 21.5751 91.7969 21.4623 91.9061C21.4309 91.9363 21.4035 91.9709 21.3807 92.0076C21.3051 92.1302 21.277 92.2769 21.2696 92.4206C21.2598 92.6119 21.285 92.8075 21.3668 92.9808C21.4484 93.1538 21.59 93.3026 21.769 93.3708C21.9478 93.439 22.1636 93.4176 22.3126 93.2976C22.466 93.174 22.5318 92.9623 22.5087 92.7667Z" fill="#F2D352"/>
<path d="M23.0899 90.2582C22.7546 90.3194 22.4537 90.5462 22.302 90.8515C22.1506 91.1568 22.152 91.5336 22.3061 91.8377C22.4122 92.0472 22.6152 92.2322 22.8499 92.2226C23.0278 92.2154 23.1874 92.0947 23.2788 91.9418C23.3702 91.789 23.4026 91.608 23.4139 91.4304C23.4326 91.135 23.3971 90.8362 23.3093 90.5537C23.274 90.4399 23.2145 90.3139 23.099 90.2849" fill="#F2D352"/>
<path d="M24.1823 90.329C24.0553 90.2611 23.8818 90.2986 23.7939 90.4126C23.7289 90.497 23.7124 90.6082 23.7006 90.714C23.6759 90.9348 23.6629 91.1597 23.7056 91.3778C23.7484 91.5958 23.852 91.8082 24.0263 91.9462C24.2005 92.0839 24.4511 92.1346 24.652 92.0398C24.8632 91.9402 24.9829 91.6994 24.9892 91.4662C24.9954 91.2326 24.9049 91.0066 24.7878 90.8045C24.6575 90.5798 24.452 90.4558 24.2171 90.3451" fill="#F2D352"/>
<path d="M26.658 98.1888H20.6969C20.4031 98.1888 20.165 97.9507 20.165 97.657C20.165 97.3632 20.4031 97.1251 20.6969 97.1251H26.658C26.9518 97.1251 27.1898 97.3632 27.1898 97.657C27.1896 97.9507 26.9515 98.1888 26.658 98.1888Z" fill="white"/>
<path opacity="0.3" d="M29.3025 104.847L17.7822 104.665L17.9843 100.113L29.1585 100.197L29.3025 104.847Z" fill="white"/>
<path d="M87.5315 28.7506L87.5584 26.6681L89.6759 21.9893L88.6669 20.3652L88.4363 20.8394L88.9338 22.0039L88.0576 22.9541L86.4102 23.0294L84.9697 25.543L86.2854 26.6741L86.3228 28.3898L87.5315 28.7506Z" fill="#263238"/>
<path opacity="0.2" d="M87.5315 28.7506L87.5584 26.6681L89.6759 21.9893L88.6669 20.3652L88.4363 20.8394L88.9338 22.0039L88.0576 22.9541L86.4102 23.0294L84.9697 25.543L86.2854 26.6741L86.3228 28.3898L87.5315 28.7506Z" fill="white"/>
<path d="M82.7266 26.3722L84.3619 25.0826L86.7838 20.5538L88.6865 20.3652L88.4506 20.8368L87.2239 21.1514L87.0038 22.4251L87.9473 23.7775L86.8308 26.4506L85.1326 26.0962L83.7487 27.1111L82.7266 26.3722Z" fill="#263238"/>
<path opacity="0.3" d="M82.7266 26.3722L84.3619 25.0826L86.7838 20.5538L88.6865 20.3652L88.4506 20.8368L87.2239 21.1514L87.0038 22.4251L87.9473 23.7775L86.8308 26.4506L85.1326 26.0962L83.7487 27.1111L82.7266 26.3722Z" fill="white"/>
<path opacity="0.3" d="M87.3221 24.1687C87.3221 24.4915 87.0605 24.7531 86.7377 24.7531C86.4149 24.7531 86.1533 24.4915 86.1533 24.1687C86.1533 23.8459 86.4149 23.5843 86.7377 23.5843C87.0605 23.5843 87.3221 23.8459 87.3221 24.1687Z" fill="white"/>
<path d="M83.142 25.5907L79.4755 27.9034L73.2689 35.123C72.7649 35.7094 72.8431 36.5962 73.4422 37.085C74.0194 37.5562 74.8666 37.482 75.3533 36.918L82.0565 29.1482L83.9357 27.889L84.4601 26.8778L83.142 25.5907Z" fill="#F2D352"/>
<path d="M87.75 27.7563L87.9029 32.0885L85.4304 41.2827C85.2295 42.0295 84.4526 42.4639 83.7113 42.2441C82.997 42.0324 82.5814 41.2903 82.7734 40.5706L85.4208 30.6564L85.4035 28.3944L85.944 27.3919L87.75 27.7563Z" fill="#F2D352"/>
<path d="M24.0811 46.698H21.832V53.994H24.0811V46.698Z" fill="#F2D352"/>
<path d="M19.3086 49.2215V51.4705H26.6046V49.2215H19.3086Z" fill="#F2D352"/>
<g opacity="0.5">
<path d="M24.0811 46.698H21.832V53.994H24.0811V46.698Z" fill="white"/>
<path d="M19.3086 49.2215V51.4705H26.6046V49.2215H19.3086Z" fill="white"/>
</g>
<path d="M16.1728 51.8098H14.8262V56.1782H16.1728V51.8098Z" fill="#F2D352"/>
<path d="M13.3154 53.3206V54.6672H17.6839V53.3206H13.3154Z" fill="#F2D352"/>
<g opacity="0.5">
<path d="M16.1728 51.8098H14.8262V56.1782H16.1728V51.8098Z" fill="white"/>
<path d="M13.3154 53.3206V54.6672H17.6839V53.3206H13.3154Z" fill="white"/>
</g>
<path d="M61.5177 12.2237H58.8652V20.8287H61.5177V12.2237Z" fill="#F2D352"/>
<path d="M55.8887 15.2V17.8524H64.4936V15.2H55.8887Z" fill="#F2D352"/>
<g opacity="0.5">
<path d="M61.5177 12.2237H58.8652V20.8287H61.5177V12.2237Z" fill="white"/>
<path d="M55.8887 15.2V17.8524H64.4936V15.2H55.8887Z" fill="white"/>
</g>
<path d="M97.5962 29.7821H95.5439V36.4402H97.5962V29.7821Z" fill="#F2D352"/>
<path d="M93.2412 32.0851V34.1374H99.8993V32.0851H93.2412Z" fill="#F2D352"/>
<g opacity="0.5">
<path d="M97.5962 29.7821H95.5439V36.4402H97.5962V29.7821Z" fill="white"/>
<path d="M93.2412 32.0851V34.1374H99.8993V32.0851H93.2412Z" fill="white"/>
</g>
<path d="M85.8823 57.7855H84.5078V62.2445H85.8823V57.7855Z" fill="#F2D352"/>
<path d="M82.9658 59.3277V60.7022H87.4248V59.3277H82.9658Z" fill="#F2D352"/>
<g opacity="0.5">
<path d="M85.8823 57.7855H84.5078V62.2445H85.8823V57.7855Z" fill="white"/>
<path d="M82.9658 59.3277V60.7022H87.4248V59.3277H82.9658Z" fill="white"/>
</g>
<path d="M70.1347 20.1751H68.7881V24.5436H70.1347V20.1751Z" fill="#F2D352"/>
<path d="M67.2773 21.6861V23.0327H71.6458V21.6861H67.2773Z" fill="#F2D352"/>
<g opacity="0.5">
<path d="M70.1347 20.1751H68.7881V24.5436H70.1347V20.1751Z" fill="white"/>
<path d="M67.2773 21.6861V23.0327H71.6458V21.6861H67.2773Z" fill="white"/>
</g>
<path d="M15.7082 75.4579L10.3219 62.5982C10.0099 61.8535 10.3608 60.9967 11.1055 60.6847L11.2315 60.6319L17.8003 76.3145C16.986 76.656 16.0493 76.2725 15.7082 75.4579Z" fill="#F2D352"/>
<path d="M14.0519 60.0197L11.2631 61.1878L11.0605 60.7039L13.3655 59.7384C13.6326 59.6266 13.9401 59.7526 14.0519 60.0197Z" fill="#F2D352"/>
<path d="M14.1293 60.8849L11.5824 61.9517L11.3799 61.4678L13.9268 60.401C14.0604 60.3451 14.214 60.408 14.27 60.5417C14.3259 60.6751 14.263 60.8287 14.1293 60.8849Z" fill="#F2D352"/>
<path d="M14.4662 61.6867L11.9194 62.7535L11.7168 62.2697L14.2637 61.2029C14.3974 61.147 14.551 61.2098 14.6069 61.3435C14.6628 61.4772 14.5997 61.6308 14.4662 61.6867Z" fill="#F2D352"/>
<path d="M14.8012 62.4886L12.2543 63.5554L12.0518 63.0715L14.5986 62.0047C14.7323 61.9488 14.8859 62.0117 14.9418 62.1454C14.9978 62.2791 14.9349 62.4326 14.8012 62.4886Z" fill="#F2D352"/>
<path d="M15.1371 63.2906L12.5903 64.3574L12.3877 63.8736L14.9346 62.8068C15.0683 62.7509 15.2219 62.8138 15.2778 62.9474C15.3337 63.0809 15.2708 63.2347 15.1371 63.2906Z" fill="#F2D352"/>
<path d="M15.4731 64.0925L12.9262 65.1593L12.7236 64.6754L15.2705 63.6086C15.4042 63.5527 15.5578 63.6156 15.6137 63.7493C15.6694 63.883 15.6065 64.0366 15.4731 64.0925Z" fill="#F2D352"/>
<path d="M15.809 64.8945L13.2621 65.9613L13.0596 65.4775L15.6065 64.4107C15.7401 64.3548 15.8937 64.4177 15.9497 64.5513C16.0056 64.6848 15.9427 64.8386 15.809 64.8945Z" fill="#F2D352"/>
<path d="M16.1449 65.6964L13.5981 66.7632L13.3955 66.2794L15.9424 65.2126C16.0761 65.1566 16.2297 65.2195 16.2856 65.3532C16.3415 65.4869 16.2784 65.6405 16.1449 65.6964Z" fill="#F2D352"/>
<path d="M16.4811 66.4985L13.934 67.5653L13.7314 67.0814L16.2783 66.0146C16.412 65.9587 16.5656 66.0216 16.6215 66.1553C16.6777 66.2887 16.6148 66.4425 16.4811 66.4985Z" fill="#F2D352"/>
<path d="M16.8168 67.3003L14.2699 68.3671L14.0674 67.8833L16.6145 66.8165C16.7482 66.7605 16.9018 66.8234 16.9577 66.9571C17.0134 67.0908 16.9505 67.2444 16.8168 67.3003Z" fill="#F2D352"/>
<path d="M17.1528 68.1024L14.6059 69.1692L14.4033 68.6854L16.9502 67.6186C17.0839 67.5626 17.2375 67.6255 17.2934 67.7592C17.3493 67.8926 17.2864 68.0465 17.1528 68.1024Z" fill="#F2D352"/>
<path d="M17.4889 68.9042L14.9418 69.9711L14.7393 69.4872L17.2864 68.4204C17.4201 68.3645 17.5737 68.4274 17.6296 68.5611C17.6855 68.6947 17.6226 68.8483 17.4889 68.9042Z" fill="#F2D352"/>
<path d="M17.8246 69.7063L15.2778 70.7731L15.0752 70.2893L17.6221 69.2225C17.7558 69.1666 17.9094 69.2294 17.9653 69.3631C18.0212 69.4966 17.9581 69.6502 17.8246 69.7063Z" fill="#F2D352"/>
<path d="M18.1606 70.5082L15.6137 71.575L15.4111 71.0911L17.958 70.0243C18.0917 69.9684 18.2453 70.0313 18.3012 70.165C18.3571 70.2986 18.2943 70.4522 18.1606 70.5082Z" fill="#F2D352"/>
<path d="M18.4968 71.3102L15.9496 72.377L15.7471 71.8932L18.2942 70.8264C18.4279 70.7705 18.5815 70.8333 18.6374 70.967C18.6933 71.1005 18.6304 71.2541 18.4968 71.3102Z" fill="#F2D352"/>
<path d="M18.8324 72.1121L16.2856 73.1789L16.083 72.695L18.6301 71.6282C18.7638 71.5723 18.9174 71.6352 18.9733 71.7689C19.029 71.9026 18.9661 72.0562 18.8324 72.1121Z" fill="#F2D352"/>
<path d="M19.1684 72.9142L16.6215 73.981L16.4189 73.4971L18.9658 72.4303C19.0995 72.3744 19.2531 72.4373 19.309 72.571C19.3649 72.7044 19.3021 72.858 19.1684 72.9142Z" fill="#F2D352"/>
<path d="M19.5043 73.716L16.9574 74.7828L16.7549 74.2989L19.302 73.2321C19.4357 73.1762 19.5893 73.2391 19.6452 73.3728C19.7009 73.5065 19.6378 73.6601 19.5043 73.716Z" fill="#F2D352"/>
<path d="M19.8403 74.5178L17.2934 75.5846L17.0908 75.1008L19.6377 74.034C19.7714 73.9781 19.925 74.041 19.9809 74.1746C20.0368 74.3083 19.9739 74.4619 19.8403 74.5178Z" fill="#F2D352"/>
<path d="M19.9343 75.4212L17.6293 76.3867L17.4268 75.9029L20.2156 74.7348C20.3274 75.0019 20.2014 75.3094 19.9343 75.4212Z" fill="#F2D352"/>
<path d="M34.001 21.6506C33.9597 21.529 17.7614 29.7149 17.7614 29.7149L17.7641 29.7218C17.1103 28.8655 15.8911 28.6733 15.0041 29.3004C14.0966 29.9419 13.8811 31.1978 14.5226 32.1053C15.1641 33.0127 16.4198 33.2282 17.3273 32.5867C18.0185 32.0981 18.3077 31.253 18.1229 30.4771C18.6787 30.1819 22.9094 27.9804 24.1195 28.7057C24.1195 28.7057 34.3694 22.735 34.001 21.6506ZM17.0227 32.1557C16.3533 32.629 15.4272 32.4698 14.9539 31.8005C14.4806 31.1311 14.6397 30.205 15.3091 29.7317C15.9785 29.2584 16.9046 29.4175 17.3779 30.0869C17.8509 30.7562 17.6918 31.6824 17.0227 32.1557Z" fill="#263238"/>
<g opacity="0.2">
<path d="M34.001 21.6506C33.9597 21.529 17.7614 29.7149 17.7614 29.7149L17.7641 29.7218C17.1103 28.8655 15.8911 28.6733 15.0041 29.3004C14.0966 29.9419 13.8811 31.1978 14.5226 32.1053C15.1641 33.0127 16.4198 33.2282 17.3273 32.5867C18.0185 32.0981 18.3077 31.253 18.1229 30.4771C18.6787 30.1819 22.9094 27.9804 24.1195 28.7057C24.1195 28.7057 34.3694 22.735 34.001 21.6506ZM17.0227 32.1557C16.3533 32.629 15.4272 32.4698 14.9539 31.8005C14.4806 31.1311 14.6397 30.205 15.3091 29.7317C15.9785 29.2584 16.9046 29.4175 17.3779 30.0869C17.8509 30.7562 17.6918 31.6824 17.0227 32.1557Z" fill="white"/>
</g>
<path d="M23.2251 27.607C24.0154 28.7758 22.0479 33.1202 21.7837 33.6914C20.9986 33.5494 20.1709 33.8842 19.7206 34.601C19.1295 35.5421 19.4132 36.7843 20.3545 37.3752C21.2955 37.9663 22.5378 37.6826 23.1289 36.7414C23.7066 35.8214 23.4483 34.6145 22.5574 34.0085L22.5646 34.0106C22.5646 34.0106 29.8546 17.3897 29.7308 17.3551C28.6278 17.047 23.2251 27.607 23.2251 27.607ZM22.214 34.4146C22.9083 34.8506 23.1176 35.7667 22.6815 36.461C22.2454 37.1554 21.3294 37.3646 20.635 36.9286C19.941 36.4925 19.7314 35.5764 20.1675 34.8821C20.6036 34.1878 21.5199 33.9785 22.214 34.4146Z" fill="#263238"/>
<path opacity="0.3" d="M23.2251 27.607C24.0154 28.7758 22.0479 33.1202 21.7837 33.6914C20.9986 33.5494 20.1709 33.8842 19.7206 34.601C19.1295 35.5421 19.4132 36.7843 20.3545 37.3752C21.2955 37.9663 22.5378 37.6826 23.1289 36.7414C23.7066 35.8214 23.4483 34.6145 22.5574 34.0085L22.5646 34.0106C22.5646 34.0106 29.8546 17.3897 29.7308 17.3551C28.6278 17.047 23.2251 27.607 23.2251 27.607ZM22.214 34.4146C22.9083 34.8506 23.1176 35.7667 22.6815 36.461C22.2454 37.1554 21.3294 37.3646 20.635 36.9286C19.941 36.4925 19.7314 35.5764 20.1675 34.8821C20.6036 34.1878 21.5199 33.9785 22.214 34.4146Z" fill="white"/>
<path d="M24.7928 27.8074C24.5615 27.9711 24.2413 27.9161 24.0776 27.6847C23.914 27.4534 23.9689 27.1332 24.2003 26.9695C24.4316 26.8059 24.7518 26.8608 24.9155 27.0924C25.0792 27.3235 25.0242 27.6437 24.7928 27.8074Z" fill="#E0E0E0"/>
<g opacity="0.3">
<path d="M55.1548 25.0051C54.7545 23.6278 53.3126 22.633 51.8827 22.7475C50.453 22.8619 49.1877 24.0737 49.0118 25.4974C48.1963 24.8779 46.8609 25.1458 46.3476 26.0321C45.8342 26.9182 46.2664 28.2101 47.2096 28.609L53.603 28.6651C54.8714 27.9953 55.5552 26.3823 55.1548 25.0051Z" fill="#F2D352"/>
</g>
<path d="M73.0688 64.5336C75.1263 64.0152 76.6842 62.2109 77.3911 60.2062C78.098 58.2012 78.0717 56.0129 77.8607 53.8971C77.8214 53.5028 77.78 53.0842 77.9543 52.7283C78.2312 52.1631 78.9871 51.9672 79.5872 52.1535C80.1873 52.3397 80.6524 52.8149 81.037 53.3129C83.1469 56.0446 83.4742 60.0382 81.8377 63.0785C80.2012 66.1188 76.6914 68.0376 73.2548 67.7705" fill="#F2D352"/>
<path d="M57.4858 44.6355C57.4858 44.6355 52.6654 53.0045 51.4467 56.3698C50.2281 59.7351 48.6759 68.9859 48.6759 68.9859C48.6759 68.9859 41.4374 70.8545 45.9218 78.6529C47.5796 81.5355 47.4309 82.8737 49.2892 82.9587C50.7372 83.0247 62.3917 82.9359 62.3917 82.9359L62.1822 84.08C62.1822 84.08 63.1573 87.3872 65.1321 86.4543C67.107 85.5214 69.4312 82.9359 69.4312 82.9359L72.8242 82.8893L80.9117 82.9359L83.2764 82.8893C83.274 82.8682 83.2716 82.8469 83.2689 82.825C83.1078 81.5098 82.1851 80.4133 80.9198 80.0283L79.1856 79.5008C79.1856 79.5008 81.438 70.015 79.4868 67.747C77.5357 65.479 74.3609 65.6278 74.3609 65.6278L75.819 55.8692C76.1085 53.5803 75.8779 51.2554 75.1446 49.0685L74.0512 45.8079L57.4858 44.6355Z" fill="#F2D352"/>
<path d="M74.2344 65.9595C70.8934 67.8625 68.6365 71.0533 67.5146 74.6972C67.5033 74.7339 67.4454 74.7183 67.4569 74.6813C68.3266 71.8563 69.8692 69.2403 72.1482 67.3311C72.7888 66.7945 73.4784 66.3209 74.204 65.9077C74.2378 65.8887 74.2679 65.9405 74.2344 65.9595Z" fill="#263238"/>
<path d="M74.1636 46.1467C74.1636 46.1467 75.7352 50.3568 75.8671 52.4621C76.0857 55.9555 74.3597 65.6278 74.3597 65.6278C74.3597 65.6278 74.9507 75.1118 75.4641 76.517C75.9773 77.9222 75.7615 79.2194 78.0965 79.699C78.7277 79.8286 79.8262 81.8746 79.8262 82.8893H73.296C73.296 82.8893 71.5292 80.8884 71.4437 79.015C71.3582 77.1415 68.2533 66.9734 68.2533 66.9734" fill="#F2D352"/>
<path d="M68.2538 66.9737C68.2538 66.9737 68.2586 66.9998 68.2725 67.0502C68.2878 67.1042 68.3087 67.1782 68.336 67.2744C68.3944 67.4758 68.4792 67.7671 68.5891 68.1454C68.8103 68.9122 69.1324 70.0284 69.5407 71.4439C69.9406 72.865 70.4298 74.5874 70.9188 76.5751C71.0395 77.0724 71.1595 77.5865 71.2627 78.1186C71.2869 78.2518 71.3111 78.3859 71.3355 78.521C71.3585 78.6562 71.3678 78.7925 71.3848 78.9295C71.399 79.0697 71.4131 79.2108 71.4275 79.3529C71.4524 79.4938 71.4777 79.6361 71.512 79.7767C71.8113 80.9002 72.4516 81.9574 73.2553 82.9263L73.2708 82.945H73.2967C75.3128 82.9467 77.5175 82.9483 79.8267 82.95H79.8896L79.887 82.8895C79.86 82.2478 79.6092 81.6531 79.3276 81.0797C79.1816 80.7941 79.018 80.514 78.8236 80.2507C78.7237 80.1209 78.6202 79.9923 78.4972 79.8778C78.3839 79.7611 78.2182 79.6591 78.0508 79.6243C77.4282 79.4863 76.7802 79.2538 76.3676 78.7442C75.9517 78.2362 75.8477 77.5466 75.6528 76.8974C75.619 76.7755 75.5771 76.6555 75.5364 76.5355C75.4988 76.416 75.4706 76.2989 75.4368 76.1808C75.3889 75.9379 75.3365 75.6958 75.3034 75.4498C75.2268 74.9602 75.1674 74.4701 75.1114 73.9831C74.9998 73.0092 74.9117 72.0458 74.8288 71.0986C74.665 69.2038 74.5323 67.3714 74.4181 65.6244L74.4174 65.6381C74.9126 62.7737 75.3087 60.1097 75.5874 57.7207C75.7266 56.5265 75.8367 55.4006 75.8892 54.3521C75.9392 53.3066 75.9533 52.3258 75.7685 51.4627C75.602 50.6002 75.3901 49.8425 75.1966 49.1849C75.0012 48.5278 74.818 47.9719 74.6653 47.5217C74.512 47.0714 74.3868 46.7275 74.301 46.4959C74.2582 46.3831 74.2251 46.2965 74.2012 46.2341C74.1782 46.1755 74.1638 46.1467 74.1638 46.1467C74.1638 46.1467 74.172 46.1779 74.1921 46.2374C74.2136 46.3008 74.2438 46.3884 74.2828 46.5026C74.3628 46.741 74.4789 47.0863 74.6293 47.5339C74.7764 47.9858 74.9538 48.5429 75.1437 49.2005C75.3317 49.8583 75.5381 50.6165 75.6988 51.4757C75.8772 52.3335 75.8583 53.3033 75.8041 54.3475C75.7474 55.393 75.6332 56.5169 75.4904 57.7092C75.2045 60.0943 74.8025 62.7569 74.3032 65.6174L74.302 65.6244L74.3025 65.6314C74.4141 67.3798 74.5446 69.2126 74.7069 71.1089C74.7891 72.0569 74.8767 73.021 74.988 73.9968C75.0441 74.4847 75.1035 74.9758 75.1803 75.4687C75.2134 75.7157 75.2665 75.9614 75.3154 76.2089C75.3499 76.3313 75.3813 76.4578 75.4191 76.5773C75.4588 76.6949 75.4998 76.812 75.5333 76.9325C75.6293 77.2558 75.7045 77.5863 75.8085 77.911C75.9117 78.2345 76.0522 78.5558 76.2713 78.8227C76.4881 79.0915 76.7754 79.291 77.0779 79.4364C77.3805 79.5871 77.705 79.6687 78.0249 79.7451C78.1777 79.7796 78.2974 79.8542 78.4133 79.968C78.5281 80.0743 78.6284 80.1987 78.7249 80.3242C78.9141 80.5798 79.0752 80.8548 79.2187 81.1354C79.4964 81.6953 79.7417 82.2912 79.7663 82.8893L79.8267 82.8288C77.5173 82.8307 75.3128 82.8324 73.2967 82.8339L73.3381 82.8526C72.5441 81.9005 71.9052 80.8488 71.6106 79.7515C71.5769 79.6143 71.5517 79.4755 71.5271 79.3382C71.5127 79.1988 71.4983 79.0603 71.4842 78.9226C71.4665 78.7826 71.4562 78.6415 71.4325 78.5052C71.4073 78.3694 71.3824 78.2342 71.3578 78.1001C71.2522 77.5654 71.1303 77.0508 71.0077 76.5533C70.5105 74.5646 70.0129 72.8446 69.6039 71.4257C69.1916 70.0078 68.8549 68.8944 68.6224 68.1353C68.5055 67.7592 68.4155 67.4695 68.3532 67.2691C68.3226 67.1741 68.2988 67.1009 68.2816 67.0476C68.2646 66.9984 68.2538 66.9737 68.2538 66.9737Z" fill="#263238"/>
<path d="M56.8185 50.5227C56.8185 50.5227 56.795 50.5745 56.7552 50.6777C56.7148 50.7853 56.6571 50.9381 56.5819 51.1376C56.4315 51.547 56.2126 52.1439 55.931 52.9114C55.3738 54.4546 54.5661 56.6876 53.6305 59.4692C53.398 60.1649 53.1578 60.8953 52.9221 61.6613C52.8029 62.0439 52.6899 62.437 52.5802 62.8397C52.4765 63.248 52.4173 63.6694 52.3618 64.0981C52.1556 65.8148 52.0562 67.657 51.9454 69.5938C51.8378 71.5309 51.744 73.5653 51.6032 75.6706C51.5296 76.7225 51.4516 77.7946 51.3048 78.8713C51.2662 79.1398 51.2231 79.4091 51.1621 79.6733C51.1324 79.8056 51.0957 79.9364 51.0486 80.0597C51.0256 80.1214 50.9964 80.1805 50.9621 80.228C50.9451 80.2484 50.9252 80.2724 50.9094 80.2762C50.8972 80.2863 50.8489 80.2988 50.8201 80.3098C50.5541 80.3972 50.2873 80.5033 50.0574 80.6749C49.9343 80.749 49.8366 80.8563 49.7303 80.9528C49.64 81.0646 49.5428 81.1726 49.476 81.3013C49.18 81.8081 49.1221 82.4127 49.2286 82.9736L49.2377 83.0213H49.2892C51.8122 83.0249 54.2569 83.0283 56.5903 83.0314H56.6513L56.6504 82.9717C56.6396 82.3431 56.505 81.7467 56.3731 81.1621C56.2351 80.5779 56.0773 80.0091 55.9051 79.4523L55.9071 79.4785C56.3472 76.5965 56.7646 73.9311 57.1556 71.5563C57.3537 70.3695 57.5373 69.253 57.7445 68.2265C57.7727 68.0993 57.7936 67.9697 57.8273 67.8481L57.875 67.6649C57.8896 67.6035 57.926 67.5533 57.9499 67.4974C58.063 67.2812 58.2129 67.0822 58.3587 66.8931C58.6508 66.512 58.955 66.1664 59.2423 65.8371C60.4085 64.5337 61.3819 63.5463 62.0426 62.8664C62.3728 62.5301 62.6276 62.2709 62.8032 62.0921C62.8872 62.006 62.9519 61.94 62.9983 61.8922C63.0419 61.8471 63.0625 61.8224 63.0625 61.8224C63.0625 61.8224 63.0374 61.8425 62.9916 61.8853C62.9435 61.9313 62.8767 61.9952 62.7898 62.0785C62.6114 62.2541 62.3522 62.5093 62.0163 62.84C61.347 63.512 60.3654 64.4917 59.1901 65.7903C58.9001 66.1186 58.5939 66.463 58.2974 66.8456C58.1489 67.0366 57.9983 67.2329 57.8771 67.4617C57.8513 67.5207 57.8122 67.5769 57.7972 67.6395L57.7473 67.8274C57.7121 67.9532 57.6911 68.0806 57.6619 68.2093C57.4497 69.2384 57.262 70.3534 57.0601 71.5402C56.6611 73.9145 56.2375 76.5793 55.7928 79.4609L55.7909 79.4739L55.795 79.4871C55.965 80.0403 56.1219 80.6086 56.2581 81.1892C56.3884 81.7688 56.5208 82.3666 56.5299 82.9709L56.59 82.9114C54.2567 82.9066 51.812 82.9018 49.289 82.8965L49.3493 82.9443C49.2497 82.4206 49.3055 81.8348 49.5833 81.3644C49.6455 81.2437 49.7373 81.1429 49.8213 81.038C49.9216 80.948 50.0124 80.8467 50.129 80.7771C50.3453 80.6149 50.6008 80.5133 50.8565 80.4293C50.892 80.4157 50.9121 80.4133 50.9604 80.39C51.01 80.3691 51.0342 80.3343 51.0608 80.3036C51.1075 80.2393 51.1384 80.1728 51.1637 80.1058C51.215 79.9721 51.2523 79.837 51.2828 79.7017C51.3453 79.4309 51.3886 79.1595 51.4274 78.8888C51.5749 77.8049 51.652 76.7324 51.7248 75.6788C51.8642 73.5713 51.9554 71.5369 52.0598 69.6001C52.1673 67.664 52.2629 65.8215 52.464 64.111C52.5182 63.6845 52.5763 63.2643 52.6767 62.8649C52.7847 62.4641 52.896 62.072 53.0139 61.6897C53.2466 60.9243 53.4839 60.1935 53.7138 59.4973C54.6381 56.7135 55.4332 54.476 55.9765 52.928C56.2485 52.1571 56.4602 51.5576 56.6053 51.1465C56.6755 50.9453 56.7294 50.7908 56.7672 50.6825C56.8031 50.5774 56.8185 50.5227 56.8185 50.5227Z" fill="#263238"/>
<path d="M63.196 72.6371C63.1989 72.6405 63.2446 72.6052 63.3291 72.5349C63.4225 72.4555 63.5444 72.3518 63.696 72.2229C64.0075 71.9445 64.4469 71.5267 64.957 70.9795C65.9862 69.8932 67.293 68.2874 68.6136 66.4262C69.9247 64.5575 71.0035 62.789 71.6788 61.4524C72.0207 60.7867 72.2655 60.2315 72.4209 59.843C72.4896 59.656 72.5449 59.5058 72.5873 59.3906C72.6239 59.2867 72.6412 59.2317 72.6371 59.2303C72.633 59.2288 72.6079 59.2811 72.5636 59.3819C72.5157 59.4947 72.4534 59.6416 72.3761 59.8245C72.2075 60.2059 71.9515 60.7531 71.6005 61.4116C70.9075 62.7333 69.8198 64.4896 68.5116 66.3542C67.1938 68.2113 65.9015 69.8215 64.8921 70.9195C64.3919 71.4727 63.9637 71.8984 63.6629 72.1871C63.5181 72.323 63.4019 72.4322 63.3126 72.5159C63.2336 72.5923 63.1933 72.6338 63.196 72.6371Z" fill="#263238"/>
<path d="M67.2118 71.7087C66.7731 73.1278 66.4721 74.5865 66.3363 76.0663C66.3069 76.3891 66.0822 76.6663 65.7377 76.6663C65.4366 76.6663 65.1093 76.3911 65.139 76.0663C65.2843 74.4792 65.5863 72.9123 66.0571 71.3895C66.1529 71.0801 66.4747 70.8826 66.7935 70.9704C67.0988 71.0544 67.3078 71.3979 67.2118 71.7087Z" fill="#F2D352"/>
<path d="M74.1245 47.1118C74.3276 41.9782 74.6964 35.9834 74.1403 34.0306C73.5843 32.0779 69.6607 28.2175 67.4087 27.3223C65.1568 26.4271 61.424 27.6214 60.2962 28.6202L53.202 26.9011C53.202 26.9011 51.8115 30.1332 53.5267 32.7264C55.2423 35.3194 60.2974 35.2879 60.2974 35.2879C60.2974 35.2879 60.7512 38.1091 58.5893 38.3568C56.4274 38.6045 53.5488 38.2642 53.2712 40.6214L57.7145 41.0208L57.4657 44.9462L65.9174 49.4479L73.8333 47.1578" fill="#F2D352"/>
<path d="M68.0458 30.4368C68.0386 30.4361 68.0231 30.5097 68.0006 30.6509C67.9769 30.8162 67.9476 31.0207 67.9122 31.2696C67.8408 31.8391 67.7441 32.6102 67.6263 33.5493C67.5123 34.5223 67.378 35.6673 67.2297 36.9336C67.156 37.5693 67.0772 38.2437 67.071 38.9491C67.0707 39.6513 67.1347 40.3999 67.428 41.1079C67.7211 41.8121 68.2733 42.3979 68.9421 42.6811C69.6078 42.9756 70.3322 42.9861 70.9723 42.8611C71.6153 42.7236 72.1878 42.4298 72.6256 42.041C73.0602 41.6513 73.3765 41.2001 73.5921 40.7577C74.0298 39.869 74.111 39.0568 74.1277 38.5161C74.133 38.243 74.1196 38.0313 74.104 37.8888C74.0873 37.7462 74.0751 37.6721 74.0676 37.6728C74.0478 37.6742 74.0779 37.9742 74.0449 38.5123C74.0037 39.0444 73.8991 39.8376 73.458 40.6891C73.241 41.1132 72.9292 41.5411 72.5094 41.9076C72.0901 42.27 71.5442 42.5426 70.9333 42.6679C70.3253 42.7812 69.6418 42.7656 69.0259 42.4889C68.4086 42.2237 67.9019 41.6861 67.6248 41.0244C67.3487 40.3589 67.2822 39.6367 67.2803 38.9498C67.2834 38.2589 67.3566 37.5929 67.4254 36.9549C67.5568 35.6868 67.6756 34.5403 67.7764 33.5657C67.8665 32.6234 67.9402 31.8497 67.9948 31.2785C68.0142 31.0279 68.0305 30.822 68.0434 30.6554C68.0523 30.5131 68.0532 30.4377 68.0458 30.4368Z" fill="#263238"/>
<path d="M55.3175 27.4438C55.3448 27.813 55.1688 28.2164 54.9301 28.4809C54.6913 28.7454 54.3515 28.8944 54.0127 29.0041C53.5721 29.1469 53.0795 29.2335 52.6547 29.048C52.6547 28.4768 52.7442 27.9058 52.9188 27.3625C52.9727 27.195 53.0498 27.013 53.211 26.943C53.3012 26.9038 53.4035 26.9072 53.5017 26.9144C54.135 26.9607 54.7584 27.1426 55.3175 27.4438Z" fill="#263238"/>
<g opacity="0.3">
<path d="M74.0508 38.9649C73.8599 40.2342 73.5103 41.6255 72.6444 42.5716C71.7785 43.5174 70.4193 44.0757 69.182 43.7437C67.6628 43.3362 66.7227 41.7148 66.602 40.1433C66.4813 38.5717 67.0041 37.0302 67.5196 35.5413C67.2723 36.9577 67.0259 38.4217 67.357 39.8212C67.6882 41.2206 68.7536 42.5502 70.1782 42.7221C71.1681 42.8413 72.177 42.3717 72.835 41.6209C73.4933 40.8702 73.9818 39.9618 74.0508 38.9649Z" fill="#1D1D20"/>
</g>
<path d="M52.6305 29.6106C52.6173 29.6116 52.6109 29.7441 52.6286 29.9824C52.6444 30.2209 52.6906 30.5649 52.7895 30.982C52.8877 31.3989 53.0486 31.8875 53.3008 32.3992C53.5575 32.9049 53.9157 33.4441 54.4428 33.8581C54.9641 34.2719 55.54 34.5361 56.0699 34.7325C56.6015 34.9295 57.0987 35.0457 57.5175 35.1251C57.937 35.2021 58.2802 35.2391 58.518 35.2518C58.7558 35.2648 58.8877 35.2593 58.8887 35.2456C58.8915 35.2103 58.3683 35.1671 57.5481 34.9773C57.1394 34.8801 56.6545 34.7507 56.1391 34.5481C55.6255 34.3468 55.0697 34.0833 54.5754 33.6906C54.0802 33.3023 53.7335 32.7935 53.4753 32.3087C53.2222 31.8186 53.0498 31.347 52.9353 30.9431C52.7045 30.1341 52.6681 29.6068 52.6305 29.6106Z" fill="#263238"/>
<path d="M62.9658 30.6847C63.3832 30.8544 63.4823 31.511 63.1339 31.7969C62.7855 32.0827 62.1629 31.8557 62.0793 31.4122C61.9957 30.9687 62.4929 30.5297 62.9213 30.6684" fill="#263238"/>
<path d="M65.4053 31.4463C65.485 31.4766 65.6155 31.3743 65.7149 31.1478C65.8145 30.9241 65.8655 30.5744 65.7865 30.2055C65.707 29.8369 65.5171 29.5391 65.3344 29.3761C65.1507 29.2105 64.9898 29.1711 64.9294 29.2316C64.8073 29.3655 65.0523 29.7899 65.1608 30.3404C65.2879 30.8869 65.2388 31.3746 65.4053 31.4463Z" fill="#263238"/>
<path d="M56.5898 73.4322C56.59 73.4462 56.8355 73.4322 57.2768 73.4538C57.4971 73.4644 57.767 73.487 58.0732 73.546C58.3795 73.6038 58.7217 73.7109 59.0632 73.9034C59.749 74.2871 60.4171 74.9704 61.1839 75.6789C61.9396 76.3955 62.6425 77.3332 63.6398 78.0525C64.1348 78.4118 64.7038 78.6542 65.2751 78.7478C65.8465 78.8411 66.4004 78.8289 66.9186 78.8711C67.4346 78.9112 67.9289 79.0007 68.3283 79.2256C68.7306 79.4428 69.0453 79.7488 69.2661 80.0704C69.7124 80.7182 69.8243 81.3803 69.8075 81.8145C69.7941 82.2554 69.7012 82.4894 69.7182 82.4932C69.7182 82.4932 69.8269 82.265 69.8559 81.8164C69.8877 81.3748 69.7886 80.6939 69.3386 80.0202C69.1159 79.6859 68.7948 79.3648 68.3776 79.1344C67.9615 78.8951 67.4509 78.8001 66.9279 78.7564C66.403 78.7108 65.8511 78.7199 65.2955 78.627C64.7419 78.5342 64.1961 78.3014 63.7119 77.9502C62.7371 77.2487 62.0306 76.3159 61.2636 75.5959C60.4899 74.8905 59.8166 74.2118 59.1053 73.8259C58.7524 73.6336 58.3987 73.5297 58.0862 73.4776C57.7732 73.4243 57.5005 73.4087 57.2785 73.4056C57.0562 73.402 56.8838 73.408 56.7672 73.4162C56.6508 73.4224 56.5898 73.4279 56.5898 73.4322Z" fill="#263238"/>
<path d="M65.5078 80.7448C65.508 80.7374 65.43 80.7266 65.288 80.7263C65.146 80.7256 64.9396 80.7424 64.6903 80.7974C64.1953 80.9023 63.5167 81.203 62.9891 81.7927C62.4625 82.3833 62.2394 83.093 62.19 83.5975C62.1632 83.8519 62.1694 84.0592 62.1857 84.2008C62.2018 84.3424 62.2207 84.4187 62.2281 84.4178C62.2521 84.4161 62.203 84.1031 62.2772 83.6092C62.3474 83.1203 62.5765 82.4431 63.0818 81.8762C63.588 81.3105 64.2341 81.0074 64.7111 80.8835C65.1929 80.7547 65.509 80.7688 65.5078 80.7448Z" fill="#263238"/>
<path d="M63.1437 83.9081C63.131 83.9105 63.1612 84.1332 63.3212 84.4543C63.4778 84.7731 63.7874 85.1847 64.2575 85.4748C64.7278 85.765 65.234 85.8567 65.5887 85.8531C65.9469 85.8516 66.1588 85.7784 66.1552 85.7659C66.1519 85.7448 65.9368 85.7859 65.5915 85.7647C65.2489 85.7458 64.7702 85.644 64.3231 85.3683C63.8762 85.0923 63.5702 84.7099 63.3988 84.4119C63.2244 84.1126 63.1641 83.9016 63.1437 83.9081Z" fill="#263238"/>
<path d="M65.2103 82.3586C65.2065 82.3787 65.4019 82.4162 65.6924 82.5388C65.9819 82.6595 66.3648 82.882 66.6897 83.2339C67.0149 83.5857 67.2072 83.9853 67.3052 84.2839C67.405 84.5836 67.4273 84.7816 67.4479 84.7792C67.4618 84.7787 67.4709 84.5752 67.3897 84.2584C67.3107 83.944 67.1227 83.518 66.7812 83.1489C66.4402 82.7798 66.0307 82.5592 65.724 82.4565C65.4151 82.3511 65.2118 82.3449 65.2103 82.3586Z" fill="#263238"/>
<path d="M51.5734 83.1141C51.5924 83.1095 51.5545 82.9247 51.5229 82.6259C51.4932 82.3298 51.4733 81.9059 51.6254 81.4818C51.7791 81.0609 52.101 80.7702 52.3646 80.6517C52.6319 80.5274 52.8268 80.5497 52.8261 80.5257C52.8311 80.5161 52.63 80.4582 52.3304 80.5701C52.0363 80.6764 51.6755 80.9807 51.5081 81.4389C51.3452 81.8951 51.3831 82.3391 51.4355 82.6379C51.4906 82.9406 51.5588 83.1179 51.5734 83.1141Z" fill="#263238"/>
<path d="M75.2175 80.3616C75.2194 80.3832 75.4397 80.3561 75.7855 80.4074C76.1287 80.4564 76.6021 80.6067 77.0164 80.9388C77.4304 81.2717 77.6799 81.702 77.8023 82.027C77.9278 82.3541 77.9493 82.5754 77.9709 82.5725C77.9836 82.5727 77.9939 82.3447 77.8856 81.9977C77.7807 81.654 77.5314 81.1927 77.0944 80.8414C76.6574 80.4907 76.1538 80.3474 75.796 80.3196C75.4342 80.2896 75.2146 80.3494 75.2175 80.3616Z" fill="#263238"/>
<path d="M45.4036 78.1742C45.4144 78.1656 45.2896 78.0228 45.1074 77.736C44.9244 77.4506 44.6931 77.0126 44.5125 76.4338C44.337 75.8549 44.2173 75.1337 44.2486 74.333C44.2781 73.5346 44.4577 72.6554 44.8471 71.819C45.2386 70.9834 45.8222 70.2948 46.4819 69.8455C47.1354 69.3869 47.8179 69.1154 48.4091 69.0036C49.0027 68.8934 49.4999 68.9405 49.8243 69.0312C49.9862 69.0792 50.1112 69.1202 50.1919 69.1589C50.2745 69.193 50.3193 69.209 50.3212 69.2052C50.3231 69.2014 50.2824 69.1778 50.2024 69.1361C50.1244 69.0895 50.0006 69.0406 49.8377 68.9844C49.5116 68.8774 49.0027 68.815 48.3938 68.9165C47.787 69.0197 47.0873 69.2878 46.4163 69.751C46.0817 69.9823 45.7539 70.2658 45.4694 70.6078C45.1847 70.949 44.9361 71.3402 44.7343 71.7655C44.3363 72.6204 44.1574 73.5161 44.1337 74.3287C44.1081 75.1438 44.2393 75.8758 44.4282 76.4602C44.6224 77.045 44.8693 77.4826 45.0667 77.7626C45.166 77.9026 45.2472 78.0079 45.3085 78.0744C45.3679 78.1426 45.4002 78.1769 45.4036 78.1742Z" fill="#263238"/>
<path d="M74.3778 65.898C74.3812 65.9349 74.9914 65.6899 75.9983 65.807C76.4976 65.8607 77.0821 66.023 77.6765 66.3175C78.2658 66.617 78.8656 67.0612 79.3386 67.6636C79.5797 67.9598 79.7553 68.2891 79.88 68.6277C80.0014 68.9673 80.0747 69.3098 80.1279 69.6384C80.2241 70.2984 80.2351 70.9034 80.2316 71.41C80.2275 71.9172 80.2114 72.328 80.2054 72.6122C80.204 72.7423 80.2028 72.8503 80.2016 72.9398C80.2023 73.0147 80.2045 73.054 80.2088 73.0543C80.2131 73.0545 80.2191 73.0154 80.2265 72.941C80.2339 72.852 80.2428 72.7442 80.2536 72.6148C80.2742 72.3314 80.3039 71.921 80.3192 71.4117C80.334 70.9032 80.3324 70.2933 80.2409 69.6216C80.1901 69.2868 80.1178 68.9364 79.9942 68.5862C79.8683 68.238 79.6841 67.8909 79.4353 67.5859C78.9497 66.9674 78.3324 66.5148 77.7268 66.2145C77.1161 65.9191 76.5165 65.7628 76.0067 65.7191C75.4966 65.6728 75.0797 65.7124 74.8017 65.7756C74.6604 65.7972 74.5562 65.8387 74.4842 65.8579C74.4133 65.8802 74.3764 65.8939 74.3778 65.898Z" fill="#263238"/>
<path d="M84.2551 60.7031C84.2634 60.7045 84.2848 60.6114 84.3161 60.441C84.3496 60.2711 84.3808 60.022 84.4033 59.7128C84.4497 59.0951 84.4272 58.2299 84.2328 57.3008C84.0355 56.372 83.7067 55.5716 83.415 55.0254C83.2697 54.7518 83.1406 54.5365 83.0415 54.3947C82.944 54.2516 82.887 54.1751 82.8798 54.1796C82.8609 54.1916 83.0683 54.5128 83.3365 55.0652C83.6054 55.6165 83.9162 56.4102 84.1109 57.3265C84.3027 58.2431 84.3389 59.0951 84.3152 59.708C84.2929 60.322 84.233 60.6995 84.2551 60.7031Z" fill="#263238"/>
<path d="M85.0229 61.0769C85.0312 61.0785 85.0559 60.9857 85.0935 60.8157C85.1325 60.6463 85.1749 60.3977 85.2144 60.089C85.2942 59.472 85.3363 58.6073 85.246 57.6593C85.1534 56.7113 84.9467 55.8705 84.7503 55.2801C84.6526 54.9847 84.5636 54.749 84.4927 54.5901C84.4235 54.4305 84.3816 54.3441 84.3734 54.3475C84.3538 54.3554 84.4932 54.713 84.6658 55.3063C84.8392 55.8989 85.0298 56.7333 85.1215 57.6713C85.2108 58.6092 85.1833 59.4645 85.1265 60.0794C85.0705 60.695 85.002 61.073 85.0229 61.0769Z" fill="#263238"/>
<g opacity="0.3">
<path d="M69.4032 70.5936C68.4096 71.6844 67.6905 73.0245 67.3301 74.4566C67.2502 74.7746 67.1893 75.1209 67.3179 75.4226C67.5928 76.0684 68.4803 76.0992 69.0876 76.4493C69.5959 76.7424 69.9108 77.2752 70.2032 77.7847C71.1927 79.5096 72.1824 81.2342 73.1719 82.9591C72.2547 82.8832 71.9147 82.98 70.9975 82.9039L69.5224 82.9363C69.577 82.9598 69.8093 82.2328 69.8287 81.8918C69.8883 80.8504 69.1867 79.5897 68.2542 79.126C67.0821 78.5428 65.7343 79.03 64.5452 78.4826C63.4065 77.9587 62.7281 77.1571 61.9879 76.421C61.0588 75.497 60.1383 74.2728 58.9477 73.7282C58.4096 73.4822 57.1222 73.4577 57.1222 73.4577C57.7348 72.737 58.8555 72.7737 59.7676 73.0202C60.6797 73.2667 61.6132 73.6644 62.5346 73.4568C63.3088 73.2825 63.9228 72.7106 64.4963 72.161C65.9645 70.7541 67.4834 69.2695 68.1376 67.342C68.5461 68.3995 68.9544 69.4569 69.363 70.5141" fill="#1D1D20"/>
</g>
<g opacity="0.3">
<path d="M49.2885 82.9587C48.8141 81.793 49.8951 80.4147 50.3306 79.2339C50.7722 78.0371 50.6767 76.7204 50.6738 75.4443C50.668 72.7609 51.1034 70.077 51.9573 67.5334C52.0522 71.0302 51.6539 74.7457 51.4461 78.2377C51.402 78.9793 51.4592 79.8366 50.9161 80.3422C50.6386 80.6005 50.4731 80.4872 50.1625 80.7044C49.852 80.9216 49.2396 81.4143 49.2885 82.9587Z" fill="#1D1D20"/>
</g>
<path d="M63.3896 48.4912C63.3968 48.5205 64.0081 48.305 64.5874 47.7729C65.1712 47.2456 65.4435 46.6562 65.415 46.6463C65.3817 46.6255 65.0692 47.1705 64.5033 47.6805C63.9432 48.196 63.3721 48.4562 63.3896 48.4912Z" fill="#263238"/>
<path d="M62.4911 47.9986C62.5007 48.0286 63.0162 47.8613 63.556 47.4771C64.0981 47.096 64.4279 46.6652 64.403 46.646C64.3754 46.6205 64.0122 47.0041 63.4842 47.3749C62.9588 47.7493 62.4765 47.9638 62.4911 47.9986Z" fill="#263238"/>
<path d="M61.3092 47.9564C61.3161 47.9869 61.8214 47.8587 62.3456 47.5002C62.8724 47.145 63.1784 46.7223 63.1528 46.7046C63.1245 46.6794 62.7857 47.0535 62.2756 47.3967C61.7689 47.744 61.2965 47.9209 61.3092 47.9564Z" fill="#263238"/>
<path d="M69.4533 58.2629C69.4634 58.2912 70.0517 58.0104 70.5678 57.4119C71.0891 56.8176 71.2862 56.1951 71.257 56.1891C71.2213 56.1725 70.9787 56.7552 70.4739 57.3298C69.9751 57.9094 69.432 58.2298 69.4533 58.2629Z" fill="#263238"/>
<path d="M68.5699 58.2756C68.5869 58.3023 69.0395 58.0092 69.4576 57.4997C69.8788 56.9926 70.0811 56.4922 70.0519 56.4807C70.0186 56.4636 69.7715 56.9268 69.3615 57.42C68.9549 57.9159 68.5469 58.2459 68.5699 58.2756Z" fill="#263238"/>
<path d="M67.0288 58.5762C67.054 58.5997 67.434 58.2318 67.8777 57.7547C68.3215 57.2773 68.6605 56.8715 68.6354 56.848C68.6103 56.8245 68.2302 57.1921 67.7865 57.6695C67.3428 58.1469 67.0037 58.5527 67.0288 58.5762Z" fill="#263238"/>
<path d="M71.7808 38.6025C71.7902 38.6142 71.8872 38.5595 72.0112 38.4309C72.135 38.3032 72.278 38.0946 72.3675 37.835C72.4561 37.5748 72.471 37.3223 72.4513 37.1452C72.4324 36.9674 72.3893 36.8644 72.3747 36.868C72.3369 36.8728 72.4226 37.3041 72.2495 37.7944C72.0857 38.2876 71.754 38.5754 71.7808 38.6025Z" fill="#263238"/>
<path d="M71.3606 38.4185C71.3862 38.4382 71.5998 38.1742 71.7209 37.7794C71.8445 37.3853 71.8177 37.0464 71.7854 37.0481C71.7487 37.0469 71.7198 37.3683 71.6019 37.7424C71.4872 38.1171 71.3297 38.3986 71.3606 38.4185Z" fill="#263238"/>
<path d="M70.4086 39.0149C70.4342 39.0346 70.7285 38.6738 70.9617 38.1528C71.1976 37.633 71.2728 37.1729 71.2412 37.1669C71.2058 37.158 71.0781 37.5943 70.848 38.1014C70.621 38.6098 70.3784 38.994 70.4086 39.0149Z" fill="#263238"/>
<g opacity="0.3">
<path d="M101.493 75.2042C100.939 73.235 98.804 71.849 96.7796 72.1445C98.1094 69.6586 96.5033 66.1145 93.7577 65.4756C91.0119 64.8365 88.0061 67.3073 88.1017 70.1249C85.6112 69.8446 83.0984 71.8966 82.8749 74.3928C80.0093 73.6474 76.7271 75.6334 76.0575 78.5174C74.4106 76.9901 72.1054 76.1988 69.8679 76.3925C67.6304 76.5862 65.4953 77.7619 64.1355 79.5494C62.4368 76.9325 58.6354 75.9516 55.8824 77.4199C55.9873 75.1774 54.9425 72.9113 53.1692 71.5344C51.3958 70.1575 48.9416 69.707 46.7948 70.3642C46.4897 67.9548 44.0422 66.03 41.6288 66.3017C39.2153 66.5734 37.2572 68.9942 37.4955 71.4113C35.3761 70.8732 32.9701 71.7401 31.6808 73.5065C30.3915 75.2726 30.2991 77.8284 31.4576 79.6831L99.0677 80.2738C100.949 79.4695 102.048 77.1734 101.493 75.2042Z" fill="#F2D352"/>
</g>
<g opacity="0.3">
<path d="M40.0269 75.041C40.3096 76.2271 39.8656 77.6988 39.2723 78.7639C38.6793 79.829 37.6766 80.6594 36.5195 81.0437L36.5889 81.2254C37.9946 81.4042 39.4375 80.5481 40.0641 79.2773C40.6907 78.0065 40.9432 76.0721 40.0269 75.041Z" fill="#1D1D20"/>
</g>
<g opacity="0.3">
<path d="M62.085 55.9279C61.3321 56.7617 61.1802 58.0826 61.7238 59.0657C62.2674 60.0487 63.4671 60.6221 64.5735 60.4277C64.9086 61.8365 65.786 63.1423 67.0544 63.8412C68.3228 64.5401 69.9812 64.56 71.1848 63.7543C72.3884 62.9486 73.0021 61.2958 72.4755 59.9465C71.949 58.5974 70.2426 57.7961 68.9168 58.3788C69.3812 57.5688 69.7698 56.6873 69.8233 55.7551C69.8768 54.823 69.5456 53.8289 68.7982 53.2694C68.0506 52.7098 66.8665 52.7263 66.2607 53.437C66.2955 52.2317 65.367 51.0698 64.1835 50.8382C63.0001 50.6064 61.7022 51.3322 61.2795 52.4616C60.8569 53.591 61.3599 54.9905 62.4049 55.5924" fill="#F2D352"/>
</g>
<path d="M99.7141 85.003H30.361C28.9287 85.003 27.7676 83.8419 27.7676 82.4095C27.7676 80.9772 28.9287 79.8161 30.361 79.8161H99.7141C101.146 79.8161 102.308 80.9772 102.308 82.4095C102.308 83.8419 101.146 85.003 99.7141 85.003Z" fill="#263238"/>
<path d="M30.8369 85.003L36.2108 101.709C37.0148 104.209 39.3404 105.903 41.9662 105.903H88.6896C91.387 105.903 93.758 104.117 94.5012 101.524L99.2379 85.003H30.8369Z" fill="#263238"/>
<path opacity="0.3" d="M30.8369 85.003H99.2381L98.5265 87.4851L31.7638 87.8842L30.8369 85.003Z" fill="#1D1D20"/>
<path opacity="0.3" d="M34.8014 68.5425C36.9108 66.433 36.9108 63.0129 34.8014 60.9034C32.6919 58.794 29.2718 58.794 27.1623 60.9034C25.0528 63.0129 25.0528 66.433 27.1623 68.5425C29.2718 70.652 32.6919 70.652 34.8014 68.5425Z" fill="#F2D352"/>
<g opacity="0.3">
<path d="M28.9707 60.5016C27.241 61.1659 26.0669 63.0535 26.2359 64.8987C26.2841 65.4247 26.4526 65.9765 26.8659 66.3055C27.2792 66.6346 27.9828 66.6238 28.2639 66.1764C28.4287 65.9136 28.4146 65.5738 28.3294 65.2755C28.2439 64.9771 28.0952 64.7007 28.0016 64.4047C27.7095 63.4812 28.0267 62.3957 28.77 61.7746C28.9402 61.6325 29.131 61.5118 29.274 61.3423C29.4171 61.1729 29.5063 60.9346 29.4279 60.7272C29.3494 60.5199 29.0542 60.4039 28.891 60.5537" fill="white"/>
</g>
<g opacity="0.3">
<path d="M35.1637 62.8678C35.4565 64.0961 34.9966 65.6203 34.3822 66.7234C33.768 67.8264 32.7296 68.6863 31.5312 69.0842L31.6033 69.2724C33.0591 69.4574 34.5533 68.5709 35.2023 67.2547C35.8513 65.9388 36.1126 63.9355 35.1637 62.8678Z" fill="#1D1D20"/>
</g>
<path opacity="0.3" d="M63.4671 74.9201C66.4504 74.9201 68.8688 72.5017 68.8688 69.5184C68.8688 66.5351 66.4504 64.1167 63.4671 64.1167C60.4838 64.1167 58.0654 66.5351 58.0654 69.5184C58.0654 72.5017 60.4838 74.9201 63.4671 74.9201Z" fill="white"/>
<g opacity="0.3">
<path d="M61.455 65.2968C59.7254 65.9611 58.5513 67.8487 58.7202 69.6939C58.7685 70.2199 58.937 70.7717 59.3502 71.1007C59.7635 71.4298 60.4672 71.419 60.748 70.9716C60.9131 70.7088 60.8987 70.369 60.8135 70.0707C60.7281 69.7723 60.5793 69.4958 60.4857 69.1999C60.1936 68.2764 60.5109 67.1909 61.2542 66.57C61.4243 66.4279 61.6151 66.3072 61.7582 66.1378C61.9012 65.9683 61.9905 65.73 61.912 65.5227C61.8335 65.3153 61.5383 65.1994 61.3751 65.3491" fill="white"/>
</g>
<g opacity="0.3">
<path d="M67.648 67.663C67.9408 68.8913 67.481 70.4155 66.8666 71.5186C66.2522 72.6216 65.2139 73.4815 64.0156 73.8794L64.0876 74.0676C65.5435 74.2526 67.0377 73.3661 67.6867 72.0499C68.3356 70.734 68.597 68.7307 67.648 67.663Z" fill="#1D1D20"/>
</g>
<path opacity="0.3" d="M74.7568 72.8411C75.8832 71.8631 76.0035 70.1572 75.0255 69.0309C74.0476 67.9045 72.3417 67.7842 71.2153 68.7621C70.0889 69.7401 69.9686 71.446 70.9465 72.5724C71.9245 73.6987 73.6304 73.8191 74.7568 72.8411Z" fill="white"/>
<g opacity="0.3">
<path d="M71.981 68.6899C71.1163 69.0221 70.5293 69.9658 70.6135 70.8886C70.6375 71.1516 70.7217 71.4274 70.9286 71.592C71.1353 71.7566 71.4871 71.7511 71.6275 71.5274C71.7101 71.3962 71.7029 71.2262 71.6601 71.077C71.6174 70.9279 71.543 70.7895 71.4962 70.6416C71.3503 70.1799 71.5087 69.637 71.8805 69.3266C71.9654 69.2556 72.0609 69.1954 72.1325 69.1107C72.204 69.0259 72.2486 68.9069 72.2093 68.8032C72.1699 68.6995 72.0225 68.6415 71.9409 68.7166" fill="white"/>
</g>
<g opacity="0.3">
<path d="M75.0768 69.8729C75.2232 70.4871 74.9933 71.2491 74.6861 71.8008C74.3789 72.3523 73.8598 72.7824 73.2607 72.9814L73.2967 73.0755C74.0247 73.1681 74.7718 72.7248 75.0963 72.0667C75.4207 71.4084 75.5515 70.4069 75.0768 69.8729Z" fill="#1D1D20"/>
</g>
<path opacity="0.3" d="M72.7631 50.1717C74.756 49.618 75.9227 47.5535 75.369 45.5606C74.8153 43.5677 72.7508 42.401 70.7579 42.9547C68.765 43.5084 67.5983 45.5729 68.152 47.5658C68.7057 49.5587 70.7702 50.7254 72.7631 50.1717Z" fill="#F2D352"/>
<g opacity="0.3">
<path d="M72.0109 43.3267C70.7415 43.1287 69.3838 43.8581 68.8481 45.0255C68.6953 45.3583 68.6062 45.7483 68.7409 46.0889C68.8757 46.4295 69.3024 46.6659 69.626 46.494C69.816 46.393 69.9248 46.1837 69.9766 45.9749C70.0282 45.7661 70.0342 45.5484 70.0803 45.3382C70.2238 44.682 70.7893 44.1391 71.4507 44.0225C71.6021 43.9959 71.7584 43.9891 71.9028 43.9368C72.0473 43.8845 72.1832 43.7719 72.2077 43.6203C72.2321 43.4686 72.0946 43.297 71.9449 43.3306" fill="white"/>
</g>
<g opacity="0.3">
<path d="M74.9161 46.8883C74.668 47.7278 73.8649 48.4853 73.1147 48.9365C72.3644 49.3874 71.4431 49.5458 70.5853 49.3711L70.5635 49.5091C71.3747 50.1233 72.5792 50.1062 73.424 49.5391C74.2688 48.972 75.118 47.8579 74.9161 46.8883Z" fill="#1D1D20"/>
</g>
<path opacity="0.3" d="M76.2994 55.2499C75.8701 55.9975 74.9158 56.2553 74.1685 55.8259C73.4209 55.3966 73.1631 54.4423 73.5924 53.695C74.0218 52.9474 74.9761 52.6896 75.7234 53.119C76.471 53.5483 76.7288 54.5026 76.2994 55.2499Z" fill="#F2D352"/>
<g opacity="0.3">
<path d="M75.0494 53.125C74.5205 53.0424 73.9546 53.3465 73.7314 53.833C73.6678 53.9717 73.6306 54.1342 73.6867 54.2762C73.7429 54.4183 73.9207 54.5167 74.0556 54.4452C74.1348 54.4032 74.1802 54.3158 74.2018 54.229C74.2234 54.1418 74.2258 54.0511 74.245 53.9635C74.3047 53.6902 74.5404 53.4638 74.8162 53.4151C74.8793 53.4041 74.9446 53.4012 75.0046 53.3794C75.0648 53.3575 75.1214 53.3107 75.1315 53.2474C75.1416 53.184 75.0845 53.1125 75.0221 53.1266" fill="white"/>
</g>
<g opacity="0.3">
<path d="M76.2602 54.6094C76.1568 54.9593 75.8222 55.2749 75.5095 55.4631C75.1968 55.651 74.8128 55.717 74.4554 55.6443L74.4463 55.7019C74.7844 55.9577 75.2865 55.9507 75.6384 55.7143C75.9904 55.4777 76.3444 55.0135 76.2602 54.6094Z" fill="#1D1D20"/>
</g>
<path opacity="0.3" d="M102.181 68.8774C101.752 69.625 100.798 69.8827 100.05 69.4534C99.3027 69.024 99.0449 68.0698 99.4743 67.3224C99.9036 66.5748 100.858 66.317 101.605 66.7466C102.353 67.1758 102.611 68.1298 102.181 68.8774Z" fill="#F2D352"/>
<g opacity="0.3">
<path d="M100.931 66.7524C100.402 66.6699 99.8364 66.9737 99.6132 67.4604C99.5496 67.5991 99.5124 67.7616 99.5686 67.9037C99.6247 68.0455 99.8026 68.1442 99.9374 68.0724C100.017 68.0304 100.062 67.9431 100.084 67.8562C100.105 67.7691 100.108 67.6783 100.127 67.5907C100.187 67.3174 100.422 67.0911 100.698 67.0423C100.761 67.0313 100.826 67.0284 100.886 67.0066C100.947 66.9847 101.003 66.9379 101.013 66.8746C101.023 66.8115 100.966 66.7397 100.904 66.7539" fill="white"/>
</g>
<g opacity="0.3">
<path d="M102.143 68.2368C102.04 68.5867 101.705 68.9023 101.392 69.0905C101.08 69.2784 100.696 69.3444 100.338 69.2717L100.329 69.3293C100.667 69.5851 101.169 69.5781 101.521 69.3417C101.873 69.1051 102.227 68.6409 102.143 68.2368Z" fill="#1D1D20"/>
</g>
<path opacity="0.3" d="M44.4942 58.2061C44.5361 56.715 43.3613 55.4722 41.8702 55.4303C40.3791 55.3884 39.1364 56.5632 39.0945 58.0543C39.0525 59.5454 40.2273 60.7882 41.7184 60.8301C43.2095 60.872 44.4523 59.6972 44.4942 58.2061Z" fill="white"/>
<g opacity="0.3">
<path d="M41.9743 55.7993C41.0589 55.6565 40.0797 56.1823 39.6933 57.0245C39.5832 57.2645 39.5188 57.5458 39.616 57.7913C39.7132 58.0368 40.0209 58.2075 40.2542 58.0834C40.3912 58.0107 40.4697 57.8597 40.5069 57.709C40.5441 57.5583 40.5484 57.4013 40.5816 57.2498C40.685 56.7768 41.0928 56.3851 41.5699 56.3011C41.6791 56.2819 41.7919 56.2771 41.896 56.2392C42.0002 56.2013 42.0981 56.1204 42.1159 56.011C42.1334 55.9015 42.0345 55.7777 41.9263 55.8022" fill="white"/>
</g>
<path opacity="0.3" d="M46.5038 21.987C47.0084 20.5833 46.2796 19.0363 44.8759 18.5317C43.4722 18.027 41.9252 18.7558 41.4206 20.1595C40.9159 21.5632 41.6448 23.1102 43.0484 23.6149C44.4521 24.1195 45.9991 23.3907 46.5038 21.987Z" fill="#F2D352"/>
<g opacity="0.3">
<path d="M44.1413 18.7397C43.2259 18.5969 42.2467 19.1227 41.8603 19.9649C41.7502 20.2049 41.6858 20.4862 41.783 20.7317C41.8802 20.9775 42.1879 21.1479 42.4212 21.0238C42.5582 20.9511 42.6367 20.8001 42.6739 20.6494C42.7111 20.4987 42.7154 20.3417 42.7485 20.1903C42.852 19.717 43.2598 19.3255 43.7369 19.2413C43.8461 19.2221 43.9589 19.2173 44.063 19.1794C44.1672 19.1415 44.2654 19.0606 44.2829 18.9511C44.3004 18.8417 44.2015 18.7179 44.0933 18.7423" fill="white"/>
</g>
<g opacity="0.3">
<path d="M46.2374 21.3079C46.0583 21.9134 45.4792 22.4597 44.9382 22.7849C44.3973 23.1101 43.7327 23.2243 43.1142 23.0983L43.0986 23.1977C43.6838 23.6405 44.5523 23.6282 45.1614 23.2193C45.7706 22.8106 46.3828 22.0073 46.2374 21.3079Z" fill="#1D1D20"/>
</g>
<g opacity="0.3">
<path d="M64.6246 51.595C64.051 51.3019 63.3318 51.3149 62.769 51.6281C62.2062 51.9413 61.8164 52.5461 61.7631 53.1878C61.7427 53.4353 61.7768 53.7038 61.9405 53.8906C62.1042 54.0773 62.4272 54.1344 62.5998 53.9558C62.7385 53.8126 62.7342 53.5891 62.7644 53.3921C62.8633 52.7494 63.4753 52.2266 64.1257 52.2295C64.273 52.2302 64.4151 52.2084 64.561 52.1878C64.8752 52.1429 64.9772 51.8261 64.6246 51.595Z" fill="white"/>
</g>
<g opacity="0.3">
<path d="M68.2194 53.8143C67.6458 53.5212 66.9265 53.5342 66.3637 53.8474C65.8009 54.1606 65.4111 54.7654 65.3579 55.4071C65.3375 55.6546 65.3713 55.9231 65.5352 56.1099C65.6989 56.2966 66.0219 56.3537 66.1945 56.1751C66.3332 56.0319 66.3289 55.8084 66.3591 55.6114C66.458 54.9687 67.0703 54.4459 67.7204 54.4486C67.8678 54.4493 68.0099 54.4275 68.1558 54.4068C68.4699 54.3624 68.5717 54.0456 68.2194 53.8143Z" fill="white"/>
</g>
<g opacity="0.3">
<path d="M33.9707 72.7563C32.3006 73.3978 31.167 75.2203 31.33 77.0018C31.3766 77.5099 31.5393 78.0425 31.9384 78.3602C32.3375 78.678 33.017 78.6674 33.2882 78.2354C33.4475 77.9818 33.4338 77.6534 33.3513 77.3654C33.2687 77.0774 33.125 76.8103 33.0347 76.5247C32.7527 75.6329 33.059 74.5848 33.7768 73.9853C33.941 73.848 34.1253 73.7316 34.2635 73.5679C34.4015 73.4042 34.4877 73.1743 34.4119 72.9742C34.336 72.774 34.0511 72.6619 33.8934 72.8066" fill="white"/>
</g>
<g opacity="0.3">
<path d="M53.5267 72.5292C51.6857 72.3209 49.7733 73.4539 49.0721 75.169C48.8721 75.6581 48.7673 76.2252 48.9821 76.7079C49.1969 77.1905 49.8264 77.5054 50.2819 77.238C50.5495 77.081 50.6937 76.7729 50.7557 76.4688C50.8176 76.1647 50.8128 75.8506 50.8663 75.5451C51.0331 74.5908 51.8153 73.7741 52.7613 73.566C52.9778 73.5183 53.2029 73.4995 53.4079 73.4151C53.6129 73.3306 53.802 73.1604 53.8279 72.9403C53.8538 72.7203 53.6455 72.4812 53.4314 72.5388" fill="white"/>
</g>
<g opacity="0.3">
<path d="M89.9242 71.7413C88.0831 71.533 86.1708 72.666 85.4695 74.3811C85.2696 74.8702 85.1647 75.4373 85.3795 75.9199C85.5943 76.4026 86.2238 76.7175 86.6794 76.4501C86.947 76.2931 87.0912 75.985 87.1531 75.6809C87.215 75.3768 87.2102 75.0627 87.2638 74.7571C87.4306 73.8029 88.2127 72.9862 89.1588 72.7781C89.3753 72.7303 89.6004 72.7116 89.8054 72.6271C90.0103 72.5427 90.1994 72.3725 90.2254 72.1524C90.2513 71.9323 90.043 71.6933 89.8289 71.7509" fill="white"/>
</g>
<g opacity="0.3">
<path d="M78.0148 74.7279C75.7494 74.2219 73.2167 75.6262 72.4456 77.8157C69.9474 76.4849 66.5478 77.1816 64.7745 79.3874C63.5593 77.3179 60.5531 76.56 58.5023 77.8061C58.5256 75.9144 57.6424 74.0126 56.1256 72.882C54.6088 71.7514 52.4836 71.4564 50.7498 72.2136C49.0161 72.971 47.7733 74.7852 47.7798 76.6771C46.6621 76.4074 45.9839 76.7352 45.0474 77.4019C44.1107 78.0687 43.8529 78.7824 43.9857 79.8442L81.7415 79.8912C81.975 77.5819 80.2801 75.2338 78.0148 74.7279Z" fill="white"/>
</g>
<path d="M75.1641 63.9079C77.2895 66.0924 78.9481 68.7286 79.9972 71.5901" stroke="#263238" stroke-width="0.75" stroke-miterlimit="10" stroke-linecap="round" stroke-linejoin="round"/>
<path d="M98.1475 99.7745C98.7682 99.6571 99.2758 99.0934 99.3279 98.4639C99.3799 97.8343 98.9717 97.195 98.3787 96.9771C97.9925 96.8352 97.5509 96.8815 97.1878 97.0721L94.8413 94.9162C95.107 94.4544 94.9728 93.9711 94.6563 93.6058C94.3015 93.1963 93.727 93.0079 93.1637 93.2045C92.6523 93.3828 92.3062 93.9382 92.3381 94.4789C91.7175 94.5963 91.2099 95.1603 91.1578 95.7895C91.1057 96.4191 91.5139 97.0584 92.107 97.2761C92.5356 97.4335 93.0329 97.3594 93.4147 97.1127L95.7156 99.2268C95.358 99.7207 95.4874 100.253 95.8291 100.648C96.1839 101.057 96.7584 101.245 97.3217 101.049C97.8334 100.871 98.1795 100.315 98.1475 99.7745Z" fill="#F2D352"/>
<path opacity="0.1" d="M98.1475 99.7745C98.7682 99.6571 99.2758 99.0934 99.3279 98.4639C99.3799 97.8343 98.9717 97.195 98.3787 96.9771C97.9925 96.8352 97.5509 96.8815 97.1878 97.0721L94.8413 94.9162C95.107 94.4544 94.9728 93.9711 94.6563 93.6058C94.3015 93.1963 93.727 93.0079 93.1637 93.2045C92.6523 93.3828 92.3062 93.9382 92.3381 94.4789C91.7175 94.5963 91.2099 95.1603 91.1578 95.7895C91.1057 96.4191 91.5139 97.0584 92.107 97.2761C92.5356 97.4335 93.0329 97.3594 93.4147 97.1127L95.7156 99.2268C95.358 99.7207 95.4874 100.253 95.8291 100.648C96.1839 101.057 96.7584 101.245 97.3217 101.049C97.8334 100.871 98.1795 100.315 98.1475 99.7745Z" fill="#1D1D20"/>
<path d="M88.189 100.05C88.6598 100.471 89.4161 100.53 89.9472 100.189C90.4783 99.847 90.7373 99.1339 90.5494 98.5308C90.427 98.1382 90.1214 97.8159 89.7492 97.6438L90.0322 94.4698C90.5602 94.3997 90.8621 93.9991 90.9595 93.5256C91.0687 92.995 90.8683 92.4243 90.3698 92.0969C89.917 91.7995 89.2658 91.8626 88.8562 92.2174C88.3853 91.7964 87.629 91.7366 87.0979 92.0784C86.5668 92.4202 86.3078 93.1332 86.4958 93.7363C86.6316 94.1722 86.993 94.5219 87.4212 94.6747L87.1438 97.787C86.5344 97.8038 86.1907 98.2303 86.0856 98.7418C85.9764 99.2724 86.1768 99.8431 86.6753 100.17C87.1282 100.467 87.7793 100.404 88.189 100.05Z" fill="#F2D352"/>
<path opacity="0.1" d="M88.189 100.05C88.6598 100.471 89.4161 100.53 89.9472 100.189C90.4783 99.847 90.7373 99.1339 90.5494 98.5308C90.427 98.1382 90.1214 97.8159 89.7492 97.6438L90.0322 94.4698C90.5602 94.3997 90.8621 93.9991 90.9595 93.5256C91.0687 92.995 90.8683 92.4243 90.3698 92.0969C89.917 91.7995 89.2658 91.8626 88.8562 92.2174C88.3853 91.7964 87.629 91.7366 87.0979 92.0784C86.5668 92.4202 86.3078 93.1332 86.4958 93.7363C86.6316 94.1722 86.993 94.5219 87.4212 94.6747L87.1438 97.787C86.5344 97.8038 86.1907 98.2303 86.0856 98.7418C85.9764 99.2724 86.1768 99.8431 86.6753 100.17C87.1282 100.467 87.7793 100.404 88.189 100.05Z" fill="#1D1D20"/>
<path d="M99.772 100.886C100.243 101.307 100.999 101.367 101.53 101.025C102.061 100.683 102.32 99.9703 102.132 99.3672C102.01 98.9746 101.704 98.6522 101.332 98.4802L101.615 95.3062C102.143 95.2361 102.445 94.8355 102.543 94.362C102.652 93.8314 102.451 93.2606 101.953 92.9333C101.5 92.6359 100.849 92.699 100.439 93.0538C99.9683 92.6328 99.212 92.573 98.6809 92.9148C98.1498 93.2566 97.8908 93.9696 98.0788 94.5727C98.2148 95.0086 98.576 95.3582 99.0042 95.5111L98.7268 98.6234C98.1174 98.6402 97.7737 99.0667 97.6686 99.5782C97.5594 100.109 97.7598 100.68 98.2583 101.007C98.7109 101.304 99.3623 101.241 99.772 100.886Z" fill="#F2D352"/>
<path opacity="0.1" d="M99.772 100.886C100.243 101.307 100.999 101.367 101.53 101.025C102.061 100.683 102.32 99.9703 102.132 99.3672C102.01 98.9746 101.704 98.6522 101.332 98.4802L101.615 95.3062C102.143 95.2361 102.445 94.8355 102.543 94.362C102.652 93.8314 102.451 93.2606 101.953 92.9333C101.5 92.6359 100.849 92.699 100.439 93.0538C99.9683 92.6328 99.212 92.573 98.6809 92.9148C98.1498 93.2566 97.8908 93.9696 98.0788 94.5727C98.2148 95.0086 98.576 95.3582 99.0042 95.5111L98.7268 98.6234C98.1174 98.6402 97.7737 99.0667 97.6686 99.5782C97.5594 100.109 97.7598 100.68 98.2583 101.007C98.7109 101.304 99.3623 101.241 99.772 100.886Z" fill="#1D1D20"/>
<path d="M87.2361 100.048C87.8646 100.11 88.5105 99.7119 88.7375 99.1227C88.9645 98.5332 88.7526 97.8048 88.245 97.429C87.9143 97.1842 87.4775 97.1043 87.0755 97.1851L85.4305 94.4559C85.8153 94.0877 85.8227 93.5861 85.6218 93.1464C85.3967 92.6537 84.8982 92.3112 84.3025 92.3412C83.7616 92.3683 83.2732 92.8039 83.1517 93.3319C82.5232 93.27 81.8773 93.6682 81.6503 94.2574C81.4233 94.8468 81.6352 95.5752 82.1428 95.9511C82.5097 96.2227 83.0077 96.2916 83.4438 96.1623L85.0569 98.8383C84.5747 99.2117 84.5493 99.7587 84.7662 100.234C84.9913 100.726 85.4898 101.069 86.0855 101.039C86.6262 101.011 87.1146 100.576 87.2361 100.048Z" fill="#F2D352"/>
<path opacity="0.3" d="M87.2361 100.048C87.8646 100.11 88.5105 99.7119 88.7375 99.1227C88.9645 98.5332 88.7526 97.8048 88.245 97.429C87.9143 97.1842 87.4775 97.1043 87.0755 97.1851L85.4305 94.4559C85.8153 94.0877 85.8227 93.5861 85.6218 93.1464C85.3967 92.6537 84.8982 92.3112 84.3025 92.3412C83.7616 92.3683 83.2732 92.8039 83.1517 93.3319C82.5232 93.27 81.8773 93.6682 81.6503 94.2574C81.4233 94.8468 81.6352 95.5752 82.1428 95.9511C82.5097 96.2227 83.0077 96.2916 83.4438 96.1623L85.0569 98.8383C84.5747 99.2117 84.5493 99.7587 84.7662 100.234C84.9913 100.726 85.4898 101.069 86.0855 101.039C86.6262 101.011 87.1146 100.576 87.2361 100.048Z" fill="#1D1D20"/>
<path d="M88.5919 96.9C88.115 97.314 87.9602 98.0568 88.2324 98.6268C88.5045 99.1968 89.1794 99.5436 89.801 99.433C90.2059 99.361 90.5642 99.0986 90.7819 98.7511L93.8949 99.4318C93.898 99.9643 94.2573 100.314 94.7148 100.471C95.2274 100.646 95.8188 100.519 96.2064 100.066C96.5584 99.6538 96.5776 98.9998 96.2776 98.5488C96.7545 98.1348 96.9093 97.392 96.6372 96.822C96.365 96.252 95.6901 95.9052 95.0685 96.0158C94.619 96.0958 94.2266 96.4102 94.0212 96.8158L90.9686 96.1483C91.0286 95.5416 90.6489 95.147 90.1548 94.9781C89.6421 94.8029 89.0508 94.9298 88.6632 95.3832C88.3111 95.7948 88.2919 96.4488 88.5919 96.9Z" fill="#F2D352"/>
<path opacity="0.3" d="M88.5919 96.9C88.115 97.314 87.9602 98.0568 88.2324 98.6268C88.5045 99.1968 89.1794 99.5436 89.801 99.433C90.2059 99.361 90.5642 99.0986 90.7819 98.7511L93.8949 99.4318C93.898 99.9643 94.2573 100.314 94.7148 100.471C95.2274 100.646 95.8188 100.519 96.2064 100.066C96.5584 99.6538 96.5776 98.9998 96.2776 98.5488C96.7545 98.1348 96.9093 97.392 96.6372 96.822C96.365 96.252 95.6901 95.9052 95.0685 96.0158C94.619 96.0958 94.2266 96.4102 94.0212 96.8158L90.9686 96.1483C91.0286 95.5416 90.6489 95.147 90.1548 94.9781C89.6421 94.8029 89.0508 94.9298 88.6632 95.3832C88.3111 95.7948 88.2919 96.4488 88.5919 96.9Z" fill="#1D1D20"/>
<path d="M97.3942 99.2938C97.2478 99.9082 97.555 100.602 98.1082 100.907C98.6614 101.211 99.4119 101.1 99.853 100.648C100.14 100.353 100.278 99.9312 100.253 99.5218L103.179 98.2608C103.492 98.6919 103.988 98.767 104.451 98.6273C104.97 98.4708 105.376 98.0232 105.427 97.429C105.473 96.8892 105.108 96.3466 104.601 96.1548C104.748 95.5404 104.44 94.8466 103.887 94.542C103.334 94.2375 102.584 94.3488 102.142 94.801C101.824 95.1279 101.688 95.6122 101.757 96.0615L98.8878 97.2979C98.583 96.7699 98.0444 96.6706 97.5445 96.8213C97.0258 96.9778 96.6191 97.4254 96.5684 98.0196C96.5221 98.5594 96.8874 99.102 97.3942 99.2938Z" fill="#F2D352"/>
<path opacity="0.3" d="M97.3942 99.2938C97.2478 99.9082 97.555 100.602 98.1082 100.907C98.6614 101.211 99.4119 101.1 99.853 100.648C100.14 100.353 100.278 99.9312 100.253 99.5218L103.179 98.2608C103.492 98.6919 103.988 98.767 104.451 98.6273C104.97 98.4708 105.376 98.0232 105.427 97.429C105.473 96.8892 105.108 96.3466 104.601 96.1548C104.748 95.5404 104.44 94.8466 103.887 94.542C103.334 94.2375 102.584 94.3488 102.142 94.801C101.824 95.1279 101.688 95.6122 101.757 96.0615L98.8878 97.2979C98.583 96.7699 98.0444 96.6706 97.5445 96.8213C97.0258 96.9778 96.6191 97.4254 96.5684 98.0196C96.5221 98.5594 96.8874 99.102 97.3942 99.2938Z" fill="#1D1D20"/>
<path d="M89.2344 97.6366C89.5483 97.0886 89.4497 96.3362 89.005 95.8877C88.5603 95.4391 87.8088 95.334 87.2583 95.6431C86.8997 95.8445 86.6479 96.2102 86.557 96.6101L83.3933 96.9931C83.215 96.4913 82.7604 96.2791 82.2771 96.2822C81.7354 96.2858 81.2187 96.6002 81.0022 97.1561C80.8054 97.6608 81.0027 98.2848 81.4344 98.6117C81.1205 99.1596 81.2191 99.912 81.6639 100.361C82.1086 100.809 82.86 100.914 83.4106 100.605C83.8087 100.381 84.0754 99.9552 84.1361 99.5045L87.2381 99.1289C87.3811 99.7217 87.8698 99.9689 88.3918 99.9655C88.9335 99.9619 89.4502 99.6475 89.6667 99.0917C89.8635 98.5874 89.6664 97.9637 89.2344 97.6366Z" fill="#F2D352"/>
<path d="M103.786 96.1459C103.687 95.5222 103.14 94.997 102.512 94.9258C101.885 94.8542 101.233 95.2426 100.997 95.8284C100.843 96.21 100.876 96.6528 101.055 97.0214L98.8277 99.3002C98.3743 99.0204 97.8871 99.1397 97.512 99.4447C97.0918 99.7865 96.8858 100.355 97.0646 100.924C97.2271 101.441 97.7714 101.804 98.3129 101.789C98.411 102.413 98.959 102.938 99.5863 103.009C100.214 103.08 100.866 102.692 101.102 102.106C101.272 101.683 101.214 101.184 100.979 100.794L103.163 98.5596C103.646 98.9323 104.182 98.8193 104.586 98.49C105.007 98.1483 105.213 97.5794 105.034 97.0104C104.871 96.4937 104.327 96.1306 103.786 96.1459Z" fill="#F2D352"/>
<path d="M93.5946 100.945C93.7907 101.545 94.4152 101.977 95.0461 101.947C95.6771 101.918 96.2589 101.431 96.3985 100.815C96.4895 100.414 96.387 99.9818 96.1511 99.6461L97.9876 97.0418C98.4796 97.2458 98.9416 97.051 99.2634 96.69C99.6239 96.2856 99.7369 95.6916 99.4696 95.1581C99.2269 94.6738 98.6317 94.4019 98.0997 94.5031C97.9036 93.9029 97.2791 93.4716 96.6481 93.5009C96.0172 93.5302 95.4354 94.0174 95.2957 94.6332C95.1947 95.0787 95.3322 95.562 95.626 95.9091L93.825 98.4626C93.2893 98.1715 92.7781 98.3681 92.4306 98.7579C92.0701 99.1623 91.9571 99.7563 92.2245 100.29C92.4671 100.775 93.0623 101.046 93.5946 100.945Z" fill="#F2D352"/>
<path d="M76.8486 106.134L78.9004 100.105C79.1925 99.2463 79.9986 98.6691 80.9053 98.6691H104.894C105.696 98.6691 106.405 99.1903 106.644 99.9559L108.575 106.134H76.8486V106.134Z" fill="#263238"/>
<path opacity="0.4" d="M76.8486 106.134L78.9004 100.105C79.1925 99.2463 79.9986 98.6691 80.9053 98.6691H104.894C105.696 98.6691 106.405 99.1903 106.644 99.9559L108.575 106.134H76.8486V106.134Z" fill="white"/>
<path opacity="0.4" d="M89.2484 98.6691L82.79 106.134H86.4275L93.056 98.6691H89.2484Z" fill="white"/>
<path opacity="0.4" d="M94.2211 98.6691L87.7627 106.134H88.6776L94.9005 98.6691H94.2211Z" fill="white"/>
</g>
<defs>
<clipPath id="clip0_404_24422">
<rect width="120" height="120" fill="white" transform="translate(0.25 0.312012)"/>
</clipPath>
</defs>
</svg>
