<svg width="25" height="24" viewBox="0 0 25 24" fill="none" xmlns="http://www.w3.org/2000/svg">
<path d="M12.9883 2C7.47828 2 2.98828 6.49 2.98828 12C2.98828 17.51 7.47828 22 12.9883 22C18.4983 22 22.9883 17.51 22.9883 12C22.9883 6.49 18.4983 2 12.9883 2ZM16.9883 12.75H13.7383V16C13.7383 16.41 13.3983 16.75 12.9883 16.75C12.5783 16.75 12.2383 16.41 12.2383 16V12.75H8.98828C8.57828 12.75 8.23828 12.41 8.23828 12C8.23828 11.59 8.57828 11.25 8.98828 11.25H12.2383V8C12.2383 7.59 12.5783 7.25 12.9883 7.25C13.3983 7.25 13.7383 7.59 13.7383 8V11.25H16.9883C17.3983 11.25 17.7383 11.59 17.7383 12C17.7383 12.41 17.3983 12.75 16.9883 12.75Z" fill="#6941C6"/>
</svg>
