<svg width="48" height="48" viewBox="0 0 48 48" fill="none" xmlns="http://www.w3.org/2000/svg">
<path d="M47.6438 23.7312C47.6438 36.6864 37.1427 47.1874 24.1875 47.1874C11.2329 47.1874 0.731812 36.6864 0.731812 23.7312C0.731812 10.7765 11.2329 0.275452 24.1875 0.275452C37.1427 0.275452 47.6438 10.7765 47.6438 23.7312Z" fill="#D24103"/>
<path d="M17.5915 25.0363C17.5915 26.9235 16.5135 28.4557 15.1829 28.4557C13.8534 28.4557 12.7748 26.9235 12.7748 25.0363C12.7748 23.148 13.8534 21.6174 15.1829 21.6174C16.5135 21.6174 17.5915 23.1475 17.5915 25.0363Z" fill="#562912"/>
<path d="M35.5997 25.0363C35.5997 26.9235 34.5222 28.4557 33.1911 28.4557C31.861 28.4557 30.7825 26.9235 30.7825 25.0363C30.7825 23.148 31.861 21.6174 33.1911 21.6174C34.5216 21.6174 35.5997 23.1475 35.5997 25.0363Z" fill="#562912"/>
<path d="M19.0126 22.7886C18.7281 22.7886 18.4631 22.6022 18.3785 22.3138C17.6707 19.909 15.2637 18.0738 12.3901 17.7481C12.028 17.708 11.7673 17.3801 11.8079 17.0164C11.8491 16.6538 12.1738 16.3899 12.5397 16.4349C15.9341 16.8197 18.7904 19.0332 19.6479 21.9415C19.7503 22.2916 19.5503 22.6591 19.2002 22.7626C19.1378 22.7816 19.0744 22.7886 19.0126 22.7886Z" fill="#562912"/>
<path d="M29.3625 22.7886C29.3007 22.7886 29.2378 22.7816 29.175 22.7626C28.8243 22.6591 28.6243 22.2916 28.7283 21.9415C29.5836 19.0332 32.4399 16.8197 35.8355 16.4349C36.204 16.3915 36.5249 16.6538 36.5661 17.0164C36.6073 17.3801 36.3471 17.7064 35.9845 17.7481C33.1109 18.0738 30.7045 19.909 29.9961 22.3138C29.9115 22.6022 29.6476 22.7886 29.3625 22.7886Z" fill="#562912"/>
<path d="M28.9088 36.1021C28.6481 36.1021 28.3874 36.0073 28.1826 35.8165C27.2005 34.9006 25.8596 34.3662 24.406 34.3109C22.7941 34.2399 21.2624 34.7938 20.2001 35.8073C19.7741 36.2138 19.0999 36.1975 18.6934 35.7721C18.2874 35.3461 18.3026 34.6713 18.7286 34.2648C20.205 32.8562 22.3068 32.0974 24.4883 32.1808C26.4514 32.2556 28.2796 32.9922 29.6351 34.2561C30.066 34.6578 30.0888 35.3325 29.6882 35.7623C29.479 35.9883 29.1939 36.1021 28.9088 36.1021Z" fill="#562912"/>
</svg>
