<svg width="16" height="17" viewBox="0 0 16 17" fill="none" xmlns="http://www.w3.org/2000/svg">
<path d="M11.9633 10.018C11.724 9.15058 11.2067 8.38559 10.4908 7.84042C9.77484 7.29525 8.89984 7.00002 7.99998 7.00002C7.10012 7.00002 6.22511 7.29525 5.50919 7.84042C4.79327 8.38559 4.27599 9.15058 4.0367 10.018L3.46645 12.0852C3.36406 12.4564 3.34878 12.8462 3.42181 13.2242C3.49484 13.6022 3.65419 13.9583 3.88745 14.2646C4.12071 14.5709 4.42157 14.8193 4.76657 14.9902C5.11157 15.1611 5.49139 15.25 5.87641 15.25H10.1235C10.5086 15.25 10.8884 15.1611 11.2334 14.9902C11.5784 14.8193 11.8792 14.5709 12.1125 14.2646C12.3458 13.9583 12.5051 13.6022 12.5781 13.2242C12.6512 12.8462 12.6359 12.4564 12.5335 12.0852L11.9633 10.018ZM11.3169 13.6587C11.1776 13.8431 10.9972 13.9926 10.7901 14.0953C10.5829 14.1979 10.3547 14.2509 10.1235 14.25H5.87641C5.6454 14.25 5.4175 14.1967 5.2105 14.0941C5.00349 13.9916 4.82297 13.8426 4.68301 13.6588C4.54306 13.475 4.44744 13.2614 4.40363 13.0345C4.35981 12.8077 4.36898 12.5738 4.43041 12.3511L5.00066 10.284C5.18176 9.62751 5.57323 9.04859 6.11502 8.63602C6.65681 8.22345 7.31899 8.00003 7.99998 8.00003C8.68097 8.00003 9.34315 8.22345 9.88494 8.63602C10.4267 9.04859 10.8182 9.62751 10.9993 10.284L11.5695 12.3511C11.6319 12.5737 11.6415 12.8078 11.5976 13.0348C11.5538 13.2618 11.4577 13.4753 11.3169 13.6587ZM4.5656 7.69723C4.6526 7.15348 4.53723 6.57139 4.2406 6.05776C3.94398 5.54414 3.49748 5.15317 2.9832 4.95664C2.43245 4.74629 1.8707 4.77979 1.40088 5.05092C0.466915 5.59017 0.221133 6.9192 0.853102 8.01357C1.14963 8.5272 1.59616 8.91826 2.11045 9.1147C2.33826 9.20348 2.58042 9.24978 2.82491 9.25129C3.12952 9.25239 3.42898 9.17272 3.69276 9.02039C4.16229 8.74923 4.47229 8.27932 4.5656 7.69723ZM3.5781 7.53917C3.53341 7.8182 3.39654 8.03667 3.1927 8.15435C2.98885 8.27204 2.73123 8.28129 2.46716 8.18051C2.16676 8.06579 1.90107 7.82892 1.71901 7.51357C1.36901 6.90732 1.4522 6.17607 1.90088 5.91695C2.01368 5.85294 2.14142 5.81997 2.2711 5.82139C2.39275 5.82264 2.51314 5.84612 2.62635 5.89067C2.92676 6.00545 3.19245 6.24229 3.37451 6.55764C3.55657 6.87298 3.62885 7.22164 3.5781 7.53917ZM4.67391 5.62557C5.02898 5.90942 5.43445 6.05723 5.84448 6.0572C5.9673 6.05716 6.08976 6.04395 6.20976 6.01779C7.2636 5.7887 7.90257 4.5977 7.63413 3.36285C7.5082 2.78329 7.20201 2.27482 6.77201 1.93104C6.31154 1.56292 5.7661 1.42357 5.23616 1.53882C4.18235 1.76789 3.54338 2.95889 3.81179 4.19373C3.93776 4.77332 4.24395 5.28179 4.67391 5.62557ZM5.44854 2.51601C5.49713 2.50553 5.54671 2.50029 5.59641 2.50039C5.78229 2.50039 5.97348 2.5731 6.14757 2.71229C6.39873 2.91307 6.57963 3.2196 6.65695 3.57545C6.8057 4.25967 6.50363 4.9307 5.99735 5.04076C5.76732 5.09076 5.51907 5.02114 5.29838 4.84467C5.04723 4.64385 4.86632 4.33732 4.78901 3.98151C4.64023 3.2971 4.94229 2.62607 5.44854 2.51601ZM14.5991 5.05092C14.1294 4.77979 13.5674 4.74629 13.0168 4.95664C12.5025 5.1531 12.0559 5.54414 11.7594 6.05776C11.4629 6.57139 11.3475 7.1536 11.4344 7.69723C11.5276 8.27932 11.8375 8.74923 12.3073 9.02039C12.571 9.17273 12.8705 9.25241 13.1751 9.25129C13.4196 9.24978 13.6618 9.20348 13.8896 9.1147C14.4039 8.91826 14.8504 8.5272 15.1469 8.01357C15.7788 6.9192 15.533 5.59017 14.5991 5.05092ZM14.2809 7.51357C14.0989 7.82892 13.8332 8.06579 13.5328 8.18051C13.2689 8.28139 13.0112 8.2721 12.8073 8.15435C12.6035 8.0366 12.4667 7.8182 12.4219 7.53917C12.3711 7.22164 12.4434 6.8731 12.6254 6.55792C12.8075 6.24273 13.0732 6.00573 13.3736 5.89095C13.4868 5.84636 13.6072 5.82284 13.7289 5.82154C13.8585 5.82012 13.9863 5.8531 14.0991 5.9171C14.5478 6.17601 14.631 6.90717 14.2809 7.51357ZM9.7902 6.01779C9.9102 6.04395 10.0327 6.05716 10.1555 6.0572C10.5655 6.0572 10.9711 5.90942 11.326 5.62557C11.756 5.28182 12.0622 4.77332 12.1882 4.19376C12.4566 2.95892 11.8176 1.76792 10.7638 1.53885C10.2339 1.42367 9.68841 1.56292 9.22795 1.93107C8.79795 2.27482 8.49176 2.78332 8.36582 3.36285C8.09738 4.5977 8.73635 5.7887 9.7902 6.01779ZM9.34301 3.57529C9.42032 3.21945 9.60123 2.91279 9.85238 2.71214C10.0265 2.57295 10.2177 2.50023 10.4035 2.50023C10.4532 2.50014 10.5028 2.50538 10.5514 2.51585C11.0577 2.62592 11.3597 3.2971 11.211 3.98117C11.1336 4.33701 10.9527 4.64367 10.7016 4.84435C10.481 5.02079 10.2329 5.09042 10.0027 5.04045C9.49632 4.93054 9.19426 4.25942 9.34301 3.57529Z" fill="#5D5C64"/>
</svg>
