<svg width="24" height="25" viewBox="0 0 24 25" fill="none" xmlns="http://www.w3.org/2000/svg">
<path d="M6.9 12.1324V14.9102M6.9 12.1324V5.46577C6.9 4.54529 7.66112 3.7991 8.6 3.7991C9.53888 3.7991 10.3 4.54529 10.3 5.46577M6.9 12.1324C6.9 11.212 6.13888 10.4658 5.2 10.4658C4.26112 10.4658 3.5 11.212 3.5 12.1324V14.3547C3.5 18.957 7.30558 22.688 12 22.688C16.6944 22.688 20.5 18.957 20.5 14.3547V8.7991C20.5 7.87863 19.7389 7.13243 18.8 7.13243C17.8611 7.13243 17.1 7.87863 17.1 8.7991M10.3 5.46577V11.5769M10.3 5.46577V4.35466C10.3 3.43418 11.0611 2.68799 12 2.68799C12.9389 2.68799 13.7 3.43418 13.7 4.35466V5.46577M13.7 5.46577V11.5769M13.7 5.46577C13.7 4.54529 14.4611 3.7991 15.4 3.7991C16.3389 3.7991 17.1 4.54529 17.1 5.46577V8.7991M17.1 8.7991V11.5769" stroke="#D92D20" stroke-width="1.5" stroke-linecap="round" stroke-linejoin="round"/>
</svg>
