<svg width="16" height="17" viewBox="0 0 16 17" fill="none" xmlns="http://www.w3.org/2000/svg">
<path d="M13.1427 3.35713C13.1427 2.75092 12.9019 2.16954 12.4733 1.74088C12.0446 1.31223 11.4632 1.07141 10.857 1.07141C10.2508 1.07141 9.66942 1.31223 9.24076 1.74088C8.81211 2.16954 8.57129 2.75092 8.57129 3.35713C8.57384 3.96236 8.81633 4.54187 9.24558 4.96855L4.46843 9.7457C4.04175 9.31646 3.46223 9.07397 2.857 9.07141C2.25079 9.07141 1.66941 9.31223 1.24076 9.74088C0.812105 10.1695 0.571289 10.7509 0.571289 11.3571C0.571289 11.9633 0.812105 12.5447 1.24076 12.9734C1.66941 13.402 2.25079 13.6428 2.857 13.6428C2.857 14.2491 3.09782 14.8304 3.52647 15.2591C3.95513 15.6877 4.53651 15.9286 5.14272 15.9286C5.74893 15.9286 6.33031 15.6877 6.75896 15.2591C7.18762 14.8304 7.42843 14.2491 7.42843 13.6428C7.42588 13.0376 7.18339 12.4581 6.75415 12.0314L11.5313 7.25427C11.958 7.68351 12.5375 7.926 13.1427 7.92856C13.7489 7.92856 14.3303 7.68774 14.759 7.25909C15.1876 6.83043 15.4284 6.24905 15.4284 5.64284C15.4284 5.03663 15.1876 4.45525 14.759 4.0266C14.3303 3.59794 13.7489 3.35713 13.1427 3.35713Z" fill="#F2D352" stroke="#F2D352" stroke-width="0.1" stroke-linecap="round" stroke-linejoin="round"/>
</svg>
