<svg width="25" height="24" viewBox="0 0 25 24" fill="none" xmlns="http://www.w3.org/2000/svg">
<path d="M21.812 8.758C22.246 9.398 22.5 10.169 22.5 11V20H20.5V17.029L18.5 15C18.486 15 11.5 15 11.5 15V20H9.5V17.106L6.886 13.445C6.648 13.014 6.5 12.527 6.5 12H5C3.619 12 2.5 10.881 2.5 9.5C2.5 8.289 3.362 7.28 4.505 7.05C4.505 7.033 4.5 7.017 4.5 7C4.5 5.343 6.5 4 8.5 4C9.704 4 10.901 4.492 11.668 5.241L13.5 7H18.5C18.864 7 19.209 7.064 19.544 7.155C19.7 6.494 20.291 6 21 6C21.828 6 22.5 6.672 22.5 7.5C22.5 8.028 22.225 8.491 21.812 8.758Z" fill="#012F93"/>
<path opacity="0.3" d="M10.5 4.468V5.5C10.5 6.328 9.828 7 9 7C8.172 7 7.5 6.328 7.5 5.5V4.115C7.827 4.042 8.163 4 8.5 4C9.201 4 9.888 4.181 10.5 4.468Z" fill="#E18C00"/>
<path opacity="0.4" d="M18.483 15.0001H11.5V20.0001H9.5V17.1061L6.886 13.4451C6.648 13.0141 6.5 12.5271 6.5 12.0001H5.219C4.531 12.0001 4.313 11.8921 4.313 11.8921C3.268 11.5921 2.5 10.6411 2.5 9.50007C2.5 8.36707 3.259 7.42207 4.292 7.11607C4.363 7.09407 4.431 7.06507 4.505 7.05007C4.505 7.03307 4.5 7.01707 4.5 7.00007C4.5 5.62307 5.885 4.47507 7.5 4.12207V5.50007C7.5 6.32807 8.172 7.00007 9 7.00007C9.828 7.00007 10.5 6.32807 10.5 5.50007V11.0001C10.5 12.1051 11.395 13.0001 12.5 13.0001H16.495L18.483 15.0001Z" fill="white"/>
</svg>
