<svg width="17" height="16" viewBox="0 0 17 16" fill="none" xmlns="http://www.w3.org/2000/svg">
<path d="M6.24479 12.6663V14.133C6.24479 14.3197 6.24479 14.413 6.20846 14.4843C6.1765 14.5471 6.12551 14.5981 6.06279 14.63C5.99148 14.6663 5.89814 14.6663 5.71146 14.6663H4.44479C4.25811 14.6663 4.16477 14.6663 4.09346 14.63C4.03074 14.5981 3.97975 14.5471 3.94779 14.4843C3.91146 14.413 3.91146 14.3197 3.91146 14.133V12.6663M13.2448 12.6663V14.133C13.2448 14.3197 13.2448 14.413 13.2085 14.4843C13.1765 14.5471 13.1255 14.5981 13.0628 14.63C12.9915 14.6663 12.8981 14.6663 12.7115 14.6663H11.4448C11.2581 14.6663 11.1648 14.6663 11.0935 14.63C11.0307 14.5981 10.9797 14.5471 10.9478 14.4843C10.9115 14.413 10.9115 14.3197 10.9115 14.133V12.6663M2.57812 7.99967H14.5781M2.57812 3.66634H14.5781M4.91146 10.333H5.91146M11.2448 10.333H12.2448M5.77812 12.6663H11.3781C12.4982 12.6663 13.0583 12.6663 13.4861 12.4484C13.8624 12.2566 14.1684 11.9506 14.3601 11.5743C14.5781 11.1465 14.5781 10.5864 14.5781 9.46634V4.53301C14.5781 3.4129 14.5781 2.85285 14.3601 2.42503C14.1684 2.0487 13.8624 1.74274 13.4861 1.55099C13.0583 1.33301 12.4982 1.33301 11.3781 1.33301H5.77813C4.65802 1.33301 4.09797 1.33301 3.67014 1.55099C3.29382 1.74274 2.98786 2.0487 2.79611 2.42503C2.57812 2.85285 2.57812 3.4129 2.57812 4.53301V9.46634C2.57812 10.5864 2.57812 11.1465 2.79611 11.5743C2.98786 11.9506 3.29382 12.2566 3.67014 12.4484C4.09797 12.6663 4.65802 12.6663 5.77812 12.6663Z" stroke="#637589" stroke-width="1.5" stroke-linecap="round" stroke-linejoin="round"/>
</svg>
