<svg width="25" height="25" viewBox="0 0 25 25" fill="none" xmlns="http://www.w3.org/2000/svg">
<path d="M21.5 10.312H3.5M16.5 2.31201V6.31201M8.5 2.31201V6.31201M11 14.312L12.5 13.312V18.312M11.25 18.312H13.75M8.3 22.312H16.7C18.3802 22.312 19.2202 22.312 19.862 21.985C20.4265 21.6974 20.8854 21.2385 21.173 20.674C21.5 20.0322 21.5 19.1922 21.5 17.512V9.11201C21.5 7.43185 21.5 6.59178 21.173 5.95004C20.8854 5.38555 20.4265 4.92661 19.862 4.63899C19.2202 4.31201 18.3802 4.31201 16.7 4.31201H8.3C6.61984 4.31201 5.77976 4.31201 5.13803 4.63899C4.57354 4.92661 4.1146 5.38555 3.82698 5.95004C3.5 6.59178 3.5 7.43185 3.5 9.11201V17.512C3.5 19.1922 3.5 20.0322 3.82698 20.674C4.1146 21.2385 4.57354 21.6974 5.13803 21.985C5.77976 22.312 6.61984 22.312 8.3 22.312Z" stroke="#1D1D20" stroke-width="1.5" stroke-linecap="round" stroke-linejoin="round"/>
</svg>
