<svg width="18" height="18" viewBox="0 0 18 18" fill="none" xmlns="http://www.w3.org/2000/svg">
<path d="M10.5372 4.68799C11.2698 4.83091 11.943 5.18918 12.4708 5.71694C12.9986 6.2447 13.3568 6.91794 13.4997 7.65049M10.5372 1.68799C12.0592 1.85707 13.4784 2.53862 14.5619 3.62074C15.6454 4.70287 16.3288 6.12125 16.4997 7.64299M7.66998 10.5853C6.7688 9.68411 6.05721 8.66513 5.53521 7.57791C5.49031 7.48439 5.46786 7.43763 5.45061 7.37847C5.38932 7.1682 5.43334 6.91001 5.56085 6.73193C5.59673 6.68183 5.6396 6.63896 5.72533 6.55322C5.98754 6.29102 6.11864 6.15992 6.20435 6.02808C6.5276 5.53092 6.5276 4.88998 6.20435 4.39281C6.11864 4.26098 5.98754 4.12988 5.72533 3.86767L5.57918 3.72152C5.1806 3.32294 4.98131 3.12365 4.76727 3.01539C4.3416 2.80009 3.8389 2.80009 3.41323 3.01539C3.1992 3.12365 2.99991 3.32294 2.60132 3.72152L2.4831 3.83975C2.08588 4.23696 1.88727 4.43557 1.73559 4.7056C1.56727 5.00523 1.44625 5.47059 1.44727 5.81426C1.44819 6.12397 1.50827 6.33564 1.62843 6.75897C2.27415 9.03402 3.49251 11.1808 5.28349 12.9718C7.07448 14.7628 9.22125 15.9811 11.4963 16.6268C11.9196 16.747 12.1313 16.8071 12.441 16.808C12.7847 16.809 13.25 16.688 13.5497 16.5197C13.8197 16.368 14.0183 16.1694 14.4155 15.7722L14.5337 15.6539C14.9323 15.2554 15.1316 15.0561 15.2399 14.842C15.4552 14.4164 15.4552 13.9137 15.2399 13.488C15.1316 13.274 14.9323 13.0747 14.5337 12.6761L14.3876 12.5299C14.1254 12.2677 13.9943 12.1366 13.8625 12.0509C13.3653 11.7277 12.7244 11.7277 12.2272 12.0509C12.0954 12.1366 11.9643 12.2677 11.702 12.5299C11.6163 12.6157 11.5734 12.6585 11.5233 12.6944C11.3453 12.8219 11.0871 12.866 10.8768 12.8047C10.8176 12.7874 10.7709 12.765 10.6774 12.7201C9.59014 12.1981 8.57116 11.4865 7.66998 10.5853Z" stroke="#4D4114" stroke-width="1.5" stroke-linecap="round" stroke-linejoin="round"/>
</svg>
