<svg width="25" height="25" viewBox="0 0 25 25" fill="none" xmlns="http://www.w3.org/2000/svg">
<path d="M7 20.312H5.5C4.39543 20.312 3.5 19.4166 3.5 18.312V4.31201C3.5 3.20744 4.39543 2.31201 5.5 2.31201H19.5C20.6046 2.31201 21.5 3.20744 21.5 4.31201V18.312C21.5 19.4166 20.6046 20.312 19.5 20.312H18M12.5 19.312C14.1569 19.312 15.5 17.9689 15.5 16.312C15.5 14.6552 14.1569 13.312 12.5 13.312C10.8431 13.312 9.5 14.6552 9.5 16.312C9.5 17.9689 10.8431 19.312 12.5 19.312ZM12.5 19.312L12.5214 19.3118L9.32867 22.5046L6.50024 19.6761L9.51965 16.6567M12.5 19.312L15.6928 22.5046L18.5212 19.6761L15.5018 16.6567M9.5 6.31201H15.5M7.5 9.81201H17.5" stroke="#1D1D20" stroke-width="1.5" stroke-linecap="round" stroke-linejoin="round"/>
</svg>
