<svg width="24" height="25" viewBox="0 0 24 25" fill="none" xmlns="http://www.w3.org/2000/svg">
<path d="M16 6.08521V5.28521C16 4.1651 16 3.60505 15.782 3.17722C15.5903 2.8009 15.2843 2.49494 14.908 2.30319C14.4802 2.08521 13.9201 2.08521 12.8 2.08521H11.2C10.0799 2.08521 9.51984 2.08521 9.09202 2.30319C8.71569 2.49494 8.40973 2.8009 8.21799 3.17722C8 3.60505 8 4.1651 8 5.28521V6.08521M10 11.5852V16.5852M14 11.5852V16.5852M3 6.08521H21M19 6.08521V17.2852C19 18.9654 19 19.8054 18.673 20.4472C18.3854 21.0117 17.9265 21.4706 17.362 21.7582C16.7202 22.0852 15.8802 22.0852 14.2 22.0852H9.8C8.11984 22.0852 7.27976 22.0852 6.63803 21.7582C6.07354 21.4706 5.6146 21.0117 5.32698 20.4472C5 19.8054 5 18.9654 5 17.2852V6.08521" stroke="#D92D20" stroke-width="1.5" stroke-linecap="round" stroke-linejoin="round"/>
</svg>
