<svg width="17" height="17" viewBox="0 0 17 17" fill="none" xmlns="http://www.w3.org/2000/svg">
<path d="M7.83301 2.97867H5.03301C3.9129 2.97867 3.35285 2.97867 2.92503 3.19665C2.5487 3.3884 2.24274 3.69436 2.05099 4.07069C1.83301 4.49851 1.83301 5.05856 1.83301 6.17867V11.7787C1.83301 12.8988 1.83301 13.4588 2.05099 13.8866C2.24274 14.263 2.5487 14.5689 2.92503 14.7607C3.35285 14.9787 3.9129 14.9787 5.03301 14.9787H10.633C11.7531 14.9787 12.3132 14.9787 12.741 14.7607C13.1173 14.5689 13.4233 14.263 13.615 13.8866C13.833 13.4588 13.833 12.8988 13.833 11.7787V8.97867M5.83299 10.9787H6.94935C7.27547 10.9787 7.43853 10.9787 7.59198 10.9418C7.72803 10.9092 7.85809 10.8553 7.97739 10.7822C8.11194 10.6997 8.22724 10.5844 8.45785 10.3538L14.833 3.97867C15.3853 3.42638 15.3853 2.53095 14.833 1.97867C14.2807 1.42638 13.3853 1.42638 12.833 1.97867L6.45783 8.35383C6.22723 8.58443 6.11193 8.69973 6.02947 8.83429C5.95637 8.95358 5.90249 9.08364 5.86983 9.21969C5.83299 9.37314 5.83299 9.5362 5.83299 9.86232V10.9787Z" stroke="#1D1D20" stroke-linecap="round" stroke-linejoin="round"/>
</svg>
