<svg width="23" height="19" viewBox="0 0 23 19" fill="none" xmlns="http://www.w3.org/2000/svg">
<path d="M4.5 7.31202V13.3232C4.5 13.6821 4.5 13.8616 4.55465 14.0201C4.60299 14.1602 4.68187 14.2878 4.78558 14.3937C4.90287 14.5134 5.0634 14.5937 5.38446 14.7542L10.7845 17.4542C11.0468 17.5854 11.178 17.651 11.3156 17.6768C11.4375 17.6997 11.5625 17.6997 11.6844 17.6768C11.822 17.651 11.9532 17.5854 12.2155 17.4542L17.6155 14.7542C17.9366 14.5937 18.0971 14.5134 18.2144 14.3937C18.3181 14.2878 18.397 14.1602 18.4453 14.0201C18.5 13.8616 18.5 13.6821 18.5 13.3232V7.31202M1.5 5.81202L11.1422 0.990901C11.2734 0.92531 11.339 0.892515 11.4078 0.879607C11.4687 0.868175 11.5313 0.868175 11.5922 0.879607C11.661 0.892515 11.7266 0.92531 11.8578 0.990901L21.5 5.81202L11.8578 10.6331C11.7266 10.6987 11.661 10.7315 11.5922 10.7444C11.5313 10.7559 11.4687 10.7559 11.4078 10.7444C11.339 10.7315 11.2734 10.6987 11.1422 10.6331L1.5 5.81202Z" stroke="#1D1D20" stroke-width="1.5" stroke-linecap="round" stroke-linejoin="round"/>
</svg>
