<svg width="22" height="22" viewBox="0 0 22 22" fill="none" xmlns="http://www.w3.org/2000/svg">
<path d="M10.5962 21.291C16.119 21.291 20.5962 16.8139 20.5962 11.291C20.5962 5.76817 16.119 1.29102 10.5962 1.29102C5.07334 1.29102 0.596191 5.76817 0.596191 11.291C0.596191 16.8139 5.07334 21.291 10.5962 21.291Z" stroke="white" stroke-linecap="round" stroke-linejoin="round"/>
<path d="M12.4295 6.59102C12.4295 6.31099 12.4295 6.17098 12.375 6.06402C12.3271 5.96994 12.2506 5.89345 12.1565 5.84551C12.0496 5.79102 11.9096 5.79102 11.6295 5.79102H9.56286C9.28283 5.79102 9.14282 5.79102 9.03586 5.84551C8.94178 5.89345 8.86529 5.96994 8.81736 6.06402C8.76286 6.17098 8.76286 6.31099 8.76286 6.59102V8.65768C8.76286 8.93771 8.76286 9.07772 8.70836 9.18468C8.66042 9.27876 8.58393 9.35525 8.48985 9.40319C8.3829 9.45768 8.24288 9.45768 7.96286 9.45768H5.89619C5.61617 9.45768 5.47615 9.45768 5.3692 9.51218C5.27511 9.56012 5.19862 9.63661 5.15069 9.73069C5.09619 9.83764 5.09619 9.97766 5.09619 10.2577V12.3243C5.09619 12.6044 5.09619 12.7444 5.15069 12.8513C5.19862 12.9454 5.27511 13.0219 5.3692 13.0699C5.47615 13.1243 5.61617 13.1243 5.89619 13.1243H7.96286C8.24288 13.1243 8.3829 13.1243 8.48985 13.1788C8.58393 13.2268 8.66042 13.3033 8.70836 13.3974C8.76286 13.5043 8.76286 13.6443 8.76286 13.9243V15.991C8.76286 16.271 8.76286 16.4111 8.81736 16.518C8.86529 16.6121 8.94178 16.6886 9.03586 16.7365C9.14282 16.791 9.28283 16.791 9.56286 16.791H11.6295C11.9096 16.791 12.0496 16.791 12.1565 16.7365C12.2506 16.6886 12.3271 16.6121 12.375 16.518C12.4295 16.4111 12.4295 16.271 12.4295 15.991V13.9243C12.4295 13.6443 12.4295 13.5043 12.484 13.3974C12.532 13.3033 12.6084 13.2268 12.7025 13.1788C12.8095 13.1243 12.9495 13.1243 13.2295 13.1243H15.2962C15.5762 13.1243 15.7162 13.1243 15.8232 13.0699C15.9173 13.0219 15.9938 12.9454 16.0417 12.8513C16.0962 12.7444 16.0962 12.6044 16.0962 12.3243V10.2577C16.0962 9.97766 16.0962 9.83764 16.0417 9.73069C15.9938 9.63661 15.9173 9.56012 15.8232 9.51218C15.7162 9.45768 15.5762 9.45768 15.2962 9.45768H13.2295C12.9495 9.45768 12.8095 9.45768 12.7025 9.40319C12.6084 9.35525 12.532 9.27876 12.484 9.18468C12.4295 9.07772 12.4295 8.93771 12.4295 8.65768V6.59102Z" stroke="white" stroke-linecap="round" stroke-linejoin="round"/>
</svg>
