<svg width="25" height="25" viewBox="0 0 25 25" fill="none" xmlns="http://www.w3.org/2000/svg">
<path d="M16.5 7.31201C16.5 6.38204 16.5 5.91705 16.3978 5.53555C16.1204 4.50028 15.3117 3.69164 14.2765 3.41423C13.895 3.31201 13.43 3.31201 12.5 3.31201C11.57 3.31201 11.105 3.31201 10.7235 3.41423C9.68827 3.69164 8.87962 4.50028 8.60222 5.53555C8.5 5.91705 8.5 6.38204 8.5 7.31201M5.7 21.312H19.3C20.4201 21.312 20.9802 21.312 21.408 21.094C21.7843 20.9023 22.0903 20.5963 22.282 20.22C22.5 19.7922 22.5 19.2321 22.5 18.112V10.512C22.5 9.39191 22.5 8.83185 22.282 8.40403C22.0903 8.02771 21.7843 7.72175 21.408 7.53C20.9802 7.31201 20.4201 7.31201 19.3 7.31201H5.7C4.57989 7.31201 4.01984 7.31201 3.59202 7.53C3.21569 7.72175 2.90973 8.02771 2.71799 8.40403C2.5 8.83185 2.5 9.39191 2.5 10.512V18.112C2.5 19.2321 2.5 19.7922 2.71799 20.22C2.90973 20.5963 3.21569 20.9023 3.59202 21.094C4.01984 21.312 4.5799 21.312 5.7 21.312Z" stroke="#1D1D20" stroke-width="1.5" stroke-linecap="round" stroke-linejoin="round"/>
</svg>
