<svg width="57" height="57" viewBox="0 0 57 57" fill="none" xmlns="http://www.w3.org/2000/svg">
<path d="M51.4133 34.1381C54.3992 21.5323 46.6006 8.89268 33.9945 5.90666C21.3885 2.92064 8.74864 10.719 5.76269 23.3248C2.77673 35.9305 10.5754 48.5702 23.1814 51.5562C35.7875 54.5422 48.4273 46.7439 51.4133 34.1381Z" fill="#FFCE00"/>
<path d="M39.0515 35.3824H17.644C17.0109 35.3824 16.4971 34.8692 16.4971 34.235C16.4971 33.602 17.0109 33.0876 17.644 33.0876H39.0515C39.6851 33.0876 40.1984 33.6015 40.1984 34.235C40.1984 34.8692 39.6851 35.3824 39.0515 35.3824Z" fill="#562912"/>
<path d="M40.6206 24.1139C40.6206 25.4808 39.5122 26.5897 38.1443 26.5897C36.7768 26.5897 35.6679 25.4808 35.6679 24.1139C35.6679 22.7465 36.7763 21.6376 38.1443 21.6376C39.5122 21.6376 40.6206 22.7465 40.6206 24.1139Z" fill="#562912"/>
<path d="M21.0266 24.1139C21.0266 25.4808 19.9176 26.5897 18.5502 26.5897C17.1828 26.5897 16.0739 25.4808 16.0739 24.1139C16.0739 22.7465 17.1828 21.6376 18.5502 21.6376C19.9176 21.6376 21.0266 22.7465 21.0266 24.1139Z" fill="#562912"/>
</svg>
