<svg width="25" height="25" viewBox="0 0 25 25" fill="none" xmlns="http://www.w3.org/2000/svg">
<path fill-rule="evenodd" clip-rule="evenodd" d="M12.5 14.75C12.9142 14.75 13.25 15.0858 13.25 15.5V18.5C13.25 18.9142 12.9142 19.25 12.5 19.25C12.0858 19.25 11.75 18.9142 11.75 18.5V15.5C11.75 15.0858 12.0858 14.75 12.5 14.75Z" fill="#A6A5AA"/>
<path fill-rule="evenodd" clip-rule="evenodd" d="M14.8993 2.74467C14.8996 2.7449 14.8999 2.74513 14.9002 2.74536L21.8307 8.28578C22.3443 8.69936 22.7292 9.30505 22.9648 9.92261C23.2005 10.5404 23.3169 11.2489 23.2105 11.9008L23.21 11.9035L21.88 19.8635L21.8797 19.8658C21.5785 21.635 19.8972 23.0599 18.1003 23.0599H6.9003C5.0941 23.0599 3.42174 21.6456 3.12079 19.8649L1.79134 11.9081C1.79119 11.9073 1.79105 11.9065 1.7909 11.9056C1.67808 11.2518 1.79221 10.5415 2.02832 9.92261C2.26457 9.30335 2.65288 8.69722 3.17239 8.28381C3.1728 8.28348 3.17321 8.28316 3.17362 8.28283L10.1011 2.73483C11.4365 1.66433 13.5564 1.66609 14.8993 2.74467ZM13.9604 3.91453C13.1634 3.2739 11.8239 3.27609 11.0395 3.90506L4.10699 9.45707C3.84711 9.66364 3.59584 10.022 3.42978 10.4573C3.26369 10.8926 3.21281 11.3263 3.26926 11.6518L3.27006 11.6563L4.59981 19.615C4.59978 19.6148 4.59984 19.6151 4.59981 19.615C4.77913 20.6741 5.82669 21.5599 6.9003 21.5599H18.1003C19.163 21.5599 20.2213 20.6655 20.4007 19.6152C20.4008 19.6148 20.4009 19.6145 20.4009 19.6141L21.7301 11.6591C21.7302 11.6586 21.7302 11.6582 21.7303 11.6577C21.7835 11.3298 21.7299 10.8939 21.5633 10.4573C21.3966 10.0203 21.1469 9.66137 20.8908 9.45483C20.8905 9.45459 20.8902 9.45435 20.8899 9.45412L13.962 3.91576L13.9604 3.91453Z" fill="#A6A5AA"/>
</svg>
