<svg width="48" height="48" viewBox="0 0 48 48" fill="none" xmlns="http://www.w3.org/2000/svg">
<path d="M47.7318 23.7317C47.7318 36.6864 37.2302 47.1875 24.2756 47.1875C11.3209 47.1875 0.819824 36.6864 0.819824 23.7317C0.819824 10.7765 11.3209 0.275452 24.2756 0.275452C37.2302 0.275452 47.7318 10.7765 47.7318 23.7317Z" fill="#FFCE00"/>
<path d="M38.6253 10.2779C34.7994 2.98429 27.7205 8.15597 28.96 13.6073C29.9388 17.8901 34.639 23.968 34.639 23.968C35.3165 23.7301 41.8664 21.3664 44.991 18.2771C48.9654 14.3466 45.7731 6.18149 38.6253 10.2779Z" fill="#CC342F"/>
<path d="M9.92476 10.2779C13.7518 2.98429 20.8307 8.15597 19.5895 13.6073C18.6129 17.8901 13.9111 23.968 13.9111 23.968C13.2336 23.7301 6.68364 21.3664 3.55961 18.2771C-0.414265 14.3466 2.77807 6.18149 9.92476 10.2779Z" fill="#CC342F"/>
<path d="M15.711 28.4443C15.1241 28.2503 14.5723 28.886 14.743 29.5652C15.7512 33.571 19.6318 36.5568 24.2756 36.5568C28.9204 36.5568 32.8011 33.571 33.8081 29.5652C33.9794 28.886 33.4271 28.2497 32.8401 28.4443C30.2651 29.2985 27.3563 29.7792 24.2756 29.7792C21.196 29.7792 18.2871 29.2985 15.711 28.4443Z" fill="#562912"/>
<path d="M24.275 32.4838C22.2328 32.4838 20.4762 33.7266 19.7039 35.5048C21.0686 36.1736 22.623 36.5574 24.275 36.5574C25.9292 36.5574 27.4825 36.1736 28.8461 35.5048C28.0733 33.7266 26.3194 32.4838 24.275 32.4838Z" fill="#CC342F"/>
</svg>
