<svg width="29" height="29" viewBox="0 0 29 29" fill="none" xmlns="http://www.w3.org/2000/svg">
<path d="M16.5862 3.2245L25.6198 9.09636C25.939 9.30384 26.0986 9.40759 26.2142 9.54597C26.3166 9.66846 26.3935 9.81015 26.4404 9.96273C26.4934 10.1351 26.4934 10.3255 26.4934 10.7062V19.5042C26.4934 21.5204 26.4934 22.5285 26.101 23.2986C25.7559 23.976 25.2052 24.5267 24.5278 24.8718C23.7577 25.2642 22.7496 25.2642 20.7334 25.2642H8.25341C6.23722 25.2642 5.22912 25.2642 4.45904 24.8718C3.78166 24.5267 3.23093 23.976 2.88578 23.2986C2.49341 22.5285 2.49341 21.5204 2.49341 19.5042V10.7062C2.49341 10.3255 2.49341 10.1351 2.54641 9.96273C2.59333 9.81015 2.67022 9.66846 2.77259 9.54597C2.88822 9.40759 3.04782 9.30384 3.36703 9.09636L12.4007 3.22451M16.5862 3.2245C15.8287 2.73213 15.4499 2.48595 15.0418 2.39016C14.6811 2.30549 14.3057 2.30549 13.945 2.39016C13.5369 2.48595 13.1581 2.73213 12.4007 3.22451M16.5862 3.2245L24.0168 8.0544C24.8422 8.59092 25.2549 8.85918 25.3978 9.19938C25.5228 9.49668 25.5228 9.83175 25.3978 10.129C25.2549 10.4692 24.8422 10.7375 24.0168 11.274L16.5862 16.1039C15.8287 16.5963 15.4499 16.8425 15.0418 16.9383C14.6811 17.0229 14.3057 17.0229 13.945 16.9383C13.5369 16.8425 13.1581 16.5963 12.4007 16.1039L4.97004 11.274C4.14462 10.7375 3.73192 10.4692 3.58898 10.129C3.46406 9.83175 3.46406 9.49668 3.58898 9.19938C3.73192 8.85918 4.14462 8.59092 4.97004 8.0544L12.4007 3.22451M25.8934 22.8642L17.922 15.6642M11.0648 15.6642L3.09341 22.8642" stroke="#1D1D20" stroke-width="1.5" stroke-linecap="round" stroke-linejoin="round"/>
</svg>
