<svg width="14" height="14" viewBox="0 0 14 14" fill="none" xmlns="http://www.w3.org/2000/svg">
<path fill-rule="evenodd" clip-rule="evenodd" d="M5.83317 3.5C3.25584 3.5 1.1665 5.58934 1.1665 8.16667C1.1665 10.744 3.25584 12.8333 5.83317 12.8333C8.4105 12.8333 10.4998 10.744 10.4998 8.16667C10.4998 5.58934 8.4105 3.5 5.83317 3.5ZM0.166504 8.16667C0.166504 5.03705 2.70356 2.5 5.83317 2.5C8.96278 2.5 11.4998 5.03705 11.4998 8.16667C11.4998 11.2963 8.96278 13.8333 5.83317 13.8333C2.70356 13.8333 0.166504 11.2963 0.166504 8.16667Z" fill="#C6AC41"/>
<path fill-rule="evenodd" clip-rule="evenodd" d="M13.6867 0.313134C13.882 0.508396 13.882 0.824978 13.6867 1.02024L10.0201 4.68691C9.8248 4.88217 9.50821 4.88217 9.31295 4.68691C9.11769 4.49164 9.11769 4.17506 9.31295 3.9798L12.9796 0.313134C13.1749 0.117871 13.4915 0.117871 13.6867 0.313134Z" fill="#C6AC41"/>
<path fill-rule="evenodd" clip-rule="evenodd" d="M8.5 0.666687C8.5 0.390545 8.72386 0.166687 9 0.166687H13.3333C13.6095 0.166687 13.8333 0.390545 13.8333 0.666687V5.00002C13.8333 5.27616 13.6095 5.50002 13.3333 5.50002C13.0572 5.50002 12.8333 5.27616 12.8333 5.00002V1.16669H9C8.72386 1.16669 8.5 0.942829 8.5 0.666687Z" fill="#C6AC41"/>
</svg>
