<svg width="19" height="22" viewBox="0 0 19 22" fill="none" xmlns="http://www.w3.org/2000/svg">
<path fill-rule="evenodd" clip-rule="evenodd" d="M9.50037 6.93994C8.19146 6.93994 7.13037 8.00103 7.13037 9.30994C7.13037 10.6189 8.19146 11.6799 9.50037 11.6799C10.8093 11.6799 11.8704 10.6189 11.8704 9.30994C11.8704 8.00103 10.8093 6.93994 9.50037 6.93994ZM5.63037 9.30994C5.63037 7.1726 7.36303 5.43994 9.50037 5.43994C11.6377 5.43994 13.3704 7.1726 13.3704 9.30994C13.3704 11.4473 11.6377 13.1799 9.50037 13.1799C7.36303 13.1799 5.63037 11.4473 5.63037 9.30994Z" fill="#A6A5AA"/>
<path fill-rule="evenodd" clip-rule="evenodd" d="M9.50345 1.75C6.08671 1.74769 2.74485 3.73032 1.85162 7.65591C0.794562 12.3261 3.68829 16.3762 6.41039 18.9997C8.1409 20.661 10.8609 20.659 12.5794 19.0004L12.5807 18.999C15.3127 16.3756 18.2059 12.3354 17.1487 7.6656L17.1487 7.66556C16.2602 3.73971 12.9204 1.75231 9.50345 1.75ZM18.6117 7.33441C17.5402 2.60029 13.485 0.252693 9.50446 0.250002C5.52383 0.247312 1.46581 2.58953 0.388886 7.32364L0.388711 7.32441C-0.853991 12.8139 2.57199 17.3836 5.36975 20.08L5.37069 20.0809C7.68009 22.2989 11.3193 22.3008 13.6207 20.08C16.4285 17.3834 19.8544 12.8239 18.6117 7.33441Z" fill="#A6A5AA"/>
</svg>
