<svg width="22" height="16" viewBox="0 0 22 16" fill="none" xmlns="http://www.w3.org/2000/svg">
<path d="M5 6.18799V10.188M17 6.18799V10.188M1 4.38799L1 11.988C1 13.1081 1 13.6681 1.21799 14.096C1.40973 14.4723 1.71569 14.7783 2.09202 14.97C2.51984 15.188 3.07989 15.188 4.2 15.188L17.8 15.188C18.9201 15.188 19.4802 15.188 19.908 14.97C20.2843 14.7783 20.5903 14.4723 20.782 14.096C21 13.6681 21 13.1081 21 11.988V4.38799C21 3.26788 21 2.70783 20.782 2.28001C20.5903 1.90368 20.2843 1.59772 19.908 1.40598C19.4802 1.18799 18.9201 1.18799 17.8 1.18799L4.2 1.18799C3.0799 1.18799 2.51984 1.18799 2.09202 1.40598C1.7157 1.59772 1.40973 1.90368 1.21799 2.28001C1 2.70783 1 3.26788 1 4.38799ZM13.5 8.18799C13.5 9.5687 12.3807 10.688 11 10.688C9.61929 10.688 8.5 9.5687 8.5 8.18799C8.5 6.80728 9.61929 5.68799 11 5.68799C12.3807 5.68799 13.5 6.80728 13.5 8.18799Z" stroke="#3C3B41" stroke-width="1.5" stroke-linecap="round" stroke-linejoin="round"/>
</svg>
