<svg width="21" height="6" viewBox="0 0 21 6" fill="none" xmlns="http://www.w3.org/2000/svg">
<path fill-rule="evenodd" clip-rule="evenodd" d="M0.75 3C0.75 1.48579 1.98579 0.25 3.5 0.25C5.01421 0.25 6.25 1.48579 6.25 3C6.25 4.51421 5.01421 5.75 3.5 5.75C1.98579 5.75 0.75 4.51421 0.75 3ZM3.5 1.75C2.81421 1.75 2.25 2.31421 2.25 3C2.25 3.68579 2.81421 4.25 3.5 4.25C4.18579 4.25 4.75 3.68579 4.75 3C4.75 2.31421 4.18579 1.75 3.5 1.75Z" fill="#1D1D20"/>
<path fill-rule="evenodd" clip-rule="evenodd" d="M14.75 3C14.75 1.48579 15.9858 0.25 17.5 0.25C19.0142 0.25 20.25 1.48579 20.25 3C20.25 4.51421 19.0142 5.75 17.5 5.75C15.9858 5.75 14.75 4.51421 14.75 3ZM17.5 1.75C16.8142 1.75 16.25 2.31421 16.25 3C16.25 3.68579 16.8142 4.25 17.5 4.25C18.1858 4.25 18.75 3.68579 18.75 3C18.75 2.31421 18.1858 1.75 17.5 1.75Z" fill="#1D1D20"/>
<path fill-rule="evenodd" clip-rule="evenodd" d="M7.75 3C7.75 1.48579 8.98579 0.25 10.5 0.25C12.0142 0.25 13.25 1.48579 13.25 3C13.25 4.51421 12.0142 5.75 10.5 5.75C8.98579 5.75 7.75 4.51421 7.75 3ZM10.5 1.75C9.81421 1.75 9.25 2.31421 9.25 3C9.25 3.68579 9.81421 4.25 10.5 4.25C11.1858 4.25 11.75 3.68579 11.75 3C11.75 2.31421 11.1858 1.75 10.5 1.75Z" fill="#1D1D20"/>
</svg>
