<svg width="19" height="22" viewBox="0 0 19 22" fill="none" xmlns="http://www.w3.org/2000/svg">
<path fill-rule="evenodd" clip-rule="evenodd" d="M3.30178 7.01984C2.93018 7.4623 2.79839 8.11622 2.68518 9.11451L2.68463 9.11936L1.78444 16.6208C1.64301 17.7805 1.7776 18.6639 2.20198 19.2453C2.60042 19.7912 3.39085 20.25 5.00995 20.25H14C15.613 20.25 16.4016 19.7918 16.8004 19.2453C17.2256 18.6629 17.3619 17.7784 17.2252 16.6184C17.2252 16.6182 17.2252 16.6185 17.2252 16.6184L16.3252 9.1183C16.2067 8.11887 16.0734 7.46414 15.6999 7.0205C15.3667 6.62466 14.7 6.25 13.1 6.25H5.89995C4.29955 6.25 3.63354 6.62481 3.30178 7.01984ZM2.15313 6.05516C2.89637 5.17019 4.10035 4.75 5.89995 4.75H13.1C14.8999 4.75 16.1032 5.17034 16.8475 6.0545C17.5513 6.8906 17.7031 8.00045 17.8146 8.94084C17.8146 8.94056 17.8147 8.94113 17.8146 8.94084L18.7148 16.4422C18.868 17.7419 18.7693 19.0922 18.012 20.1297C17.2284 21.2032 15.8869 21.75 14 21.75H5.00995C3.11905 21.75 1.77448 21.2038 0.990419 20.1297C0.232452 19.0913 0.136929 17.74 0.295376 16.44C0.295345 16.4402 0.295406 16.4397 0.295376 16.44L1.19501 8.94306C1.30178 8.00186 1.45034 6.89197 2.15313 6.05516Z" fill="#3C3B41"/>
<path fill-rule="evenodd" clip-rule="evenodd" d="M6.71783 2.21783C6.43991 2.49575 6.25 2.92044 6.25 3.5V7C6.25 7.41421 5.91421 7.75 5.5 7.75C5.08579 7.75 4.75 7.41421 4.75 7V3.5C4.75 2.57956 5.06009 1.75425 5.65717 1.15717C6.25425 0.560086 7.07956 0.25 8 0.25H11C11.9204 0.25 12.7457 0.560086 13.3428 1.15717C13.9399 1.75425 14.25 2.57956 14.25 3.5V7C14.25 7.41421 13.9142 7.75 13.5 7.75C13.0858 7.75 12.75 7.41421 12.75 7V3.5C12.75 2.92044 12.5601 2.49575 12.2822 2.21783C12.0043 1.93991 11.5796 1.75 11 1.75H8C7.42044 1.75 6.99575 1.93991 6.71783 2.21783Z" fill="#3C3B41"/>
<path fill-rule="evenodd" clip-rule="evenodd" d="M4.75 16.0298C4.75 15.6156 5.08579 15.2798 5.5 15.2798H17.91C18.3242 15.2798 18.66 15.6156 18.66 16.0298C18.66 16.444 18.3242 16.7798 17.91 16.7798H5.5C5.08579 16.7798 4.75 16.444 4.75 16.0298Z" fill="#3C3B41"/>
</svg>
