<svg width="18" height="19" viewBox="0 0 18 19" fill="none" xmlns="http://www.w3.org/2000/svg">
<path d="M2.56009 8.24635C2.11358 8.07271 1.89033 7.98588 1.82515 7.86078C1.76864 7.75233 1.76857 7.62315 1.82494 7.51463C1.88997 7.38945 2.11313 7.30237 2.55943 7.1282L15.2252 2.18544C15.6281 2.02822 15.8296 1.94961 15.9583 1.99261C16.0701 2.02995 16.1578 2.11768 16.1951 2.22947C16.2381 2.35819 16.1595 2.55963 16.0023 2.96252L11.0596 15.6283C10.8854 16.0746 10.7983 16.2978 10.6731 16.3628C10.5646 16.4192 10.4354 16.4191 10.327 16.3626C10.2019 16.2974 10.1151 16.0742 9.94141 15.6277L7.97033 10.5592C7.93508 10.4685 7.91746 10.4232 7.89024 10.3851C7.86611 10.3512 7.83653 10.3216 7.80271 10.2975C7.76455 10.2703 7.71923 10.2527 7.62859 10.2174L2.56009 8.24635Z" stroke="#4D4114" stroke-width="1.5" stroke-linecap="round" stroke-linejoin="round"/>
</svg>
