<svg width="16" height="16" viewBox="0 0 16 16" fill="none" xmlns="http://www.w3.org/2000/svg">
<path d="M10.5869 12.0099C10.8728 13.0768 10.2397 14.1735 9.17273 14.4593C8.1058 14.7452 7.00912 14.1121 6.72324 13.0451M1.52755 7.7422C1.26789 6.81008 1.53792 5.80232 2.22885 5.12492M8.25387 3.82723C8.45668 3.46237 8.52348 3.02137 8.40691 2.5863C8.16867 1.69719 7.25478 1.16955 6.36567 1.40779C5.47656 1.64603 4.94892 2.55992 5.18716 3.44903C5.30373 3.8841 5.58209 4.23261 5.94015 4.44719M13.7023 4.48C13.4612 3.54293 12.7234 2.8052 11.7864 2.56401M11.8168 6.29685C11.5788 5.40877 10.9435 4.66612 10.0507 4.2323C9.15781 3.79848 8.08053 3.70902 7.05581 3.98359C6.03109 4.25816 5.14287 4.87428 4.58655 5.6964C4.03023 6.51853 3.85138 7.47932 4.08935 8.36741C4.48306 9.83677 4.40661 11.009 4.15798 11.8998C3.8746 12.915 3.73291 13.4226 3.77119 13.5246C3.81498 13.6412 3.84666 13.6732 3.96282 13.7182C4.06434 13.7575 4.49086 13.6433 5.34389 13.4147L13.2539 11.2952C14.107 11.0666 14.5335 10.9523 14.6017 10.8675C14.6798 10.7705 14.6913 10.7269 14.6709 10.604C14.6531 10.4966 14.2765 10.1278 13.5235 9.3903C12.8628 8.74319 12.2105 7.76622 11.8168 6.29685Z" stroke="#3C3B41" stroke-linecap="round" stroke-linejoin="round"/>
</svg>
