<svg width="19" height="22" viewBox="0 0 19 22" fill="none" xmlns="http://www.w3.org/2000/svg">
<path d="M11.4983 20.394H7.49831M15.4983 7.39398C15.4983 5.80268 14.8662 4.27656 13.741 3.15134C12.6157 2.02612 11.0896 1.39398 9.49831 1.39398C7.90701 1.39398 6.38089 2.02612 5.25567 3.15134C4.13045 4.27656 3.49831 5.80268 3.49831 7.39398C3.49831 10.4842 2.71878 12.5999 1.84797 13.9994C1.11344 15.1799 0.746168 15.7701 0.759635 15.9347C0.774546 16.1171 0.81317 16.1866 0.960086 16.2956C1.09277 16.394 1.6909 16.394 2.88716 16.394H16.1095C17.3057 16.394 17.9039 16.394 18.0365 16.2956C18.1834 16.1866 18.2221 16.1171 18.237 15.9347C18.2505 15.7701 17.8832 15.1799 17.1486 13.9994C16.2778 12.5999 15.4983 10.4842 15.4983 7.39398Z" stroke="#221248" stroke-width="1.5" stroke-linecap="round" stroke-linejoin="round"/>
</svg>
