<svg width="83" height="115" viewBox="0 0 83 115" fill="none" xmlns="http://www.w3.org/2000/svg">
    <path d="M82.1088 35.4798C81.8265 33.056 80.9888 30.73 79.6609 28.6828C79.4975 28.4499 79.3606 28.1995 79.2529 27.9362C79.105 27.5256 78.8723 27.1507 78.5701 26.8358C78.2679 26.5209 77.9028 26.2731 77.4986 26.1084C75.7769 25.4108 74.0062 24.807 72.2927 24.1256C66.7197 21.9307 61.983 20.2008 58.0133 15.558C54.0436 10.9152 50.8695 6.69661 45.1863 4.22016C40.7679 2.29448 36.2107 0.895096 31.3639 0.54831C22.0782 -0.0636638 14.5591 6.58646 9.30424 13.5262C3.71347 20.9166 0.703484 29.9379 0.736598 39.2047C0.781477 44.1658 2.39709 49.5103 3.92703 54.2021C9.20632 70.3827 14.5591 86.5307 19.7853 102.728C20.7427 105.69 21.6947 108.652 22.6412 111.613L23.1104 113.046C23.8529 115.191 25.5175 115.179 26.2355 113.001C32.5674 93.8989 38.6872 74.7237 44.8355 55.5607C45.2802 54.1777 45.7901 52.7048 46.9611 51.8399C48.0667 51.0239 49.5313 50.9342 50.9022 50.926C55.2921 50.8934 59.6779 51.3789 64.0596 51.2116C68.4414 51.0443 72.9414 50.159 76.5602 47.6703C78.5314 46.3595 80.096 44.5226 81.0767 42.368C82.0574 40.2134 82.4149 37.8272 82.1088 35.4798Z" fill="#C6AC41"/>
    <path d="M38.5938 50.6649C38.1858 51.2728 35.7053 54.7733 35.2891 55.3159C33.1187 58.1514 30.2709 59.7793 26.6725 59.9017C23.2496 60.02 20.1774 58.8899 17.3828 56.9805C14.3025 54.8753 12.1157 52.0113 10.5531 48.6658C8.15702 43.4889 7.22437 37.7548 7.85636 32.0854C8.18274 28.8215 8.98647 25.6556 10.7122 22.8242C12.0667 20.6211 13.5028 18.4588 14.9471 16.2964C16.3634 14.1229 18.0435 12.1331 19.949 10.3725C21.5361 8.90989 23.4112 7.79476 25.4542 7.09855C27.4972 6.40233 29.6631 6.14037 31.8131 6.32943C35.6318 6.59054 39.2343 7.69617 42.7185 9.21387C45.1931 10.2205 47.4202 11.7516 49.2462 13.7017C50.3886 14.9705 51.4208 16.3454 52.4407 17.7162C53.9584 19.7561 55.7291 21.4819 58.0872 22.4937C60.0741 23.3464 62.0936 24.1256 64.1049 24.9212C65.4676 25.4557 66.8548 25.933 68.2093 26.4838C68.5424 26.618 68.842 26.824 69.0866 27.087C69.3313 27.35 69.5151 27.6636 69.625 28.0056C69.6532 28.0967 69.6944 28.1832 69.7474 28.2626C70.8707 29.9447 71.5706 31.8735 71.7873 33.8846C72.3829 38.1603 70.8367 41.4445 67.1485 43.7007C65.0814 44.8969 62.8049 45.6876 60.4413 46.0302C57.4223 46.5227 54.3535 46.6351 51.3065 46.3648C49.0055 46.1853 46.7086 46.1322 44.4361 46.6381C41.9474 47.1971 39.9116 48.4333 38.5734 50.6608" fill="#6941C6"/>
    <path d="M38.5938 50.6649C38.1858 51.2728 35.7053 54.7733 35.2891 55.3159C33.1187 58.1514 30.2709 59.7793 26.6725 59.9017C23.2496 60.02 20.1774 58.8899 17.3828 56.9805C14.3025 54.8753 12.1157 52.0113 10.5531 48.6658C8.15702 43.489 7.22437 37.7548 7.85636 32.0854C8.18274 28.8215 8.98647 25.6556 10.7122 22.8242C12.0667 20.6211 13.5028 18.4588 14.9471 16.2964C16.3634 14.1229 18.0435 12.1331 19.949 10.3725C21.5362 8.90989 23.4112 7.79476 25.4542 7.09855C27.4972 6.40233 29.6631 6.14037 31.8131 6.32943C35.6318 6.59054 39.2343 7.69617 42.7185 9.21387C45.1931 10.2205 47.4202 11.7516 49.2462 13.7017C50.3886 14.9705 51.4208 16.3454 52.4407 17.7162C53.9584 19.7561 55.7291 21.4819 58.0872 22.4937C60.0741 23.3464 62.0936 24.1256 64.105 24.9212C65.4676 25.4557 66.8548 25.933 68.2093 26.4838C68.5424 26.618 68.842 26.824 69.0866 27.087C69.3313 27.35 69.5151 27.6636 69.625 28.0056C69.6532 28.0967 69.6944 28.1832 69.7474 28.2626C70.8707 29.9447 71.5706 31.8735 71.7873 33.8846C72.3829 38.1603 70.8367 41.4445 67.1485 43.7007C65.0814 44.8969 62.8049 45.6876 60.4413 46.0302C57.4223 46.5227 54.3535 46.6351 51.3065 46.3648C49.0055 46.1853 46.7086 46.1322 44.4361 46.6381C41.9474 47.1971 39.9116 48.4333 38.5734 50.6608" stroke="white" stroke-miterlimit="10"/>
    <path d="M36.3659 54.0185C35.9579 54.6346 35.5825 55.2425 35.1419 55.7769C32.9388 58.6328 30.0503 60.3056 26.4029 60.428C22.931 60.5463 19.8181 59.3998 16.9826 57.466C13.8615 55.3322 11.6421 52.4274 10.0469 49.033C7.62625 43.781 6.69074 37.9662 7.34197 32.22C7.67244 28.895 8.4884 25.6923 10.255 22.8364C11.6299 20.6007 13.0823 18.4098 14.551 16.2312C15.9862 14.0246 17.6896 12.0046 19.6223 10.2175C21.2334 8.73773 23.1357 7.61052 25.2074 6.908C27.2792 6.20548 29.4747 5.94311 31.6537 6.13768C35.5254 6.40286 39.1769 7.52482 42.71 9.06291C45.2152 10.0745 47.4725 11.615 49.3275 13.5793C50.4862 14.8644 51.5347 16.2597 52.5669 17.6591C54.105 19.7235 55.9001 21.4738 58.2786 22.5019C60.2941 23.3668 62.3585 24.1583 64.3984 24.9498C65.7814 25.4965 67.1849 25.9779 68.5639 26.5368C68.9004 26.6741 69.203 26.8833 69.4503 27.1497C69.6976 27.416 69.8838 27.7332 69.9959 28.079C70.0272 28.1709 70.0697 28.2586 70.1224 28.3401C71.2646 30.0486 71.9758 32.0084 72.1949 34.0519C72.7824 38.3928 71.228 41.7301 67.4786 44.0107C65.3819 45.2254 63.0719 46.0273 60.6735 46.3729C57.6127 46.8723 54.5016 46.9875 51.4123 46.7156C49.0786 46.5321 46.749 46.4749 44.4439 46.9931C41.9226 47.5561 39.8623 48.8045 38.5037 51.0729M39.7276 48.3721C41.4657 46.8299 43.5994 46.2057 45.8474 45.9242C47.973 45.6467 50.0904 45.8099 52.2119 45.9446C55.3741 46.1881 58.5548 45.9862 61.6608 45.3448C64.1985 44.79 66.5974 43.9128 68.5965 42.1789C70.7058 40.347 71.5911 37.9971 71.4524 35.2432C71.3868 34.036 71.1576 32.8433 70.7711 31.6978C70.8121 32.4438 70.8121 33.1916 70.7711 33.9376C70.7002 34.6105 70.5297 35.2691 70.2652 35.8919C70.1024 36.2621 69.8189 36.5662 69.461 36.7544C69.1031 36.9426 68.6919 37.0039 68.2946 36.9281C66.7892 36.7527 65.5938 35.9245 64.5289 34.9331C64.0162 34.4699 63.6056 33.905 63.3234 33.2744C63.0411 32.6437 62.8933 31.9612 62.8895 31.2703C62.8856 30.5793 63.0258 29.8952 63.3011 29.2614C63.5763 28.6277 63.9806 28.0582 64.4881 27.5894C65.0156 27.1704 65.5811 26.8016 66.1772 26.4879C65.0552 26.0799 63.8476 25.6719 62.6604 25.2109C61.11 24.603 59.5638 23.9869 58.0379 23.3056C55.382 22.1551 53.4032 20.209 51.7142 17.9039C50.7406 16.5521 49.6961 15.2529 48.585 14.0117C46.9716 12.3108 45.028 10.9573 42.8732 10.0339C39.3936 8.37389 35.6503 7.33556 31.8128 6.96588C26.917 6.5579 22.7596 8.18983 19.3081 11.6618C17.3132 13.7732 15.5363 16.0805 14.0043 18.5485C12.9558 20.156 11.8869 21.7512 10.9037 23.3954C9.27173 26.1166 8.52104 29.1071 8.19058 32.2486C7.67862 36.9078 8.21673 41.6225 9.76539 46.0466C11.1199 49.9142 13.1761 53.3372 16.3992 55.9565C19.0348 58.0943 22.0294 59.4202 25.4483 59.5834C29.4465 59.7711 32.5635 58.0821 34.8319 54.8386C36.8961 51.8475 37.8553 48.2314 37.5449 44.6105C37.4589 42.4048 36.8009 40.2593 35.6356 38.3846C35.0209 37.4445 34.3069 36.5732 33.5059 35.7858C30.1092 32.4489 27.6196 28.301 26.2724 23.734C25.7515 21.9857 25.438 20.1823 25.3381 18.3608C25.3381 18.2099 25.3381 18.0589 25.3381 17.9039C25.3381 17.6224 25.4727 17.4388 25.7461 17.447C26.0194 17.4551 26.1541 17.6591 26.1541 17.9284C26.1541 18.1201 26.1541 18.3364 26.1785 18.5077C26.614 24.0369 28.8217 29.2779 32.4737 33.4521C33.1918 34.2966 33.9955 35.0841 34.7625 35.8755C36.4084 37.6292 37.5379 39.8035 38.0264 42.1585C38.6247 44.8987 38.542 47.7438 37.7857 50.4446C37.7857 50.4813 37.7857 50.5221 37.7857 50.4813C38.399 49.7426 39.0499 49.0359 39.7358 48.3639L39.7276 48.3721ZM69.4818 29.3968C69.3993 29.0177 69.232 28.6623 68.9925 28.357C68.753 28.0518 68.4476 27.8048 68.099 27.6344C67.7505 27.4641 67.3679 27.3749 66.9799 27.3734C66.592 27.372 66.2088 27.4584 65.8589 27.6261C63.9945 28.5319 63.1459 31.1348 64.1373 33.0441C64.9532 34.6312 66.3567 35.5369 68.009 36.0469C68.8821 36.3162 69.4084 35.9898 69.7185 35.1167C70.0653 34.1498 69.9959 33.1461 69.9388 32.1466C69.9184 31.8039 69.8449 31.4612 69.796 31.1144H69.8368C69.7266 30.531 69.6124 29.9598 69.49 29.3886L69.4818 29.3968Z" fill="white"/>
    <path d="M36.3659 54.0185C35.9579 54.6346 35.5825 55.2425 35.1419 55.7769C32.9388 58.6328 30.0503 60.3056 26.4029 60.428C22.931 60.5463 19.8181 59.3998 16.9826 57.466C13.8615 55.3323 11.6421 52.4274 10.0469 49.033C7.62625 43.781 6.69074 37.9662 7.34197 32.22C7.67244 28.895 8.4884 25.6923 10.255 22.8364C11.6299 20.6007 13.0823 18.4098 14.551 16.2312C15.9862 14.0246 17.6896 12.0046 19.6223 10.2175C21.2334 8.73773 23.1357 7.61052 25.2074 6.908C27.2792 6.20548 29.4747 5.94311 31.6537 6.13768C35.5254 6.40286 39.1769 7.52482 42.71 9.06291C45.2152 10.0745 47.4725 11.615 49.3275 13.5793C50.4862 14.8644 51.5347 16.2597 52.5669 17.6591C54.105 19.7235 55.9001 21.4738 58.2786 22.5019C60.2941 23.3668 62.3585 24.1583 64.3984 24.9498C65.7814 25.4965 67.1849 25.9779 68.5639 26.5368C68.9004 26.6741 69.203 26.8833 69.4503 27.1497C69.6976 27.416 69.8838 27.7332 69.9959 28.079C70.0272 28.1709 70.0697 28.2586 70.1224 28.3401C71.2646 30.0486 71.9758 32.0084 72.1949 34.0519C72.7824 38.3928 71.228 41.7301 67.4786 44.0107C65.3819 45.2254 63.0719 46.0273 60.6735 46.3729C57.6127 46.8723 54.5016 46.9875 51.4123 46.7156C49.0786 46.5321 46.749 46.4749 44.4439 46.9931C41.9226 47.5561 39.8623 48.8045 38.5037 51.0729M39.7276 48.3721C41.4657 46.8299 43.5994 46.2057 45.8474 45.9242C47.973 45.6467 50.0904 45.8099 52.2119 45.9446C55.3741 46.1881 58.5548 45.9862 61.6608 45.3448C64.1985 44.79 66.5974 43.9128 68.5965 42.1789C70.7058 40.347 71.5911 37.9971 71.4524 35.2432C71.3868 34.036 71.1576 32.8433 70.7711 31.6978C70.8121 32.4438 70.8121 33.1916 70.7711 33.9376C70.7002 34.6105 70.5297 35.2691 70.2652 35.8919C70.1024 36.2621 69.8189 36.5662 69.461 36.7544C69.1031 36.9426 68.6919 37.0039 68.2946 36.9281C66.7892 36.7527 65.5938 35.9245 64.5289 34.9331C64.0162 34.4699 63.6056 33.905 63.3234 33.2744C63.0411 32.6437 62.8933 31.9612 62.8895 31.2703C62.8856 30.5793 63.0258 29.8952 63.3011 29.2614C63.5763 28.6277 63.9806 28.0582 64.4881 27.5894C65.0156 27.1704 65.5811 26.8016 66.1772 26.4879C65.0552 26.0799 63.8476 25.6719 62.6604 25.2109C61.11 24.603 59.5638 23.9869 58.0379 23.3056C55.382 22.1551 53.4032 20.209 51.7142 17.9039C50.7406 16.5521 49.6961 15.2529 48.585 14.0117C46.9716 12.3108 45.028 10.9573 42.8732 10.0339C39.3936 8.3739 35.6503 7.33556 31.8128 6.96588C26.917 6.5579 22.7596 8.18983 19.3081 11.6618C17.3132 13.7732 15.5363 16.0805 14.0043 18.5485C12.9558 20.156 11.8869 21.7512 10.9037 23.3954C9.27173 26.1166 8.52104 29.1071 8.19058 32.2486C7.67862 36.9078 8.21673 41.6225 9.76539 46.0466C11.1199 49.9142 13.1761 53.3372 16.3992 55.9565C19.0348 58.0943 22.0294 59.4202 25.4483 59.5834C29.4465 59.7711 32.5635 58.0821 34.8319 54.8386C36.8961 51.8475 37.8553 48.2314 37.5449 44.6105C37.4589 42.4048 36.8009 40.2593 35.6356 38.3846C35.0209 37.4445 34.3069 36.5732 33.5059 35.7858C30.1092 32.4489 27.6196 28.301 26.2724 23.734C25.7515 21.9857 25.438 20.1823 25.3381 18.3608C25.3381 18.2099 25.3381 18.0589 25.3381 17.9039C25.3381 17.6224 25.4727 17.4388 25.7461 17.447C26.0194 17.4551 26.1541 17.6591 26.1541 17.9284C26.1541 18.1201 26.1541 18.3364 26.1785 18.5077C26.614 24.0369 28.8217 29.2779 32.4737 33.4521C33.1918 34.2967 33.9955 35.0841 34.7625 35.8755C36.4084 37.6292 37.5379 39.8035 38.0264 42.1585C38.6247 44.8987 38.542 47.7438 37.7857 50.4446C37.7857 50.4813 37.7857 50.5221 37.7857 50.4813C38.399 49.7426 39.0499 49.0359 39.7358 48.3639L39.7276 48.3721ZM69.4818 29.3968C69.3993 29.0177 69.232 28.6623 68.9925 28.357C68.753 28.0518 68.4476 27.8048 68.099 27.6344C67.7505 27.4641 67.3679 27.3749 66.9799 27.3734C66.592 27.372 66.2088 27.4584 65.8589 27.6261C63.9945 28.5319 63.1459 31.1348 64.1373 33.0441C64.9532 34.6312 66.3567 35.5369 68.009 36.0469C68.8821 36.3162 69.4084 35.9898 69.7185 35.1167C70.0653 34.1498 69.9959 33.1461 69.9388 32.1466C69.9184 31.8039 69.8449 31.4612 69.796 31.1144H69.8368C69.7266 30.531 69.6124 29.9598 69.49 29.3886L69.4818 29.3968Z" stroke="white" stroke-miterlimit="10"/>
    <path d="M69.8445 31.1225C69.7262 30.5514 69.6119 29.9802 69.4895 29.409C69.407 29.0299 69.2397 28.6745 69.0002 28.3693C68.7607 28.0641 68.4553 27.817 68.1067 27.6467C67.7582 27.4763 67.3756 27.3871 66.9876 27.3856C66.5997 27.3842 66.2165 27.4706 65.8667 27.6384C64.0022 28.5441 63.1536 31.147 64.145 33.0564C64.9609 34.6434 66.3644 35.5491 68.0167 36.0591C68.8898 36.3284 69.4161 36.002 69.7262 35.1289C70.073 34.162 70.0036 33.1584 69.9465 32.1588C69.9261 31.8161 69.8526 31.4734 69.8037 31.1266L69.8445 31.1225Z" fill="#6941C6" stroke="white" stroke-miterlimit="10"/>
    <path d="M45.0069 18.5893C44.4189 18.6732 43.8559 18.8833 43.3566 19.2051C42.8574 19.5269 42.4336 19.9529 42.1143 20.4538C41.7875 20.9541 41.4879 21.4716 41.2167 22.0041C41.1768 22.0528 41.1486 22.11 41.1345 22.1714C41.1203 22.2328 41.1206 22.2966 41.1352 22.3578C41.1498 22.4191 41.1784 22.4761 41.2187 22.5244C41.2591 22.5728 41.3101 22.6111 41.3677 22.6365C41.6614 22.7834 41.8206 22.5998 41.9633 22.3591C42.277 21.785 42.6229 21.2293 42.9996 20.6945C43.3826 20.1303 43.9487 19.7157 44.6022 19.5209C45.2557 19.3261 45.9564 19.3631 46.5858 19.6256C47.5525 19.9878 48.4274 20.559 49.1479 21.2983C49.3642 21.5023 49.5804 21.7063 49.8578 21.4411C50.1352 21.1759 49.9557 20.9107 49.7273 20.6945C48.5523 19.593 47.2794 18.7036 45.5903 18.5771C45.3958 18.5693 45.2009 18.5734 45.0069 18.5893Z" fill="white" stroke="white" stroke-miterlimit="10"/>
    <path d="M35.8594 54.7855C36.912 53.1536 38.3644 51.3789 38.9519 50.4038L35.8594 54.7855Z" fill="#6941C6"/>
    <path d="M35.8594 54.7855C36.912 53.1536 38.3644 51.3789 38.9519 50.4038" stroke="white" stroke-miterlimit="10"/>
</svg>
