<svg width="25" height="25" viewBox="0 0 25 25" fill="none" xmlns="http://www.w3.org/2000/svg">
<g clip-path="url(#clip0_455_4748)">
<path d="M17.5882 14.902C17.2292 13.6008 16.4533 12.4533 15.3794 11.6356C14.3055 10.8178 12.993 10.375 11.6432 10.375C10.2935 10.375 8.98094 10.8178 7.90706 11.6356C6.83319 12.4533 6.05726 13.6008 5.69832 14.902L4.84295 18.0028C4.68936 18.5595 4.66645 19.1442 4.77599 19.7113C4.88553 20.2783 5.12456 20.8124 5.47445 21.2719C5.82434 21.7314 6.27563 22.1038 6.79313 22.3602C7.31064 22.6166 7.88036 22.75 8.4579 22.75H14.8286C15.4061 22.75 15.9758 22.6166 16.4933 22.3602C17.0109 22.1038 17.4621 21.7314 17.812 21.2719C18.1619 20.8124 18.401 20.2783 18.5105 19.7113C18.62 19.1442 18.5971 18.5595 18.4435 18.0028L17.5882 14.902ZM16.6187 20.3629C16.4097 20.6396 16.1391 20.8639 15.8284 21.0178C15.5177 21.1718 15.1754 21.2513 14.8286 21.25H8.4579C8.11137 21.25 7.76953 21.17 7.45902 21.0161C7.14851 20.8623 6.87773 20.6388 6.6678 20.3631C6.45786 20.0874 6.31444 19.767 6.24872 19.4267C6.18299 19.0865 6.19674 18.7357 6.2889 18.4016L7.14427 15.3009C7.41592 14.3162 8.00312 13.4478 8.8158 12.829C9.62849 12.2101 10.6218 11.875 11.6432 11.875C12.6647 11.875 13.658 12.2101 14.4707 12.829C15.2834 13.4478 15.8706 14.3162 16.1422 15.3009L16.9976 18.4016C17.0911 18.7356 17.1055 19.0867 17.0397 19.4271C16.974 19.7676 16.8298 20.0879 16.6187 20.3629ZM6.49168 11.4208C6.62218 10.6052 6.44912 9.73202 6.00418 8.96158C5.55924 8.19114 4.88949 7.60469 4.11807 7.30989C3.29194 6.99438 2.44932 7.04463 1.7446 7.45131C0.343648 8.26019 -0.0250239 10.2537 0.922929 11.8953C1.36773 12.6657 2.03752 13.2523 2.80894 13.547C3.15067 13.6802 3.5139 13.7496 3.88065 13.7519C4.33756 13.7535 4.78674 13.634 5.18241 13.4055C5.88671 12.9988 6.35171 12.2939 6.49168 11.4208ZM5.01043 11.1837C4.9434 11.6022 4.73809 11.9299 4.43232 12.1065C4.12655 12.283 3.74012 12.2969 3.34402 12.1457C2.89341 11.9736 2.49488 11.6183 2.22179 11.1453C1.69679 10.2359 1.82157 9.13905 2.4946 8.75036C2.66379 8.65435 2.85541 8.60489 3.04993 8.60702C3.2324 8.60891 3.41299 8.64412 3.5828 8.71094C4.03341 8.88311 4.43194 9.23838 4.70504 9.71139C4.97813 10.1844 5.08655 10.7074 5.01043 11.1837ZM6.65415 8.3133C7.18674 8.73906 7.79495 8.96078 8.40999 8.96074C8.59422 8.96068 8.77791 8.94086 8.95791 8.90163C10.5387 8.55799 11.4971 6.77149 11.0945 4.91922C10.9056 4.04988 10.4463 3.28717 9.80129 2.7715C9.11059 2.21931 8.29243 2.0103 7.49752 2.18317C5.9168 2.52677 4.95835 4.31327 5.36096 6.16553C5.54991 7.03492 6.00919 7.79763 6.65415 8.3133ZM7.81609 3.64895C7.88897 3.63324 7.96334 3.62538 8.0379 3.62552C8.31671 3.62552 8.60349 3.7346 8.86463 3.94338C9.24137 4.24455 9.51273 4.70435 9.62869 5.23811C9.85182 6.26444 9.39873 7.27099 8.6393 7.43608C8.29426 7.51108 7.92188 7.40664 7.59085 7.14194C7.21412 6.84072 6.94276 6.38092 6.82679 5.8472C6.60362 4.8206 7.05671 3.81405 7.81609 3.64895ZM21.5419 7.45131C20.8374 7.04463 19.9944 6.99438 19.1684 7.30989C18.397 7.60459 17.7272 8.19114 17.2824 8.96158C16.8376 9.73202 16.6645 10.6053 16.7949 11.4208C16.9347 12.2939 17.3996 12.9988 18.1042 13.4055C18.4998 13.634 18.949 13.7536 19.4059 13.7519C19.7727 13.7496 20.1359 13.6802 20.4776 13.547C21.2491 13.2523 21.9188 12.6657 22.3636 11.8953C23.3115 10.2537 22.9428 8.26019 21.5419 7.45131ZM21.0647 11.1453C20.7916 11.6183 20.3931 11.9736 19.9425 12.1457C19.5466 12.297 19.16 12.2831 18.8543 12.1065C18.5485 11.9298 18.3433 11.6022 18.2761 11.1837C18.1999 10.7074 18.3083 10.1846 18.5814 9.71181C18.8546 9.23903 19.2531 8.88353 19.7037 8.71136C19.8735 8.64449 20.0541 8.6092 20.2366 8.60725C20.4311 8.60512 20.6227 8.65458 20.7919 8.75059C21.4649 9.13895 21.5898 10.2357 21.0647 11.1453ZM14.3286 8.90163C14.5086 8.94086 14.6923 8.96068 14.8765 8.96074C15.4915 8.96074 16.0999 8.73906 16.6323 8.3133C17.2773 7.79767 17.7366 7.03492 17.9255 6.16558C18.3281 4.31331 17.3697 2.52681 15.789 2.18322C14.9941 2.01044 14.1759 2.21931 13.4852 2.77155C12.8402 3.28717 12.3809 4.04992 12.192 4.91922C11.7894 6.77149 12.7478 8.55799 14.3286 8.90163ZM13.6578 5.23788C13.7738 4.70411 14.0451 4.24413 14.4219 3.94314C14.683 3.73436 14.9698 3.62528 15.2486 3.62528C15.3231 3.62515 15.3975 3.633 15.4704 3.64872C16.2298 3.81381 16.6829 4.8206 16.4598 5.84669C16.3437 6.38046 16.0724 6.84044 15.6957 7.14147C15.3647 7.40613 14.9926 7.51056 14.6473 7.43561C13.8878 7.27075 13.4347 6.26406 13.6578 5.23788Z" fill="white"/>
</g>
<defs>
<clipPath id="clip0_455_4748">
<rect width="24" height="24" fill="white" transform="translate(0.326626 0.625)"/>
</clipPath>
</defs>
</svg>
