<svg width="24" height="25" viewBox="0 0 24 25" fill="none" xmlns="http://www.w3.org/2000/svg">
<path d="M8.38028 9.04122C9.07627 10.4908 10.0251 11.8495 11.2266 13.0511C12.4282 14.2526 13.7869 15.2014 15.2365 15.8974C15.3612 15.9573 15.4235 15.9872 15.5024 16.0102C15.7828 16.0919 16.127 16.0332 16.3644 15.8632C16.4313 15.8154 16.4884 15.7582 16.6027 15.6439C16.9523 15.2943 17.1271 15.1195 17.3029 15.0052C17.9658 14.5742 18.8204 14.5742 19.4833 15.0052C19.6591 15.1195 19.8339 15.2943 20.1835 15.6439L20.3783 15.8388C20.9098 16.3702 21.1755 16.636 21.3198 16.9213C21.6069 17.4889 21.6069 18.1592 21.3198 18.7267C21.1755 19.0121 20.9098 19.2778 20.3783 19.8093L20.2207 19.9669C19.6911 20.4965 19.4263 20.7613 19.0662 20.9636C18.6667 21.188 18.0462 21.3494 17.588 21.348C17.1751 21.3468 16.8928 21.2667 16.3284 21.1065C13.295 20.2455 10.4326 18.621 8.04466 16.233C5.65668 13.8451 4.03221 10.9827 3.17124 7.9493C3.01103 7.38485 2.93092 7.10263 2.9297 6.68968C2.92833 6.23146 3.08969 5.61097 3.31411 5.21147C3.51636 4.85143 3.78117 4.58662 4.3108 4.057L4.46843 3.89936C4.99987 3.36792 5.2656 3.1022 5.55098 2.95786C6.11854 2.67079 6.7888 2.67079 7.35636 2.95786C7.64174 3.1022 7.90747 3.36792 8.43891 3.89936L8.63378 4.09423C8.98338 4.44384 9.15819 4.61864 9.27247 4.79442C9.70347 5.45731 9.70347 6.31189 9.27247 6.97478C9.15819 7.15056 8.98338 7.32536 8.63378 7.67497C8.51947 7.78928 8.46231 7.84644 8.41447 7.91325C8.24446 8.15068 8.18576 8.49494 8.26748 8.77529C8.29048 8.85418 8.32041 8.91653 8.38028 9.04122Z" stroke="#3C3B41" stroke-width="1.5" stroke-linecap="round" stroke-linejoin="round"/>
</svg>
