<svg width="24" height="25" viewBox="0 0 24 25" fill="none" xmlns="http://www.w3.org/2000/svg">
<rect x="9.01562" y="3.47949" width="5.99142" height="2.01855" rx="1" fill="#6941C6"/>
<path d="M19.4244 5.52637H4.73085L4.54785 21.6055L19.4244 21.7446V5.52637Z" fill="#6941C6"/>
<path d="M16.8706 4.65263C17.9685 4.65234 19.7226 4.46118 20 5.49646C20.1022 5.87796 20 7.5696 20 8.49957V17.6996C20 19.3797 20 20.2198 19.673 20.8615C19.3854 21.426 18.9265 21.885 18.362 22.1726C17.7202 22.4996 16.8802 22.4996 15.2 22.4996H8.8C7.11984 22.4996 6.27976 22.4996 5.63803 22.1726C5.07354 21.885 4.6146 21.426 4.32698 20.8615C4 20.2198 4 19.3797 4 17.6996V8.49957C4 8.00205 4 7.63762 4.01565 7.34785C4.03728 6.94741 4.0481 6.74719 4.05494 6.67881C4.06537 6.57459 4.06197 6.60058 4.07874 6.49718C4.08975 6.42936 4.11322 6.31736 4.16017 6.09338C4.48326 4.55218 6.08255 5.13896 7.05962 4.99647" stroke="#6941C6" stroke-width="2" stroke-linecap="round" stroke-linejoin="round"/>
<path d="M8 4.1C8 3.53995 8 3.25992 8.10899 3.04601C8.20487 2.85785 8.35785 2.70487 8.54601 2.60899C8.75992 2.5 9.03995 2.5 9.6 2.5H14.4C14.9601 2.5 15.2401 2.5 15.454 2.60899C15.6422 2.70487 15.7951 2.85785 15.891 3.04601C16 3.25992 16 3.53995 16 4.1V4.9C16 5.46005 16 5.74008 15.891 5.95399C15.7951 6.14215 15.6422 6.29513 15.454 6.39101C15.2401 6.5 14.9601 6.5 14.4 6.5H9.6C9.03995 6.5 8.75992 6.5 8.54601 6.39101C8.35785 6.29513 8.20487 6.14215 8.10899 5.95399C8 5.74008 8 5.46005 8 4.9V4.1Z" stroke="white" stroke-width="2" stroke-linecap="round" stroke-linejoin="round"/>
<path d="M7 13.5H17" stroke="white" stroke-linecap="round"/>
<path d="M7 15.5H15" stroke="white" stroke-linecap="round"/>
<path d="M7 17.5H13" stroke="white" stroke-linecap="round"/>
</svg>
