<svg width="25" height="24" viewBox="0 0 25 24" fill="none" xmlns="http://www.w3.org/2000/svg">
<path d="M18.5703 8.50965L10.0103 4.22965C4.26026 1.34965 1.90026 3.70965 4.78026 9.45965L5.65026 11.1996C5.90026 11.7096 5.90026 12.2996 5.65026 12.8096L4.78026 14.5396C1.90026 20.2896 4.25026 22.6496 10.0103 19.7696L18.5703 15.4896C22.4103 13.5696 22.4103 10.4296 18.5703 8.50965ZM15.3403 12.7496H9.94026C9.53026 12.7496 9.19026 12.4096 9.19026 11.9996C9.19026 11.5896 9.53026 11.2496 9.94026 11.2496H15.3403C15.7503 11.2496 16.0903 11.5896 16.0903 11.9996C16.0903 12.4096 15.7503 12.7496 15.3403 12.7496Z" fill="#6941C6"/>
</svg>
