<svg width="25" height="25" viewBox="0 0 25 25" fill="none" xmlns="http://www.w3.org/2000/svg">
<path fill-rule="evenodd" clip-rule="evenodd" d="M1.75 2.5C1.75 2.08579 2.08579 1.75 2.5 1.75H4.24001C5.42958 1.75 6.41944 2.5501 6.73293 3.62H19.23C21.333 3.62 22.9396 5.33723 22.788 7.43408L22.2481 14.9339L22.2478 14.9375C22.108 16.7545 20.5257 18.24 18.69 18.24H8.03999C5.96335 18.24 4.32544 16.4669 4.50267 14.3968C4.50264 14.3971 4.50269 14.3965 4.50267 14.3968L5.33259 4.43772C5.38589 3.80412 4.87993 3.25 4.24001 3.25H2.5C2.08579 3.25 1.75 2.91421 1.75 2.5ZM6.78094 5.12L5.99741 14.5223L5.99725 14.5242C5.89508 15.7137 6.83696 16.74 8.03999 16.74H18.69C19.7338 16.74 20.671 15.8664 20.7521 14.8242C20.7521 14.8236 20.7522 14.823 20.7522 14.8225L21.2919 7.32615C21.3804 6.103 20.467 5.12 19.23 5.12H6.78094Z" fill="#A6A5AA"/>
<path fill-rule="evenodd" clip-rule="evenodd" d="M16.75 20.75C16.4739 20.75 16.25 20.9739 16.25 21.25C16.25 21.5261 16.4739 21.75 16.75 21.75C17.0261 21.75 17.25 21.5261 17.25 21.25C17.25 20.9739 17.0261 20.75 16.75 20.75ZM14.75 21.25C14.75 20.1454 15.6454 19.25 16.75 19.25C17.8546 19.25 18.75 20.1454 18.75 21.25C18.75 22.3546 17.8546 23.25 16.75 23.25C15.6454 23.25 14.75 22.3546 14.75 21.25Z" fill="#A6A5AA"/>
<path fill-rule="evenodd" clip-rule="evenodd" d="M8.75 20.75C8.47386 20.75 8.25 20.9739 8.25 21.25C8.25 21.5261 8.47386 21.75 8.75 21.75C9.02614 21.75 9.25 21.5261 9.25 21.25C9.25 20.9739 9.02614 20.75 8.75 20.75ZM6.75 21.25C6.75 20.1454 7.64543 19.25 8.75 19.25C9.85457 19.25 10.75 20.1454 10.75 21.25C10.75 22.3546 9.85457 23.25 8.75 23.25C7.64543 23.25 6.75 22.3546 6.75 21.25Z" fill="#A6A5AA"/>
<path fill-rule="evenodd" clip-rule="evenodd" d="M8.75 8.5C8.75 8.08579 9.08579 7.75 9.5 7.75H21.5C21.9142 7.75 22.25 8.08579 22.25 8.5C22.25 8.91421 21.9142 9.25 21.5 9.25H9.5C9.08579 9.25 8.75 8.91421 8.75 8.5Z" fill="#A6A5AA"/>
</svg>
