<svg width="17" height="18" viewBox="0 0 17 18" fill="none" xmlns="http://www.w3.org/2000/svg">
<g clip-path="url(#clip0_455_4717)">
<path d="M4.42668 16.3451L8.49959 9.29057M12.0413 3.15622C8.98609 1.39232 5.16309 2.16305 3.00718 4.81598C2.79675 5.07492 2.69154 5.20439 2.66093 5.38989C2.63658 5.53748 2.67265 5.73307 2.74806 5.86226C2.84283 6.02464 3.0108 6.12161 3.34674 6.31557L13.6524 12.2656C13.9884 12.4595 14.1564 12.5565 14.3444 12.5574C14.4939 12.5581 14.6814 12.4915 14.797 12.3967C14.9424 12.2774 15.0019 12.1216 15.1209 11.8099C16.3405 8.61631 15.0964 4.92013 12.0413 3.15622ZM12.0413 3.15622C10.6861 2.37382 8.00186 4.486 6.04585 7.8739M12.0413 3.15622C13.3964 3.93863 12.9093 7.31933 10.9533 10.7072M15.5829 16.3739H1.41626" stroke="white" stroke-width="1.5" stroke-linecap="round" stroke-linejoin="round"/>
</g>
<defs>
<clipPath id="clip0_455_4717">
<rect width="17" height="17" fill="white" transform="translate(-0.000488281 0.791016)"/>
</clipPath>
</defs>
</svg>
