<svg width="16" height="16" viewBox="0 0 16 16" fill="none" xmlns="http://www.w3.org/2000/svg">
<path fill-rule="evenodd" clip-rule="evenodd" d="M8.00016 1.83331C5.69898 1.83331 3.8335 3.69879 3.8335 5.99998C3.8335 8.30117 5.69898 10.1666 8.00016 10.1666C10.3013 10.1666 12.1668 8.30117 12.1668 5.99998C12.1668 3.69879 10.3013 1.83331 8.00016 1.83331ZM2.8335 5.99998C2.8335 3.14651 5.14669 0.833313 8.00016 0.833313C10.8536 0.833313 13.1668 3.14651 13.1668 5.99998C13.1668 8.85345 10.8536 11.1666 8.00016 11.1666C5.14669 11.1666 2.8335 8.85345 2.8335 5.99998Z" fill="#C6AC41"/>
<path fill-rule="evenodd" clip-rule="evenodd" d="M8 10.1666C8.27614 10.1666 8.5 10.3905 8.5 10.6666V14.6666C8.5 14.9428 8.27614 15.1666 8 15.1666C7.72386 15.1666 7.5 14.9428 7.5 14.6666V10.6666C7.5 10.3905 7.72386 10.1666 8 10.1666Z" fill="#C6AC41"/>
<path fill-rule="evenodd" clip-rule="evenodd" d="M5.5 12.6666C5.5 12.3905 5.72386 12.1666 6 12.1666H10C10.2761 12.1666 10.5 12.3905 10.5 12.6666C10.5 12.9428 10.2761 13.1666 10 13.1666H6C5.72386 13.1666 5.5 12.9428 5.5 12.6666Z" fill="#C6AC41"/>
</svg>
